G04*
G04 #@! TF.GenerationSoftware,Altium Limited,Altium Designer,24.4.1 (13)*
G04*
G04 Layer_Color=128*
%FSLAX25Y25*%
%MOIN*%
G70*
G04*
G04 #@! TF.SameCoordinates,F927B958-9D11-4E75-AA6B-EB5E4B5E5899*
G04*
G04*
G04 #@! TF.FilePolarity,Positive*
G04*
G01*
G75*
%ADD22R,0.02362X0.03543*%
%ADD23R,0.01181X0.03543*%
G36*
X31593Y13798D02*
X31591Y14266D01*
X31228Y15129D01*
X30564Y15789D01*
X29699Y16145D01*
X28763D01*
X27898Y15789D01*
X27235Y15129D01*
X26872Y14266D01*
X26869Y13798D01*
X26869Y13798D01*
X26869Y9074D01*
X26872Y8606D01*
X27235Y7743D01*
X27898Y7084D01*
X28763Y6727D01*
X29699D01*
X30564Y7084D01*
X31228Y7743D01*
X31591Y8606D01*
X31593Y9074D01*
D01*
Y13798D01*
Y13798D01*
D02*
G37*
G36*
X31574Y28759D02*
Y29229D01*
X31214Y30097D01*
X30550Y30762D01*
X29682Y31122D01*
X28742D01*
X27874Y30762D01*
X27209Y30097D01*
X26849Y29229D01*
Y28759D01*
D01*
Y25609D01*
Y25139D01*
X27209Y24271D01*
X27874Y23607D01*
X28742Y23247D01*
X29682D01*
X30550Y23607D01*
X31214Y24271D01*
X31574Y25139D01*
Y25609D01*
D01*
Y28759D01*
D01*
D02*
G37*
G36*
X75491Y13798D02*
X75486Y14265D01*
X75121Y15124D01*
X74458Y15779D01*
X73595Y16134D01*
X72663D01*
X71800Y15779D01*
X71136Y15124D01*
X70772Y14265D01*
X70767Y13798D01*
X70767D01*
X70767Y9074D01*
X70772Y8608D01*
X71136Y7749D01*
X71800Y7093D01*
X72663Y6738D01*
X73595D01*
X74458Y7093D01*
X75121Y7749D01*
X75486Y8608D01*
X75491Y9074D01*
Y9074D01*
Y13798D01*
D01*
D02*
G37*
G36*
X75511Y28760D02*
Y29230D01*
X75151Y30098D01*
X74487Y30762D01*
X73619Y31122D01*
X72679D01*
X71811Y30762D01*
X71146Y30098D01*
X70786Y29230D01*
Y28760D01*
D01*
Y25610D01*
Y25140D01*
X71146Y24272D01*
X71811Y23608D01*
X72679Y23248D01*
X73619D01*
X74487Y23608D01*
X75151Y24272D01*
X75511Y25140D01*
Y25610D01*
D01*
Y28760D01*
D01*
D02*
G37*
D22*
X63819Y30906D02*
D03*
X60670D02*
D03*
X41693D02*
D03*
X38544D02*
D03*
D23*
X44292D02*
D03*
X46260D02*
D03*
X48229D02*
D03*
X50197D02*
D03*
X52166D02*
D03*
X54134D02*
D03*
X56103D02*
D03*
X58071D02*
D03*
M02*
