G04*
G04 #@! TF.GenerationSoftware,Altium Limited,Altium Designer,24.4.1 (13)*
G04*
G04 Layer_Physical_Order=2*
G04 Layer_Color=16711680*
%FSLAX25Y25*%
%MOIN*%
G70*
G04*
G04 #@! TF.SameCoordinates,F927B958-9D11-4E75-AA6B-EB5E4B5E5899*
G04*
G04*
G04 #@! TF.FilePolarity,Positive*
G04*
G01*
G75*
%ADD17C,0.00591*%
%ADD18C,0.00984*%
%ADD19O,0.04724X0.07874*%
%ADD20O,0.04724X0.09449*%
%ADD21C,0.01378*%
%ADD22R,0.02362X0.03543*%
%ADD23R,0.01181X0.03543*%
G36*
X78740Y3150D02*
X70320D01*
Y28366D01*
X70133Y28818D01*
X69681Y29005D01*
X62441D01*
Y33268D01*
X61774D01*
Y36181D01*
X61689Y36603D01*
X61450Y36961D01*
X57080Y41332D01*
X56722Y41571D01*
X56299Y41655D01*
X45669D01*
X45247Y41571D01*
X44889Y41332D01*
X40912Y37355D01*
X40673Y36997D01*
X40589Y36575D01*
Y33268D01*
X39921D01*
Y29005D01*
X32681D01*
X32229Y28818D01*
X32042Y28366D01*
Y3150D01*
X23622D01*
Y45276D01*
X78740D01*
Y3150D01*
D02*
G37*
D17*
X50000Y36220D02*
X50098Y36122D01*
Y30387D02*
Y36122D01*
X48229Y30295D02*
Y36676D01*
X50000Y38448D02*
Y38583D01*
X48229Y36676D02*
X50000Y38448D01*
X52362D02*
X54134Y36676D01*
Y30289D02*
Y36676D01*
X52362Y38448D02*
Y38583D01*
X50000Y36220D02*
X52362Y38583D01*
X44292Y30906D02*
Y35236D01*
X47638Y38583D01*
X56103Y30906D02*
Y37205D01*
X50098Y30387D02*
X50197Y30289D01*
X52264Y36122D02*
X52362Y36220D01*
X52166Y30295D02*
X52264Y30393D01*
Y36122D01*
X54724Y38583D02*
X54724D01*
X56103Y37205D01*
D18*
X41693Y36575D02*
X45669Y40551D01*
X56299D01*
X60670Y36181D01*
X41693Y30295D02*
Y30906D01*
Y36575D01*
X60670Y30295D02*
Y30906D01*
Y36181D01*
D19*
X73150Y27185D02*
D03*
X29213D02*
D03*
D20*
Y11437D02*
D03*
X73150D02*
D03*
D21*
X38544Y30906D02*
D03*
X50000Y36220D02*
D03*
Y38583D02*
D03*
X41693Y30295D02*
D03*
X60670D02*
D03*
X47638Y38583D02*
D03*
X52362Y36220D02*
D03*
Y38583D02*
D03*
X54724D02*
D03*
X63819Y30906D02*
D03*
D22*
D03*
X60670D02*
D03*
X41693D02*
D03*
X38544D02*
D03*
D23*
X44292D02*
D03*
X46260D02*
D03*
X48229D02*
D03*
X50197D02*
D03*
X52166D02*
D03*
X54134D02*
D03*
X56103D02*
D03*
X58071D02*
D03*
M02*
