G04*
G04 #@! TF.GenerationSoftware,Altium Limited,Altium Designer,24.4.1 (13)*
G04*
G04 Layer_Physical_Order=1*
G04 Layer_Color=255*
%FSLAX25Y25*%
%MOIN*%
G70*
G04*
G04 #@! TF.SameCoordinates,F927B958-9D11-4E75-AA6B-EB5E4B5E5899*
G04*
G04*
G04 #@! TF.FilePolarity,Positive*
G04*
G01*
G75*
%ADD11R,0.02362X0.03937*%
%ADD12R,0.01181X0.03937*%
%ADD17C,0.00591*%
%ADD18C,0.00984*%
%ADD19O,0.04724X0.07874*%
%ADD20O,0.04724X0.09449*%
%ADD21C,0.01378*%
G36*
X78740Y3150D02*
X70320D01*
Y28366D01*
X70133Y28818D01*
X69681Y29005D01*
X61896D01*
X61689Y29505D01*
X61754Y29570D01*
X61949Y30041D01*
Y30550D01*
X61754Y31020D01*
X61394Y31380D01*
X60924Y31575D01*
X60415D01*
X59945Y31380D01*
X59585Y31020D01*
X59390Y30550D01*
Y30041D01*
X59585Y29570D01*
X59650Y29505D01*
X59443Y29005D01*
X42919D01*
X42713Y29504D01*
X42716Y29509D01*
X42777Y29570D01*
X42814Y29660D01*
X42971Y29900D01*
X46162D01*
X46268Y29921D01*
X55315D01*
Y35039D01*
X55037D01*
Y37327D01*
X55449Y37498D01*
X55809Y37858D01*
X56004Y38328D01*
Y38837D01*
X55809Y39307D01*
X55449Y39667D01*
X54979Y39862D01*
X54470D01*
X54000Y39667D01*
X53870Y39538D01*
X53543Y39360D01*
X53217Y39538D01*
X53087Y39667D01*
X52617Y39862D01*
X52108D01*
X51637Y39667D01*
X51508Y39538D01*
X51181Y39360D01*
X50854Y39538D01*
X50725Y39667D01*
X50254Y39862D01*
X49746D01*
X49275Y39667D01*
X49145Y39538D01*
X48819Y39360D01*
X48492Y39538D01*
X48363Y39667D01*
X47892Y39862D01*
X47383D01*
X46913Y39667D01*
X46553Y39307D01*
X46358Y38837D01*
Y38328D01*
X46553Y37858D01*
X46913Y37498D01*
X47325Y37327D01*
Y35039D01*
X45079D01*
Y32108D01*
X42508D01*
X42085Y32024D01*
X41727Y31784D01*
X41517Y31575D01*
X41438D01*
X40968Y31380D01*
X40608Y31020D01*
X40413Y30550D01*
Y30041D01*
X40608Y29570D01*
X40673Y29505D01*
X40466Y29005D01*
X32681D01*
X32229Y28818D01*
X32042Y28366D01*
Y3150D01*
X23622D01*
Y45276D01*
X78740D01*
Y3150D01*
D02*
G37*
D11*
X42323Y42323D02*
D03*
X60039D02*
D03*
D12*
X56102Y32480D02*
D03*
X54134D02*
D03*
X52165D02*
D03*
X50197D02*
D03*
X48228D02*
D03*
X46260D02*
D03*
D17*
X50099Y32579D02*
X50197Y32480D01*
X50000Y36220D02*
X50099Y36122D01*
Y32579D02*
Y36122D01*
X52165Y32480D02*
X52264Y32579D01*
Y36122D02*
X52362Y36220D01*
X52264Y32579D02*
Y36122D01*
X50000Y38583D02*
X52362Y36220D01*
X47638Y38583D02*
X47638D01*
X48228Y32480D02*
Y37779D01*
X47638Y38583D02*
X47796Y38425D01*
X47789Y38219D02*
Y38418D01*
Y38219D02*
X48228Y37779D01*
X47789Y38418D02*
X47796Y38425D01*
X54134Y32480D02*
Y37779D01*
X54724Y38370D02*
Y38583D01*
X54134Y37779D02*
X54724Y38370D01*
D18*
X41693Y30295D02*
X41799D01*
X46162Y31004D02*
X46260Y31102D01*
Y32480D01*
X41799Y30295D02*
X42508Y31004D01*
X46162D01*
D19*
X73150Y27185D02*
D03*
X29213D02*
D03*
D20*
Y11437D02*
D03*
X73150D02*
D03*
D21*
X38544Y30906D02*
D03*
X50000Y36220D02*
D03*
Y38583D02*
D03*
X41693Y30295D02*
D03*
X60670D02*
D03*
X47638Y38583D02*
D03*
X52362Y36220D02*
D03*
Y38583D02*
D03*
X54724D02*
D03*
X63819Y30906D02*
D03*
M02*
