G04*
G04 #@! TF.GenerationSoftware,Altium Limited,Altium Designer,24.4.1 (13)*
G04*
G04 Layer_Color=32896*
%FSLAX25Y25*%
%MOIN*%
G70*
G04*
G04 #@! TF.SameCoordinates,F927B958-9D11-4E75-AA6B-EB5E4B5E5899*
G04*
G04*
G04 #@! TF.FilePolarity,Positive*
G04*
G01*
G75*
%ADD10C,0.01000*%
G36*
X34703Y41736D02*
X34752Y41733D01*
X34845Y41717D01*
X34929Y41695D01*
X34968Y41681D01*
X35003Y41667D01*
X35036Y41654D01*
X35063Y41640D01*
X35088Y41629D01*
X35110Y41618D01*
X35126Y41610D01*
X35137Y41602D01*
X35145Y41599D01*
X35148Y41596D01*
X35189Y41569D01*
X35230Y41536D01*
X35268Y41501D01*
X35309Y41465D01*
X35383Y41389D01*
X35448Y41310D01*
X35478Y41274D01*
X35503Y41241D01*
X35527Y41209D01*
X35546Y41184D01*
X35563Y41160D01*
X35574Y41143D01*
X35582Y41132D01*
X35585Y41130D01*
X35481Y41078D01*
X35429Y41143D01*
X35380Y41198D01*
X35336Y41241D01*
X35295Y41280D01*
X35265Y41307D01*
X35241Y41326D01*
X35224Y41337D01*
X35219Y41340D01*
X35172Y41364D01*
X35126Y41383D01*
X35080Y41397D01*
X35039Y41408D01*
X35003Y41414D01*
X34976Y41416D01*
X34918D01*
X34886Y41411D01*
X34828Y41397D01*
X34776Y41378D01*
X34733Y41356D01*
X34697Y41332D01*
X34670Y41313D01*
X34654Y41299D01*
X34648Y41296D01*
Y41293D01*
X34626Y41269D01*
X34607Y41244D01*
X34577Y41195D01*
X34555Y41146D01*
X34542Y41100D01*
X34531Y41059D01*
X34528Y41042D01*
Y41029D01*
X34525Y41015D01*
Y41007D01*
Y41001D01*
Y40999D01*
X34528Y40960D01*
X34531Y40925D01*
X34547Y40857D01*
X34566Y40794D01*
X34591Y40736D01*
X34604Y40712D01*
X34615Y40690D01*
X34629Y40671D01*
X34637Y40655D01*
X34646Y40641D01*
X34654Y40633D01*
X34656Y40627D01*
X34659Y40624D01*
X34686Y40592D01*
X34716Y40562D01*
X34782Y40504D01*
X34853Y40453D01*
X34924Y40409D01*
X34959Y40390D01*
X34990Y40371D01*
X35017Y40357D01*
X35041Y40343D01*
X35063Y40335D01*
X35077Y40327D01*
X35088Y40324D01*
X35091Y40321D01*
X35134Y40302D01*
X35178Y40286D01*
X35276Y40256D01*
X35372Y40229D01*
X35465Y40207D01*
X35508Y40199D01*
X35549Y40190D01*
X35585Y40185D01*
X35615Y40179D01*
X35639Y40174D01*
X35658Y40171D01*
X35669Y40169D01*
X35675D01*
X35708Y40057D01*
X35653Y40049D01*
X35604Y40040D01*
X35555Y40029D01*
X35508Y40021D01*
X35467Y40007D01*
X35429Y39997D01*
X35394Y39986D01*
X35361Y39975D01*
X35331Y39964D01*
X35306Y39953D01*
X35284Y39942D01*
X35268Y39934D01*
X35254Y39928D01*
X35243Y39923D01*
X35238Y39917D01*
X35235D01*
X35170Y39874D01*
X35112Y39825D01*
X35063Y39773D01*
X35019Y39724D01*
X34987Y39677D01*
X34973Y39655D01*
X34962Y39639D01*
X34951Y39623D01*
X34946Y39612D01*
X34940Y39606D01*
Y39603D01*
X34918Y39562D01*
X34902Y39522D01*
X34872Y39437D01*
X34850Y39352D01*
X34837Y39276D01*
X34834Y39240D01*
X34828Y39208D01*
X34826Y39180D01*
Y39156D01*
X34823Y39134D01*
Y39120D01*
Y39109D01*
Y39107D01*
X34826Y39041D01*
X34831Y38976D01*
X34839Y38916D01*
X34850Y38858D01*
X34864Y38806D01*
X34880Y38754D01*
X34897Y38711D01*
X34913Y38667D01*
X34929Y38629D01*
X34946Y38596D01*
X34962Y38569D01*
X34976Y38544D01*
X34987Y38525D01*
X34995Y38511D01*
X35000Y38503D01*
X35003Y38501D01*
X35028Y38473D01*
X35050Y38449D01*
X35074Y38427D01*
X35099Y38408D01*
X35123Y38391D01*
X35148Y38378D01*
X35192Y38359D01*
X35230Y38348D01*
X35260Y38342D01*
X35271Y38339D01*
X35287D01*
X35312Y38342D01*
X35339Y38345D01*
X35394Y38361D01*
X35448Y38383D01*
X35500Y38408D01*
X35546Y38432D01*
X35568Y38443D01*
X35585Y38451D01*
X35598Y38462D01*
X35609Y38468D01*
X35615Y38471D01*
X35617Y38473D01*
X35686Y38520D01*
X35746Y38558D01*
X35798Y38588D01*
X35838Y38610D01*
X35871Y38629D01*
X35893Y38640D01*
X35907Y38645D01*
X35912Y38648D01*
X35956Y38664D01*
X35994Y38673D01*
X36011Y38675D01*
X36032D01*
X36076Y38673D01*
X36114Y38664D01*
X36150Y38651D01*
X36180Y38637D01*
X36204Y38621D01*
X36221Y38610D01*
X36234Y38599D01*
X36237Y38596D01*
X36264Y38566D01*
X36283Y38533D01*
X36300Y38501D01*
X36308Y38468D01*
X36314Y38440D01*
X36316Y38419D01*
X36319Y38405D01*
Y38402D01*
Y38400D01*
X36314Y38353D01*
X36303Y38309D01*
X36286Y38274D01*
X36264Y38241D01*
X36245Y38217D01*
X36229Y38197D01*
X36218Y38187D01*
X36213Y38184D01*
X36180Y38165D01*
X36147Y38146D01*
X36070Y38118D01*
X35991Y38096D01*
X35915Y38083D01*
X35879Y38080D01*
X35847Y38075D01*
X35817Y38072D01*
X35792D01*
X35770Y38069D01*
X35740D01*
X35631Y38072D01*
X35527Y38083D01*
X35429Y38099D01*
X35333Y38121D01*
X35243Y38148D01*
X35159Y38176D01*
X35080Y38206D01*
X35009Y38238D01*
X34943Y38269D01*
X34886Y38299D01*
X34834Y38329D01*
X34793Y38353D01*
X34757Y38375D01*
X34733Y38391D01*
X34719Y38402D01*
X34714Y38405D01*
X34665Y38443D01*
X34621Y38482D01*
X34577Y38522D01*
X34539Y38563D01*
X34501Y38604D01*
X34468Y38648D01*
X34405Y38733D01*
X34353Y38817D01*
X34312Y38902D01*
X34277Y38984D01*
X34247Y39063D01*
X34225Y39137D01*
X34209Y39202D01*
X34198Y39265D01*
X34190Y39317D01*
X34184Y39358D01*
Y39377D01*
X34181Y39391D01*
Y39402D01*
Y39410D01*
Y39415D01*
Y39418D01*
X34184Y39478D01*
X34190Y39535D01*
X34198Y39593D01*
X34209Y39644D01*
X34222Y39694D01*
X34236Y39740D01*
X34252Y39781D01*
X34269Y39822D01*
X34285Y39855D01*
X34301Y39887D01*
X34315Y39915D01*
X34329Y39937D01*
X34340Y39953D01*
X34348Y39967D01*
X34353Y39975D01*
X34356Y39977D01*
X34381Y40007D01*
X34408Y40035D01*
X34468Y40087D01*
X34536Y40136D01*
X34602Y40177D01*
X34662Y40210D01*
X34689Y40226D01*
X34714Y40237D01*
X34733Y40245D01*
X34747Y40253D01*
X34757Y40259D01*
X34760D01*
X34703Y40275D01*
X34648Y40291D01*
X34599Y40308D01*
X34553Y40324D01*
X34512Y40338D01*
X34473Y40352D01*
X34441Y40365D01*
X34408Y40379D01*
X34383Y40390D01*
X34359Y40401D01*
X34340Y40412D01*
X34323Y40420D01*
X34312Y40425D01*
X34304Y40431D01*
X34299Y40433D01*
X34296D01*
X34225Y40477D01*
X34162Y40523D01*
X34110Y40570D01*
X34067Y40614D01*
X34034Y40649D01*
X34009Y40679D01*
X34001Y40690D01*
X33996Y40698D01*
X33990Y40704D01*
Y40706D01*
X33955Y40769D01*
X33928Y40832D01*
X33908Y40895D01*
X33898Y40955D01*
X33889Y41004D01*
X33887Y41026D01*
Y41045D01*
X33884Y41059D01*
Y41072D01*
Y41078D01*
Y41080D01*
X33887Y41130D01*
X33892Y41179D01*
X33903Y41222D01*
X33917Y41266D01*
X33933Y41307D01*
X33952Y41345D01*
X33971Y41381D01*
X33990Y41414D01*
X34012Y41443D01*
X34031Y41468D01*
X34050Y41493D01*
X34067Y41509D01*
X34080Y41525D01*
X34091Y41536D01*
X34097Y41542D01*
X34100Y41544D01*
X34140Y41580D01*
X34184Y41607D01*
X34231Y41635D01*
X34277Y41657D01*
X34323Y41676D01*
X34367Y41692D01*
X34413Y41703D01*
X34457Y41714D01*
X34498Y41722D01*
X34534Y41727D01*
X34569Y41733D01*
X34596Y41736D01*
X34621Y41738D01*
X34654D01*
X34703Y41736D01*
D02*
G37*
G36*
X41604Y41741D02*
X41656Y41727D01*
X41702Y41711D01*
X41743Y41689D01*
X41774Y41667D01*
X41798Y41651D01*
X41812Y41637D01*
X41817Y41632D01*
X41853Y41588D01*
X41880Y41542D01*
X41899Y41498D01*
X41913Y41454D01*
X41921Y41419D01*
X41924Y41389D01*
X41926Y41378D01*
Y41370D01*
Y41364D01*
Y41362D01*
X41921Y41304D01*
X41910Y41252D01*
X41891Y41206D01*
X41872Y41168D01*
X41853Y41135D01*
X41834Y41110D01*
X41823Y41097D01*
X41817Y41091D01*
X41774Y41053D01*
X41727Y41026D01*
X41683Y41007D01*
X41640Y40993D01*
X41601Y40985D01*
X41574Y40982D01*
X41563Y40979D01*
X41547D01*
X41490Y40985D01*
X41438Y40996D01*
X41391Y41015D01*
X41353Y41037D01*
X41320Y41056D01*
X41296Y41075D01*
X41282Y41086D01*
X41277Y41091D01*
X41238Y41135D01*
X41211Y41181D01*
X41192Y41225D01*
X41178Y41269D01*
X41170Y41307D01*
X41168Y41334D01*
X41165Y41345D01*
Y41353D01*
Y41359D01*
Y41362D01*
X41170Y41419D01*
X41181Y41471D01*
X41200Y41517D01*
X41219Y41555D01*
X41241Y41588D01*
X41260Y41613D01*
X41271Y41626D01*
X41277Y41632D01*
X41320Y41670D01*
X41364Y41697D01*
X41410Y41719D01*
X41451Y41733D01*
X41490Y41741D01*
X41520Y41744D01*
X41530Y41747D01*
X41547D01*
X41604Y41741D01*
D02*
G37*
G36*
X63368Y41741D02*
X63420Y41727D01*
X63469Y41711D01*
X63507Y41689D01*
X63540Y41667D01*
X63564Y41651D01*
X63578Y41637D01*
X63583Y41632D01*
X63622Y41588D01*
X63649Y41542D01*
X63668Y41495D01*
X63682Y41454D01*
X63690Y41416D01*
X63693Y41386D01*
X63695Y41375D01*
Y41367D01*
Y41362D01*
Y41359D01*
X63690Y41302D01*
X63679Y41250D01*
X63660Y41201D01*
X63638Y41162D01*
X63619Y41130D01*
X63600Y41105D01*
X63589Y41091D01*
X63583Y41086D01*
X63540Y41048D01*
X63493Y41020D01*
X63447Y41001D01*
X63406Y40988D01*
X63368Y40979D01*
X63338Y40977D01*
X63327Y40974D01*
X63310D01*
X63253Y40979D01*
X63199Y40990D01*
X63152Y41009D01*
X63114Y41031D01*
X63081Y41050D01*
X63057Y41069D01*
X63043Y41080D01*
X63038Y41086D01*
X62999Y41130D01*
X62972Y41176D01*
X62950Y41222D01*
X62937Y41263D01*
X62928Y41302D01*
X62926Y41332D01*
X62923Y41342D01*
Y41351D01*
Y41356D01*
Y41359D01*
X62928Y41416D01*
X62939Y41471D01*
X62958Y41517D01*
X62977Y41556D01*
X62999Y41588D01*
X63018Y41613D01*
X63029Y41626D01*
X63035Y41632D01*
X63078Y41670D01*
X63125Y41697D01*
X63171Y41719D01*
X63215Y41733D01*
X63253Y41741D01*
X63283Y41744D01*
X63294Y41747D01*
X63310D01*
X63368Y41741D01*
D02*
G37*
G36*
X50780Y40551D02*
X50832Y40543D01*
X50881Y40532D01*
X50930Y40515D01*
X50979Y40499D01*
X51025Y40477D01*
X51069Y40455D01*
X51113Y40433D01*
X51151Y40412D01*
X51187Y40390D01*
X51217Y40368D01*
X51244Y40352D01*
X51266Y40335D01*
X51282Y40324D01*
X51293Y40316D01*
X51296Y40313D01*
X51361Y40256D01*
X51427Y40199D01*
X51487Y40136D01*
X51542Y40073D01*
X51593Y40007D01*
X51643Y39945D01*
X51686Y39882D01*
X51727Y39822D01*
X51763Y39767D01*
X51795Y39715D01*
X51823Y39669D01*
X51845Y39628D01*
X51864Y39595D01*
X51875Y39571D01*
X51883Y39554D01*
X51885Y39552D01*
Y39549D01*
X51924Y39461D01*
X51959Y39377D01*
X51989Y39295D01*
X52014Y39219D01*
X52036Y39145D01*
X52055Y39077D01*
X52068Y39011D01*
X52082Y38954D01*
X52090Y38899D01*
X52098Y38853D01*
X52101Y38809D01*
X52107Y38776D01*
Y38749D01*
X52109Y38727D01*
Y38716D01*
Y38711D01*
X52104Y38621D01*
X52093Y38536D01*
X52077Y38460D01*
X52066Y38427D01*
X52055Y38394D01*
X52047Y38367D01*
X52036Y38342D01*
X52027Y38320D01*
X52019Y38301D01*
X52014Y38285D01*
X52008Y38274D01*
X52003Y38269D01*
Y38266D01*
X51981Y38233D01*
X51956Y38203D01*
X51932Y38176D01*
X51904Y38154D01*
X51875Y38135D01*
X51847Y38118D01*
X51820Y38107D01*
X51790Y38096D01*
X51741Y38083D01*
X51716Y38077D01*
X51697Y38075D01*
X51681Y38072D01*
X51659D01*
X51626Y38075D01*
X51591Y38077D01*
X51528Y38091D01*
X51471Y38110D01*
X51419Y38135D01*
X51375Y38157D01*
X51359Y38168D01*
X51342Y38176D01*
X51331Y38184D01*
X51323Y38189D01*
X51318Y38195D01*
X51315D01*
X51263Y38238D01*
X51211Y38288D01*
X51157Y38342D01*
X51107Y38400D01*
X51009Y38522D01*
X50963Y38583D01*
X50919Y38642D01*
X50881Y38700D01*
X50843Y38752D01*
X50813Y38801D01*
X50785Y38842D01*
X50763Y38877D01*
X50747Y38905D01*
X50736Y38921D01*
X50735Y38923D01*
X50796Y38716D01*
X50810Y38667D01*
X50823Y38621D01*
X50834Y38580D01*
X50845Y38541D01*
X50854Y38506D01*
X50859Y38476D01*
X50864Y38449D01*
X50870Y38424D01*
X50873Y38405D01*
X50875Y38386D01*
X50878Y38372D01*
Y38359D01*
X50881Y38350D01*
Y38345D01*
Y38339D01*
X50878Y38299D01*
X50870Y38260D01*
X50856Y38228D01*
X50843Y38198D01*
X50829Y38176D01*
X50815Y38159D01*
X50807Y38148D01*
X50804Y38146D01*
X50772Y38121D01*
X50736Y38102D01*
X50698Y38091D01*
X50662Y38080D01*
X50630Y38075D01*
X50602Y38072D01*
X50578D01*
X50531Y38075D01*
X50488Y38077D01*
X50403Y38096D01*
X50327Y38121D01*
X50291Y38135D01*
X50261Y38148D01*
X50231Y38162D01*
X50204Y38176D01*
X50182Y38189D01*
X50160Y38200D01*
X50146Y38211D01*
X50133Y38219D01*
X50127Y38222D01*
X50125Y38225D01*
X50086Y38255D01*
X50048Y38290D01*
X50010Y38326D01*
X49974Y38367D01*
X49909Y38446D01*
X49849Y38528D01*
X49824Y38563D01*
X49800Y38599D01*
X49781Y38632D01*
X49764Y38659D01*
X49751Y38681D01*
X49740Y38700D01*
X49734Y38711D01*
X49731Y38713D01*
X49822Y38763D01*
X49849Y38727D01*
X49871Y38694D01*
X49893Y38664D01*
X49912Y38640D01*
X49931Y38615D01*
X49944Y38596D01*
X49958Y38580D01*
X49969Y38566D01*
X49988Y38544D01*
X49999Y38531D01*
X50005Y38525D01*
X50007Y38522D01*
X50043Y38495D01*
X50073Y38476D01*
X50100Y38460D01*
X50119Y38451D01*
X50138Y38446D01*
X50149Y38443D01*
X50157Y38440D01*
X50160D01*
X50177Y38443D01*
X50190Y38451D01*
X50201Y38460D01*
X50207Y38462D01*
X50220Y38482D01*
X50226Y38498D01*
X50228Y38511D01*
Y38517D01*
X50226Y38533D01*
X50223Y38552D01*
X50220Y38569D01*
Y38572D01*
Y38574D01*
X50165Y38785D01*
X49655Y40515D01*
X50269Y40480D01*
X50365Y40160D01*
X50373Y40201D01*
X50381Y40237D01*
X50392Y40272D01*
X50403Y40302D01*
X50414Y40332D01*
X50425Y40357D01*
X50436Y40379D01*
X50447Y40398D01*
X50466Y40431D01*
X50482Y40453D01*
X50493Y40466D01*
X50496Y40469D01*
X50531Y40496D01*
X50570Y40518D01*
X50608Y40532D01*
X50646Y40543D01*
X50679Y40548D01*
X50706Y40554D01*
X50731D01*
X50780Y40551D01*
D02*
G37*
G36*
X54831Y41572D02*
X54793Y41564D01*
X54757Y41556D01*
X54725Y41544D01*
X54695Y41534D01*
X54667Y41523D01*
X54646Y41512D01*
X54605Y41490D01*
X54575Y41471D01*
X54553Y41454D01*
X54539Y41443D01*
X54536Y41438D01*
X54517Y41414D01*
X54498Y41383D01*
X54479Y41351D01*
X54463Y41315D01*
X54432Y41239D01*
X54405Y41165D01*
X54394Y41127D01*
X54386Y41094D01*
X54375Y41064D01*
X54370Y41037D01*
X54364Y41015D01*
X54359Y40996D01*
X54356Y40985D01*
Y40982D01*
X54058Y39699D01*
X54296Y38768D01*
X54310Y38719D01*
X54326Y38675D01*
X54337Y38637D01*
X54351Y38602D01*
X54361Y38572D01*
X54370Y38544D01*
X54381Y38520D01*
X54389Y38501D01*
X54394Y38484D01*
X54403Y38471D01*
X54408Y38457D01*
X54411Y38449D01*
X54416Y38438D01*
X54419Y38435D01*
X54443Y38405D01*
X54474Y38375D01*
X54504Y38350D01*
X54531Y38331D01*
X54558Y38312D01*
X54580Y38301D01*
X54594Y38293D01*
X54596Y38290D01*
X54599D01*
X54648Y38271D01*
X54700Y38260D01*
X54752Y38249D01*
X54801Y38244D01*
X54848Y38241D01*
X54867Y38238D01*
X54916D01*
X54943Y38143D01*
X53149D01*
X53119Y38238D01*
X53218D01*
X53289Y38241D01*
X53349Y38249D01*
X53398Y38260D01*
X53439Y38274D01*
X53469Y38288D01*
X53491Y38299D01*
X53502Y38307D01*
X53507Y38309D01*
X53534Y38339D01*
X53556Y38370D01*
X53570Y38400D01*
X53581Y38430D01*
X53586Y38457D01*
X53589Y38476D01*
X53592Y38490D01*
Y38495D01*
Y38506D01*
X53589Y38520D01*
X53584Y38539D01*
X53581Y38558D01*
X53567Y38607D01*
X53553Y38659D01*
X53543Y38708D01*
X53534Y38730D01*
X53529Y38749D01*
X53523Y38765D01*
X53521Y38779D01*
X53518Y38787D01*
Y38790D01*
X53311Y39606D01*
X52306Y40982D01*
X52251Y41056D01*
X52202Y41124D01*
X52156Y41184D01*
X52115Y41236D01*
X52077Y41282D01*
X52044Y41323D01*
X52014Y41356D01*
X51989Y41386D01*
X51967Y41411D01*
X51948Y41430D01*
X51932Y41446D01*
X51921Y41457D01*
X51910Y41465D01*
X51904Y41474D01*
X51899Y41476D01*
X51858Y41504D01*
X51815Y41525D01*
X51774Y41542D01*
X51735Y41553D01*
X51700Y41564D01*
X51675Y41569D01*
X51664D01*
X51656Y41572D01*
X51651D01*
Y41667D01*
X52710D01*
X52737Y41572D01*
X52683Y41564D01*
X52636Y41550D01*
X52598Y41536D01*
X52568Y41520D01*
X52543Y41506D01*
X52527Y41493D01*
X52516Y41484D01*
X52513Y41482D01*
X52489Y41454D01*
X52472Y41427D01*
X52459Y41400D01*
X52451Y41372D01*
X52445Y41351D01*
X52442Y41334D01*
Y41323D01*
Y41318D01*
X52445Y41282D01*
X52451Y41244D01*
X52459Y41209D01*
X52470Y41173D01*
X52481Y41143D01*
X52489Y41121D01*
X52494Y41105D01*
X52497Y41102D01*
Y41100D01*
X52508Y41075D01*
X52524Y41045D01*
X52543Y41015D01*
X52562Y40982D01*
X52606Y40911D01*
X52653Y40843D01*
X52677Y40810D01*
X52699Y40777D01*
X52718Y40750D01*
X52735Y40725D01*
X52748Y40704D01*
X52759Y40690D01*
X52767Y40679D01*
X52770Y40676D01*
X53338Y39898D01*
X53567Y40933D01*
X53575Y40971D01*
X53584Y41007D01*
X53589Y41039D01*
X53594Y41069D01*
X53603Y41121D01*
X53608Y41162D01*
X53611Y41195D01*
X53614Y41217D01*
Y41231D01*
Y41233D01*
X53608Y41282D01*
X53597Y41329D01*
X53578Y41370D01*
X53556Y41403D01*
X53537Y41433D01*
X53518Y41452D01*
X53507Y41465D01*
X53502Y41471D01*
X53480Y41490D01*
X53455Y41504D01*
X53398Y41528D01*
X53338Y41547D01*
X53281Y41558D01*
X53226Y41566D01*
X53201Y41569D01*
X53182D01*
X53166Y41572D01*
X53141D01*
X53111Y41667D01*
X54801D01*
X54831Y41572D01*
D02*
G37*
G36*
X49164Y40398D02*
X49191Y40300D01*
X49142D01*
X49104Y40297D01*
X49071Y40294D01*
X49044Y40292D01*
X49024Y40286D01*
X49014Y40283D01*
X49005Y40281D01*
X49003D01*
X48983Y40275D01*
X48970Y40267D01*
X48945Y40251D01*
X48934Y40240D01*
X48929Y40237D01*
Y40234D01*
X48915Y40210D01*
X48907Y40185D01*
X48904Y40174D01*
Y40166D01*
Y40160D01*
Y40158D01*
X48907Y40136D01*
X48910Y40111D01*
X48921Y40057D01*
X48932Y39999D01*
X48945Y39942D01*
X48959Y39890D01*
X48964Y39866D01*
X48970Y39847D01*
X48975Y39830D01*
X48978Y39816D01*
X48981Y39808D01*
Y39805D01*
X49483Y38143D01*
X48817D01*
X48593Y38913D01*
X48525Y39036D01*
X48457Y39153D01*
X48388Y39262D01*
X48320Y39360D01*
X48254Y39453D01*
X48192Y39538D01*
X48132Y39614D01*
X48077Y39683D01*
X48025Y39743D01*
X47979Y39795D01*
X47935Y39838D01*
X47902Y39874D01*
X47872Y39904D01*
X47850Y39923D01*
X47840Y39937D01*
X47834Y39939D01*
X47807Y39964D01*
X47780Y39986D01*
X47752Y40002D01*
X47728Y40018D01*
X47684Y40043D01*
X47646Y40059D01*
X47616Y40068D01*
X47591Y40073D01*
X47578Y40076D01*
X47572D01*
X47548Y40073D01*
X47528Y40065D01*
X47517Y40054D01*
X47512Y40051D01*
X47498Y40035D01*
X47490Y40018D01*
X47487Y40007D01*
Y40002D01*
X47490Y39980D01*
X47493Y39956D01*
X47504Y39901D01*
X47512Y39879D01*
X47517Y39860D01*
X47520Y39847D01*
X47523Y39841D01*
X47875Y38727D01*
X47897Y38651D01*
X47913Y38585D01*
X47927Y38531D01*
X47935Y38484D01*
X47941Y38449D01*
X47943Y38424D01*
Y38408D01*
Y38402D01*
X47941Y38359D01*
X47930Y38318D01*
X47916Y38282D01*
X47897Y38252D01*
X47881Y38228D01*
X47867Y38208D01*
X47856Y38198D01*
X47853Y38195D01*
X47815Y38168D01*
X47774Y38148D01*
X47733Y38132D01*
X47692Y38124D01*
X47654Y38118D01*
X47627Y38116D01*
X47616Y38113D01*
X47599D01*
X47558Y38116D01*
X47520Y38121D01*
X47482Y38129D01*
X47444Y38140D01*
X47405Y38154D01*
X47367Y38170D01*
X47294Y38211D01*
X47225Y38260D01*
X47157Y38312D01*
X47094Y38370D01*
X47037Y38430D01*
X46982Y38487D01*
X46936Y38544D01*
X46892Y38596D01*
X46857Y38645D01*
X46830Y38686D01*
X46819Y38703D01*
X46808Y38716D01*
X46802Y38727D01*
X46797Y38735D01*
X46791Y38741D01*
Y38743D01*
X46889Y38804D01*
X46909Y38779D01*
X46922Y38754D01*
X46936Y38738D01*
X46947Y38722D01*
X46955Y38711D01*
X46960Y38700D01*
X46966Y38697D01*
Y38694D01*
X47001Y38645D01*
X47034Y38604D01*
X47064Y38569D01*
X47094Y38539D01*
X47116Y38514D01*
X47135Y38498D01*
X47146Y38487D01*
X47152Y38484D01*
X47171Y38471D01*
X47190Y38465D01*
X47201Y38462D01*
X47206D01*
X47220Y38465D01*
X47234Y38473D01*
X47244Y38482D01*
X47247Y38484D01*
X47258Y38501D01*
X47264Y38517D01*
X47266Y38528D01*
Y38531D01*
X47264Y38552D01*
X47258Y38580D01*
X47253Y38610D01*
X47242Y38642D01*
X47234Y38670D01*
X47228Y38697D01*
X47223Y38713D01*
X47220Y38716D01*
Y38719D01*
X46865Y39811D01*
X46843Y39885D01*
X46827Y39953D01*
X46816Y40010D01*
X46808Y40062D01*
X46802Y40103D01*
Y40119D01*
X46799Y40133D01*
Y40144D01*
Y40152D01*
Y40155D01*
Y40158D01*
X46805Y40220D01*
X46816Y40278D01*
X46832Y40327D01*
X46851Y40368D01*
X46870Y40401D01*
X46887Y40425D01*
X46898Y40439D01*
X46903Y40444D01*
X46941Y40480D01*
X46982Y40507D01*
X47023Y40526D01*
X47061Y40540D01*
X47097Y40548D01*
X47122Y40551D01*
X47133Y40554D01*
X47146D01*
X47206Y40551D01*
X47266Y40540D01*
X47324Y40523D01*
X47376Y40507D01*
X47422Y40488D01*
X47441Y40480D01*
X47457Y40474D01*
X47468Y40466D01*
X47479Y40464D01*
X47485Y40458D01*
X47487D01*
X47523Y40439D01*
X47558Y40417D01*
X47632Y40365D01*
X47703Y40305D01*
X47771Y40248D01*
X47801Y40220D01*
X47831Y40193D01*
X47856Y40169D01*
X47878Y40147D01*
X47894Y40130D01*
X47908Y40117D01*
X47916Y40109D01*
X47919Y40106D01*
X47951Y40068D01*
X47990Y40027D01*
X48031Y39977D01*
X48072Y39926D01*
X48156Y39816D01*
X48241Y39704D01*
X48279Y39650D01*
X48317Y39601D01*
X48350Y39557D01*
X48377Y39516D01*
X48402Y39483D01*
X48418Y39459D01*
X48432Y39442D01*
X48434Y39441D01*
X48102Y40554D01*
X48263D01*
X49164Y40398D01*
D02*
G37*
G36*
X39303Y41572D02*
X39270Y41569D01*
X39237Y41564D01*
X39186Y41553D01*
X39142Y41539D01*
X39106Y41525D01*
X39079Y41512D01*
X39063Y41501D01*
X39052Y41493D01*
X39049Y41490D01*
X39024Y41463D01*
X39008Y41427D01*
X38994Y41392D01*
X38986Y41359D01*
X38981Y41326D01*
X38978Y41302D01*
Y41291D01*
Y41282D01*
Y41280D01*
Y41277D01*
Y41271D01*
Y41263D01*
Y41247D01*
Y41231D01*
X38981Y41209D01*
Y41187D01*
Y41138D01*
X38984Y41089D01*
Y41067D01*
Y41048D01*
X38986Y41031D01*
Y41018D01*
Y41009D01*
Y41007D01*
X39104Y38064D01*
X38992D01*
X36360Y41116D01*
X36316Y41165D01*
X36275Y41212D01*
X36240Y41252D01*
X36204Y41291D01*
X36172Y41323D01*
X36144Y41353D01*
X36117Y41378D01*
X36095Y41403D01*
X36073Y41422D01*
X36057Y41438D01*
X36040Y41452D01*
X36030Y41463D01*
X36019Y41468D01*
X36013Y41476D01*
X36008Y41479D01*
X35975Y41501D01*
X35942Y41520D01*
X35910Y41534D01*
X35877Y41547D01*
X35849Y41558D01*
X35825Y41566D01*
X35811Y41569D01*
X35806Y41572D01*
Y41667D01*
X36778D01*
X36813Y41572D01*
X36759Y41561D01*
X36712Y41547D01*
X36674Y41534D01*
X36644Y41523D01*
X36622Y41512D01*
X36606Y41501D01*
X36597Y41495D01*
X36595Y41493D01*
X36576Y41473D01*
X36562Y41454D01*
X36551Y41435D01*
X36546Y41416D01*
X36540Y41403D01*
X36537Y41389D01*
Y41381D01*
Y41378D01*
X36540Y41345D01*
X36548Y41310D01*
X36557Y41274D01*
X36567Y41241D01*
X36581Y41214D01*
X36589Y41190D01*
X36597Y41176D01*
X36600Y41173D01*
Y41170D01*
X36614Y41146D01*
X36633Y41119D01*
X36655Y41086D01*
X36679Y41053D01*
X36731Y40982D01*
X36788Y40911D01*
X36816Y40878D01*
X36843Y40846D01*
X36868Y40818D01*
X36887Y40791D01*
X36906Y40772D01*
X36920Y40756D01*
X36928Y40745D01*
X36931Y40742D01*
X38304Y39145D01*
X38222Y40982D01*
X38219Y41048D01*
X38214Y41105D01*
X38205Y41160D01*
X38197Y41206D01*
X38189Y41250D01*
X38181Y41288D01*
X38170Y41323D01*
X38162Y41353D01*
X38151Y41378D01*
X38143Y41400D01*
X38132Y41416D01*
X38126Y41430D01*
X38118Y41441D01*
X38115Y41449D01*
X38110Y41454D01*
X38091Y41476D01*
X38069Y41493D01*
X38023Y41523D01*
X37976Y41544D01*
X37930Y41558D01*
X37889Y41566D01*
X37870Y41569D01*
X37853D01*
X37842Y41572D01*
X37823D01*
X37793Y41667D01*
X39270D01*
X39303Y41572D01*
D02*
G37*
G36*
X68899Y40382D02*
X68923Y40305D01*
X68866D01*
X68820Y40302D01*
X68781Y40300D01*
X68751Y40297D01*
X68730Y40292D01*
X68713Y40289D01*
X68705Y40286D01*
X68702D01*
X68667Y40270D01*
X68639Y40251D01*
X68623Y40234D01*
X68618Y40231D01*
Y40229D01*
X68607Y40212D01*
X68601Y40196D01*
X68590Y40160D01*
Y40144D01*
X68588Y40130D01*
Y40122D01*
Y40119D01*
Y40106D01*
X68590Y40089D01*
X68596Y40054D01*
X68604Y40010D01*
X68612Y39969D01*
X68620Y39928D01*
X68629Y39896D01*
X68631Y39885D01*
X68634Y39874D01*
X68637Y39868D01*
Y39866D01*
X69128Y38143D01*
X68495D01*
X68467Y38241D01*
X68440Y38331D01*
X68416Y38413D01*
X68394Y38487D01*
X68372Y38555D01*
X68353Y38615D01*
X68336Y38670D01*
X68323Y38716D01*
X68309Y38757D01*
X68298Y38793D01*
X68287Y38820D01*
X68279Y38845D01*
X68274Y38861D01*
X68268Y38875D01*
X68265Y38880D01*
Y38883D01*
X68235Y38962D01*
X68203Y39041D01*
X68167Y39123D01*
X68134Y39200D01*
X68121Y39235D01*
X68107Y39265D01*
X68093Y39295D01*
X68082Y39320D01*
X68074Y39339D01*
X68066Y39352D01*
X68063Y39363D01*
X68061Y39366D01*
X68036Y39418D01*
X68011Y39464D01*
X67990Y39508D01*
X67968Y39549D01*
X67949Y39584D01*
X67930Y39620D01*
X67913Y39647D01*
X67900Y39674D01*
X67883Y39696D01*
X67872Y39718D01*
X67861Y39735D01*
X67853Y39748D01*
X67845Y39756D01*
X67840Y39765D01*
X67837Y39770D01*
X67804Y39811D01*
X67777Y39847D01*
X67750Y39874D01*
X67730Y39893D01*
X67711Y39909D01*
X67700Y39917D01*
X67692Y39923D01*
X67689Y39926D01*
X67670Y39937D01*
X67654Y39939D01*
X67643Y39942D01*
X67637D01*
X67621Y39939D01*
X67607Y39934D01*
X67597Y39926D01*
X67594Y39923D01*
X67586Y39915D01*
X67575Y39898D01*
X67561Y39879D01*
X67550Y39860D01*
X67539Y39841D01*
X67531Y39827D01*
X67526Y39816D01*
X67523Y39811D01*
X67501Y39778D01*
X67476Y39756D01*
X67452Y39740D01*
X67427Y39726D01*
X67405Y39721D01*
X67386Y39718D01*
X67375Y39715D01*
X67370D01*
X67335Y39721D01*
X67302Y39732D01*
X67274Y39751D01*
X67247Y39770D01*
X67228Y39789D01*
X67212Y39808D01*
X67201Y39819D01*
X67198Y39825D01*
X67176Y39857D01*
X67157Y39890D01*
X67130Y39961D01*
X67108Y40032D01*
X67092Y40100D01*
X67089Y40130D01*
X67083Y40158D01*
X67081Y40185D01*
Y40207D01*
X67078Y40223D01*
Y40237D01*
Y40245D01*
Y40248D01*
X67081Y40300D01*
X67089Y40343D01*
X67100Y40382D01*
X67111Y40414D01*
X67124Y40439D01*
X67135Y40458D01*
X67143Y40469D01*
X67146Y40472D01*
X67173Y40499D01*
X67201Y40518D01*
X67228Y40534D01*
X67255Y40543D01*
X67280Y40548D01*
X67299Y40554D01*
X67318D01*
X67345Y40551D01*
X67375Y40548D01*
X67427Y40532D01*
X67476Y40507D01*
X67520Y40480D01*
X67558Y40453D01*
X67586Y40428D01*
X67597Y40420D01*
X67605Y40412D01*
X67607Y40409D01*
X67610Y40406D01*
X67632Y40382D01*
X67657Y40352D01*
X67684Y40316D01*
X67708Y40278D01*
X67736Y40237D01*
X67766Y40193D01*
X67793Y40147D01*
X67823Y40098D01*
X67880Y39991D01*
X67941Y39882D01*
X67998Y39770D01*
X68055Y39655D01*
X68110Y39546D01*
X68159Y39442D01*
X68181Y39393D01*
X68203Y39347D01*
X68225Y39303D01*
X68244Y39262D01*
X68260Y39224D01*
X68276Y39191D01*
X68287Y39161D01*
X68298Y39137D01*
X68309Y39118D01*
X68315Y39101D01*
X68317Y39093D01*
X68320Y39090D01*
X67861Y40554D01*
X68033D01*
X68899Y40382D01*
D02*
G37*
G36*
X42404Y40412D02*
X42437Y40308D01*
X42339D01*
X42306Y40305D01*
X42276Y40302D01*
X42251Y40294D01*
X42232Y40286D01*
X42216Y40278D01*
X42202Y40272D01*
X42197Y40267D01*
X42194Y40264D01*
X42175Y40248D01*
X42161Y40231D01*
X42153Y40212D01*
X42145Y40199D01*
X42142Y40185D01*
X42139Y40174D01*
Y40166D01*
Y40163D01*
X42142Y40125D01*
X42147Y40084D01*
X42158Y40038D01*
X42167Y39994D01*
X42178Y39956D01*
X42189Y39923D01*
X42191Y39909D01*
X42194Y39901D01*
X42197Y39896D01*
Y39893D01*
X42595Y38648D01*
X42612Y38596D01*
X42623Y38547D01*
X42634Y38506D01*
X42639Y38471D01*
X42642Y38443D01*
X42644Y38421D01*
Y38410D01*
Y38405D01*
X42639Y38353D01*
X42628Y38307D01*
X42612Y38266D01*
X42592Y38230D01*
X42576Y38203D01*
X42560Y38181D01*
X42549Y38170D01*
X42543Y38165D01*
X42502Y38135D01*
X42459Y38110D01*
X42412Y38094D01*
X42371Y38083D01*
X42333Y38077D01*
X42300Y38075D01*
X42290Y38072D01*
X42273D01*
X42232Y38075D01*
X42191Y38080D01*
X42150Y38088D01*
X42109Y38102D01*
X42071Y38118D01*
X42030Y38138D01*
X41956Y38184D01*
X41883Y38236D01*
X41815Y38296D01*
X41749Y38361D01*
X41689Y38427D01*
X41634Y38492D01*
X41582Y38558D01*
X41541Y38618D01*
X41503Y38670D01*
X41473Y38716D01*
X41462Y38735D01*
X41454Y38752D01*
X41446Y38765D01*
X41440Y38774D01*
X41435Y38779D01*
Y38782D01*
X41522Y38836D01*
X41552Y38790D01*
X41580Y38746D01*
X41607Y38705D01*
X41634Y38670D01*
X41659Y38637D01*
X41681Y38607D01*
X41702Y38580D01*
X41722Y38558D01*
X41741Y38536D01*
X41754Y38520D01*
X41768Y38506D01*
X41779Y38492D01*
X41795Y38479D01*
X41798Y38473D01*
X41801D01*
X41817Y38460D01*
X41834Y38449D01*
X41847Y38443D01*
X41861Y38438D01*
X41872Y38435D01*
X41880Y38432D01*
X41888D01*
X41907Y38435D01*
X41921Y38446D01*
X41932Y38454D01*
X41937Y38457D01*
X41951Y38479D01*
X41956Y38495D01*
X41959Y38509D01*
Y38514D01*
X41956Y38536D01*
X41951Y38566D01*
X41945Y38602D01*
X41935Y38634D01*
X41926Y38667D01*
X41921Y38694D01*
X41918Y38705D01*
X41916Y38713D01*
X41913Y38716D01*
Y38719D01*
X41334Y40554D01*
X41495D01*
X42404Y40412D01*
D02*
G37*
G36*
X58981Y40551D02*
X59049Y40543D01*
X59117Y40532D01*
X59183Y40515D01*
X59248Y40496D01*
X59311Y40477D01*
X59368Y40455D01*
X59423Y40433D01*
X59475Y40409D01*
X59521Y40387D01*
X59560Y40368D01*
X59595Y40349D01*
X59622Y40332D01*
X59644Y40321D01*
X59655Y40313D01*
X59661Y40311D01*
X59729Y40264D01*
X59797Y40212D01*
X59857Y40160D01*
X59917Y40109D01*
X59972Y40054D01*
X60021Y39999D01*
X60067Y39945D01*
X60108Y39896D01*
X60146Y39847D01*
X60179Y39800D01*
X60207Y39762D01*
X60231Y39726D01*
X60247Y39699D01*
X60261Y39677D01*
X60269Y39664D01*
X60272Y39658D01*
X60313Y39582D01*
X60348Y39505D01*
X60378Y39429D01*
X60406Y39355D01*
X60428Y39284D01*
X60444Y39213D01*
X60460Y39148D01*
X60471Y39088D01*
X60482Y39030D01*
X60490Y38978D01*
X60493Y38935D01*
X60499Y38896D01*
Y38864D01*
X60501Y38842D01*
Y38828D01*
Y38823D01*
X60499Y38752D01*
X60488Y38684D01*
X60474Y38621D01*
X60458Y38566D01*
X60452Y38541D01*
X60444Y38520D01*
X60436Y38498D01*
X60430Y38482D01*
X60425Y38471D01*
X60419Y38460D01*
X60417Y38454D01*
Y38451D01*
X60381Y38389D01*
X60340Y38331D01*
X60297Y38282D01*
X60253Y38244D01*
X60212Y38211D01*
X60182Y38189D01*
X60168Y38181D01*
X60160Y38176D01*
X60155Y38170D01*
X60152D01*
X60081Y38138D01*
X60010Y38113D01*
X59939Y38096D01*
X59873Y38086D01*
X59846Y38080D01*
X59819Y38077D01*
X59794Y38075D01*
X59772D01*
X59756Y38072D01*
X59734D01*
X59669Y38075D01*
X59606Y38080D01*
X59543Y38088D01*
X59480Y38102D01*
X59423Y38116D01*
X59368Y38129D01*
X59314Y38146D01*
X59265Y38165D01*
X59221Y38181D01*
X59180Y38198D01*
X59145Y38211D01*
X59117Y38228D01*
X59093Y38238D01*
X59074Y38247D01*
X59063Y38252D01*
X59060Y38255D01*
X59013Y38282D01*
X58967Y38315D01*
X58877Y38383D01*
X58795Y38454D01*
X58754Y38490D01*
X58719Y38525D01*
X58683Y38558D01*
X58653Y38591D01*
X58626Y38618D01*
X58604Y38642D01*
X58585Y38664D01*
X58571Y38678D01*
X58563Y38689D01*
X58560Y38692D01*
X58640Y38763D01*
X58705Y38703D01*
X58771Y38651D01*
X58833Y38607D01*
X58891Y38572D01*
X58940Y38544D01*
X58959Y38533D01*
X58978Y38525D01*
X58992Y38517D01*
X59003Y38511D01*
X59008Y38509D01*
X59011D01*
X59082Y38482D01*
X59150Y38462D01*
X59210Y38446D01*
X59265Y38438D01*
X59308Y38432D01*
X59327Y38430D01*
X59341D01*
X59355Y38427D01*
X59371D01*
X59407Y38430D01*
X59439Y38432D01*
X59502Y38451D01*
X59557Y38473D01*
X59606Y38503D01*
X59644Y38531D01*
X59661Y38541D01*
X59674Y38552D01*
X59685Y38563D01*
X59693Y38572D01*
X59696Y38574D01*
X59699Y38577D01*
X59723Y38607D01*
X59742Y38640D01*
X59762Y38673D01*
X59778Y38705D01*
X59802Y38774D01*
X59819Y38839D01*
X59824Y38869D01*
X59827Y38896D01*
X59830Y38921D01*
X59833Y38943D01*
X59835Y38959D01*
Y38973D01*
Y38981D01*
Y38984D01*
X59833Y39044D01*
X59830Y39107D01*
X59813Y39227D01*
X59791Y39341D01*
X59781Y39393D01*
X59767Y39445D01*
X59756Y39492D01*
X59742Y39533D01*
X59732Y39571D01*
X59723Y39603D01*
X59712Y39628D01*
X59707Y39647D01*
X59704Y39661D01*
X59701Y39664D01*
X59674Y39729D01*
X59644Y39792D01*
X59614Y39852D01*
X59584Y39906D01*
X59551Y39958D01*
X59518Y40007D01*
X59486Y40054D01*
X59456Y40095D01*
X59426Y40130D01*
X59398Y40163D01*
X59374Y40190D01*
X59352Y40215D01*
X59336Y40231D01*
X59322Y40245D01*
X59314Y40253D01*
X59311Y40256D01*
X59276Y40286D01*
X59237Y40313D01*
X59202Y40338D01*
X59164Y40360D01*
X59128Y40376D01*
X59095Y40390D01*
X59033Y40412D01*
X59003Y40420D01*
X58978Y40425D01*
X58956Y40428D01*
X58937Y40431D01*
X58921Y40433D01*
X58899D01*
X58869Y40431D01*
X58844Y40428D01*
X58820Y40420D01*
X58801Y40412D01*
X58787Y40403D01*
X58773Y40398D01*
X58768Y40393D01*
X58765Y40390D01*
X58751Y40379D01*
X58743Y40368D01*
X58732Y40343D01*
X58729Y40332D01*
X58727Y40324D01*
Y40319D01*
Y40316D01*
X58729Y40294D01*
X58741Y40272D01*
X58757Y40251D01*
X58773Y40231D01*
X58792Y40215D01*
X58806Y40201D01*
X58817Y40190D01*
X58822Y40188D01*
X58847Y40169D01*
X58869Y40147D01*
X58888Y40128D01*
X58902Y40106D01*
X58929Y40065D01*
X58945Y40027D01*
X58953Y39994D01*
X58959Y39969D01*
X58962Y39958D01*
Y39950D01*
Y39948D01*
Y39945D01*
X58959Y39906D01*
X58948Y39871D01*
X58937Y39838D01*
X58921Y39811D01*
X58907Y39789D01*
X58893Y39773D01*
X58885Y39762D01*
X58882Y39759D01*
X58852Y39735D01*
X58817Y39715D01*
X58784Y39702D01*
X58754Y39694D01*
X58724Y39688D01*
X58702Y39683D01*
X58683D01*
X58659Y39685D01*
X58634Y39688D01*
X58588Y39702D01*
X58544Y39721D01*
X58508Y39743D01*
X58478Y39765D01*
X58454Y39784D01*
X58440Y39797D01*
X58435Y39803D01*
X58397Y39852D01*
X58369Y39901D01*
X58347Y39950D01*
X58334Y39997D01*
X58325Y40038D01*
X58323Y40057D01*
Y40070D01*
X58320Y40084D01*
Y40092D01*
Y40098D01*
Y40100D01*
X58323Y40136D01*
X58325Y40169D01*
X58345Y40231D01*
X58367Y40286D01*
X58394Y40332D01*
X58424Y40371D01*
X58446Y40398D01*
X58457Y40409D01*
X58465Y40417D01*
X58468Y40420D01*
X58470Y40422D01*
X58500Y40444D01*
X58530Y40466D01*
X58601Y40499D01*
X58675Y40521D01*
X58746Y40537D01*
X58781Y40543D01*
X58811Y40548D01*
X58839Y40551D01*
X58863D01*
X58885Y40554D01*
X58912D01*
X58981Y40551D01*
D02*
G37*
G36*
X61186D02*
X61266Y40543D01*
X61345Y40529D01*
X61421Y40513D01*
X61495Y40494D01*
X61566Y40472D01*
X61634Y40447D01*
X61697Y40425D01*
X61754Y40401D01*
X61806Y40376D01*
X61853Y40354D01*
X61891Y40335D01*
X61921Y40319D01*
X61945Y40305D01*
X61959Y40297D01*
X61965Y40294D01*
X62044Y40245D01*
X62117Y40190D01*
X62186Y40136D01*
X62251Y40078D01*
X62311Y40021D01*
X62366Y39967D01*
X62418Y39909D01*
X62464Y39857D01*
X62505Y39805D01*
X62541Y39759D01*
X62571Y39718D01*
X62595Y39683D01*
X62617Y39653D01*
X62631Y39631D01*
X62639Y39617D01*
X62642Y39612D01*
X62685Y39533D01*
X62723Y39453D01*
X62756Y39374D01*
X62784Y39298D01*
X62808Y39227D01*
X62827Y39156D01*
X62844Y39088D01*
X62857Y39028D01*
X62866Y38970D01*
X62874Y38918D01*
X62879Y38872D01*
X62885Y38834D01*
Y38801D01*
X62887Y38779D01*
Y38765D01*
Y38760D01*
X62885Y38711D01*
X62879Y38662D01*
X62871Y38615D01*
X62863Y38569D01*
X62849Y38528D01*
X62836Y38487D01*
X62822Y38451D01*
X62805Y38419D01*
X62789Y38386D01*
X62775Y38359D01*
X62762Y38337D01*
X62748Y38315D01*
X62740Y38301D01*
X62732Y38288D01*
X62726Y38282D01*
X62723Y38280D01*
X62688Y38244D01*
X62650Y38211D01*
X62606Y38184D01*
X62560Y38159D01*
X62511Y38140D01*
X62459Y38124D01*
X62410Y38110D01*
X62361Y38099D01*
X62311Y38088D01*
X62268Y38083D01*
X62227Y38077D01*
X62191Y38075D01*
X62161D01*
X62139Y38072D01*
X62120D01*
X62057Y38075D01*
X61995Y38077D01*
X61877Y38094D01*
X61823Y38105D01*
X61774Y38116D01*
X61724Y38129D01*
X61681Y38143D01*
X61640Y38157D01*
X61602Y38170D01*
X61572Y38181D01*
X61544Y38192D01*
X61522Y38200D01*
X61509Y38208D01*
X61498Y38211D01*
X61495Y38214D01*
X61440Y38244D01*
X61389Y38277D01*
X61337Y38312D01*
X61285Y38350D01*
X61186Y38430D01*
X61140Y38471D01*
X61097Y38509D01*
X61055Y38547D01*
X61020Y38580D01*
X60990Y38612D01*
X60963Y38640D01*
X60941Y38662D01*
X60925Y38681D01*
X60913Y38692D01*
X60911Y38694D01*
X60990Y38763D01*
X61034Y38727D01*
X61077Y38694D01*
X61159Y38637D01*
X61230Y38591D01*
X61263Y38569D01*
X61293Y38552D01*
X61320Y38536D01*
X61345Y38525D01*
X61367Y38514D01*
X61383Y38506D01*
X61397Y38498D01*
X61408Y38492D01*
X61413Y38490D01*
X61416D01*
X61484Y38465D01*
X61550Y38446D01*
X61612Y38432D01*
X61667Y38424D01*
X61713Y38419D01*
X61733Y38416D01*
X61749Y38413D01*
X61782D01*
X61850Y38419D01*
X61910Y38432D01*
X61962Y38449D01*
X62006Y38471D01*
X62038Y38492D01*
X62063Y38509D01*
X62079Y38522D01*
X62085Y38528D01*
X62123Y38574D01*
X62150Y38626D01*
X62169Y38678D01*
X62183Y38730D01*
X62191Y38774D01*
X62194Y38793D01*
Y38809D01*
X62197Y38823D01*
Y38834D01*
Y38839D01*
Y38842D01*
Y38886D01*
X62194Y38932D01*
X62189Y38978D01*
X62186Y39022D01*
X62180Y39060D01*
X62177Y39093D01*
Y39104D01*
X62175Y39112D01*
Y39118D01*
Y39120D01*
X62117Y39126D01*
X62060Y39131D01*
X62008Y39137D01*
X61959Y39142D01*
X61915Y39150D01*
X61872Y39156D01*
X61834Y39161D01*
X61801Y39167D01*
X61768Y39175D01*
X61741Y39180D01*
X61719Y39183D01*
X61700Y39189D01*
X61683Y39191D01*
X61673Y39194D01*
X61667Y39197D01*
X61664D01*
X61561Y39230D01*
X61465Y39265D01*
X61421Y39284D01*
X61378Y39303D01*
X61339Y39322D01*
X61301Y39339D01*
X61268Y39358D01*
X61241Y39371D01*
X61214Y39388D01*
X61195Y39399D01*
X61176Y39410D01*
X61165Y39418D01*
X61156Y39421D01*
X61154Y39423D01*
X61072Y39483D01*
X60998Y39549D01*
X60933Y39614D01*
X60875Y39677D01*
X60853Y39704D01*
X60832Y39732D01*
X60815Y39756D01*
X60799Y39775D01*
X60788Y39792D01*
X60780Y39805D01*
X60774Y39814D01*
X60772Y39816D01*
X60736Y39885D01*
X60709Y39950D01*
X60690Y40013D01*
X60676Y40068D01*
X60668Y40117D01*
X60665Y40136D01*
Y40152D01*
X60662Y40166D01*
Y40177D01*
Y40182D01*
Y40185D01*
X60668Y40242D01*
X60679Y40294D01*
X60698Y40338D01*
X60717Y40376D01*
X60739Y40406D01*
X60758Y40428D01*
X60769Y40442D01*
X60774Y40447D01*
X60821Y40483D01*
X60873Y40510D01*
X60927Y40529D01*
X60982Y40540D01*
X61028Y40548D01*
X61050Y40551D01*
X61069D01*
X61083Y40554D01*
X61105D01*
X61186Y40551D01*
D02*
G37*
G36*
X56892Y41121D02*
X56952Y41059D01*
X57007Y41001D01*
X57059Y40949D01*
X57111Y40903D01*
X57157Y40859D01*
X57198Y40818D01*
X57239Y40786D01*
X57275Y40756D01*
X57305Y40728D01*
X57332Y40706D01*
X57356Y40690D01*
X57373Y40674D01*
X57386Y40666D01*
X57395Y40660D01*
X57397Y40657D01*
X57487Y40597D01*
X57580Y40543D01*
X57673Y40494D01*
X57758Y40453D01*
X57799Y40433D01*
X57834Y40417D01*
X57864Y40403D01*
X57894Y40393D01*
X57916Y40384D01*
X57932Y40376D01*
X57943Y40373D01*
X57946Y40371D01*
X57992Y40179D01*
X57662D01*
X58104Y38774D01*
X58129Y38689D01*
X58145Y38612D01*
X58159Y38547D01*
X58162Y38517D01*
X58167Y38490D01*
X58170Y38468D01*
X58173Y38446D01*
Y38427D01*
X58175Y38413D01*
Y38402D01*
Y38394D01*
Y38389D01*
Y38386D01*
X58170Y38337D01*
X58159Y38293D01*
X58145Y38255D01*
X58126Y38222D01*
X58110Y38195D01*
X58094Y38176D01*
X58082Y38165D01*
X58080Y38159D01*
X58039Y38129D01*
X57995Y38110D01*
X57949Y38094D01*
X57905Y38083D01*
X57864Y38077D01*
X57834Y38075D01*
X57820Y38072D01*
X57804D01*
X57766Y38075D01*
X57725Y38077D01*
X57651Y38094D01*
X57580Y38118D01*
X57515Y38146D01*
X57485Y38157D01*
X57460Y38170D01*
X57438Y38184D01*
X57416Y38195D01*
X57403Y38203D01*
X57392Y38211D01*
X57384Y38214D01*
X57381Y38217D01*
X57340Y38247D01*
X57302Y38277D01*
X57228Y38350D01*
X57162Y38424D01*
X57103Y38501D01*
X57078Y38536D01*
X57056Y38569D01*
X57034Y38599D01*
X57018Y38623D01*
X57004Y38645D01*
X56996Y38662D01*
X56990Y38673D01*
X56988Y38675D01*
X57078Y38733D01*
X57108Y38692D01*
X57135Y38653D01*
X57162Y38618D01*
X57187Y38588D01*
X57212Y38558D01*
X57236Y38533D01*
X57258Y38509D01*
X57277Y38487D01*
X57310Y38454D01*
X57335Y38432D01*
X57351Y38419D01*
X57354Y38413D01*
X57356D01*
X57373Y38402D01*
X57389Y38394D01*
X57419Y38383D01*
X57430Y38381D01*
X57438Y38378D01*
X57446D01*
X57468Y38381D01*
X57485Y38386D01*
X57496Y38391D01*
X57501Y38394D01*
X57515Y38408D01*
X57520Y38424D01*
X57523Y38435D01*
Y38438D01*
X57520Y38468D01*
X57515Y38503D01*
X57509Y38539D01*
X57498Y38574D01*
X57490Y38604D01*
X57485Y38629D01*
X57479Y38648D01*
X57477Y38651D01*
Y38653D01*
X57004Y40179D01*
X56712D01*
X56622Y40480D01*
X56911D01*
X56693Y41187D01*
X56832D01*
X56892Y41121D01*
D02*
G37*
G36*
X71697Y41572D02*
X71656Y41569D01*
X71618Y41566D01*
X71585Y41564D01*
X71552Y41558D01*
X71525Y41553D01*
X71498Y41547D01*
X71476Y41539D01*
X71457Y41534D01*
X71424Y41520D01*
X71402Y41509D01*
X71389Y41501D01*
X71386Y41498D01*
X71356Y41474D01*
X71334Y41446D01*
X71320Y41419D01*
X71309Y41394D01*
X71304Y41370D01*
X71298Y41353D01*
Y41342D01*
Y41337D01*
Y41318D01*
X71301Y41296D01*
X71309Y41247D01*
X71320Y41195D01*
X71331Y41140D01*
X71345Y41094D01*
X71350Y41072D01*
X71356Y41053D01*
X71361Y41039D01*
X71364Y41029D01*
X71367Y41020D01*
Y41018D01*
X72008Y38779D01*
X72025Y38724D01*
X72038Y38675D01*
X72052Y38632D01*
X72066Y38591D01*
X72076Y38558D01*
X72087Y38528D01*
X72098Y38501D01*
X72107Y38479D01*
X72115Y38460D01*
X72120Y38446D01*
X72126Y38435D01*
X72131Y38424D01*
X72137Y38413D01*
X72139Y38410D01*
X72164Y38378D01*
X72189Y38353D01*
X72213Y38329D01*
X72238Y38312D01*
X72259Y38299D01*
X72276Y38288D01*
X72287Y38282D01*
X72292Y38280D01*
X72311Y38271D01*
X72330Y38266D01*
X72377Y38255D01*
X72429Y38249D01*
X72478Y38244D01*
X72524Y38241D01*
X72546Y38238D01*
X72598D01*
X72625Y38143D01*
X70908D01*
X70875Y38238D01*
X70925D01*
X70971Y38241D01*
X71009Y38247D01*
X71047Y38249D01*
X71080Y38255D01*
X71107Y38260D01*
X71135Y38266D01*
X71157Y38271D01*
X71176Y38277D01*
X71189Y38282D01*
X71203Y38288D01*
X71214Y38293D01*
X71228Y38299D01*
X71230Y38301D01*
X71255Y38329D01*
X71274Y38356D01*
X71288Y38386D01*
X71296Y38416D01*
X71301Y38443D01*
X71307Y38465D01*
Y38479D01*
Y38484D01*
Y38503D01*
X71304Y38522D01*
X71298Y38566D01*
X71288Y38615D01*
X71277Y38664D01*
X71266Y38708D01*
X71260Y38727D01*
X71255Y38746D01*
X71252Y38760D01*
X71249Y38771D01*
X71247Y38776D01*
Y38779D01*
X70968Y39762D01*
X70867Y39748D01*
X70772Y39737D01*
X70731Y39735D01*
X70690Y39732D01*
X70654Y39729D01*
X70619Y39726D01*
X70589Y39724D01*
X70564D01*
X70539Y39721D01*
X70485D01*
X70365Y39724D01*
X70250Y39735D01*
X70144Y39751D01*
X70043Y39773D01*
X69947Y39800D01*
X69863Y39827D01*
X69783Y39857D01*
X69712Y39890D01*
X69647Y39920D01*
X69592Y39950D01*
X69546Y39980D01*
X69505Y40005D01*
X69475Y40027D01*
X69453Y40043D01*
X69439Y40054D01*
X69434Y40057D01*
X69366Y40122D01*
X69306Y40188D01*
X69254Y40253D01*
X69207Y40319D01*
X69169Y40387D01*
X69139Y40450D01*
X69112Y40513D01*
X69093Y40573D01*
X69076Y40627D01*
X69065Y40676D01*
X69054Y40723D01*
X69049Y40761D01*
X69046Y40791D01*
X69043Y40816D01*
Y40829D01*
Y40835D01*
X69049Y40917D01*
X69060Y40996D01*
X69079Y41067D01*
X69103Y41135D01*
X69134Y41195D01*
X69169Y41252D01*
X69205Y41302D01*
X69240Y41348D01*
X69275Y41389D01*
X69311Y41424D01*
X69346Y41452D01*
X69374Y41476D01*
X69401Y41495D01*
X69420Y41509D01*
X69431Y41517D01*
X69437Y41520D01*
X69489Y41547D01*
X69546Y41569D01*
X69609Y41588D01*
X69674Y41605D01*
X69811Y41632D01*
X69879Y41640D01*
X69947Y41648D01*
X70010Y41657D01*
X70070Y41659D01*
X70125Y41662D01*
X70174Y41665D01*
X70212Y41667D01*
X71667D01*
X71697Y41572D01*
D02*
G37*
G36*
X65456Y40551D02*
X65514Y40548D01*
X65623Y40532D01*
X65675Y40521D01*
X65724Y40507D01*
X65770Y40494D01*
X65814Y40480D01*
X65852Y40466D01*
X65888Y40453D01*
X65920Y40442D01*
X65948Y40428D01*
X65967Y40420D01*
X65983Y40412D01*
X65994Y40409D01*
X65997Y40406D01*
X66101Y40349D01*
X66196Y40283D01*
X66242Y40253D01*
X66284Y40220D01*
X66324Y40190D01*
X66360Y40160D01*
X66393Y40133D01*
X66420Y40106D01*
X66447Y40084D01*
X66469Y40062D01*
X66486Y40046D01*
X66496Y40035D01*
X66505Y40027D01*
X66507Y40024D01*
X66587Y39934D01*
X66658Y39838D01*
X66720Y39746D01*
X66748Y39702D01*
X66772Y39661D01*
X66797Y39620D01*
X66816Y39584D01*
X66832Y39554D01*
X66846Y39527D01*
X66860Y39503D01*
X66868Y39486D01*
X66870Y39475D01*
X66873Y39472D01*
X66898Y39412D01*
X66920Y39352D01*
X66939Y39292D01*
X66955Y39232D01*
X66980Y39120D01*
X66991Y39066D01*
X66996Y39017D01*
X67004Y38967D01*
X67007Y38927D01*
X67010Y38888D01*
X67012Y38855D01*
X67015Y38831D01*
Y38812D01*
Y38801D01*
Y38795D01*
X67012Y38741D01*
X67007Y38686D01*
X66999Y38634D01*
X66985Y38588D01*
X66971Y38541D01*
X66955Y38501D01*
X66936Y38460D01*
X66920Y38424D01*
X66900Y38394D01*
X66884Y38364D01*
X66868Y38339D01*
X66854Y38320D01*
X66840Y38304D01*
X66832Y38293D01*
X66827Y38285D01*
X66824Y38282D01*
X66786Y38244D01*
X66745Y38214D01*
X66701Y38184D01*
X66658Y38162D01*
X66611Y38140D01*
X66565Y38124D01*
X66521Y38110D01*
X66477Y38099D01*
X66436Y38088D01*
X66398Y38083D01*
X66363Y38077D01*
X66333Y38075D01*
X66308D01*
X66292Y38072D01*
X66275D01*
X66202Y38075D01*
X66131Y38083D01*
X66060Y38094D01*
X65989Y38110D01*
X65923Y38129D01*
X65860Y38148D01*
X65798Y38170D01*
X65743Y38195D01*
X65691Y38217D01*
X65645Y38238D01*
X65604Y38258D01*
X65568Y38277D01*
X65541Y38293D01*
X65519Y38304D01*
X65508Y38312D01*
X65503Y38315D01*
X65432Y38361D01*
X65366Y38413D01*
X65303Y38468D01*
X65243Y38522D01*
X65189Y38577D01*
X65137Y38632D01*
X65090Y38686D01*
X65049Y38738D01*
X65011Y38787D01*
X64978Y38834D01*
X64948Y38875D01*
X64927Y38910D01*
X64907Y38937D01*
X64894Y38959D01*
X64886Y38973D01*
X64883Y38978D01*
X64842Y39057D01*
X64804Y39134D01*
X64774Y39213D01*
X64746Y39287D01*
X64722Y39360D01*
X64703Y39429D01*
X64686Y39494D01*
X64675Y39557D01*
X64665Y39612D01*
X64659Y39664D01*
X64654Y39710D01*
X64648Y39748D01*
Y39778D01*
X64645Y39800D01*
Y39814D01*
Y39819D01*
X64648Y39893D01*
X64659Y39964D01*
X64675Y40027D01*
X64692Y40084D01*
X64700Y40109D01*
X64708Y40128D01*
X64716Y40147D01*
X64725Y40163D01*
X64730Y40177D01*
X64736Y40185D01*
X64738Y40190D01*
Y40193D01*
X64776Y40253D01*
X64820Y40305D01*
X64867Y40352D01*
X64910Y40390D01*
X64948Y40420D01*
X64981Y40442D01*
X64995Y40447D01*
X65003Y40453D01*
X65009Y40458D01*
X65011D01*
X65079Y40491D01*
X65148Y40513D01*
X65213Y40529D01*
X65273Y40543D01*
X65301Y40545D01*
X65323Y40548D01*
X65344Y40551D01*
X65364D01*
X65380Y40554D01*
X65399D01*
X65456Y40551D01*
D02*
G37*
G36*
X33431Y38921D02*
X33491Y38907D01*
X33543Y38886D01*
X33586Y38864D01*
X33622Y38842D01*
X33649Y38820D01*
X33665Y38806D01*
X33668Y38804D01*
X33671Y38801D01*
X33693Y38776D01*
X33712Y38752D01*
X33742Y38700D01*
X33764Y38651D01*
X33777Y38602D01*
X33788Y38561D01*
X33791Y38544D01*
Y38528D01*
X33794Y38514D01*
Y38506D01*
Y38501D01*
Y38498D01*
X33791Y38465D01*
X33788Y38435D01*
X33775Y38375D01*
X33755Y38323D01*
X33731Y38279D01*
X33709Y38244D01*
X33690Y38217D01*
X33676Y38200D01*
X33671Y38197D01*
Y38195D01*
X33646Y38173D01*
X33622Y38154D01*
X33570Y38124D01*
X33521Y38102D01*
X33472Y38088D01*
X33431Y38077D01*
X33411Y38075D01*
X33398D01*
X33384Y38072D01*
X33368D01*
X33335Y38075D01*
X33305Y38077D01*
X33248Y38091D01*
X33196Y38110D01*
X33152Y38135D01*
X33117Y38157D01*
X33089Y38176D01*
X33073Y38189D01*
X33070Y38195D01*
X33068D01*
X33046Y38219D01*
X33024Y38244D01*
X32994Y38296D01*
X32969Y38345D01*
X32956Y38394D01*
X32945Y38435D01*
X32942Y38454D01*
Y38468D01*
X32939Y38482D01*
Y38490D01*
Y38495D01*
Y38498D01*
Y38531D01*
X32945Y38561D01*
X32958Y38621D01*
X32980Y38673D01*
X33002Y38716D01*
X33024Y38752D01*
X33046Y38779D01*
X33059Y38795D01*
X33062Y38798D01*
X33065Y38801D01*
X33089Y38823D01*
X33114Y38842D01*
X33166Y38875D01*
X33215Y38896D01*
X33264Y38910D01*
X33305Y38921D01*
X33321Y38924D01*
X33338D01*
X33351Y38926D01*
X33401D01*
X33431Y38921D01*
D02*
G37*
G36*
X30591Y41733D02*
X30671Y41719D01*
X30747Y41697D01*
X30813Y41676D01*
X30843Y41665D01*
X30870Y41654D01*
X30895Y41643D01*
X30914Y41632D01*
X30930Y41624D01*
X30941Y41618D01*
X30949Y41616D01*
X30952Y41613D01*
X30993Y41588D01*
X31036Y41555D01*
X31077Y41523D01*
X31121Y41484D01*
X31200Y41405D01*
X31277Y41323D01*
X31309Y41285D01*
X31342Y41247D01*
X31370Y41214D01*
X31391Y41187D01*
X31410Y41162D01*
X31427Y41143D01*
X31435Y41132D01*
X31438Y41127D01*
X31487Y41059D01*
X31533Y40988D01*
X31618Y40840D01*
X31659Y40767D01*
X31694Y40696D01*
X31730Y40627D01*
X31760Y40562D01*
X31787Y40502D01*
X31812Y40444D01*
X31834Y40395D01*
X31850Y40352D01*
X31864Y40316D01*
X31874Y40289D01*
X31880Y40272D01*
X31883Y40270D01*
Y40267D01*
X31921Y40155D01*
X31954Y40043D01*
X31981Y39934D01*
X32006Y39827D01*
X32027Y39724D01*
X32044Y39623D01*
X32057Y39530D01*
X32068Y39442D01*
X32077Y39363D01*
X32085Y39290D01*
X32090Y39227D01*
X32093Y39172D01*
Y39148D01*
Y39129D01*
X32096Y39109D01*
Y39096D01*
Y39085D01*
Y39077D01*
Y39071D01*
Y39068D01*
X32090Y38967D01*
X32079Y38872D01*
X32066Y38787D01*
X32057Y38746D01*
X32046Y38711D01*
X32038Y38675D01*
X32030Y38645D01*
X32022Y38618D01*
X32014Y38596D01*
X32008Y38580D01*
X32003Y38566D01*
X32000Y38558D01*
Y38555D01*
X31962Y38471D01*
X31918Y38400D01*
X31896Y38367D01*
X31874Y38337D01*
X31853Y38309D01*
X31834Y38285D01*
X31815Y38263D01*
X31795Y38244D01*
X31779Y38228D01*
X31765Y38217D01*
X31754Y38206D01*
X31746Y38197D01*
X31741Y38195D01*
X31738Y38192D01*
X31705Y38170D01*
X31672Y38151D01*
X31607Y38121D01*
X31544Y38099D01*
X31487Y38086D01*
X31438Y38075D01*
X31416Y38072D01*
X31400D01*
X31383Y38069D01*
X31364D01*
X31282Y38075D01*
X31203Y38086D01*
X31129Y38102D01*
X31067Y38124D01*
X31036Y38132D01*
X31012Y38143D01*
X30987Y38151D01*
X30968Y38159D01*
X30955Y38165D01*
X30941Y38170D01*
X30935Y38176D01*
X30933D01*
X30856Y38217D01*
X30785Y38260D01*
X30725Y38307D01*
X30673Y38348D01*
X30649Y38367D01*
X30630Y38383D01*
X30613Y38400D01*
X30600Y38413D01*
X30586Y38424D01*
X30578Y38432D01*
X30575Y38435D01*
X30572Y38438D01*
X30529Y38487D01*
X30488Y38536D01*
X30406Y38640D01*
X30335Y38743D01*
X30302Y38793D01*
X30272Y38839D01*
X30245Y38886D01*
X30220Y38926D01*
X30198Y38962D01*
X30179Y38995D01*
X30166Y39019D01*
X30155Y39038D01*
X30149Y39049D01*
X30146Y39055D01*
X30078Y39197D01*
X30018Y39336D01*
X29991Y39407D01*
X29966Y39472D01*
X29944Y39535D01*
X29923Y39598D01*
X29906Y39653D01*
X29890Y39704D01*
X29876Y39751D01*
X29865Y39789D01*
X29857Y39819D01*
X29852Y39844D01*
X29846Y39857D01*
Y39863D01*
X29811Y40027D01*
X29794Y40106D01*
X29783Y40182D01*
X29772Y40256D01*
X29764Y40327D01*
X29756Y40393D01*
X29751Y40453D01*
X29745Y40510D01*
X29742Y40562D01*
X29740Y40605D01*
Y40644D01*
X29737Y40674D01*
Y40696D01*
Y40709D01*
Y40715D01*
X29740Y40805D01*
X29751Y40892D01*
X29761Y40974D01*
X29770Y41012D01*
X29778Y41048D01*
X29786Y41078D01*
X29792Y41108D01*
X29800Y41135D01*
X29805Y41157D01*
X29811Y41173D01*
X29816Y41187D01*
X29819Y41195D01*
Y41198D01*
X29852Y41285D01*
X29893Y41364D01*
X29914Y41397D01*
X29936Y41430D01*
X29958Y41460D01*
X29977Y41487D01*
X29999Y41512D01*
X30018Y41531D01*
X30035Y41550D01*
X30048Y41564D01*
X30062Y41574D01*
X30070Y41585D01*
X30075Y41588D01*
X30078Y41591D01*
X30111Y41618D01*
X30146Y41640D01*
X30185Y41659D01*
X30220Y41676D01*
X30291Y41703D01*
X30359Y41719D01*
X30389Y41727D01*
X30417Y41730D01*
X30444Y41733D01*
X30466Y41736D01*
X30482Y41738D01*
X30548D01*
X30591Y41733D01*
D02*
G37*
G36*
X44089Y41744D02*
X44190Y41730D01*
X44291Y41714D01*
X44389Y41692D01*
X44484Y41665D01*
X44574Y41635D01*
X44662Y41605D01*
X44744Y41572D01*
X44818Y41539D01*
X44886Y41506D01*
X44946Y41476D01*
X44995Y41449D01*
X45036Y41427D01*
X45052Y41416D01*
X45066Y41411D01*
X45077Y41403D01*
X45085Y41397D01*
X45088Y41394D01*
X45090D01*
X45191Y41326D01*
X45290Y41255D01*
X45380Y41179D01*
X45465Y41100D01*
X45544Y41023D01*
X45615Y40944D01*
X45683Y40867D01*
X45743Y40797D01*
X45798Y40725D01*
X45844Y40663D01*
X45885Y40605D01*
X45918Y40556D01*
X45942Y40515D01*
X45953Y40499D01*
X45961Y40485D01*
X45970Y40472D01*
X45975Y40464D01*
X45978Y40461D01*
Y40458D01*
X46035Y40349D01*
X46087Y40240D01*
X46131Y40133D01*
X46169Y40029D01*
X46202Y39928D01*
X46226Y39833D01*
X46248Y39743D01*
X46267Y39658D01*
X46281Y39579D01*
X46292Y39508D01*
X46297Y39448D01*
X46303Y39396D01*
X46305Y39371D01*
Y39352D01*
X46308Y39336D01*
Y39322D01*
Y39309D01*
Y39301D01*
Y39298D01*
Y39295D01*
X46305Y39238D01*
X46303Y39183D01*
X46286Y39074D01*
X46278Y39022D01*
X46264Y38973D01*
X46253Y38927D01*
X46240Y38883D01*
X46229Y38845D01*
X46215Y38806D01*
X46204Y38776D01*
X46196Y38749D01*
X46185Y38730D01*
X46180Y38713D01*
X46177Y38703D01*
X46174Y38700D01*
X46147Y38648D01*
X46120Y38596D01*
X46090Y38550D01*
X46057Y38506D01*
X46027Y38465D01*
X45994Y38430D01*
X45964Y38394D01*
X45934Y38364D01*
X45904Y38337D01*
X45879Y38312D01*
X45855Y38290D01*
X45836Y38274D01*
X45819Y38260D01*
X45806Y38252D01*
X45798Y38247D01*
X45795Y38244D01*
X45759Y38222D01*
X45721Y38200D01*
X45636Y38165D01*
X45552Y38132D01*
X45467Y38107D01*
X45429Y38096D01*
X45393Y38088D01*
X45361Y38080D01*
X45331Y38075D01*
X45309Y38069D01*
X45290Y38067D01*
X45279Y38064D01*
X45276D01*
X46237Y37220D01*
X46188Y37155D01*
X46109Y37174D01*
X46032Y37187D01*
X45964Y37198D01*
X45904Y37204D01*
X45877Y37207D01*
X45852Y37209D01*
X45833D01*
X45814Y37212D01*
X45735D01*
X45686Y37209D01*
X45579Y37198D01*
X45473Y37185D01*
X45418Y37176D01*
X45369Y37168D01*
X45322Y37160D01*
X45276Y37152D01*
X45238Y37144D01*
X45202Y37138D01*
X45175Y37133D01*
X45153Y37127D01*
X45142Y37125D01*
X45137D01*
X45060Y37108D01*
X44989Y37095D01*
X44921Y37084D01*
X44853Y37075D01*
X44793Y37065D01*
X44733Y37059D01*
X44678Y37054D01*
X44629Y37048D01*
X44585Y37045D01*
X44545Y37043D01*
X44509Y37040D01*
X44482D01*
X44457Y37037D01*
X44427D01*
X44329Y37040D01*
X44233Y37045D01*
X44143Y37054D01*
X44058Y37065D01*
X43979Y37078D01*
X43906Y37092D01*
X43837Y37108D01*
X43777Y37125D01*
X43720Y37138D01*
X43674Y37155D01*
X43630Y37168D01*
X43594Y37182D01*
X43567Y37193D01*
X43548Y37201D01*
X43534Y37207D01*
X43532Y37209D01*
X43466Y37242D01*
X43403Y37280D01*
X43343Y37319D01*
X43286Y37357D01*
X43231Y37398D01*
X43180Y37439D01*
X43133Y37480D01*
X43089Y37518D01*
X43051Y37556D01*
X43016Y37589D01*
X42986Y37622D01*
X42961Y37649D01*
X42942Y37671D01*
X42926Y37687D01*
X42917Y37698D01*
X42915Y37701D01*
X42991Y37772D01*
X43046Y37725D01*
X43098Y37684D01*
X43147Y37652D01*
X43188Y37624D01*
X43223Y37602D01*
X43251Y37589D01*
X43261Y37583D01*
X43270Y37581D01*
X43272Y37578D01*
X43275D01*
X43360Y37545D01*
X43444Y37523D01*
X43523Y37507D01*
X43597Y37493D01*
X43633Y37490D01*
X43663Y37488D01*
X43687Y37485D01*
X43712D01*
X43731Y37482D01*
X43802D01*
X43851Y37488D01*
X43955Y37499D01*
X44064Y37518D01*
X44116Y37526D01*
X44168Y37537D01*
X44214Y37548D01*
X44261Y37556D01*
X44299Y37567D01*
X44334Y37575D01*
X44362Y37581D01*
X44383Y37586D01*
X44397Y37591D01*
X44403D01*
X44476Y37611D01*
X44547Y37627D01*
X44613Y37643D01*
X44675Y37654D01*
X44730Y37665D01*
X44785Y37673D01*
X44831Y37682D01*
X44875Y37687D01*
X44913Y37692D01*
X44946Y37695D01*
X44973Y37698D01*
X44998D01*
X45014Y37701D01*
X45039D01*
X45101Y37698D01*
X45172Y37692D01*
X45241Y37684D01*
X45309Y37676D01*
X45339Y37671D01*
X45366Y37665D01*
X45391Y37660D01*
X45413Y37657D01*
X45432Y37654D01*
X45445Y37652D01*
X45454Y37649D01*
X45456D01*
X45000Y38064D01*
X44875Y38077D01*
X44815Y38088D01*
X44757Y38099D01*
X44703Y38110D01*
X44654Y38121D01*
X44605Y38132D01*
X44561Y38146D01*
X44523Y38157D01*
X44487Y38168D01*
X44457Y38176D01*
X44433Y38187D01*
X44413Y38192D01*
X44397Y38198D01*
X44389Y38203D01*
X44386D01*
X44312Y38236D01*
X44241Y38274D01*
X44170Y38312D01*
X44100Y38356D01*
X44034Y38397D01*
X43968Y38440D01*
X43908Y38484D01*
X43851Y38528D01*
X43799Y38569D01*
X43753Y38607D01*
X43712Y38640D01*
X43676Y38670D01*
X43649Y38694D01*
X43627Y38713D01*
X43616Y38727D01*
X43611Y38730D01*
X43540Y38798D01*
X43474Y38872D01*
X43411Y38943D01*
X43352Y39017D01*
X43300Y39088D01*
X43248Y39158D01*
X43201Y39227D01*
X43160Y39292D01*
X43125Y39352D01*
X43092Y39407D01*
X43065Y39456D01*
X43040Y39500D01*
X43024Y39535D01*
X43010Y39560D01*
X43002Y39576D01*
X42999Y39582D01*
X42958Y39674D01*
X42926Y39765D01*
X42893Y39852D01*
X42868Y39939D01*
X42846Y40021D01*
X42827Y40100D01*
X42814Y40174D01*
X42800Y40245D01*
X42792Y40308D01*
X42784Y40365D01*
X42781Y40414D01*
X42775Y40458D01*
Y40491D01*
X42773Y40515D01*
Y40532D01*
Y40537D01*
X42775Y40595D01*
X42781Y40652D01*
X42786Y40709D01*
X42797Y40764D01*
X42811Y40816D01*
X42825Y40865D01*
X42838Y40911D01*
X42852Y40955D01*
X42868Y40993D01*
X42882Y41029D01*
X42895Y41061D01*
X42909Y41089D01*
X42920Y41108D01*
X42926Y41124D01*
X42931Y41135D01*
X42934Y41138D01*
X42964Y41190D01*
X42999Y41241D01*
X43035Y41288D01*
X43070Y41329D01*
X43108Y41370D01*
X43144Y41408D01*
X43182Y41441D01*
X43218Y41471D01*
X43251Y41498D01*
X43281Y41520D01*
X43310Y41539D01*
X43332Y41555D01*
X43354Y41569D01*
X43368Y41577D01*
X43379Y41583D01*
X43382Y41585D01*
X43436Y41613D01*
X43491Y41640D01*
X43543Y41659D01*
X43597Y41678D01*
X43649Y41695D01*
X43698Y41708D01*
X43745Y41719D01*
X43791Y41727D01*
X43832Y41733D01*
X43870Y41738D01*
X43903Y41741D01*
X43930Y41744D01*
X43955Y41747D01*
X43985D01*
X44089Y41744D01*
D02*
G37*
G36*
X64130Y40412D02*
X64157Y40313D01*
X64086D01*
X64050Y40311D01*
X64018Y40305D01*
X63990Y40297D01*
X63968Y40289D01*
X63949Y40281D01*
X63936Y40272D01*
X63928Y40267D01*
X63925Y40264D01*
X63903Y40248D01*
X63889Y40229D01*
X63878Y40212D01*
X63870Y40199D01*
X63865Y40185D01*
X63862Y40174D01*
Y40169D01*
Y40166D01*
Y40155D01*
X63865Y40139D01*
X63873Y40100D01*
X63881Y40057D01*
X63892Y40010D01*
X63906Y39967D01*
X63911Y39948D01*
X63914Y39931D01*
X63919Y39915D01*
X63922Y39904D01*
X63925Y39898D01*
Y39896D01*
X64509Y37894D01*
X64520Y37843D01*
X64531Y37796D01*
X64550Y37706D01*
X64566Y37627D01*
X64583Y37559D01*
X64599Y37496D01*
X64613Y37444D01*
X64624Y37400D01*
X64635Y37362D01*
X64643Y37332D01*
X64651Y37308D01*
X64659Y37286D01*
X64665Y37272D01*
X64667Y37261D01*
X64670Y37256D01*
X64673Y37250D01*
X64686Y37228D01*
X64700Y37207D01*
X64730Y37174D01*
X64757Y37152D01*
X64785Y37136D01*
X64806Y37127D01*
X64826Y37122D01*
X64837Y37119D01*
X64842D01*
X64861Y37122D01*
X64877Y37127D01*
X64886Y37133D01*
X64888Y37136D01*
X64897Y37146D01*
X64902Y37157D01*
X64905Y37166D01*
Y37168D01*
X64899Y37182D01*
X64891Y37196D01*
X64883Y37209D01*
X64877Y37215D01*
X64853Y37242D01*
X64837Y37269D01*
X64823Y37294D01*
X64815Y37319D01*
X64809Y37338D01*
X64806Y37351D01*
Y37362D01*
Y37365D01*
X64809Y37392D01*
X64815Y37420D01*
X64826Y37441D01*
X64837Y37460D01*
X64847Y37477D01*
X64858Y37488D01*
X64864Y37496D01*
X64867Y37499D01*
X64891Y37518D01*
X64919Y37531D01*
X64946Y37540D01*
X64970Y37548D01*
X64995Y37551D01*
X65014Y37553D01*
X65030D01*
X65079Y37551D01*
X65121Y37540D01*
X65159Y37529D01*
X65192Y37512D01*
X65216Y37499D01*
X65235Y37485D01*
X65246Y37474D01*
X65251Y37471D01*
X65282Y37439D01*
X65301Y37406D01*
X65317Y37373D01*
X65328Y37340D01*
X65333Y37316D01*
X65336Y37294D01*
X65339Y37280D01*
Y37275D01*
X65333Y37234D01*
X65323Y37198D01*
X65306Y37166D01*
X65287Y37138D01*
X65271Y37114D01*
X65254Y37097D01*
X65243Y37084D01*
X65238Y37081D01*
X65197Y37051D01*
X65148Y37032D01*
X65099Y37016D01*
X65047Y37005D01*
X65003Y36999D01*
X64984Y36996D01*
X64965D01*
X64951Y36994D01*
X64932D01*
X64886Y36996D01*
X64839Y36999D01*
X64749Y37016D01*
X64670Y37037D01*
X64632Y37051D01*
X64596Y37065D01*
X64564Y37075D01*
X64536Y37089D01*
X64509Y37100D01*
X64490Y37111D01*
X64471Y37119D01*
X64460Y37127D01*
X64452Y37130D01*
X64449Y37133D01*
X64405Y37160D01*
X64364Y37190D01*
X64291Y37253D01*
X64228Y37319D01*
X64198Y37351D01*
X64173Y37381D01*
X64149Y37411D01*
X64130Y37439D01*
X64113Y37463D01*
X64097Y37485D01*
X64086Y37504D01*
X64078Y37518D01*
X64075Y37526D01*
X64072Y37529D01*
X64031Y37602D01*
X63993Y37679D01*
X63955Y37758D01*
X63919Y37840D01*
X63848Y38006D01*
X63818Y38086D01*
X63788Y38165D01*
X63764Y38236D01*
X63739Y38304D01*
X63717Y38364D01*
X63701Y38416D01*
X63687Y38460D01*
X63682Y38479D01*
X63676Y38492D01*
X63674Y38503D01*
X63671Y38511D01*
X63668Y38517D01*
Y38520D01*
X63059Y40554D01*
X63223D01*
X64130Y40412D01*
D02*
G37*
%LPC*%
G36*
X50695Y40390D02*
X50682D01*
X50654Y40387D01*
X50627Y40379D01*
X50605Y40368D01*
X50589Y40357D01*
X50572Y40346D01*
X50561Y40335D01*
X50556Y40327D01*
X50553Y40324D01*
X50542Y40305D01*
X50531Y40286D01*
X50515Y40237D01*
X50504Y40188D01*
X50496Y40139D01*
X50490Y40092D01*
Y40073D01*
X50488Y40057D01*
Y40040D01*
Y40029D01*
Y40024D01*
Y40021D01*
X50490Y39950D01*
X50499Y39874D01*
X50510Y39800D01*
X50526Y39726D01*
X50545Y39653D01*
X50567Y39579D01*
X50589Y39511D01*
X50613Y39445D01*
X50638Y39382D01*
X50660Y39328D01*
X50682Y39279D01*
X50701Y39235D01*
X50714Y39200D01*
X50728Y39175D01*
X50736Y39158D01*
X50739Y39156D01*
Y39153D01*
X50791Y39052D01*
X50845Y38962D01*
X50870Y38921D01*
X50897Y38883D01*
X50922Y38847D01*
X50944Y38814D01*
X50965Y38785D01*
X50985Y38760D01*
X51004Y38735D01*
X51017Y38719D01*
X51031Y38703D01*
X51039Y38692D01*
X51045Y38686D01*
X51047Y38684D01*
X51069Y38659D01*
X51091Y38640D01*
X51113Y38621D01*
X51135Y38607D01*
X51176Y38583D01*
X51211Y38566D01*
X51241Y38558D01*
X51266Y38552D01*
X51279Y38550D01*
X51285D01*
X51304Y38552D01*
X51323Y38558D01*
X51339Y38569D01*
X51356Y38580D01*
X51370Y38591D01*
X51378Y38602D01*
X51383Y38607D01*
X51386Y38610D01*
X51399Y38634D01*
X51410Y38667D01*
X51419Y38700D01*
X51424Y38733D01*
X51427Y38763D01*
X51429Y38787D01*
Y38804D01*
Y38806D01*
Y38809D01*
X51427Y38877D01*
X51421Y38948D01*
X51410Y39019D01*
X51397Y39093D01*
X51367Y39235D01*
X51348Y39303D01*
X51328Y39369D01*
X51309Y39429D01*
X51290Y39483D01*
X51274Y39533D01*
X51260Y39576D01*
X51247Y39612D01*
X51236Y39636D01*
X51230Y39653D01*
X51227Y39658D01*
X51189Y39746D01*
X51154Y39827D01*
X51118Y39901D01*
X51083Y39967D01*
X51050Y40027D01*
X51020Y40081D01*
X50990Y40128D01*
X50963Y40169D01*
X50938Y40204D01*
X50916Y40234D01*
X50897Y40259D01*
X50881Y40278D01*
X50867Y40292D01*
X50859Y40302D01*
X50854Y40308D01*
X50851Y40311D01*
X50818Y40338D01*
X50788Y40357D01*
X50758Y40371D01*
X50733Y40379D01*
X50712Y40387D01*
X50695Y40390D01*
D02*
G37*
G36*
X61400Y40382D02*
X61394D01*
X61372Y40379D01*
X61350Y40376D01*
X61334Y40368D01*
X61318Y40360D01*
X61307Y40352D01*
X61299Y40346D01*
X61293Y40341D01*
X61290Y40338D01*
X61277Y40321D01*
X61266Y40302D01*
X61260Y40283D01*
X61255Y40267D01*
X61252Y40251D01*
X61249Y40237D01*
Y40229D01*
Y40226D01*
X61252Y40160D01*
X61263Y40095D01*
X61277Y40035D01*
X61293Y39977D01*
X61312Y39928D01*
X61318Y39909D01*
X61326Y39890D01*
X61331Y39876D01*
X61337Y39866D01*
X61339Y39860D01*
Y39857D01*
X61372Y39789D01*
X61408Y39726D01*
X61443Y39669D01*
X61476Y39623D01*
X61506Y39587D01*
X61528Y39557D01*
X61539Y39549D01*
X61544Y39541D01*
X61547Y39538D01*
X61550Y39535D01*
X61593Y39492D01*
X61640Y39451D01*
X61681Y39421D01*
X61716Y39393D01*
X61749Y39371D01*
X61774Y39358D01*
X61790Y39350D01*
X61793Y39347D01*
X61795D01*
X61847Y39328D01*
X61905Y39309D01*
X61962Y39292D01*
X62019Y39281D01*
X62071Y39270D01*
X62093Y39265D01*
X62112Y39262D01*
X62128Y39259D01*
X62139D01*
X62147Y39257D01*
X62150D01*
X62115Y39371D01*
X62076Y39481D01*
X62036Y39579D01*
X61997Y39672D01*
X61956Y39759D01*
X61918Y39836D01*
X61880Y39906D01*
X61842Y39969D01*
X61806Y40024D01*
X61776Y40073D01*
X61746Y40114D01*
X61722Y40147D01*
X61703Y40174D01*
X61689Y40193D01*
X61678Y40204D01*
X61675Y40207D01*
X61645Y40237D01*
X61618Y40264D01*
X61591Y40289D01*
X61566Y40308D01*
X61541Y40324D01*
X61517Y40338D01*
X61476Y40360D01*
X61443Y40373D01*
X61416Y40379D01*
X61400Y40382D01*
D02*
G37*
G36*
X70422Y41463D02*
X70370D01*
X70327Y41460D01*
X70288Y41457D01*
X70215Y41441D01*
X70155Y41419D01*
X70103Y41394D01*
X70081Y41381D01*
X70062Y41370D01*
X70045Y41359D01*
X70032Y41348D01*
X70021Y41340D01*
X70013Y41332D01*
X70010Y41329D01*
X70007Y41326D01*
X69983Y41299D01*
X69964Y41271D01*
X69944Y41241D01*
X69931Y41212D01*
X69906Y41149D01*
X69890Y41089D01*
X69882Y41034D01*
X69876Y41012D01*
Y40993D01*
X69873Y40974D01*
Y40963D01*
Y40955D01*
Y40952D01*
X69876Y40887D01*
X69882Y40821D01*
X69893Y40756D01*
X69906Y40696D01*
X69920Y40635D01*
X69939Y40578D01*
X69955Y40526D01*
X69974Y40474D01*
X69994Y40431D01*
X70013Y40390D01*
X70032Y40354D01*
X70045Y40324D01*
X70059Y40300D01*
X70070Y40281D01*
X70075Y40270D01*
X70078Y40267D01*
X70116Y40210D01*
X70160Y40160D01*
X70204Y40117D01*
X70250Y40078D01*
X70297Y40049D01*
X70343Y40021D01*
X70389Y39999D01*
X70433Y39983D01*
X70474Y39969D01*
X70512Y39958D01*
X70548Y39953D01*
X70575Y39948D01*
X70600Y39945D01*
X70619Y39942D01*
X70679D01*
X70725Y39945D01*
X70772Y39950D01*
X70815Y39953D01*
X70854Y39958D01*
X70886Y39961D01*
X70897D01*
X70905Y39964D01*
X70913D01*
X70490Y41457D01*
X70441Y41460D01*
X70422Y41463D01*
D02*
G37*
G36*
X65527Y40417D02*
X65505D01*
X65473Y40414D01*
X65445Y40406D01*
X65418Y40393D01*
X65396Y40379D01*
X65377Y40365D01*
X65364Y40352D01*
X65355Y40343D01*
X65352Y40341D01*
X65331Y40311D01*
X65314Y40278D01*
X65303Y40242D01*
X65295Y40210D01*
X65290Y40179D01*
X65287Y40155D01*
Y40139D01*
Y40136D01*
Y40133D01*
X65293Y40007D01*
X65303Y39882D01*
X65323Y39759D01*
X65331Y39702D01*
X65342Y39650D01*
X65352Y39598D01*
X65361Y39552D01*
X65372Y39511D01*
X65380Y39478D01*
X65385Y39448D01*
X65391Y39426D01*
X65396Y39415D01*
Y39410D01*
X65437Y39265D01*
X65462Y39197D01*
X65484Y39131D01*
X65505Y39068D01*
X65530Y39008D01*
X65552Y38954D01*
X65574Y38902D01*
X65593Y38855D01*
X65612Y38814D01*
X65628Y38776D01*
X65642Y38746D01*
X65653Y38722D01*
X65661Y38703D01*
X65667Y38692D01*
X65669Y38689D01*
X65699Y38632D01*
X65729Y38577D01*
X65757Y38531D01*
X65784Y38487D01*
X65808Y38449D01*
X65830Y38413D01*
X65852Y38383D01*
X65871Y38356D01*
X65890Y38334D01*
X65904Y38315D01*
X65918Y38301D01*
X65929Y38288D01*
X65939Y38280D01*
X65945Y38274D01*
X65950Y38269D01*
X65980Y38249D01*
X66013Y38233D01*
X66043Y38222D01*
X66070Y38217D01*
X66095Y38211D01*
X66114Y38208D01*
X66131D01*
X66166Y38211D01*
X66199Y38219D01*
X66229Y38233D01*
X66253Y38247D01*
X66275Y38260D01*
X66289Y38274D01*
X66300Y38282D01*
X66303Y38285D01*
X66327Y38315D01*
X66343Y38350D01*
X66357Y38383D01*
X66365Y38413D01*
X66371Y38443D01*
X66374Y38465D01*
Y38479D01*
Y38484D01*
X66371Y38577D01*
X66363Y38670D01*
X66352Y38763D01*
X66338Y38858D01*
X66322Y38951D01*
X66303Y39038D01*
X66281Y39126D01*
X66259Y39208D01*
X66240Y39284D01*
X66218Y39352D01*
X66199Y39415D01*
X66182Y39467D01*
X66174Y39489D01*
X66169Y39511D01*
X66161Y39527D01*
X66158Y39541D01*
X66152Y39552D01*
X66150Y39562D01*
X66147Y39565D01*
Y39568D01*
X66103Y39677D01*
X66062Y39775D01*
X66024Y39863D01*
X65986Y39942D01*
X65950Y40013D01*
X65915Y40076D01*
X65885Y40130D01*
X65855Y40177D01*
X65828Y40218D01*
X65806Y40251D01*
X65784Y40278D01*
X65768Y40300D01*
X65754Y40316D01*
X65743Y40327D01*
X65737Y40332D01*
X65735Y40335D01*
X65699Y40362D01*
X65658Y40382D01*
X65620Y40398D01*
X65585Y40406D01*
X65554Y40412D01*
X65527Y40417D01*
D02*
G37*
G36*
X30504Y41561D02*
X30490D01*
X30455Y41558D01*
X30422Y41550D01*
X30395Y41536D01*
X30370Y41523D01*
X30351Y41509D01*
X30335Y41495D01*
X30327Y41487D01*
X30324Y41484D01*
X30299Y41454D01*
X30283Y41419D01*
X30269Y41386D01*
X30261Y41353D01*
X30256Y41323D01*
X30253Y41299D01*
Y41282D01*
Y41280D01*
Y41277D01*
X30256Y41220D01*
X30258Y41160D01*
X30267Y41097D01*
X30275Y41031D01*
X30299Y40900D01*
X30313Y40835D01*
X30324Y40772D01*
X30338Y40715D01*
X30351Y40660D01*
X30365Y40611D01*
X30376Y40567D01*
X30384Y40534D01*
X30392Y40507D01*
X30395Y40491D01*
X30398Y40488D01*
Y40485D01*
X30428Y40379D01*
X30458Y40278D01*
X30485Y40177D01*
X30515Y40078D01*
X30542Y39986D01*
X30567Y39896D01*
X30594Y39808D01*
X30619Y39721D01*
X30643Y39642D01*
X30665Y39562D01*
X30690Y39486D01*
X30712Y39415D01*
X30731Y39344D01*
X30753Y39279D01*
X30769Y39219D01*
X30788Y39158D01*
X30804Y39101D01*
X30821Y39049D01*
X30837Y39000D01*
X30851Y38956D01*
X30864Y38913D01*
X30875Y38875D01*
X30886Y38839D01*
X30897Y38809D01*
X30905Y38782D01*
X30914Y38757D01*
X30919Y38735D01*
X30924Y38719D01*
X30930Y38705D01*
X30933Y38697D01*
X30935Y38692D01*
Y38689D01*
X30952Y38640D01*
X30971Y38593D01*
X30990Y38550D01*
X31009Y38509D01*
X31028Y38473D01*
X31047Y38440D01*
X31064Y38413D01*
X31083Y38386D01*
X31099Y38364D01*
X31113Y38345D01*
X31126Y38329D01*
X31140Y38315D01*
X31148Y38307D01*
X31157Y38299D01*
X31159Y38296D01*
X31162Y38293D01*
X31189Y38274D01*
X31219Y38260D01*
X31247Y38252D01*
X31274Y38247D01*
X31299Y38241D01*
X31318Y38238D01*
X31337D01*
X31372Y38241D01*
X31405Y38249D01*
X31435Y38260D01*
X31460Y38274D01*
X31479Y38288D01*
X31492Y38299D01*
X31503Y38307D01*
X31506Y38309D01*
X31528Y38339D01*
X31544Y38372D01*
X31558Y38405D01*
X31566Y38438D01*
X31571Y38465D01*
X31574Y38487D01*
Y38503D01*
Y38509D01*
X31571Y38580D01*
X31566Y38653D01*
X31558Y38724D01*
X31550Y38790D01*
X31544Y38820D01*
X31541Y38847D01*
X31536Y38872D01*
X31533Y38894D01*
X31531Y38910D01*
X31528Y38924D01*
X31525Y38932D01*
Y38935D01*
X31517Y38970D01*
X31506Y39017D01*
X31495Y39068D01*
X31479Y39126D01*
X31462Y39186D01*
X31446Y39251D01*
X31410Y39380D01*
X31394Y39442D01*
X31378Y39503D01*
X31361Y39557D01*
X31348Y39606D01*
X31337Y39644D01*
X31331Y39661D01*
X31328Y39674D01*
X31326Y39688D01*
X31323Y39696D01*
X31320Y39699D01*
Y39702D01*
X31279Y39847D01*
X31238Y39983D01*
X31200Y40114D01*
X31165Y40237D01*
X31129Y40354D01*
X31094Y40463D01*
X31064Y40564D01*
X31034Y40655D01*
X31006Y40739D01*
X30985Y40810D01*
X30963Y40873D01*
X30946Y40927D01*
X30938Y40949D01*
X30933Y40968D01*
X30927Y40985D01*
X30922Y40999D01*
X30919Y41009D01*
X30916Y41018D01*
X30914Y41020D01*
Y41023D01*
X30895Y41075D01*
X30878Y41124D01*
X30862Y41168D01*
X30845Y41209D01*
X30832Y41244D01*
X30818Y41274D01*
X30807Y41302D01*
X30793Y41326D01*
X30785Y41348D01*
X30774Y41364D01*
X30769Y41378D01*
X30761Y41389D01*
X30755Y41397D01*
X30753Y41403D01*
X30750Y41408D01*
X30725Y41441D01*
X30701Y41465D01*
X30681Y41487D01*
X30662Y41504D01*
X30649Y41517D01*
X30635Y41525D01*
X30630Y41528D01*
X30627Y41531D01*
X30605Y41542D01*
X30580Y41547D01*
X30537Y41558D01*
X30518D01*
X30504Y41561D01*
D02*
G37*
G36*
X44105Y41539D02*
X44069D01*
X44034Y41536D01*
X43999Y41531D01*
X43966Y41525D01*
X43933Y41515D01*
X43876Y41487D01*
X43829Y41460D01*
X43788Y41430D01*
X43775Y41416D01*
X43761Y41403D01*
X43750Y41392D01*
X43742Y41386D01*
X43739Y41381D01*
X43736Y41378D01*
X43712Y41345D01*
X43693Y41310D01*
X43674Y41271D01*
X43660Y41231D01*
X43635Y41143D01*
X43619Y41059D01*
X43613Y41020D01*
X43611Y40982D01*
X43605Y40949D01*
Y40919D01*
X43603Y40895D01*
Y40878D01*
Y40867D01*
Y40862D01*
X43605Y40753D01*
X43613Y40644D01*
X43624Y40529D01*
X43641Y40417D01*
X43660Y40308D01*
X43682Y40201D01*
X43704Y40098D01*
X43728Y39999D01*
X43753Y39906D01*
X43775Y39825D01*
X43796Y39748D01*
X43805Y39715D01*
X43816Y39685D01*
X43824Y39658D01*
X43829Y39634D01*
X43837Y39612D01*
X43843Y39595D01*
X43848Y39582D01*
X43851Y39571D01*
X43854Y39565D01*
Y39562D01*
X43903Y39429D01*
X43955Y39306D01*
X44007Y39191D01*
X44061Y39082D01*
X44116Y38984D01*
X44170Y38894D01*
X44222Y38809D01*
X44271Y38735D01*
X44321Y38673D01*
X44364Y38615D01*
X44403Y38566D01*
X44438Y38528D01*
X44465Y38498D01*
X44487Y38473D01*
X44498Y38462D01*
X44504Y38457D01*
X44542Y38424D01*
X44583Y38394D01*
X44624Y38370D01*
X44665Y38348D01*
X44706Y38329D01*
X44744Y38315D01*
X44785Y38301D01*
X44820Y38293D01*
X44856Y38285D01*
X44888Y38280D01*
X44916Y38274D01*
X44940Y38271D01*
X44962Y38269D01*
X44989D01*
X45028Y38271D01*
X45066Y38277D01*
X45101Y38282D01*
X45134Y38293D01*
X45197Y38320D01*
X45246Y38350D01*
X45287Y38378D01*
X45303Y38391D01*
X45317Y38405D01*
X45328Y38416D01*
X45336Y38421D01*
X45339Y38427D01*
X45342Y38430D01*
X45366Y38462D01*
X45385Y38498D01*
X45404Y38536D01*
X45421Y38574D01*
X45445Y38653D01*
X45462Y38733D01*
X45467Y38768D01*
X45470Y38801D01*
X45473Y38831D01*
X45475Y38858D01*
X45478Y38880D01*
Y38896D01*
Y38907D01*
Y38910D01*
X45475Y38981D01*
X45473Y39057D01*
X45456Y39210D01*
X45434Y39366D01*
X45421Y39440D01*
X45407Y39513D01*
X45396Y39579D01*
X45383Y39642D01*
X45372Y39696D01*
X45361Y39743D01*
X45353Y39781D01*
X45344Y39811D01*
X45342Y39822D01*
Y39830D01*
X45339Y39833D01*
Y39836D01*
X45312Y39937D01*
X45284Y40032D01*
X45257Y40125D01*
X45232Y40210D01*
X45205Y40286D01*
X45181Y40360D01*
X45156Y40425D01*
X45134Y40485D01*
X45112Y40540D01*
X45093Y40586D01*
X45077Y40624D01*
X45063Y40657D01*
X45052Y40685D01*
X45044Y40704D01*
X45039Y40715D01*
X45036Y40717D01*
X45006Y40777D01*
X44976Y40832D01*
X44946Y40884D01*
X44919Y40933D01*
X44891Y40977D01*
X44864Y41018D01*
X44839Y41053D01*
X44818Y41089D01*
X44796Y41116D01*
X44776Y41143D01*
X44760Y41165D01*
X44747Y41181D01*
X44736Y41195D01*
X44727Y41206D01*
X44722Y41212D01*
X44719Y41214D01*
X44662Y41274D01*
X44607Y41326D01*
X44555Y41370D01*
X44512Y41405D01*
X44473Y41430D01*
X44444Y41449D01*
X44433Y41454D01*
X44424Y41460D01*
X44422Y41463D01*
X44419D01*
X44362Y41487D01*
X44304Y41506D01*
X44244Y41520D01*
X44190Y41531D01*
X44140Y41536D01*
X44121D01*
X44105Y41539D01*
D02*
G37*
%LPD*%
D10*
X55758Y25374D02*
Y27121D01*
Y25374D02*
X62648D01*
Y27115D01*
X45928Y25382D02*
Y27121D01*
X39038Y25382D02*
X45928D01*
X39038D02*
Y27121D01*
X33465Y3149D02*
Y28740D01*
Y3149D02*
X33661D01*
X68898D01*
Y28740D01*
X65910D02*
X68898D01*
X33447D02*
X36238D01*
X36452D01*
M02*
