G04*
G04 #@! TF.GenerationSoftware,Altium Limited,Altium Designer,24.3.1 (35)*
G04*
G04 Layer_Color=16711935*
%FSLAX25Y25*%
%MOIN*%
G70*
G04*
G04 #@! TF.SameCoordinates,4C6EEDD9-8573-49FE-A8EC-0E224A19D34F*
G04*
G04*
G04 #@! TF.FilePolarity,Positive*
G04*
G01*
G75*
%ADD19C,0.01000*%
%ADD20C,0.00197*%
D19*
X311024Y234252D02*
G03*
X303150Y242126I-7874J0D01*
G01*
Y167323D02*
G03*
X311024Y175197I0J7874D01*
G01*
X90551Y242126D02*
G03*
X82677Y234252I0J-7874D01*
G01*
Y175197D02*
G03*
X90551Y167323I7874J0D01*
G01*
X311024Y145669D02*
G03*
X303150Y153543I-7874J0D01*
G01*
Y74803D02*
G03*
X311024Y82677I0J7874D01*
G01*
X90551Y153543D02*
G03*
X82677Y145669I0J-7874D01*
G01*
Y82677D02*
G03*
X90551Y74803I7874J0D01*
G01*
Y167323D02*
X303150D01*
X90551Y242126D02*
X303150D01*
X311024Y175197D02*
Y234252D01*
X82677Y175197D02*
Y234252D01*
X90551Y74803D02*
X303150D01*
X90551Y153543D02*
X303150D01*
X311024Y82677D02*
Y145669D01*
X82677Y82677D02*
Y145669D01*
D20*
X318110Y55118D02*
G03*
X318110Y55118I-5118J0D01*
G01*
X85827D02*
G03*
X85827Y55118I-5118J0D01*
G01*
X318110Y283465D02*
G03*
X318110Y283465I-5118J0D01*
G01*
X85827D02*
G03*
X85827Y283465I-5118J0D01*
G01*
M02*
