G04*
G04 #@! TF.GenerationSoftware,Altium Limited,Altium Designer,24.3.1 (35)*
G04*
G04 Layer_Color=0*
%FSLAX25Y25*%
%MOIN*%
G70*
G04*
G04 #@! TF.SameCoordinates,4C6EEDD9-8573-49FE-A8EC-0E224A19D34F*
G04*
G04*
G04 #@! TF.FilePolarity,Positive*
G04*
G01*
G75*
%ADD24C,0.00100*%
G36*
X82677Y82677D02*
Y145669D01*
Y146445D01*
X82980Y147966D01*
X83573Y149399D01*
X84435Y150689D01*
X85532Y151785D01*
X86821Y152647D01*
X88254Y153241D01*
X89776Y153543D01*
X90551D01*
D01*
X303150D01*
X303925D01*
X305446Y153241D01*
X306879Y152647D01*
X308169Y151785D01*
X309266Y150689D01*
X310127Y149399D01*
X310721Y147966D01*
X311024Y146445D01*
Y145669D01*
D01*
Y82677D01*
Y81902D01*
X310721Y80380D01*
X310127Y78947D01*
X309266Y77658D01*
X308169Y76561D01*
X306879Y75699D01*
X305446Y75106D01*
X303925Y74803D01*
X303150D01*
D01*
X90551D01*
X89776D01*
X88254Y75106D01*
X86821Y75699D01*
X85532Y76561D01*
X84435Y77658D01*
X83573Y78947D01*
X82980Y80380D01*
X82677Y81902D01*
Y82677D01*
D01*
D02*
G37*
G36*
Y175197D02*
Y234252D01*
Y235028D01*
X82980Y236549D01*
X83573Y237982D01*
X84435Y239271D01*
X85532Y240368D01*
X86821Y241230D01*
X88254Y241823D01*
X89776Y242126D01*
X90551D01*
D01*
X303150D01*
X303925D01*
X305446Y241823D01*
X306879Y241230D01*
X308169Y240368D01*
X309266Y239271D01*
X310127Y237982D01*
X310721Y236549D01*
X311024Y235028D01*
Y234252D01*
D01*
Y175197D01*
Y174421D01*
X310721Y172900D01*
X310127Y171467D01*
X309266Y170177D01*
X308169Y169081D01*
X306879Y168219D01*
X305446Y167625D01*
X303925Y167323D01*
X303150D01*
D01*
X90551D01*
X89776D01*
X88254Y167625D01*
X86821Y168219D01*
X85532Y169081D01*
X84435Y170177D01*
X83573Y171467D01*
X82980Y172900D01*
X82677Y174421D01*
Y175197D01*
D01*
D02*
G37*
G36*
X312992Y50000D02*
X312488D01*
X311499Y50197D01*
X310568Y50582D01*
X309730Y51143D01*
X309017Y51855D01*
X308456Y52694D01*
X308071Y53625D01*
X307874Y54614D01*
Y55118D01*
Y55622D01*
X308071Y56611D01*
X308456Y57542D01*
X309017Y58381D01*
X309730Y59094D01*
X310568Y59654D01*
X311499Y60040D01*
X312488Y60236D01*
X312992D01*
X313496D01*
X314485Y60040D01*
X315417Y59654D01*
X316255Y59094D01*
X316968Y58381D01*
X317528Y57542D01*
X317914Y56611D01*
X318110Y55622D01*
Y55118D01*
Y54614D01*
X317914Y53625D01*
X317528Y52694D01*
X316968Y51855D01*
X316255Y51143D01*
X315417Y50582D01*
X314485Y50197D01*
X313496Y50000D01*
X312992D01*
D01*
D02*
G37*
G36*
X80709D02*
X80204D01*
X79216Y50197D01*
X78284Y50582D01*
X77446Y51143D01*
X76733Y51855D01*
X76173Y52694D01*
X75787Y53625D01*
X75590Y54614D01*
Y55118D01*
Y55622D01*
X75787Y56611D01*
X76173Y57542D01*
X76733Y58381D01*
X77446Y59094D01*
X78284Y59654D01*
X79216Y60040D01*
X80204Y60236D01*
X80709D01*
X81213D01*
X82201Y60040D01*
X83133Y59654D01*
X83971Y59094D01*
X84684Y58381D01*
X85244Y57542D01*
X85630Y56611D01*
X85827Y55622D01*
Y55118D01*
Y54614D01*
X85630Y53625D01*
X85244Y52694D01*
X84684Y51855D01*
X83971Y51143D01*
X83133Y50582D01*
X82201Y50197D01*
X81213Y50000D01*
X80709D01*
D01*
D02*
G37*
G36*
X312992Y278346D02*
X312488D01*
X311499Y278543D01*
X310568Y278929D01*
X309730Y279489D01*
X309017Y280202D01*
X308456Y281040D01*
X308071Y281972D01*
X307874Y282961D01*
Y283465D01*
Y283969D01*
X308071Y284958D01*
X308456Y285889D01*
X309017Y286727D01*
X309730Y287440D01*
X310568Y288000D01*
X311499Y288386D01*
X312488Y288583D01*
X312992D01*
X313496D01*
X314485Y288386D01*
X315417Y288000D01*
X316255Y287440D01*
X316968Y286727D01*
X317528Y285889D01*
X317914Y284958D01*
X318110Y283969D01*
Y283465D01*
Y282961D01*
X317914Y281972D01*
X317528Y281040D01*
X316968Y280202D01*
X316255Y279489D01*
X315417Y278929D01*
X314485Y278543D01*
X313496Y278346D01*
X312992D01*
D01*
D02*
G37*
G36*
X80709D02*
X80204D01*
X79216Y278543D01*
X78284Y278929D01*
X77446Y279489D01*
X76733Y280202D01*
X76173Y281040D01*
X75787Y281972D01*
X75590Y282961D01*
Y283465D01*
Y283969D01*
X75787Y284958D01*
X76173Y285889D01*
X76733Y286727D01*
X77446Y287440D01*
X78284Y288000D01*
X79216Y288386D01*
X80204Y288583D01*
X80709D01*
X81213D01*
X82201Y288386D01*
X83133Y288000D01*
X83971Y287440D01*
X84684Y286727D01*
X85244Y285889D01*
X85630Y284958D01*
X85827Y283969D01*
Y283465D01*
Y282961D01*
X85630Y281972D01*
X85244Y281040D01*
X84684Y280202D01*
X83971Y279489D01*
X83133Y278929D01*
X82201Y278543D01*
X81213Y278346D01*
X80709D01*
D01*
D02*
G37*
D24*
X70866Y55118D02*
G03*
X80709Y45276I9843J0D01*
G01*
D02*
G03*
X90551Y55118I0J9843D01*
G01*
Y62992D01*
X303150Y62992D01*
Y55118D01*
D02*
G03*
X312992Y45276I9843J0D01*
G01*
D02*
G03*
X322835Y55118I0J9843D01*
G01*
Y283465D01*
D02*
G03*
X312992Y293307I-9843J0D01*
G01*
D02*
G03*
X303150Y283465I0J-9843D01*
G01*
Y267717D01*
X251969D01*
Y297244D01*
X141732D01*
Y267717D01*
X90551D01*
Y283465D01*
D02*
G03*
X80709Y293307I-9843J-0D01*
G01*
D02*
G03*
X70866Y283465I0J-9843D01*
G01*
X70866Y55118D01*
M02*
