G04*
G04 #@! TF.GenerationSoftware,Altium Limited,Altium Designer,24.3.1 (35)*
G04*
G04 Layer_Physical_Order=1*
G04 Layer_Color=255*
%FSLAX25Y25*%
%MOIN*%
G70*
G04*
G04 #@! TF.SameCoordinates,4C6EEDD9-8573-49FE-A8EC-0E224A19D34F*
G04*
G04*
G04 #@! TF.FilePolarity,Positive*
G04*
G01*
G75*
%ADD13C,0.06299*%
%ADD14C,0.03150*%
G36*
X184500Y246000D02*
X86500D01*
Y266000D01*
X161500D01*
Y279500D01*
X184500D01*
Y246000D01*
D02*
G37*
G36*
X224000Y266500D02*
X307000D01*
Y246000D01*
X201500D01*
Y279500D01*
X224000D01*
Y266500D01*
D02*
G37*
G36*
G01X304169Y55905D02*
G02X312205Y63941I8823J-787D01*
G01Y61368D01*
G03X306742Y55905I787J-6250D01*
G01X304169D01*
D02*
G37*
G36*
G01X313779Y63941D02*
G02X321815Y55905I-787J-8823D01*
G01X319242D01*
G03X313779Y61368I-6250J-787D01*
G01Y63941D01*
D02*
G37*
G36*
G01X321815Y54331D02*
G02X313779Y46295I-8823J787D01*
G01Y48868D01*
G03X319242Y54331I-787J6250D01*
G01X321815D01*
D02*
G37*
G36*
G01X312205Y46295D02*
G02X304169Y54331I787J8823D01*
G01X306742D01*
G03X312205Y48868I6250J787D01*
G01Y46295D01*
D02*
G37*
G36*
G01X79921D02*
G02X71885Y54331I787J8823D01*
G01X74459D01*
G03X79921Y48868I6250J787D01*
G01Y46295D01*
D02*
G37*
G36*
G01X89532Y54331D02*
G02X81496Y46295I-8823J787D01*
G01Y48868D01*
G03X86958Y54331I-787J6250D01*
G01X89532D01*
D02*
G37*
G36*
G01X81496Y63941D02*
G02X89532Y55905I-787J-8823D01*
G01X86958D01*
G03X81496Y61368I-6250J-787D01*
G01Y63941D01*
D02*
G37*
G36*
G01X71885Y55905D02*
G02X79921Y63941I8823J-787D01*
G01Y61368D01*
G03X74459Y55905I787J-6250D01*
G01X71885D01*
D02*
G37*
G36*
G01X304169Y284252D02*
G02X312205Y292288I8823J-787D01*
G01Y289714D01*
G03X306742Y284252I787J-6250D01*
G01X304169D01*
D02*
G37*
G36*
G01X313779Y292288D02*
G02X321815Y284252I-787J-8823D01*
G01X319242D01*
G03X313779Y289714I-6250J-787D01*
G01Y292288D01*
D02*
G37*
G36*
G01X321815Y282677D02*
G02X313779Y274641I-8823J787D01*
G01Y277215D01*
G03X319242Y282677I-787J6250D01*
G01X321815D01*
D02*
G37*
G36*
G01X312205Y274641D02*
G02X304169Y282677I787J8823D01*
G01X306742D01*
G03X312205Y277215I6250J787D01*
G01Y274641D01*
D02*
G37*
G36*
G01X71885Y284252D02*
G02X79921Y292288I8823J-787D01*
G01Y289714D01*
G03X74459Y284252I787J-6250D01*
G01X71885D01*
D02*
G37*
G36*
G01X81496Y292288D02*
G02X89532Y284252I-787J-8823D01*
G01X86958D01*
G03X81496Y289714I-6250J-787D01*
G01Y292288D01*
D02*
G37*
G36*
G01X89532Y282677D02*
G02X81496Y274641I-8823J787D01*
G01Y277215D01*
G03X86958Y282677I-787J6250D01*
G01X89532D01*
D02*
G37*
G36*
G01X79921Y274641D02*
G02X71885Y282677I787J8823D01*
G01X74459D01*
G03X79921Y277215I6250J787D01*
G01Y274641D01*
D02*
G37*
D13*
X220472Y275590D02*
D03*
X165354D02*
D03*
X212598D02*
D03*
X173228D02*
D03*
X204724D02*
D03*
X181102D02*
D03*
X196850D02*
D03*
X188976D02*
D03*
D14*
X92587Y252000D02*
D03*
Y260000D02*
D03*
X96087Y256000D02*
D03*
X99587Y260000D02*
D03*
Y264000D02*
D03*
X89087Y260000D02*
D03*
Y252000D02*
D03*
Y248000D02*
D03*
X99587Y252000D02*
D03*
X89087Y256000D02*
D03*
X99587D02*
D03*
X96087Y260000D02*
D03*
Y252000D02*
D03*
X92587Y256000D02*
D03*
X96087Y248000D02*
D03*
X92587D02*
D03*
X99587D02*
D03*
X89087Y264000D02*
D03*
X92587D02*
D03*
X96087D02*
D03*
X304413D02*
D03*
X293913Y260000D02*
D03*
Y252000D02*
D03*
X304413Y248000D02*
D03*
X293913D02*
D03*
X304413Y252000D02*
D03*
X293913Y256000D02*
D03*
X304413D02*
D03*
X300913Y260000D02*
D03*
Y252000D02*
D03*
X297413Y256000D02*
D03*
X304413Y260000D02*
D03*
X300913Y248000D02*
D03*
X297413Y252000D02*
D03*
Y260000D02*
D03*
X300913Y256000D02*
D03*
X297413Y248000D02*
D03*
X293913Y264000D02*
D03*
X297413D02*
D03*
X300913D02*
D03*
M02*
