G04*
G04 #@! TF.GenerationSoftware,Altium Limited,Altium Designer,24.3.1 (35)*
G04*
G04 Layer_Color=8421504*
%FSLAX25Y25*%
%MOIN*%
G70*
G04*
G04 #@! TF.SameCoordinates,4C6EEDD9-8573-49FE-A8EC-0E224A19D34F*
G04*
G04*
G04 #@! TF.FilePolarity,Positive*
G04*
G01*
G75*
G36*
X71885Y54331D02*
X71885D01*
X71885D01*
D01*
D02*
G37*
G36*
X74459Y54331D02*
X74512Y53988D01*
X74673Y53315D01*
X74908Y52663D01*
X75212Y52041D01*
X75583Y51456D01*
X76016Y50915D01*
X76506Y50426D01*
X77047Y49993D01*
X77631Y49622D01*
X78254Y49317D01*
X78905Y49083D01*
X79579Y48921D01*
X79921Y48868D01*
X79921D01*
Y46295D01*
X79537Y46329D01*
X78777Y46464D01*
X78032Y46665D01*
X77307Y46930D01*
X76609Y47256D01*
X75941Y47643D01*
X75309Y48085D01*
X74718Y48582D01*
X74172Y49127D01*
X73676Y49718D01*
X73233Y50350D01*
X72847Y51018D01*
X72520Y51717D01*
X72256Y52442D01*
X72055Y53187D01*
X71920Y53946D01*
X71885Y54331D01*
X74459Y54331D01*
D02*
G37*
G36*
X79921Y63941D02*
D01*
Y63941D01*
Y63941D01*
D02*
G37*
G36*
X79921Y61368D02*
X79579Y61315D01*
X78905Y61154D01*
X78254Y60919D01*
X77631Y60615D01*
X77047Y60243D01*
X76506Y59811D01*
X76016Y59321D01*
X75583Y58780D01*
X75212Y58195D01*
X74908Y57573D01*
X74673Y56921D01*
X74512Y56248D01*
X74459Y55905D01*
Y55905D01*
X71885D01*
X71920Y56290D01*
X72055Y57050D01*
X72256Y57794D01*
X72520Y58519D01*
X72847Y59218D01*
X73233Y59886D01*
X73676Y60518D01*
X74172Y61109D01*
X74718Y61655D01*
X75309Y62151D01*
X75941Y62594D01*
X76609Y62980D01*
X77307Y63306D01*
X78032Y63571D01*
X78777Y63772D01*
X79537Y63907D01*
X79921Y63941D01*
X79921Y61368D01*
D02*
G37*
G36*
X89498Y53946D02*
X89362Y53187D01*
X89162Y52442D01*
X88897Y51717D01*
X88570Y51018D01*
X88184Y50350D01*
X87741Y49718D01*
X87245Y49127D01*
X86700Y48582D01*
X86109Y48085D01*
X85477Y47643D01*
X84809Y47256D01*
X84110Y46930D01*
X83385Y46665D01*
X82640Y46464D01*
X81880Y46329D01*
X81496Y46295D01*
X81496Y48868D01*
X81839Y48921D01*
X82512Y49083D01*
X83164Y49317D01*
X83786Y49622D01*
X84371Y49993D01*
X84911Y50426D01*
X85401Y50915D01*
X85834Y51456D01*
X86205Y52041D01*
X86510Y52663D01*
X86744Y53315D01*
X86906Y53988D01*
X86958Y54331D01*
Y54331D01*
X89532D01*
X89498Y53946D01*
D02*
G37*
G36*
X81496Y46295D02*
Y46295D01*
D01*
Y46295D01*
D02*
G37*
G36*
X81880Y63907D02*
X82640Y63772D01*
X83385Y63571D01*
X84110Y63306D01*
X84809Y62980D01*
X85477Y62594D01*
X86109Y62151D01*
X86700Y61655D01*
X87245Y61109D01*
X87741Y60518D01*
X88184Y59886D01*
X88570Y59218D01*
X88897Y58519D01*
X89162Y57794D01*
X89362Y57050D01*
X89498Y56290D01*
X89532Y55905D01*
X86958Y55905D01*
X86906Y56248D01*
X86744Y56921D01*
X86510Y57573D01*
X86205Y58195D01*
X85834Y58780D01*
X85401Y59321D01*
X84911Y59811D01*
X84371Y60243D01*
X83786Y60615D01*
X83164Y60919D01*
X82512Y61154D01*
X81839Y61315D01*
X81496Y61368D01*
X81496D01*
Y63941D01*
X81880Y63907D01*
D02*
G37*
G36*
X89532Y55905D02*
X89532D01*
D01*
X89532D01*
D02*
G37*
G36*
X71885Y282677D02*
X71885D01*
X71885D01*
D01*
D02*
G37*
G36*
X74459Y282677D02*
X74512Y282335D01*
X74673Y281661D01*
X74908Y281010D01*
X75212Y280387D01*
X75583Y279803D01*
X76016Y279262D01*
X76506Y278772D01*
X77047Y278339D01*
X77631Y277968D01*
X78254Y277663D01*
X78905Y277429D01*
X79579Y277268D01*
X79921Y277215D01*
X79921D01*
Y274641D01*
X79537Y274676D01*
X78777Y274811D01*
X78032Y275011D01*
X77307Y275276D01*
X76609Y275603D01*
X75941Y275989D01*
X75309Y276432D01*
X74718Y276928D01*
X74172Y277474D01*
X73676Y278065D01*
X73233Y278696D01*
X72847Y279364D01*
X72520Y280063D01*
X72256Y280788D01*
X72055Y281533D01*
X71920Y282293D01*
X71885Y282677D01*
X74459Y282677D01*
D02*
G37*
G36*
X79921Y292288D02*
D01*
Y292288D01*
Y292288D01*
D02*
G37*
G36*
X79921Y289714D02*
X79579Y289662D01*
X78905Y289500D01*
X78254Y289266D01*
X77631Y288961D01*
X77047Y288590D01*
X76506Y288157D01*
X76016Y287667D01*
X75583Y287127D01*
X75212Y286542D01*
X74908Y285920D01*
X74673Y285268D01*
X74512Y284594D01*
X74459Y284252D01*
Y284252D01*
X71885D01*
X71920Y284636D01*
X72055Y285396D01*
X72256Y286141D01*
X72520Y286866D01*
X72847Y287565D01*
X73233Y288233D01*
X73676Y288864D01*
X74172Y289456D01*
X74718Y290001D01*
X75309Y290497D01*
X75941Y290940D01*
X76609Y291326D01*
X77307Y291653D01*
X78032Y291918D01*
X78777Y292118D01*
X79537Y292253D01*
X79921Y292288D01*
X79921Y289714D01*
D02*
G37*
G36*
X89498Y282293D02*
X89362Y281533D01*
X89162Y280788D01*
X88897Y280063D01*
X88570Y279364D01*
X88184Y278696D01*
X87741Y278065D01*
X87245Y277474D01*
X86700Y276928D01*
X86109Y276432D01*
X85477Y275989D01*
X84809Y275603D01*
X84110Y275276D01*
X83385Y275011D01*
X82640Y274811D01*
X81880Y274676D01*
X81496Y274641D01*
X81496Y277215D01*
X81839Y277268D01*
X82512Y277429D01*
X83164Y277663D01*
X83786Y277968D01*
X84371Y278339D01*
X84911Y278772D01*
X85401Y279262D01*
X85834Y279803D01*
X86205Y280387D01*
X86510Y281010D01*
X86744Y281661D01*
X86906Y282335D01*
X86958Y282677D01*
Y282677D01*
X89532D01*
X89498Y282293D01*
D02*
G37*
G36*
X81496Y274641D02*
Y274641D01*
D01*
Y274641D01*
D02*
G37*
G36*
X81880Y292253D02*
X82640Y292118D01*
X83385Y291918D01*
X84110Y291653D01*
X84809Y291326D01*
X85477Y290940D01*
X86109Y290497D01*
X86700Y290001D01*
X87245Y289456D01*
X87741Y288864D01*
X88184Y288233D01*
X88570Y287565D01*
X88897Y286866D01*
X89162Y286141D01*
X89362Y285396D01*
X89498Y284636D01*
X89532Y284252D01*
X86958Y284252D01*
X86906Y284594D01*
X86744Y285268D01*
X86510Y285920D01*
X86205Y286542D01*
X85834Y287127D01*
X85401Y287667D01*
X84911Y288157D01*
X84371Y288590D01*
X83786Y288961D01*
X83164Y289266D01*
X82512Y289500D01*
X81839Y289662D01*
X81496Y289714D01*
X81496D01*
Y292288D01*
X81880Y292253D01*
D02*
G37*
G36*
X89532Y284252D02*
X89532D01*
D01*
X89532D01*
D02*
G37*
G36*
X304169Y54331D02*
X304169D01*
X304169D01*
D01*
D02*
G37*
G36*
X306742Y54331D02*
X306795Y53988D01*
X306957Y53315D01*
X307191Y52663D01*
X307496Y52041D01*
X307867Y51456D01*
X308300Y50915D01*
X308789Y50426D01*
X309330Y49993D01*
X309915Y49622D01*
X310537Y49317D01*
X311189Y49083D01*
X311862Y48921D01*
X312205Y48868D01*
X312205D01*
Y46295D01*
X311821Y46329D01*
X311061Y46464D01*
X310316Y46665D01*
X309591Y46930D01*
X308892Y47256D01*
X308224Y47643D01*
X307592Y48085D01*
X307001Y48582D01*
X306456Y49127D01*
X305960Y49718D01*
X305517Y50350D01*
X305130Y51018D01*
X304804Y51717D01*
X304539Y52442D01*
X304338Y53187D01*
X304203Y53946D01*
X304169Y54331D01*
X306742Y54331D01*
D02*
G37*
G36*
X312205Y63941D02*
D01*
Y63941D01*
Y63941D01*
D02*
G37*
G36*
X312205Y61368D02*
X311862Y61315D01*
X311189Y61154D01*
X310537Y60919D01*
X309915Y60615D01*
X309330Y60243D01*
X308789Y59811D01*
X308300Y59321D01*
X307867Y58780D01*
X307496Y58195D01*
X307191Y57573D01*
X306957Y56921D01*
X306795Y56248D01*
X306742Y55905D01*
Y55905D01*
X304169D01*
X304203Y56290D01*
X304338Y57050D01*
X304539Y57794D01*
X304804Y58519D01*
X305130Y59218D01*
X305517Y59886D01*
X305960Y60518D01*
X306456Y61109D01*
X307001Y61655D01*
X307592Y62151D01*
X308224Y62594D01*
X308892Y62980D01*
X309591Y63306D01*
X310316Y63571D01*
X311061Y63772D01*
X311821Y63907D01*
X312205Y63941D01*
X312205Y61368D01*
D02*
G37*
G36*
X321781Y53946D02*
X321646Y53187D01*
X321445Y52442D01*
X321181Y51717D01*
X320854Y51018D01*
X320468Y50350D01*
X320025Y49718D01*
X319529Y49127D01*
X318983Y48582D01*
X318392Y48085D01*
X317760Y47643D01*
X317092Y47256D01*
X316393Y46930D01*
X315669Y46665D01*
X314924Y46464D01*
X314164Y46329D01*
X313779Y46295D01*
X313779Y48868D01*
X314122Y48921D01*
X314795Y49083D01*
X315447Y49317D01*
X316069Y49622D01*
X316654Y49993D01*
X317195Y50426D01*
X317685Y50915D01*
X318117Y51456D01*
X318489Y52041D01*
X318793Y52663D01*
X319028Y53315D01*
X319189Y53988D01*
X319242Y54331D01*
Y54331D01*
X321815D01*
X321781Y53946D01*
D02*
G37*
G36*
X313779Y46295D02*
Y46295D01*
D01*
Y46295D01*
D02*
G37*
G36*
X314164Y63907D02*
X314924Y63772D01*
X315669Y63571D01*
X316393Y63306D01*
X317092Y62980D01*
X317760Y62594D01*
X318392Y62151D01*
X318983Y61655D01*
X319529Y61109D01*
X320025Y60518D01*
X320468Y59886D01*
X320854Y59218D01*
X321181Y58519D01*
X321445Y57794D01*
X321646Y57050D01*
X321781Y56290D01*
X321815Y55905D01*
X319242Y55905D01*
X319189Y56248D01*
X319028Y56921D01*
X318793Y57573D01*
X318489Y58195D01*
X318117Y58780D01*
X317685Y59321D01*
X317195Y59811D01*
X316654Y60243D01*
X316069Y60615D01*
X315447Y60919D01*
X314795Y61154D01*
X314122Y61315D01*
X313779Y61368D01*
X313779D01*
Y63941D01*
X314164Y63907D01*
D02*
G37*
G36*
X321815Y55905D02*
X321815D01*
D01*
X321815D01*
D02*
G37*
G36*
X304169Y282677D02*
X304169D01*
X304169D01*
D01*
D02*
G37*
G36*
X306742Y282677D02*
X306795Y282335D01*
X306957Y281661D01*
X307191Y281010D01*
X307496Y280387D01*
X307867Y279803D01*
X308300Y279262D01*
X308789Y278772D01*
X309330Y278339D01*
X309915Y277968D01*
X310537Y277663D01*
X311189Y277429D01*
X311862Y277268D01*
X312205Y277215D01*
X312205D01*
Y274641D01*
X311821Y274676D01*
X311061Y274811D01*
X310316Y275011D01*
X309591Y275276D01*
X308892Y275603D01*
X308224Y275989D01*
X307592Y276432D01*
X307001Y276928D01*
X306456Y277474D01*
X305960Y278065D01*
X305517Y278696D01*
X305130Y279364D01*
X304804Y280063D01*
X304539Y280788D01*
X304338Y281533D01*
X304203Y282293D01*
X304169Y282677D01*
X306742Y282677D01*
D02*
G37*
G36*
X312205Y292288D02*
D01*
Y292288D01*
Y292288D01*
D02*
G37*
G36*
X312205Y289714D02*
X311862Y289662D01*
X311189Y289500D01*
X310537Y289266D01*
X309915Y288961D01*
X309330Y288590D01*
X308789Y288157D01*
X308300Y287667D01*
X307867Y287127D01*
X307496Y286542D01*
X307191Y285920D01*
X306957Y285268D01*
X306795Y284594D01*
X306742Y284252D01*
Y284252D01*
X304169D01*
X304203Y284636D01*
X304338Y285396D01*
X304539Y286141D01*
X304804Y286866D01*
X305130Y287565D01*
X305517Y288233D01*
X305960Y288864D01*
X306456Y289456D01*
X307001Y290001D01*
X307592Y290497D01*
X308224Y290940D01*
X308892Y291326D01*
X309591Y291653D01*
X310316Y291918D01*
X311061Y292118D01*
X311821Y292253D01*
X312205Y292288D01*
X312205Y289714D01*
D02*
G37*
G36*
X321781Y282293D02*
X321646Y281533D01*
X321445Y280788D01*
X321181Y280063D01*
X320854Y279364D01*
X320468Y278696D01*
X320025Y278065D01*
X319529Y277474D01*
X318983Y276928D01*
X318392Y276432D01*
X317760Y275989D01*
X317092Y275603D01*
X316393Y275276D01*
X315669Y275011D01*
X314924Y274811D01*
X314164Y274676D01*
X313779Y274641D01*
X313779Y277215D01*
X314122Y277268D01*
X314795Y277429D01*
X315447Y277663D01*
X316069Y277968D01*
X316654Y278339D01*
X317195Y278772D01*
X317685Y279262D01*
X318117Y279803D01*
X318489Y280387D01*
X318793Y281010D01*
X319028Y281661D01*
X319189Y282335D01*
X319242Y282677D01*
Y282677D01*
X321815D01*
X321781Y282293D01*
D02*
G37*
G36*
X313779Y274641D02*
Y274641D01*
D01*
Y274641D01*
D02*
G37*
G36*
X314164Y292253D02*
X314924Y292118D01*
X315669Y291918D01*
X316393Y291653D01*
X317092Y291326D01*
X317760Y290940D01*
X318392Y290497D01*
X318983Y290001D01*
X319529Y289456D01*
X320025Y288864D01*
X320468Y288233D01*
X320854Y287565D01*
X321181Y286866D01*
X321445Y286141D01*
X321646Y285396D01*
X321781Y284636D01*
X321815Y284252D01*
X319242Y284252D01*
X319189Y284594D01*
X319028Y285268D01*
X318793Y285920D01*
X318489Y286542D01*
X318117Y287127D01*
X317685Y287667D01*
X317195Y288157D01*
X316654Y288590D01*
X316069Y288961D01*
X315447Y289266D01*
X314795Y289500D01*
X314122Y289662D01*
X313779Y289714D01*
X313779D01*
Y292288D01*
X314164Y292253D01*
D02*
G37*
G36*
X321815Y284252D02*
X321815D01*
D01*
X321815D01*
D02*
G37*
M02*
