G04*
G04 #@! TF.GenerationSoftware,Altium Limited,Altium Designer,24.3.1 (35)*
G04*
G04 Layer_Color=16711935*
%FSLAX25Y25*%
%MOIN*%
G70*
G04*
G04 #@! TF.SameCoordinates,4C6EEDD9-8573-49FE-A8EC-0E224A19D34F*
G04*
G04*
G04 #@! TF.FilePolarity,Negative*
G04*
G01*
G75*
%ADD10C,0.07099*%
%ADD11C,0.00800*%
%ADD17R,0.16548X0.20485*%
%ADD18C,0.03950*%
D10*
X220472Y275590D02*
D03*
X165354D02*
D03*
X212598D02*
D03*
X173228D02*
D03*
X204724D02*
D03*
X181102D02*
D03*
X196850D02*
D03*
X188976D02*
D03*
D11*
X157480Y285433D02*
D03*
X232283Y277559D02*
D03*
D17*
X261417Y255906D02*
D03*
X299213D02*
D03*
X177953D02*
D03*
X215748D02*
D03*
X132283D02*
D03*
X94488D02*
D03*
D18*
X92587Y252000D02*
D03*
Y260000D02*
D03*
X96087Y256000D02*
D03*
X99587Y260000D02*
D03*
Y264000D02*
D03*
X89087Y260000D02*
D03*
Y252000D02*
D03*
Y248000D02*
D03*
X99587Y252000D02*
D03*
X89087Y256000D02*
D03*
X99587D02*
D03*
X96087Y260000D02*
D03*
Y252000D02*
D03*
X92587Y256000D02*
D03*
X96087Y248000D02*
D03*
X92587D02*
D03*
X99587D02*
D03*
X89087Y264000D02*
D03*
X92587D02*
D03*
X96087D02*
D03*
X304413D02*
D03*
X293913Y260000D02*
D03*
Y252000D02*
D03*
X304413Y248000D02*
D03*
X293913D02*
D03*
X304413Y252000D02*
D03*
X293913Y256000D02*
D03*
X304413D02*
D03*
X300913Y260000D02*
D03*
Y252000D02*
D03*
X297413Y256000D02*
D03*
X304413Y260000D02*
D03*
X300913Y248000D02*
D03*
X297413Y252000D02*
D03*
Y260000D02*
D03*
X300913Y256000D02*
D03*
X297413Y248000D02*
D03*
X293913Y264000D02*
D03*
X297413D02*
D03*
X300913D02*
D03*
M02*
