M48
;Layer_Color=9474304
;FILE_FORMAT=2:4
INCH,TZ
;TYPE=PLATED
T01F00S00C0.0197
T02F00S00C0.0433
T03F00S00C0.0866
%
T01
X29391Y24800
X29741
X30091
X30441
Y25200
X30091
X29741
X29391
Y25600
X29741
X30091
X30441
Y26000
X30091
X29741
X29391
Y26400
X29741
X30091
X30441
X9959
X9609
X9259
X8909
Y26000
X9259
X9609
X9959
Y25600
X9609
X9259
X8909
Y25200
X9259
X9609
X9959
Y24800
X9609
X9259
X8909
T02
X16535Y27559
X17323
X18110
X18898
X19685
X20472
X21260
X22047
T03
X15748Y28543
X23228Y27756
M30
