G04*
G04 #@! TF.GenerationSoftware,Altium Limited,Altium Designer,24.3.1 (35)*
G04*
G04 Layer_Color=2752767*
%FSLAX25Y25*%
%MOIN*%
G70*
G04*
G04 #@! TF.SameCoordinates,4C6EEDD9-8573-49FE-A8EC-0E224A19D34F*
G04*
G04*
G04 #@! TF.FilePolarity,Positive*
G04*
G01*
G75*
%ADD22C,0.00500*%
%ADD23C,0.00667*%
D22*
X218472Y273590D02*
Y277590D01*
X222472D01*
Y273590D01*
X218472D01*
X163354D02*
Y277590D01*
X167354D01*
Y273590D01*
X163354D01*
X210598D02*
Y277590D01*
X214598D01*
Y273590D01*
X210598D01*
X171228D02*
Y277590D01*
X175228D01*
Y273590D01*
X171228D01*
X202724D02*
Y277590D01*
X206724D01*
Y273590D01*
X202724D01*
X179102D02*
Y277590D01*
X183102D01*
Y273590D01*
X179102D01*
X194850D02*
Y277590D01*
X198850D01*
Y273590D01*
X194850D01*
X186976D02*
Y277590D01*
X190976D01*
Y273590D01*
X186976D01*
X92587Y250000D02*
X93587Y251000D01*
X94587D01*
X93587Y252000D01*
X94587Y253000D01*
X93587D01*
X92587Y254000D01*
X91587Y253000D01*
X90587D01*
X91587Y252000D01*
X90587Y251000D01*
X91587D01*
X92587Y250000D01*
Y258000D02*
X93587Y259000D01*
X94587D01*
X93587Y260000D01*
X94587Y261000D01*
X93587D01*
X92587Y262000D01*
X91587Y261000D01*
X90587D01*
X91587Y260000D01*
X90587Y259000D01*
X91587D01*
X92587Y258000D01*
X96087Y254000D02*
X97087Y255000D01*
X98087D01*
X97087Y256000D01*
X98087Y257000D01*
X97087D01*
X96087Y258000D01*
X95087Y257000D01*
X94087D01*
X95087Y256000D01*
X94087Y255000D01*
X95087D01*
X96087Y254000D01*
X99587Y258000D02*
X100587Y259000D01*
X101587D01*
X100587Y260000D01*
X101587Y261000D01*
X100587D01*
X99587Y262000D01*
X98587Y261000D01*
X97587D01*
X98587Y260000D01*
X97587Y259000D01*
X98587D01*
X99587Y258000D01*
Y262000D02*
X100587Y263000D01*
X101587D01*
X100587Y264000D01*
X101587Y265000D01*
X100587D01*
X99587Y266000D01*
X98587Y265000D01*
X97587D01*
X98587Y264000D01*
X97587Y263000D01*
X98587D01*
X99587Y262000D01*
X89087Y258000D02*
X90087Y259000D01*
X91087D01*
X90087Y260000D01*
X91087Y261000D01*
X90087D01*
X89087Y262000D01*
X88087Y261000D01*
X87087D01*
X88087Y260000D01*
X87087Y259000D01*
X88087D01*
X89087Y258000D01*
Y250000D02*
X90087Y251000D01*
X91087D01*
X90087Y252000D01*
X91087Y253000D01*
X90087D01*
X89087Y254000D01*
X88087Y253000D01*
X87087D01*
X88087Y252000D01*
X87087Y251000D01*
X88087D01*
X89087Y250000D01*
Y246000D02*
X90087Y247000D01*
X91087D01*
X90087Y248000D01*
X91087Y249000D01*
X90087D01*
X89087Y250000D01*
X88087Y249000D01*
X87087D01*
X88087Y248000D01*
X87087Y247000D01*
X88087D01*
X89087Y246000D01*
X99587Y250000D02*
X100587Y251000D01*
X101587D01*
X100587Y252000D01*
X101587Y253000D01*
X100587D01*
X99587Y254000D01*
X98587Y253000D01*
X97587D01*
X98587Y252000D01*
X97587Y251000D01*
X98587D01*
X99587Y250000D01*
X89087Y254000D02*
X90087Y255000D01*
X91087D01*
X90087Y256000D01*
X91087Y257000D01*
X90087D01*
X89087Y258000D01*
X88087Y257000D01*
X87087D01*
X88087Y256000D01*
X87087Y255000D01*
X88087D01*
X89087Y254000D01*
X99587D02*
X100587Y255000D01*
X101587D01*
X100587Y256000D01*
X101587Y257000D01*
X100587D01*
X99587Y258000D01*
X98587Y257000D01*
X97587D01*
X98587Y256000D01*
X97587Y255000D01*
X98587D01*
X99587Y254000D01*
X96087Y258000D02*
X97087Y259000D01*
X98087D01*
X97087Y260000D01*
X98087Y261000D01*
X97087D01*
X96087Y262000D01*
X95087Y261000D01*
X94087D01*
X95087Y260000D01*
X94087Y259000D01*
X95087D01*
X96087Y258000D01*
Y250000D02*
X97087Y251000D01*
X98087D01*
X97087Y252000D01*
X98087Y253000D01*
X97087D01*
X96087Y254000D01*
X95087Y253000D01*
X94087D01*
X95087Y252000D01*
X94087Y251000D01*
X95087D01*
X96087Y250000D01*
X92587Y254000D02*
X93587Y255000D01*
X94587D01*
X93587Y256000D01*
X94587Y257000D01*
X93587D01*
X92587Y258000D01*
X91587Y257000D01*
X90587D01*
X91587Y256000D01*
X90587Y255000D01*
X91587D01*
X92587Y254000D01*
X96087Y246000D02*
X97087Y247000D01*
X98087D01*
X97087Y248000D01*
X98087Y249000D01*
X97087D01*
X96087Y250000D01*
X95087Y249000D01*
X94087D01*
X95087Y248000D01*
X94087Y247000D01*
X95087D01*
X96087Y246000D01*
X92587D02*
X93587Y247000D01*
X94587D01*
X93587Y248000D01*
X94587Y249000D01*
X93587D01*
X92587Y250000D01*
X91587Y249000D01*
X90587D01*
X91587Y248000D01*
X90587Y247000D01*
X91587D01*
X92587Y246000D01*
X99587D02*
X100587Y247000D01*
X101587D01*
X100587Y248000D01*
X101587Y249000D01*
X100587D01*
X99587Y250000D01*
X98587Y249000D01*
X97587D01*
X98587Y248000D01*
X97587Y247000D01*
X98587D01*
X99587Y246000D01*
X89087Y262000D02*
X90087Y263000D01*
X91087D01*
X90087Y264000D01*
X91087Y265000D01*
X90087D01*
X89087Y266000D01*
X88087Y265000D01*
X87087D01*
X88087Y264000D01*
X87087Y263000D01*
X88087D01*
X89087Y262000D01*
X92587D02*
X93587Y263000D01*
X94587D01*
X93587Y264000D01*
X94587Y265000D01*
X93587D01*
X92587Y266000D01*
X91587Y265000D01*
X90587D01*
X91587Y264000D01*
X90587Y263000D01*
X91587D01*
X92587Y262000D01*
X96087D02*
X97087Y263000D01*
X98087D01*
X97087Y264000D01*
X98087Y265000D01*
X97087D01*
X96087Y266000D01*
X95087Y265000D01*
X94087D01*
X95087Y264000D01*
X94087Y263000D01*
X95087D01*
X96087Y262000D01*
X304413D02*
X305413Y263000D01*
X306413D01*
X305413Y264000D01*
X306413Y265000D01*
X305413D01*
X304413Y266000D01*
X303413Y265000D01*
X302413D01*
X303413Y264000D01*
X302413Y263000D01*
X303413D01*
X304413Y262000D01*
X293913Y258000D02*
X294913Y259000D01*
X295913D01*
X294913Y260000D01*
X295913Y261000D01*
X294913D01*
X293913Y262000D01*
X292913Y261000D01*
X291913D01*
X292913Y260000D01*
X291913Y259000D01*
X292913D01*
X293913Y258000D01*
Y250000D02*
X294913Y251000D01*
X295913D01*
X294913Y252000D01*
X295913Y253000D01*
X294913D01*
X293913Y254000D01*
X292913Y253000D01*
X291913D01*
X292913Y252000D01*
X291913Y251000D01*
X292913D01*
X293913Y250000D01*
X304413Y246000D02*
X305413Y247000D01*
X306413D01*
X305413Y248000D01*
X306413Y249000D01*
X305413D01*
X304413Y250000D01*
X303413Y249000D01*
X302413D01*
X303413Y248000D01*
X302413Y247000D01*
X303413D01*
X304413Y246000D01*
X293913D02*
X294913Y247000D01*
X295913D01*
X294913Y248000D01*
X295913Y249000D01*
X294913D01*
X293913Y250000D01*
X292913Y249000D01*
X291913D01*
X292913Y248000D01*
X291913Y247000D01*
X292913D01*
X293913Y246000D01*
X304413Y250000D02*
X305413Y251000D01*
X306413D01*
X305413Y252000D01*
X306413Y253000D01*
X305413D01*
X304413Y254000D01*
X303413Y253000D01*
X302413D01*
X303413Y252000D01*
X302413Y251000D01*
X303413D01*
X304413Y250000D01*
X293913Y254000D02*
X294913Y255000D01*
X295913D01*
X294913Y256000D01*
X295913Y257000D01*
X294913D01*
X293913Y258000D01*
X292913Y257000D01*
X291913D01*
X292913Y256000D01*
X291913Y255000D01*
X292913D01*
X293913Y254000D01*
X304413D02*
X305413Y255000D01*
X306413D01*
X305413Y256000D01*
X306413Y257000D01*
X305413D01*
X304413Y258000D01*
X303413Y257000D01*
X302413D01*
X303413Y256000D01*
X302413Y255000D01*
X303413D01*
X304413Y254000D01*
X300913Y258000D02*
X301913Y259000D01*
X302913D01*
X301913Y260000D01*
X302913Y261000D01*
X301913D01*
X300913Y262000D01*
X299913Y261000D01*
X298913D01*
X299913Y260000D01*
X298913Y259000D01*
X299913D01*
X300913Y258000D01*
Y250000D02*
X301913Y251000D01*
X302913D01*
X301913Y252000D01*
X302913Y253000D01*
X301913D01*
X300913Y254000D01*
X299913Y253000D01*
X298913D01*
X299913Y252000D01*
X298913Y251000D01*
X299913D01*
X300913Y250000D01*
X297413Y254000D02*
X298413Y255000D01*
X299413D01*
X298413Y256000D01*
X299413Y257000D01*
X298413D01*
X297413Y258000D01*
X296413Y257000D01*
X295413D01*
X296413Y256000D01*
X295413Y255000D01*
X296413D01*
X297413Y254000D01*
X304413Y258000D02*
X305413Y259000D01*
X306413D01*
X305413Y260000D01*
X306413Y261000D01*
X305413D01*
X304413Y262000D01*
X303413Y261000D01*
X302413D01*
X303413Y260000D01*
X302413Y259000D01*
X303413D01*
X304413Y258000D01*
X300913Y246000D02*
X301913Y247000D01*
X302913D01*
X301913Y248000D01*
X302913Y249000D01*
X301913D01*
X300913Y250000D01*
X299913Y249000D01*
X298913D01*
X299913Y248000D01*
X298913Y247000D01*
X299913D01*
X300913Y246000D01*
X297413Y250000D02*
X298413Y251000D01*
X299413D01*
X298413Y252000D01*
X299413Y253000D01*
X298413D01*
X297413Y254000D01*
X296413Y253000D01*
X295413D01*
X296413Y252000D01*
X295413Y251000D01*
X296413D01*
X297413Y250000D01*
Y258000D02*
X298413Y259000D01*
X299413D01*
X298413Y260000D01*
X299413Y261000D01*
X298413D01*
X297413Y262000D01*
X296413Y261000D01*
X295413D01*
X296413Y260000D01*
X295413Y259000D01*
X296413D01*
X297413Y258000D01*
X300913Y254000D02*
X301913Y255000D01*
X302913D01*
X301913Y256000D01*
X302913Y257000D01*
X301913D01*
X300913Y258000D01*
X299913Y257000D01*
X298913D01*
X299913Y256000D01*
X298913Y255000D01*
X299913D01*
X300913Y254000D01*
X297413Y246000D02*
X298413Y247000D01*
X299413D01*
X298413Y248000D01*
X299413Y249000D01*
X298413D01*
X297413Y250000D01*
X296413Y249000D01*
X295413D01*
X296413Y248000D01*
X295413Y247000D01*
X296413D01*
X297413Y246000D01*
X293913Y262000D02*
X294913Y263000D01*
X295913D01*
X294913Y264000D01*
X295913Y265000D01*
X294913D01*
X293913Y266000D01*
X292913Y265000D01*
X291913D01*
X292913Y264000D01*
X291913Y263000D01*
X292913D01*
X293913Y262000D01*
X297413D02*
X298413Y263000D01*
X299413D01*
X298413Y264000D01*
X299413Y265000D01*
X298413D01*
X297413Y266000D01*
X296413Y265000D01*
X295413D01*
X296413Y264000D01*
X295413Y263000D01*
X296413D01*
X297413Y262000D01*
X300913D02*
X301913Y263000D01*
X302913D01*
X301913Y264000D01*
X302913Y265000D01*
X301913D01*
X300913Y266000D01*
X299913Y265000D01*
X298913D01*
X299913Y264000D01*
X298913Y263000D01*
X299913D01*
X300913Y262000D01*
D23*
X159480Y285433D02*
G03*
X159480Y285433I-2000J0D01*
G01*
X234283Y277559D02*
G03*
X234283Y277559I-2000J0D01*
G01*
M02*
