G04*
G04 #@! TF.GenerationSoftware,Altium Limited,Altium Designer,24.1.2 (44)*
G04*
G04 Layer_Color=65535*
%FSLAX25Y25*%
%MOIN*%
G70*
G04*
G04 #@! TF.SameCoordinates,EC497B79-CED4-4E58-A43C-F9202C23BEB1*
G04*
G04*
G04 #@! TF.FilePolarity,Positive*
G04*
G01*
G75*
%ADD10C,0.00500*%
%ADD11C,0.01000*%
%ADD12C,0.00787*%
%ADD13C,0.00394*%
%ADD14C,0.00598*%
G36*
X59188Y131895D02*
X59096D01*
Y131900D01*
X59094Y131911D01*
X59089Y131933D01*
X59082Y131959D01*
X59073Y131989D01*
X59061Y132027D01*
X59049Y132070D01*
X59030Y132114D01*
X59011Y132161D01*
X58988Y132211D01*
X58962Y132263D01*
X58931Y132315D01*
X58898Y132364D01*
X58860Y132414D01*
X58820Y132464D01*
X58773Y132508D01*
X58771Y132511D01*
X58761Y132518D01*
X58747Y132530D01*
X58728Y132546D01*
X58704Y132563D01*
X58676Y132582D01*
X58645Y132603D01*
X58608Y132626D01*
X58570Y132648D01*
X58525Y132669D01*
X58480Y132688D01*
X58433Y132707D01*
X58381Y132721D01*
X58329Y132733D01*
X58275Y132740D01*
X58221Y132742D01*
X58199D01*
X58183Y132740D01*
X58164Y132737D01*
X58140Y132735D01*
X58114Y132733D01*
X58088Y132728D01*
X58030Y132711D01*
X57968Y132690D01*
X57940Y132676D01*
X57909Y132659D01*
X57881Y132641D01*
X57855Y132619D01*
X57853Y132617D01*
X57850Y132615D01*
X57843Y132608D01*
X57834Y132598D01*
X57824Y132586D01*
X57812Y132572D01*
X57789Y132539D01*
X57765Y132497D01*
X57744Y132447D01*
X57727Y132395D01*
X57725Y132367D01*
X57723Y132336D01*
Y132331D01*
Y132320D01*
X57725Y132301D01*
X57730Y132275D01*
X57735Y132249D01*
X57741Y132218D01*
X57753Y132187D01*
X57770Y132157D01*
X57772Y132152D01*
X57782Y132138D01*
X57798Y132119D01*
X57819Y132091D01*
X57850Y132060D01*
X57885Y132025D01*
X57928Y131987D01*
X57980Y131949D01*
X57982D01*
X57985Y131947D01*
X57992Y131942D01*
X58001Y131935D01*
X58015Y131925D01*
X58034Y131916D01*
X58055Y131902D01*
X58079Y131888D01*
X58110Y131871D01*
X58145Y131852D01*
X58185Y131829D01*
X58230Y131805D01*
X58280Y131779D01*
X58336Y131751D01*
X58400Y131718D01*
X58468Y131685D01*
X58471D01*
X58476Y131682D01*
X58483Y131678D01*
X58492Y131673D01*
X58504Y131666D01*
X58520Y131659D01*
X58556Y131640D01*
X58598Y131616D01*
X58648Y131590D01*
X58702Y131560D01*
X58761Y131524D01*
X58820Y131489D01*
X58881Y131449D01*
X58943Y131409D01*
X59002Y131366D01*
X59056Y131321D01*
X59108Y131277D01*
X59155Y131234D01*
X59193Y131189D01*
X59195Y131187D01*
X59200Y131180D01*
X59210Y131166D01*
X59221Y131149D01*
X59235Y131125D01*
X59252Y131099D01*
X59268Y131069D01*
X59285Y131036D01*
X59302Y130998D01*
X59318Y130956D01*
X59335Y130913D01*
X59349Y130866D01*
X59360Y130816D01*
X59370Y130764D01*
X59375Y130710D01*
X59377Y130656D01*
Y130651D01*
Y130639D01*
X59375Y130618D01*
X59372Y130592D01*
X59368Y130559D01*
X59360Y130521D01*
X59351Y130476D01*
X59339Y130429D01*
X59323Y130380D01*
X59304Y130328D01*
X59280Y130273D01*
X59250Y130217D01*
X59216Y130160D01*
X59176Y130106D01*
X59129Y130049D01*
X59077Y129997D01*
X59075Y129995D01*
X59063Y129986D01*
X59047Y129972D01*
X59023Y129955D01*
X58995Y129934D01*
X58959Y129910D01*
X58917Y129886D01*
X58872Y129860D01*
X58820Y129835D01*
X58761Y129811D01*
X58700Y129787D01*
X58631Y129766D01*
X58561Y129750D01*
X58485Y129735D01*
X58405Y129726D01*
X58320Y129724D01*
X58282D01*
X58268Y129726D01*
X58232Y129728D01*
X58190Y129731D01*
X58143Y129738D01*
X58096Y129745D01*
X58046Y129754D01*
X58044D01*
X58041Y129757D01*
X58034D01*
X58022Y129759D01*
X58011Y129764D01*
X57996Y129769D01*
X57977Y129773D01*
X57959Y129778D01*
X57911Y129792D01*
X57857Y129811D01*
X57793Y129835D01*
X57725Y129860D01*
X57720Y129863D01*
X57706Y129868D01*
X57687Y129875D01*
X57661Y129884D01*
X57635Y129894D01*
X57605Y129901D01*
X57576Y129905D01*
X57548Y129908D01*
X57539D01*
X57527Y129905D01*
X57510Y129903D01*
X57491Y129896D01*
X57470Y129889D01*
X57447Y129877D01*
X57423Y129860D01*
X57421Y129858D01*
X57414Y129851D01*
X57402Y129842D01*
X57385Y129827D01*
X57369Y129809D01*
X57352Y129785D01*
X57336Y129757D01*
X57319Y129724D01*
X57236D01*
Y130875D01*
X57319D01*
Y130873D01*
X57322Y130871D01*
Y130863D01*
X57324Y130854D01*
X57331Y130828D01*
X57338Y130795D01*
X57350Y130755D01*
X57366Y130708D01*
X57383Y130656D01*
X57404Y130602D01*
X57428Y130543D01*
X57456Y130481D01*
X57487Y130420D01*
X57522Y130359D01*
X57560Y130297D01*
X57602Y130240D01*
X57649Y130184D01*
X57699Y130134D01*
X57701Y130132D01*
X57711Y130122D01*
X57727Y130111D01*
X57749Y130094D01*
X57775Y130075D01*
X57805Y130054D01*
X57841Y130033D01*
X57881Y130009D01*
X57926Y129986D01*
X57973Y129962D01*
X58022Y129941D01*
X58077Y129922D01*
X58133Y129905D01*
X58190Y129894D01*
X58249Y129884D01*
X58310Y129882D01*
X58334D01*
X58353Y129884D01*
X58374Y129886D01*
X58398Y129889D01*
X58426Y129894D01*
X58454Y129898D01*
X58520Y129915D01*
X58553Y129927D01*
X58586Y129941D01*
X58619Y129955D01*
X58653Y129974D01*
X58683Y129995D01*
X58711Y130019D01*
X58714Y130021D01*
X58719Y130026D01*
X58726Y130033D01*
X58735Y130042D01*
X58747Y130056D01*
X58759Y130071D01*
X58773Y130089D01*
X58787Y130111D01*
X58815Y130156D01*
X58839Y130210D01*
X58848Y130240D01*
X58855Y130271D01*
X58860Y130304D01*
X58863Y130337D01*
Y130340D01*
Y130342D01*
Y130356D01*
X58860Y130377D01*
X58855Y130403D01*
X58848Y130434D01*
X58837Y130469D01*
X58822Y130507D01*
X58803Y130545D01*
Y130547D01*
X58801Y130550D01*
X58794Y130561D01*
X58780Y130583D01*
X58761Y130606D01*
X58735Y130637D01*
X58707Y130668D01*
X58671Y130703D01*
X58629Y130736D01*
X58627D01*
X58624Y130741D01*
X58617Y130745D01*
X58605Y130753D01*
X58593Y130762D01*
X58577Y130774D01*
X58556Y130786D01*
X58532Y130800D01*
X58506Y130816D01*
X58476Y130835D01*
X58442Y130854D01*
X58405Y130875D01*
X58362Y130899D01*
X58317Y130922D01*
X58268Y130948D01*
X58214Y130974D01*
X58209Y130977D01*
X58195Y130984D01*
X58173Y130993D01*
X58145Y131008D01*
X58112Y131026D01*
X58072Y131045D01*
X58030Y131069D01*
X57982Y131095D01*
X57883Y131149D01*
X57784Y131206D01*
X57737Y131236D01*
X57692Y131265D01*
X57652Y131293D01*
X57614Y131321D01*
X57612Y131324D01*
X57607Y131328D01*
X57598Y131335D01*
X57583Y131347D01*
X57569Y131359D01*
X57553Y131376D01*
X57531Y131395D01*
X57510Y131416D01*
X57465Y131463D01*
X57421Y131517D01*
X57376Y131579D01*
X57336Y131642D01*
Y131645D01*
X57331Y131649D01*
X57326Y131661D01*
X57322Y131673D01*
X57314Y131690D01*
X57305Y131711D01*
X57296Y131732D01*
X57288Y131758D01*
X57279Y131786D01*
X57270Y131817D01*
X57253Y131883D01*
X57244Y131956D01*
X57239Y132034D01*
Y132039D01*
Y132051D01*
X57241Y132070D01*
X57244Y132096D01*
X57246Y132126D01*
X57253Y132161D01*
X57260Y132204D01*
X57272Y132249D01*
X57286Y132296D01*
X57305Y132346D01*
X57326Y132395D01*
X57352Y132449D01*
X57383Y132501D01*
X57418Y132553D01*
X57458Y132603D01*
X57506Y132652D01*
X57508Y132655D01*
X57517Y132664D01*
X57534Y132676D01*
X57555Y132693D01*
X57581Y132711D01*
X57612Y132735D01*
X57649Y132756D01*
X57692Y132782D01*
X57737Y132806D01*
X57789Y132829D01*
X57843Y132851D01*
X57904Y132870D01*
X57968Y132886D01*
X58034Y132898D01*
X58105Y132907D01*
X58180Y132910D01*
X58218D01*
X58235Y132907D01*
X58273Y132905D01*
X58317Y132900D01*
X58365Y132893D01*
X58416Y132884D01*
X58468Y132872D01*
X58471D01*
X58473Y132870D01*
X58487Y132867D01*
X58511Y132860D01*
X58542Y132851D01*
X58577Y132836D01*
X58622Y132820D01*
X58671Y132799D01*
X58726Y132773D01*
X58728D01*
X58733Y132770D01*
X58740Y132766D01*
X58752Y132761D01*
X58778Y132749D01*
X58811Y132737D01*
X58846Y132723D01*
X58881Y132711D01*
X58915Y132702D01*
X58940Y132700D01*
X58950D01*
X58959Y132702D01*
X58973Y132704D01*
X58988Y132709D01*
X59002Y132714D01*
X59016Y132723D01*
X59030Y132735D01*
X59032Y132737D01*
X59037Y132742D01*
X59042Y132754D01*
X59051Y132770D01*
X59061Y132794D01*
X59073Y132825D01*
X59084Y132862D01*
X59092Y132884D01*
X59096Y132910D01*
X59165D01*
X59188Y131895D01*
D02*
G37*
G36*
X71177Y131968D02*
X71085D01*
Y131973D01*
X71083Y131982D01*
X71080Y131996D01*
X71078Y132018D01*
X71073Y132044D01*
X71069Y132072D01*
X71061Y132105D01*
X71052Y132140D01*
X71031Y132213D01*
X71002Y132289D01*
X70967Y132362D01*
X70946Y132393D01*
X70922Y132423D01*
X70920Y132426D01*
X70917Y132431D01*
X70908Y132438D01*
X70899Y132447D01*
X70884Y132459D01*
X70868Y132473D01*
X70849Y132490D01*
X70828Y132506D01*
X70802Y132523D01*
X70776Y132539D01*
X70745Y132558D01*
X70712Y132574D01*
X70674Y132591D01*
X70637Y132605D01*
X70594Y132619D01*
X70549Y132631D01*
X70547D01*
X70542Y132633D01*
X70535D01*
X70523Y132636D01*
X70507Y132641D01*
X70488Y132643D01*
X70464Y132645D01*
X70436Y132650D01*
X70405Y132652D01*
X70368Y132655D01*
X70327Y132659D01*
X70283Y132662D01*
X70233Y132664D01*
X70176D01*
X70117Y132667D01*
X69768D01*
Y131413D01*
X69889D01*
X69905Y131416D01*
X69926D01*
X69971Y131421D01*
X70023Y131428D01*
X70080Y131439D01*
X70134Y131454D01*
X70183Y131472D01*
X70186D01*
X70188Y131475D01*
X70195Y131480D01*
X70205Y131484D01*
X70228Y131498D01*
X70259Y131522D01*
X70294Y131550D01*
X70330Y131586D01*
X70365Y131628D01*
X70401Y131678D01*
Y131680D01*
X70405Y131685D01*
X70410Y131692D01*
X70415Y131704D01*
X70422Y131718D01*
X70431Y131737D01*
X70438Y131758D01*
X70450Y131782D01*
X70460Y131807D01*
X70469Y131836D01*
X70478Y131869D01*
X70488Y131902D01*
X70497Y131940D01*
X70504Y131980D01*
X70512Y132022D01*
X70519Y132067D01*
X70596D01*
Y130538D01*
X70519D01*
Y130540D01*
Y130543D01*
X70516Y130557D01*
X70514Y130578D01*
X70509Y130609D01*
X70502Y130642D01*
X70495Y130682D01*
X70486Y130724D01*
X70471Y130772D01*
X70457Y130819D01*
X70441Y130868D01*
X70422Y130915D01*
X70401Y130960D01*
X70375Y131005D01*
X70349Y131045D01*
X70318Y131081D01*
X70283Y131109D01*
X70280Y131111D01*
X70273Y131116D01*
X70264Y131121D01*
X70249Y131130D01*
X70231Y131142D01*
X70209Y131154D01*
X70186Y131166D01*
X70157Y131180D01*
X70129Y131192D01*
X70096Y131203D01*
X70061Y131215D01*
X70023Y131227D01*
X69983Y131236D01*
X69943Y131241D01*
X69900Y131246D01*
X69855Y131248D01*
X69768D01*
Y130316D01*
Y130314D01*
Y130307D01*
Y130295D01*
Y130278D01*
Y130259D01*
X69770Y130238D01*
Y130191D01*
X69773Y130141D01*
X69778Y130092D01*
X69780Y130071D01*
X69785Y130052D01*
X69787Y130035D01*
X69792Y130021D01*
X69794Y130019D01*
X69796Y130012D01*
X69804Y130000D01*
X69815Y129988D01*
X69827Y129972D01*
X69846Y129955D01*
X69867Y129936D01*
X69893Y129920D01*
X69898Y129917D01*
X69907Y129912D01*
X69924Y129905D01*
X69947Y129898D01*
X69976Y129891D01*
X70011Y129884D01*
X70051Y129879D01*
X70096Y129877D01*
X70198D01*
Y129795D01*
X68607D01*
Y129877D01*
X68727D01*
X68753Y129879D01*
X68784Y129884D01*
X68817Y129889D01*
X68852Y129896D01*
X68888Y129908D01*
X68921Y129924D01*
X68923Y129927D01*
X68930Y129931D01*
X68942Y129938D01*
X68954Y129950D01*
X68968Y129964D01*
X68985Y129983D01*
X68999Y130005D01*
X69011Y130030D01*
X69013Y130033D01*
X69015Y130042D01*
X69020Y130059D01*
X69022Y130073D01*
X69025Y130087D01*
X69027Y130104D01*
X69029Y130125D01*
Y130148D01*
X69032Y130174D01*
X69034Y130203D01*
X69037Y130238D01*
Y130276D01*
Y130316D01*
Y132320D01*
Y132322D01*
Y132329D01*
Y132341D01*
Y132357D01*
Y132376D01*
X69034Y132397D01*
Y132445D01*
X69029Y132494D01*
X69025Y132542D01*
X69022Y132563D01*
X69020Y132582D01*
X69015Y132598D01*
X69011Y132610D01*
Y132612D01*
X69006Y132619D01*
X68999Y132631D01*
X68989Y132645D01*
X68975Y132662D01*
X68959Y132678D01*
X68937Y132697D01*
X68911Y132714D01*
X68909Y132716D01*
X68897Y132721D01*
X68881Y132728D01*
X68857Y132737D01*
X68829Y132745D01*
X68793Y132752D01*
X68753Y132756D01*
X68706Y132759D01*
X68607D01*
Y132841D01*
X71177D01*
Y131968D01*
D02*
G37*
G36*
X56573Y131940D02*
X56491D01*
Y131944D01*
X56488Y131954D01*
X56484Y131970D01*
X56479Y131994D01*
X56472Y132020D01*
X56465Y132053D01*
X56453Y132086D01*
X56444Y132124D01*
X56418Y132202D01*
X56385Y132280D01*
X56368Y132317D01*
X56349Y132353D01*
X56328Y132386D01*
X56307Y132414D01*
X56304Y132416D01*
X56302Y132421D01*
X56295Y132428D01*
X56285Y132438D01*
X56274Y132449D01*
X56257Y132464D01*
X56241Y132478D01*
X56222Y132494D01*
X56198Y132511D01*
X56172Y132530D01*
X56146Y132546D01*
X56116Y132563D01*
X56082Y132579D01*
X56049Y132596D01*
X56012Y132610D01*
X55972Y132624D01*
X55969D01*
X55964Y132626D01*
X55957Y132629D01*
X55946Y132631D01*
X55931Y132633D01*
X55915Y132638D01*
X55891Y132641D01*
X55865Y132645D01*
X55835Y132650D01*
X55802Y132652D01*
X55764Y132657D01*
X55719Y132659D01*
X55672Y132662D01*
X55620Y132664D01*
X55563Y132667D01*
X55181D01*
Y131425D01*
X55254D01*
X55268Y131428D01*
X55287D01*
X55313Y131430D01*
X55339Y131435D01*
X55370Y131439D01*
X55403Y131449D01*
X55438Y131458D01*
X55474Y131470D01*
X55509Y131484D01*
X55544Y131503D01*
X55577Y131522D01*
X55611Y131548D01*
X55639Y131574D01*
X55665Y131607D01*
X55667Y131609D01*
X55669Y131616D01*
X55677Y131626D01*
X55686Y131640D01*
X55698Y131659D01*
X55710Y131682D01*
X55721Y131711D01*
X55736Y131741D01*
X55750Y131779D01*
X55764Y131819D01*
X55778Y131862D01*
X55792Y131911D01*
X55804Y131963D01*
X55816Y132020D01*
X55828Y132081D01*
X55835Y132145D01*
X55917D01*
Y130550D01*
X55835D01*
Y130552D01*
X55832Y130561D01*
Y130576D01*
X55830Y130592D01*
X55825Y130616D01*
X55821Y130642D01*
X55816Y130670D01*
X55809Y130701D01*
X55795Y130767D01*
X55773Y130838D01*
X55750Y130908D01*
X55719Y130974D01*
Y130977D01*
X55714Y130982D01*
X55710Y130991D01*
X55703Y131003D01*
X55686Y131031D01*
X55660Y131067D01*
X55632Y131102D01*
X55596Y131140D01*
X55559Y131173D01*
X55537Y131187D01*
X55516Y131199D01*
X55514D01*
X55511Y131201D01*
X55504Y131203D01*
X55495Y131208D01*
X55483Y131213D01*
X55469Y131218D01*
X55450Y131222D01*
X55431Y131229D01*
X55408Y131234D01*
X55384Y131239D01*
X55356Y131244D01*
X55325Y131248D01*
X55294Y131253D01*
X55259Y131255D01*
X55221Y131258D01*
X55181D01*
Y130396D01*
Y130394D01*
Y130384D01*
Y130373D01*
Y130356D01*
Y130337D01*
X55183Y130314D01*
Y130264D01*
X55186Y130212D01*
X55190Y130160D01*
X55193Y130139D01*
X55195Y130120D01*
X55198Y130101D01*
X55202Y130089D01*
Y130087D01*
X55207Y130080D01*
X55212Y130071D01*
X55221Y130056D01*
X55230Y130042D01*
X55245Y130026D01*
X55261Y130012D01*
X55280Y129997D01*
X55282Y129995D01*
X55292Y129993D01*
X55306Y129986D01*
X55327Y129981D01*
X55353Y129974D01*
X55386Y129967D01*
X55424Y129964D01*
X55471Y129962D01*
X55672D01*
X55693Y129964D01*
X55724D01*
X55759Y129969D01*
X55802Y129972D01*
X55849Y129979D01*
X55898Y129986D01*
X55953Y129997D01*
X56007Y130009D01*
X56064Y130026D01*
X56123Y130045D01*
X56179Y130068D01*
X56234Y130094D01*
X56288Y130122D01*
X56337Y130158D01*
X56340Y130160D01*
X56349Y130167D01*
X56361Y130179D01*
X56380Y130196D01*
X56401Y130217D01*
X56425Y130243D01*
X56453Y130273D01*
X56481Y130309D01*
X56512Y130347D01*
X56543Y130392D01*
X56573Y130441D01*
X56604Y130495D01*
X56632Y130557D01*
X56661Y130621D01*
X56687Y130689D01*
X56708Y130762D01*
X56793D01*
X56654Y129795D01*
X54020D01*
Y129877D01*
X54140D01*
X54166Y129879D01*
X54197Y129884D01*
X54230Y129889D01*
X54265Y129896D01*
X54301Y129908D01*
X54334Y129924D01*
X54336Y129927D01*
X54343Y129931D01*
X54355Y129938D01*
X54367Y129950D01*
X54381Y129964D01*
X54397Y129983D01*
X54412Y130005D01*
X54423Y130030D01*
X54426Y130033D01*
X54428Y130042D01*
X54433Y130059D01*
X54435Y130073D01*
X54438Y130087D01*
X54440Y130104D01*
X54442Y130125D01*
Y130148D01*
X54445Y130174D01*
X54447Y130203D01*
X54449Y130238D01*
Y130276D01*
Y130316D01*
Y132320D01*
Y132322D01*
Y132329D01*
Y132339D01*
Y132353D01*
Y132369D01*
Y132388D01*
X54447Y132428D01*
Y132471D01*
X54445Y132513D01*
X54442Y132532D01*
Y132549D01*
X54440Y132563D01*
X54438Y132572D01*
Y132577D01*
X54433Y132586D01*
X54426Y132600D01*
X54419Y132617D01*
X54407Y132638D01*
X54393Y132657D01*
X54374Y132678D01*
X54353Y132695D01*
X54348Y132697D01*
X54336Y132704D01*
X54317Y132716D01*
X54291Y132728D01*
X54258Y132737D01*
X54218Y132749D01*
X54171Y132756D01*
X54119Y132759D01*
X54020D01*
Y132841D01*
X56573D01*
Y131940D01*
D02*
G37*
G36*
X63790Y130618D02*
X62483D01*
Y131083D01*
X63790D01*
Y130618D01*
D02*
G37*
G36*
X67701Y130413D02*
Y130410D01*
Y130401D01*
Y130387D01*
Y130368D01*
Y130344D01*
X67703Y130318D01*
Y130262D01*
X67706Y130200D01*
X67710Y130141D01*
X67712Y130113D01*
X67717Y130089D01*
X67720Y130068D01*
X67724Y130052D01*
X67727Y130049D01*
X67729Y130040D01*
X67736Y130023D01*
X67746Y130007D01*
X67760Y129986D01*
X67776Y129964D01*
X67800Y129943D01*
X67826Y129924D01*
X67831Y129922D01*
X67840Y129917D01*
X67861Y129910D01*
X67887Y129901D01*
X67923Y129891D01*
X67967Y129884D01*
X68017Y129879D01*
X68078Y129877D01*
X68149D01*
Y129795D01*
X66547D01*
Y129877D01*
X66658D01*
X66674Y129879D01*
X66693D01*
X66733Y129882D01*
X66780Y129889D01*
X66825Y129896D01*
X66868Y129908D01*
X66887Y129915D01*
X66903Y129922D01*
X66908Y129924D01*
X66917Y129931D01*
X66931Y129941D01*
X66950Y129955D01*
X66969Y129972D01*
X66986Y129993D01*
X67005Y130016D01*
X67016Y130045D01*
X67019Y130049D01*
Y130054D01*
X67021Y130061D01*
X67023Y130071D01*
X67026Y130085D01*
X67028Y130101D01*
X67033Y130120D01*
X67035Y130144D01*
X67038Y130170D01*
X67040Y130198D01*
X67042Y130233D01*
X67045Y130271D01*
Y130314D01*
X67047Y130361D01*
Y130413D01*
Y131992D01*
Y131994D01*
Y132001D01*
Y132010D01*
Y132025D01*
Y132044D01*
Y132062D01*
X67045Y132105D01*
X67042Y132150D01*
X67038Y132192D01*
X67035Y132213D01*
X67033Y132230D01*
X67031Y132244D01*
X67026Y132256D01*
Y132258D01*
X67021Y132265D01*
X67016Y132275D01*
X67009Y132287D01*
X66997Y132301D01*
X66986Y132317D01*
X66969Y132331D01*
X66950Y132346D01*
X66948Y132348D01*
X66941Y132353D01*
X66929Y132357D01*
X66915Y132364D01*
X66896Y132372D01*
X66875Y132379D01*
X66849Y132381D01*
X66823Y132383D01*
X66802D01*
X66778Y132379D01*
X66745Y132374D01*
X66705Y132367D01*
X66658Y132353D01*
X66606Y132336D01*
X66547Y132313D01*
X66507Y132390D01*
X67625Y132903D01*
X67701D01*
Y130413D01*
D02*
G37*
G36*
X61064Y132839D02*
X61086D01*
X61109Y132836D01*
X61164Y132834D01*
X61225Y132829D01*
X61293Y132822D01*
X61366Y132813D01*
X61442Y132799D01*
X61522Y132785D01*
X61600Y132766D01*
X61678Y132742D01*
X61751Y132716D01*
X61822Y132685D01*
X61888Y132648D01*
X61945Y132608D01*
X61947Y132605D01*
X61957Y132596D01*
X61971Y132584D01*
X61989Y132565D01*
X62011Y132544D01*
X62034Y132516D01*
X62060Y132483D01*
X62089Y132447D01*
X62115Y132407D01*
X62141Y132362D01*
X62164Y132315D01*
X62185Y132263D01*
X62204Y132206D01*
X62218Y132147D01*
X62228Y132086D01*
X62230Y132022D01*
Y132020D01*
Y132008D01*
Y131994D01*
X62228Y131973D01*
X62226Y131947D01*
X62221Y131919D01*
X62214Y131885D01*
X62207Y131848D01*
X62197Y131810D01*
X62185Y131770D01*
X62169Y131727D01*
X62152Y131685D01*
X62131Y131640D01*
X62105Y131597D01*
X62077Y131555D01*
X62044Y131515D01*
X62041Y131512D01*
X62034Y131505D01*
X62025Y131496D01*
X62011Y131482D01*
X61992Y131463D01*
X61968Y131444D01*
X61942Y131423D01*
X61912Y131399D01*
X61876Y131376D01*
X61839Y131352D01*
X61798Y131328D01*
X61751Y131305D01*
X61704Y131284D01*
X61652Y131262D01*
X61595Y131244D01*
X61536Y131227D01*
X61534D01*
X61527Y131225D01*
X61513Y131222D01*
X61494Y131220D01*
X61470Y131215D01*
X61440Y131210D01*
X61404Y131206D01*
X61364Y131201D01*
X61315Y131196D01*
X61260Y131192D01*
X61201Y131187D01*
X61135Y131182D01*
X61062Y131180D01*
X60982Y131177D01*
X60895Y131175D01*
X60800D01*
Y130330D01*
Y130328D01*
Y130318D01*
Y130307D01*
Y130290D01*
Y130271D01*
X60803Y130248D01*
X60805Y130198D01*
X60807Y130144D01*
X60814Y130092D01*
X60817Y130068D01*
X60821Y130047D01*
X60826Y130030D01*
X60831Y130016D01*
X60833Y130014D01*
X60838Y130007D01*
X60845Y129995D01*
X60857Y129981D01*
X60871Y129964D01*
X60890Y129948D01*
X60911Y129929D01*
X60937Y129915D01*
X60942Y129912D01*
X60953Y129910D01*
X60972Y129903D01*
X60987Y129901D01*
X61003Y129896D01*
X61020Y129894D01*
X61041Y129889D01*
X61064Y129886D01*
X61090Y129884D01*
X61119Y129882D01*
X61152Y129879D01*
X61185Y129877D01*
X61223D01*
Y129795D01*
X59674D01*
Y129877D01*
X59710D01*
X59726Y129879D01*
X59745D01*
X59790Y129882D01*
X59837Y129886D01*
X59884Y129894D01*
X59927Y129903D01*
X59946Y129908D01*
X59960Y129915D01*
X59962Y129917D01*
X59972Y129922D01*
X59986Y129931D01*
X60002Y129943D01*
X60019Y129957D01*
X60038Y129974D01*
X60052Y129995D01*
X60066Y130016D01*
X60069Y130019D01*
X60071Y130030D01*
X60073Y130040D01*
X60076Y130049D01*
X60078Y130063D01*
X60083Y130080D01*
X60085Y130099D01*
X60087Y130120D01*
X60090Y130146D01*
X60092Y130177D01*
X60094Y130207D01*
Y130245D01*
X60097Y130285D01*
Y130330D01*
Y132306D01*
Y132308D01*
Y132317D01*
Y132329D01*
Y132346D01*
Y132364D01*
X60094Y132388D01*
X60092Y132438D01*
X60090Y132490D01*
X60085Y132542D01*
X60080Y132565D01*
X60076Y132586D01*
X60071Y132603D01*
X60066Y132617D01*
X60064Y132619D01*
X60061Y132629D01*
X60052Y132638D01*
X60043Y132655D01*
X60026Y132669D01*
X60009Y132688D01*
X59986Y132704D01*
X59960Y132719D01*
X59955Y132721D01*
X59946Y132726D01*
X59925Y132730D01*
X59913Y132735D01*
X59896Y132740D01*
X59877Y132742D01*
X59856Y132747D01*
X59835Y132749D01*
X59807Y132752D01*
X59778Y132754D01*
X59748Y132756D01*
X59712Y132759D01*
X59674D01*
Y132841D01*
X61048D01*
X61064Y132839D01*
D02*
G37*
G36*
X65093Y132900D02*
X65117Y132898D01*
X65145Y132893D01*
X65175Y132888D01*
X65211Y132879D01*
X65246Y132870D01*
X65286Y132858D01*
X65327Y132844D01*
X65369Y132827D01*
X65414Y132806D01*
X65456Y132780D01*
X65501Y132754D01*
X65544Y132721D01*
X65546Y132719D01*
X65553Y132711D01*
X65565Y132702D01*
X65582Y132688D01*
X65600Y132669D01*
X65622Y132648D01*
X65648Y132622D01*
X65674Y132591D01*
X65699Y132558D01*
X65728Y132523D01*
X65756Y132483D01*
X65784Y132440D01*
X65813Y132393D01*
X65839Y132343D01*
X65862Y132291D01*
X65884Y132235D01*
X65886Y132230D01*
X65891Y132216D01*
X65898Y132192D01*
X65907Y132161D01*
X65919Y132121D01*
X65931Y132077D01*
X65945Y132022D01*
X65959Y131963D01*
X65973Y131897D01*
X65987Y131826D01*
X65999Y131751D01*
X66011Y131671D01*
X66020Y131586D01*
X66027Y131498D01*
X66032Y131409D01*
X66035Y131317D01*
Y131314D01*
Y131312D01*
Y131305D01*
Y131295D01*
Y131272D01*
X66032Y131239D01*
X66030Y131199D01*
X66027Y131151D01*
X66023Y131097D01*
X66018Y131038D01*
X66011Y130974D01*
X66004Y130908D01*
X65992Y130838D01*
X65980Y130764D01*
X65966Y130689D01*
X65947Y130613D01*
X65928Y130540D01*
X65905Y130465D01*
Y130462D01*
X65902Y130453D01*
X65898Y130441D01*
X65891Y130425D01*
X65884Y130403D01*
X65874Y130380D01*
X65862Y130354D01*
X65851Y130323D01*
X65822Y130262D01*
X65787Y130193D01*
X65747Y130127D01*
X65699Y130066D01*
X65697Y130063D01*
X65695Y130059D01*
X65685Y130052D01*
X65676Y130040D01*
X65664Y130028D01*
X65650Y130012D01*
X65614Y129979D01*
X65570Y129938D01*
X65520Y129898D01*
X65466Y129858D01*
X65404Y129820D01*
X65402D01*
X65397Y129816D01*
X65388Y129813D01*
X65376Y129806D01*
X65362Y129799D01*
X65343Y129792D01*
X65322Y129785D01*
X65298Y129776D01*
X65246Y129759D01*
X65185Y129745D01*
X65119Y129735D01*
X65048Y129731D01*
X65027D01*
X65010Y129733D01*
X64991D01*
X64970Y129738D01*
X64944Y129740D01*
X64916Y129745D01*
X64855Y129759D01*
X64789Y129778D01*
X64718Y129806D01*
X64682Y129823D01*
X64649Y129842D01*
X64647Y129844D01*
X64642Y129846D01*
X64633Y129853D01*
X64619Y129863D01*
X64604Y129875D01*
X64586Y129889D01*
X64567Y129905D01*
X64543Y129924D01*
X64520Y129946D01*
X64496Y129969D01*
X64470Y129995D01*
X64442Y130026D01*
X64387Y130089D01*
X64335Y130163D01*
Y130165D01*
X64331Y130170D01*
X64326Y130179D01*
X64319Y130191D01*
X64309Y130205D01*
X64300Y130224D01*
X64288Y130245D01*
X64276Y130271D01*
X64262Y130299D01*
X64250Y130330D01*
X64234Y130363D01*
X64220Y130399D01*
X64206Y130436D01*
X64189Y130479D01*
X64175Y130521D01*
X64161Y130569D01*
Y130573D01*
X64156Y130585D01*
X64151Y130604D01*
X64147Y130628D01*
X64139Y130661D01*
X64130Y130696D01*
X64123Y130738D01*
X64113Y130786D01*
X64104Y130838D01*
X64097Y130894D01*
X64088Y130953D01*
X64081Y131015D01*
X64076Y131078D01*
X64071Y131144D01*
X64066Y131279D01*
Y131281D01*
Y131284D01*
Y131291D01*
Y131300D01*
Y131314D01*
Y131328D01*
X64069Y131364D01*
X64071Y131406D01*
X64073Y131458D01*
X64078Y131517D01*
X64083Y131581D01*
X64092Y131649D01*
X64099Y131720D01*
X64111Y131796D01*
X64125Y131874D01*
X64142Y131954D01*
X64161Y132034D01*
X64182Y132114D01*
X64206Y132192D01*
X64208Y132197D01*
X64210Y132206D01*
X64217Y132225D01*
X64227Y132249D01*
X64239Y132277D01*
X64253Y132310D01*
X64272Y132348D01*
X64290Y132386D01*
X64314Y132428D01*
X64340Y132471D01*
X64368Y132516D01*
X64399Y132558D01*
X64434Y132600D01*
X64470Y132643D01*
X64510Y132683D01*
X64552Y132719D01*
X64555Y132721D01*
X64564Y132726D01*
X64576Y132735D01*
X64593Y132747D01*
X64614Y132761D01*
X64640Y132778D01*
X64670Y132794D01*
X64701Y132810D01*
X64739Y132827D01*
X64777Y132844D01*
X64817Y132860D01*
X64859Y132874D01*
X64904Y132886D01*
X64951Y132896D01*
X64999Y132900D01*
X65048Y132903D01*
X65074D01*
X65093Y132900D01*
D02*
G37*
G36*
X66202Y128241D02*
X66110D01*
Y128246D01*
X66108Y128255D01*
X66105Y128269D01*
X66103Y128291D01*
X66098Y128317D01*
X66094Y128345D01*
X66087Y128378D01*
X66077Y128413D01*
X66056Y128487D01*
X66027Y128562D01*
X65992Y128635D01*
X65971Y128666D01*
X65947Y128697D01*
X65945Y128699D01*
X65943Y128704D01*
X65933Y128711D01*
X65924Y128720D01*
X65909Y128732D01*
X65893Y128746D01*
X65874Y128763D01*
X65853Y128779D01*
X65827Y128796D01*
X65801Y128812D01*
X65770Y128831D01*
X65737Y128848D01*
X65699Y128864D01*
X65662Y128878D01*
X65619Y128893D01*
X65574Y128904D01*
X65572D01*
X65567Y128907D01*
X65560D01*
X65548Y128909D01*
X65532Y128914D01*
X65513Y128916D01*
X65489Y128918D01*
X65461Y128923D01*
X65430Y128926D01*
X65393Y128928D01*
X65352Y128933D01*
X65308Y128935D01*
X65258Y128937D01*
X65201D01*
X65143Y128940D01*
X64793D01*
Y127687D01*
X64914D01*
X64930Y127689D01*
X64951D01*
X64996Y127694D01*
X65048Y127701D01*
X65105Y127713D01*
X65159Y127727D01*
X65209Y127745D01*
X65211D01*
X65213Y127748D01*
X65220Y127753D01*
X65230Y127757D01*
X65253Y127771D01*
X65284Y127795D01*
X65320Y127823D01*
X65355Y127859D01*
X65390Y127901D01*
X65426Y127951D01*
Y127953D01*
X65430Y127958D01*
X65435Y127965D01*
X65440Y127977D01*
X65447Y127991D01*
X65456Y128010D01*
X65464Y128031D01*
X65475Y128055D01*
X65485Y128081D01*
X65494Y128109D01*
X65504Y128142D01*
X65513Y128175D01*
X65522Y128213D01*
X65530Y128253D01*
X65537Y128295D01*
X65544Y128340D01*
X65622D01*
Y126811D01*
X65544D01*
Y126813D01*
Y126816D01*
X65541Y126830D01*
X65539Y126851D01*
X65534Y126882D01*
X65527Y126915D01*
X65520Y126955D01*
X65511Y126997D01*
X65496Y127045D01*
X65482Y127092D01*
X65466Y127141D01*
X65447Y127189D01*
X65426Y127233D01*
X65400Y127278D01*
X65374Y127318D01*
X65343Y127354D01*
X65308Y127382D01*
X65305Y127384D01*
X65298Y127389D01*
X65289Y127394D01*
X65275Y127403D01*
X65256Y127415D01*
X65235Y127427D01*
X65211Y127439D01*
X65183Y127453D01*
X65154Y127465D01*
X65121Y127477D01*
X65086Y127488D01*
X65048Y127500D01*
X65008Y127509D01*
X64968Y127514D01*
X64925Y127519D01*
X64881Y127521D01*
X64793D01*
Y126589D01*
Y126587D01*
Y126580D01*
Y126568D01*
Y126551D01*
Y126532D01*
X64796Y126511D01*
Y126464D01*
X64798Y126415D01*
X64803Y126365D01*
X64805Y126344D01*
X64810Y126325D01*
X64812Y126308D01*
X64817Y126294D01*
X64819Y126292D01*
X64822Y126285D01*
X64829Y126273D01*
X64840Y126261D01*
X64852Y126244D01*
X64871Y126228D01*
X64892Y126209D01*
X64918Y126193D01*
X64923Y126190D01*
X64933Y126186D01*
X64949Y126179D01*
X64973Y126171D01*
X65001Y126164D01*
X65036Y126157D01*
X65076Y126153D01*
X65121Y126150D01*
X65223D01*
Y126067D01*
X63632D01*
Y126150D01*
X63753D01*
X63778Y126153D01*
X63809Y126157D01*
X63842Y126162D01*
X63877Y126169D01*
X63913Y126181D01*
X63946Y126197D01*
X63948Y126200D01*
X63955Y126204D01*
X63967Y126212D01*
X63979Y126223D01*
X63993Y126237D01*
X64010Y126256D01*
X64024Y126278D01*
X64036Y126304D01*
X64038Y126306D01*
X64040Y126315D01*
X64045Y126332D01*
X64047Y126346D01*
X64050Y126360D01*
X64052Y126377D01*
X64055Y126398D01*
Y126421D01*
X64057Y126447D01*
X64059Y126476D01*
X64062Y126511D01*
Y126549D01*
Y126589D01*
Y128593D01*
Y128595D01*
Y128602D01*
Y128614D01*
Y128630D01*
Y128649D01*
X64059Y128671D01*
Y128718D01*
X64055Y128767D01*
X64050Y128815D01*
X64047Y128836D01*
X64045Y128855D01*
X64040Y128871D01*
X64036Y128883D01*
Y128885D01*
X64031Y128893D01*
X64024Y128904D01*
X64014Y128918D01*
X64000Y128935D01*
X63984Y128952D01*
X63963Y128970D01*
X63937Y128987D01*
X63934Y128989D01*
X63922Y128994D01*
X63906Y129001D01*
X63882Y129010D01*
X63854Y129017D01*
X63819Y129025D01*
X63778Y129029D01*
X63731Y129032D01*
X63632D01*
Y129114D01*
X66202D01*
Y128241D01*
D02*
G37*
G36*
X61697Y129032D02*
X61692D01*
X61683Y129029D01*
X61666Y129027D01*
X61645Y129022D01*
X61624Y129017D01*
X61598Y129008D01*
X61574Y128996D01*
X61551Y128982D01*
X61548Y128980D01*
X61541Y128975D01*
X61529Y128966D01*
X61518Y128952D01*
X61501Y128935D01*
X61484Y128914D01*
X61466Y128888D01*
X61449Y128859D01*
Y128857D01*
X61444Y128850D01*
X61442Y128843D01*
X61437Y128833D01*
X61433Y128822D01*
X61426Y128805D01*
X61418Y128786D01*
X61409Y128763D01*
X61397Y128734D01*
X61383Y128701D01*
X61369Y128664D01*
X61350Y128619D01*
X61331Y128567D01*
X61308Y128510D01*
X60352Y125999D01*
X60264D01*
X59512Y127972D01*
X58676Y125999D01*
X58593D01*
X57591Y128484D01*
X57588Y128489D01*
X57583Y128501D01*
X57576Y128520D01*
X57565Y128543D01*
X57553Y128574D01*
X57539Y128607D01*
X57522Y128642D01*
X57506Y128682D01*
X57470Y128760D01*
X57454Y128798D01*
X57435Y128833D01*
X57418Y128867D01*
X57402Y128895D01*
X57388Y128918D01*
X57376Y128937D01*
X57373Y128942D01*
X57364Y128949D01*
X57350Y128963D01*
X57328Y128980D01*
X57300Y128996D01*
X57265Y129010D01*
X57222Y129025D01*
X57173Y129032D01*
Y129114D01*
X58494D01*
Y129032D01*
X58480D01*
X58468Y129029D01*
X58442Y129027D01*
X58409Y129025D01*
X58374Y129017D01*
X58339Y129008D01*
X58308Y128996D01*
X58294Y128989D01*
X58282Y128982D01*
X58280Y128980D01*
X58275Y128975D01*
X58266Y128966D01*
X58256Y128952D01*
X58247Y128935D01*
X58237Y128918D01*
X58232Y128897D01*
X58230Y128874D01*
Y128869D01*
Y128864D01*
X58232Y128857D01*
Y128845D01*
X58237Y128831D01*
X58240Y128817D01*
X58244Y128796D01*
X58249Y128774D01*
X58258Y128749D01*
X58266Y128718D01*
X58277Y128685D01*
X58289Y128647D01*
X58306Y128607D01*
X58322Y128560D01*
X58341Y128510D01*
X58938Y127033D01*
X59417Y128191D01*
X59294Y128513D01*
Y128515D01*
X59290Y128524D01*
X59285Y128539D01*
X59278Y128555D01*
X59268Y128576D01*
X59259Y128600D01*
X59235Y128656D01*
X59210Y128716D01*
X59184Y128772D01*
X59169Y128800D01*
X59158Y128824D01*
X59146Y128845D01*
X59134Y128864D01*
X59132Y128869D01*
X59124Y128878D01*
X59113Y128895D01*
X59096Y128914D01*
X59077Y128935D01*
X59056Y128956D01*
X59030Y128975D01*
X59004Y128992D01*
X59002Y128994D01*
X58990Y128999D01*
X58973Y129003D01*
X58950Y129013D01*
X58919Y129020D01*
X58884Y129025D01*
X58839Y129029D01*
X58789Y129032D01*
Y129114D01*
X60264D01*
Y129032D01*
X60238D01*
X60212Y129029D01*
X60179Y129027D01*
X60142Y129025D01*
X60106Y129020D01*
X60071Y129013D01*
X60043Y129006D01*
X60040D01*
X60036Y129003D01*
X60026Y128999D01*
X60017Y128994D01*
X59991Y128975D01*
X59967Y128952D01*
Y128949D01*
X59962Y128944D01*
X59960Y128937D01*
X59955Y128928D01*
X59946Y128902D01*
X59943Y128885D01*
X59941Y128869D01*
Y128867D01*
X59943Y128857D01*
Y128850D01*
X59946Y128838D01*
X59951Y128826D01*
X59953Y128810D01*
X59960Y128791D01*
X59967Y128770D01*
X59974Y128744D01*
X59984Y128713D01*
X59995Y128680D01*
X60009Y128642D01*
X60024Y128600D01*
X60043Y128553D01*
X60597Y127111D01*
X61093Y128416D01*
Y128418D01*
X61098Y128425D01*
X61100Y128435D01*
X61105Y128449D01*
X61112Y128465D01*
X61119Y128484D01*
X61135Y128524D01*
X61152Y128571D01*
X61168Y128616D01*
X61180Y128656D01*
X61185Y128675D01*
X61190Y128690D01*
Y128692D01*
X61192Y128701D01*
X61197Y128718D01*
X61199Y128734D01*
X61204Y128756D01*
X61206Y128779D01*
X61208Y128829D01*
Y128833D01*
Y128843D01*
X61206Y128862D01*
X61201Y128881D01*
X61192Y128904D01*
X61182Y128928D01*
X61166Y128952D01*
X61145Y128973D01*
X61142Y128975D01*
X61133Y128982D01*
X61116Y128989D01*
X61090Y129001D01*
X61057Y129010D01*
X61039Y129015D01*
X61017Y129020D01*
X60991Y129025D01*
X60965Y129027D01*
X60937Y129029D01*
X60904Y129032D01*
Y129114D01*
X61697D01*
Y129032D01*
D02*
G37*
G36*
X68019D02*
X67897D01*
X67873Y129029D01*
X67842Y129025D01*
X67807Y129020D01*
X67772Y129010D01*
X67738Y128999D01*
X67706Y128982D01*
X67703Y128980D01*
X67696Y128977D01*
X67684Y128968D01*
X67672Y128958D01*
X67658Y128942D01*
X67642Y128926D01*
X67628Y128902D01*
X67613Y128876D01*
Y128874D01*
X67609Y128864D01*
X67606Y128848D01*
X67604Y128836D01*
X67602Y128819D01*
X67599Y128803D01*
X67597Y128784D01*
X67595Y128760D01*
Y128734D01*
X67592Y128704D01*
X67590Y128671D01*
Y128633D01*
Y128593D01*
Y126589D01*
Y126587D01*
Y126580D01*
Y126568D01*
Y126551D01*
Y126532D01*
X67592Y126511D01*
Y126464D01*
X67595Y126415D01*
X67599Y126365D01*
X67602Y126344D01*
X67606Y126325D01*
X67609Y126308D01*
X67613Y126294D01*
X67616Y126292D01*
X67618Y126285D01*
X67625Y126273D01*
X67637Y126261D01*
X67649Y126244D01*
X67668Y126228D01*
X67689Y126209D01*
X67715Y126193D01*
X67720Y126190D01*
X67729Y126186D01*
X67746Y126179D01*
X67769Y126171D01*
X67797Y126164D01*
X67833Y126157D01*
X67873Y126153D01*
X67918Y126150D01*
X68019D01*
Y126067D01*
X66429D01*
Y126150D01*
X66549D01*
X66575Y126153D01*
X66606Y126157D01*
X66639Y126162D01*
X66674Y126169D01*
X66710Y126181D01*
X66743Y126197D01*
X66745Y126200D01*
X66752Y126204D01*
X66764Y126212D01*
X66776Y126223D01*
X66790Y126237D01*
X66806Y126256D01*
X66821Y126278D01*
X66832Y126304D01*
X66835Y126306D01*
X66837Y126315D01*
X66842Y126332D01*
X66844Y126346D01*
X66846Y126360D01*
X66849Y126377D01*
X66851Y126398D01*
Y126421D01*
X66853Y126447D01*
X66856Y126476D01*
X66858Y126511D01*
Y126549D01*
Y126589D01*
Y128593D01*
Y128595D01*
Y128602D01*
Y128614D01*
Y128630D01*
Y128649D01*
X66856Y128671D01*
Y128718D01*
X66851Y128767D01*
X66846Y128815D01*
X66844Y128836D01*
X66842Y128855D01*
X66837Y128871D01*
X66832Y128883D01*
Y128885D01*
X66827Y128893D01*
X66821Y128904D01*
X66811Y128918D01*
X66797Y128935D01*
X66780Y128952D01*
X66759Y128970D01*
X66733Y128987D01*
X66731Y128989D01*
X66719Y128994D01*
X66703Y129001D01*
X66679Y129010D01*
X66650Y129017D01*
X66615Y129025D01*
X66575Y129029D01*
X66528Y129032D01*
X66429D01*
Y129114D01*
X68019D01*
Y129032D01*
D02*
G37*
G36*
X63417D02*
X63295D01*
X63271Y129029D01*
X63240Y129025D01*
X63205Y129020D01*
X63170Y129010D01*
X63137Y128999D01*
X63103Y128982D01*
X63101Y128980D01*
X63094Y128977D01*
X63082Y128968D01*
X63070Y128958D01*
X63056Y128942D01*
X63040Y128926D01*
X63026Y128902D01*
X63011Y128876D01*
Y128874D01*
X63007Y128864D01*
X63004Y128848D01*
X63002Y128836D01*
X63000Y128819D01*
X62997Y128803D01*
X62995Y128784D01*
X62993Y128760D01*
Y128734D01*
X62990Y128704D01*
X62988Y128671D01*
Y128633D01*
Y128593D01*
Y126589D01*
Y126587D01*
Y126580D01*
Y126568D01*
Y126551D01*
Y126532D01*
X62990Y126511D01*
Y126464D01*
X62993Y126415D01*
X62997Y126365D01*
X63000Y126344D01*
X63004Y126325D01*
X63007Y126308D01*
X63011Y126294D01*
X63014Y126292D01*
X63016Y126285D01*
X63023Y126273D01*
X63035Y126261D01*
X63047Y126244D01*
X63066Y126228D01*
X63087Y126209D01*
X63113Y126193D01*
X63118Y126190D01*
X63127Y126186D01*
X63144Y126179D01*
X63167Y126171D01*
X63196Y126164D01*
X63231Y126157D01*
X63271Y126153D01*
X63316Y126150D01*
X63417D01*
Y126067D01*
X61827D01*
Y126150D01*
X61947D01*
X61973Y126153D01*
X62004Y126157D01*
X62037Y126162D01*
X62072Y126169D01*
X62108Y126181D01*
X62141Y126197D01*
X62143Y126200D01*
X62150Y126204D01*
X62162Y126212D01*
X62174Y126223D01*
X62188Y126237D01*
X62204Y126256D01*
X62218Y126278D01*
X62230Y126304D01*
X62233Y126306D01*
X62235Y126315D01*
X62240Y126332D01*
X62242Y126346D01*
X62244Y126360D01*
X62247Y126377D01*
X62249Y126398D01*
Y126421D01*
X62252Y126447D01*
X62254Y126476D01*
X62256Y126511D01*
Y126549D01*
Y126589D01*
Y128593D01*
Y128595D01*
Y128602D01*
Y128614D01*
Y128630D01*
Y128649D01*
X62254Y128671D01*
Y128718D01*
X62249Y128767D01*
X62244Y128815D01*
X62242Y128836D01*
X62240Y128855D01*
X62235Y128871D01*
X62230Y128883D01*
Y128885D01*
X62226Y128893D01*
X62218Y128904D01*
X62209Y128918D01*
X62195Y128935D01*
X62178Y128952D01*
X62157Y128970D01*
X62131Y128987D01*
X62129Y128989D01*
X62117Y128994D01*
X62100Y129001D01*
X62077Y129010D01*
X62049Y129017D01*
X62013Y129025D01*
X61973Y129029D01*
X61926Y129032D01*
X61827D01*
Y129114D01*
X63417D01*
Y129032D01*
D02*
G37*
G36*
X68982Y124502D02*
X68900D01*
Y124505D01*
X68897Y124514D01*
X68893Y124528D01*
X68888Y124550D01*
X68881Y124571D01*
X68871Y124599D01*
X68862Y124627D01*
X68852Y124661D01*
X68829Y124727D01*
X68800Y124795D01*
X68786Y124826D01*
X68772Y124856D01*
X68756Y124885D01*
X68739Y124911D01*
Y124913D01*
X68734Y124915D01*
X68730Y124923D01*
X68723Y124932D01*
X68704Y124953D01*
X68678Y124981D01*
X68642Y125014D01*
X68602Y125048D01*
X68555Y125081D01*
X68501Y125109D01*
X68496Y125111D01*
X68484Y125116D01*
X68475Y125118D01*
X68463Y125123D01*
X68449Y125125D01*
X68432Y125130D01*
X68414Y125135D01*
X68390Y125137D01*
X68366Y125142D01*
X68340Y125144D01*
X68310Y125147D01*
X68277Y125149D01*
X68241Y125151D01*
X67975D01*
Y122801D01*
Y122799D01*
Y122791D01*
Y122780D01*
Y122763D01*
Y122744D01*
X67977Y122723D01*
Y122676D01*
X67979Y122626D01*
X67984Y122577D01*
X67986Y122555D01*
X67991Y122537D01*
X67993Y122520D01*
X67998Y122506D01*
X68001Y122503D01*
X68003Y122496D01*
X68010Y122485D01*
X68022Y122473D01*
X68033Y122456D01*
X68052Y122440D01*
X68074Y122421D01*
X68100Y122404D01*
X68104Y122402D01*
X68114Y122397D01*
X68130Y122390D01*
X68154Y122383D01*
X68185Y122376D01*
X68220Y122369D01*
X68260Y122364D01*
X68307Y122362D01*
X68409D01*
Y122279D01*
X66813D01*
Y122362D01*
X66934D01*
X66960Y122364D01*
X66988Y122369D01*
X67023Y122374D01*
X67059Y122381D01*
X67092Y122393D01*
X67125Y122409D01*
X67127Y122411D01*
X67134Y122416D01*
X67146Y122423D01*
X67158Y122435D01*
X67175Y122449D01*
X67189Y122468D01*
X67203Y122489D01*
X67217Y122515D01*
X67219Y122518D01*
X67222Y122527D01*
X67226Y122544D01*
X67229Y122558D01*
X67231Y122572D01*
X67234Y122588D01*
X67236Y122610D01*
Y122633D01*
X67238Y122659D01*
X67241Y122688D01*
X67243Y122723D01*
Y122761D01*
Y122801D01*
Y125151D01*
X66993D01*
X66971Y125149D01*
X66946Y125147D01*
X66915Y125144D01*
X66884Y125140D01*
X66849Y125135D01*
X66776Y125118D01*
X66703Y125095D01*
X66665Y125081D01*
X66632Y125064D01*
X66601Y125043D01*
X66573Y125019D01*
X66570Y125017D01*
X66563Y125010D01*
X66554Y125000D01*
X66542Y124986D01*
X66526Y124967D01*
X66507Y124944D01*
X66488Y124918D01*
X66466Y124887D01*
X66445Y124852D01*
X66424Y124814D01*
X66405Y124771D01*
X66384Y124724D01*
X66367Y124675D01*
X66351Y124620D01*
X66337Y124564D01*
X66325Y124502D01*
X66242D01*
Y125326D01*
X68982D01*
Y124502D01*
D02*
G37*
G36*
X59353Y125243D02*
X59268D01*
X59245Y125241D01*
X59214Y125236D01*
X59181Y125232D01*
X59146Y125222D01*
X59110Y125208D01*
X59075Y125191D01*
X59070Y125189D01*
X59061Y125182D01*
X59047Y125170D01*
X59028Y125154D01*
X59009Y125130D01*
X58988Y125104D01*
X58969Y125074D01*
X58952Y125036D01*
Y125033D01*
X58947Y125022D01*
X58943Y125003D01*
X58938Y124977D01*
X58933Y124941D01*
X58931Y124920D01*
X58929Y124897D01*
X58926Y124871D01*
Y124842D01*
X58924Y124812D01*
Y124778D01*
Y123620D01*
Y123617D01*
Y123613D01*
Y123606D01*
Y123596D01*
Y123584D01*
Y123568D01*
Y123532D01*
X58922Y123488D01*
X58919Y123438D01*
Y123381D01*
X58915Y123322D01*
X58912Y123259D01*
X58907Y123195D01*
X58893Y123067D01*
X58886Y123006D01*
X58877Y122947D01*
X58865Y122893D01*
X58853Y122846D01*
Y122843D01*
X58851Y122836D01*
X58844Y122822D01*
X58839Y122806D01*
X58829Y122784D01*
X58815Y122761D01*
X58801Y122732D01*
X58782Y122702D01*
X58761Y122669D01*
X58737Y122633D01*
X58709Y122598D01*
X58676Y122560D01*
X58641Y122522D01*
X58601Y122482D01*
X58556Y122444D01*
X58506Y122407D01*
X58504Y122404D01*
X58494Y122397D01*
X58478Y122388D01*
X58457Y122376D01*
X58428Y122362D01*
X58395Y122343D01*
X58355Y122327D01*
X58310Y122308D01*
X58258Y122289D01*
X58204Y122272D01*
X58143Y122256D01*
X58074Y122239D01*
X58003Y122227D01*
X57926Y122218D01*
X57845Y122211D01*
X57758Y122208D01*
X57720D01*
X57694Y122211D01*
X57659D01*
X57621Y122213D01*
X57579Y122218D01*
X57534Y122223D01*
X57487Y122227D01*
X57435Y122234D01*
X57333Y122253D01*
X57284Y122265D01*
X57236Y122279D01*
X57189Y122293D01*
X57147Y122312D01*
X57144Y122315D01*
X57135Y122319D01*
X57118Y122327D01*
X57100Y122338D01*
X57074Y122352D01*
X57048Y122369D01*
X57017Y122390D01*
X56984Y122411D01*
X56951Y122437D01*
X56915Y122466D01*
X56880Y122496D01*
X56847Y122529D01*
X56814Y122563D01*
X56783Y122600D01*
X56755Y122640D01*
X56731Y122680D01*
X56729Y122683D01*
X56727Y122690D01*
X56720Y122704D01*
X56713Y122723D01*
X56703Y122744D01*
X56694Y122773D01*
X56682Y122803D01*
X56673Y122841D01*
X56661Y122881D01*
X56649Y122928D01*
X56639Y122978D01*
X56630Y123032D01*
X56623Y123089D01*
X56616Y123150D01*
X56613Y123216D01*
X56611Y123285D01*
Y124778D01*
Y124781D01*
Y124790D01*
Y124802D01*
Y124821D01*
Y124842D01*
X56609Y124866D01*
X56606Y124918D01*
X56604Y124974D01*
X56599Y125026D01*
X56595Y125050D01*
X56590Y125071D01*
X56585Y125090D01*
X56580Y125104D01*
X56578Y125107D01*
X56576Y125116D01*
X56569Y125125D01*
X56557Y125142D01*
X56543Y125156D01*
X56526Y125175D01*
X56505Y125191D01*
X56479Y125206D01*
X56477Y125208D01*
X56465Y125213D01*
X56446Y125217D01*
X56420Y125224D01*
X56403Y125229D01*
X56385Y125232D01*
X56361Y125234D01*
X56337Y125239D01*
X56311Y125241D01*
X56281D01*
X56250Y125243D01*
X56215D01*
Y125326D01*
X57789D01*
Y125243D01*
X57666D01*
X57649Y125241D01*
X57612Y125239D01*
X57572Y125234D01*
X57531Y125227D01*
X57494Y125217D01*
X57477Y125213D01*
X57463Y125206D01*
X57461Y125203D01*
X57451Y125199D01*
X57442Y125189D01*
X57428Y125180D01*
X57411Y125163D01*
X57395Y125147D01*
X57380Y125125D01*
X57369Y125102D01*
Y125100D01*
X57364Y125088D01*
X57362Y125078D01*
Y125069D01*
X57359Y125055D01*
X57357Y125038D01*
X57354Y125017D01*
X57352Y124996D01*
X57350Y124970D01*
X57347Y124939D01*
X57345Y124906D01*
Y124868D01*
X57343Y124826D01*
Y124778D01*
Y123285D01*
Y123280D01*
Y123266D01*
Y123247D01*
Y123219D01*
X57345Y123186D01*
Y123148D01*
X57347Y123108D01*
X57350Y123065D01*
X57357Y122973D01*
X57362Y122928D01*
X57369Y122883D01*
X57376Y122843D01*
X57383Y122806D01*
X57392Y122773D01*
X57404Y122744D01*
Y122742D01*
X57406Y122740D01*
X57411Y122732D01*
X57416Y122723D01*
X57430Y122697D01*
X57454Y122666D01*
X57480Y122633D01*
X57515Y122596D01*
X57557Y122560D01*
X57607Y122525D01*
X57609D01*
X57614Y122520D01*
X57621Y122518D01*
X57633Y122511D01*
X57647Y122503D01*
X57664Y122496D01*
X57683Y122489D01*
X57706Y122482D01*
X57730Y122473D01*
X57758Y122466D01*
X57817Y122451D01*
X57888Y122442D01*
X57966Y122437D01*
X57989D01*
X58006Y122440D01*
X58027D01*
X58053Y122444D01*
X58081Y122447D01*
X58110Y122451D01*
X58176Y122466D01*
X58247Y122485D01*
X58317Y122513D01*
X58353Y122529D01*
X58386Y122548D01*
X58388Y122551D01*
X58393Y122553D01*
X58402Y122560D01*
X58414Y122570D01*
X58428Y122579D01*
X58445Y122593D01*
X58485Y122628D01*
X58527Y122671D01*
X58570Y122723D01*
X58612Y122784D01*
X58648Y122853D01*
Y122855D01*
X58653Y122862D01*
X58655Y122874D01*
X58662Y122890D01*
X58669Y122914D01*
X58676Y122940D01*
X58683Y122973D01*
X58693Y123011D01*
X58700Y123056D01*
X58707Y123105D01*
X58714Y123162D01*
X58721Y123223D01*
X58728Y123292D01*
X58730Y123365D01*
X58735Y123448D01*
Y123535D01*
Y124778D01*
Y124781D01*
Y124788D01*
Y124797D01*
Y124812D01*
X58733Y124828D01*
Y124847D01*
X58730Y124892D01*
X58723Y124939D01*
X58716Y124986D01*
X58704Y125031D01*
X58697Y125052D01*
X58690Y125069D01*
X58688Y125074D01*
X58683Y125083D01*
X58674Y125100D01*
X58662Y125116D01*
X58645Y125137D01*
X58627Y125159D01*
X58608Y125175D01*
X58584Y125191D01*
X58579Y125194D01*
X58565Y125199D01*
X58542Y125208D01*
X58511Y125217D01*
X58471Y125227D01*
X58421Y125236D01*
X58365Y125241D01*
X58298Y125243D01*
Y125326D01*
X59353D01*
Y125243D01*
D02*
G37*
G36*
X64390Y125324D02*
X64442Y125321D01*
X64498Y125319D01*
X64562Y125317D01*
X64626Y125312D01*
X64692Y125307D01*
X64826Y125293D01*
X64890Y125284D01*
X64951Y125274D01*
X65008Y125262D01*
X65060Y125248D01*
X65062D01*
X65072Y125243D01*
X65086Y125239D01*
X65102Y125234D01*
X65124Y125224D01*
X65150Y125213D01*
X65178Y125201D01*
X65209Y125184D01*
X65242Y125166D01*
X65275Y125147D01*
X65310Y125123D01*
X65346Y125097D01*
X65381Y125069D01*
X65416Y125036D01*
X65449Y125003D01*
X65480Y124965D01*
X65482Y124963D01*
X65487Y124955D01*
X65494Y124944D01*
X65506Y124929D01*
X65518Y124908D01*
X65532Y124885D01*
X65546Y124859D01*
X65563Y124828D01*
X65577Y124795D01*
X65591Y124757D01*
X65605Y124717D01*
X65617Y124675D01*
X65629Y124630D01*
X65636Y124583D01*
X65640Y124535D01*
X65643Y124484D01*
Y124479D01*
Y124469D01*
X65640Y124451D01*
X65638Y124427D01*
X65636Y124399D01*
X65631Y124365D01*
X65622Y124328D01*
X65612Y124288D01*
X65600Y124245D01*
X65584Y124200D01*
X65565Y124153D01*
X65541Y124106D01*
X65513Y124059D01*
X65480Y124014D01*
X65442Y123969D01*
X65400Y123926D01*
X65397Y123924D01*
X65393Y123919D01*
X65383Y123912D01*
X65371Y123903D01*
X65355Y123891D01*
X65336Y123879D01*
X65312Y123865D01*
X65286Y123849D01*
X65258Y123832D01*
X65225Y123816D01*
X65190Y123797D01*
X65152Y123780D01*
X65109Y123764D01*
X65065Y123747D01*
X65017Y123733D01*
X64965Y123719D01*
X65697Y122685D01*
X65699Y122683D01*
X65704Y122676D01*
X65711Y122666D01*
X65721Y122654D01*
X65733Y122638D01*
X65747Y122619D01*
X65777Y122579D01*
X65810Y122537D01*
X65843Y122496D01*
X65860Y122480D01*
X65877Y122463D01*
X65891Y122449D01*
X65902Y122437D01*
X65907Y122435D01*
X65919Y122426D01*
X65938Y122414D01*
X65964Y122402D01*
X65995Y122388D01*
X66032Y122376D01*
X66072Y122367D01*
X66117Y122362D01*
Y122279D01*
X65157D01*
X64175Y123667D01*
X63977D01*
Y122815D01*
Y122813D01*
Y122803D01*
Y122791D01*
Y122775D01*
Y122756D01*
X63979Y122732D01*
X63981Y122683D01*
X63984Y122628D01*
X63989Y122577D01*
X63991Y122553D01*
X63996Y122532D01*
X64000Y122515D01*
X64005Y122501D01*
X64007Y122499D01*
X64012Y122492D01*
X64019Y122480D01*
X64031Y122466D01*
X64045Y122449D01*
X64064Y122433D01*
X64085Y122414D01*
X64111Y122400D01*
X64116Y122397D01*
X64128Y122395D01*
X64147Y122388D01*
X64161Y122386D01*
X64177Y122381D01*
X64194Y122378D01*
X64215Y122374D01*
X64239Y122371D01*
X64265Y122369D01*
X64295Y122367D01*
X64326Y122364D01*
X64361Y122362D01*
X64399D01*
Y122279D01*
X62839D01*
Y122362D01*
X62872D01*
X62891Y122364D01*
X62910D01*
X62955Y122367D01*
X63002Y122371D01*
X63049Y122378D01*
X63092Y122388D01*
X63108Y122393D01*
X63125Y122400D01*
X63127Y122402D01*
X63137Y122407D01*
X63151Y122416D01*
X63167Y122428D01*
X63184Y122442D01*
X63203Y122459D01*
X63217Y122480D01*
X63231Y122501D01*
X63233Y122503D01*
X63236Y122515D01*
X63238Y122525D01*
X63240Y122534D01*
X63243Y122548D01*
X63247Y122565D01*
X63250Y122584D01*
X63252Y122605D01*
X63254Y122631D01*
X63257Y122662D01*
X63259Y122692D01*
Y122730D01*
X63262Y122770D01*
Y122815D01*
Y124790D01*
Y124793D01*
Y124802D01*
Y124814D01*
Y124830D01*
Y124849D01*
X63259Y124873D01*
X63257Y124923D01*
X63254Y124974D01*
X63250Y125026D01*
X63245Y125050D01*
X63240Y125071D01*
X63236Y125088D01*
X63231Y125102D01*
X63228Y125104D01*
X63224Y125114D01*
X63217Y125123D01*
X63205Y125140D01*
X63191Y125154D01*
X63172Y125173D01*
X63148Y125189D01*
X63122Y125203D01*
X63118Y125206D01*
X63108Y125210D01*
X63087Y125215D01*
X63075Y125220D01*
X63059Y125224D01*
X63040Y125227D01*
X63021Y125232D01*
X62997Y125234D01*
X62971Y125236D01*
X62943Y125239D01*
X62910Y125241D01*
X62877Y125243D01*
X62839D01*
Y125326D01*
X64342D01*
X64390Y125324D01*
D02*
G37*
G36*
X62228Y122890D02*
X62230Y122886D01*
X62235Y122874D01*
X62242Y122857D01*
X62254Y122834D01*
X62268Y122806D01*
X62282Y122773D01*
X62299Y122737D01*
X62318Y122702D01*
X62360Y122624D01*
X62381Y122586D01*
X62402Y122551D01*
X62424Y122518D01*
X62445Y122487D01*
X62466Y122463D01*
X62485Y122442D01*
X62490Y122440D01*
X62499Y122430D01*
X62518Y122418D01*
X62542Y122407D01*
X62572Y122393D01*
X62610Y122378D01*
X62653Y122369D01*
X62702Y122362D01*
Y122279D01*
X61227D01*
Y122362D01*
X61317D01*
X61331Y122364D01*
X61348D01*
X61385Y122369D01*
X61428Y122374D01*
X61468Y122383D01*
X61506Y122395D01*
X61522Y122402D01*
X61536Y122411D01*
X61539Y122414D01*
X61544Y122418D01*
X61553Y122426D01*
X61562Y122437D01*
X61569Y122451D01*
X61579Y122470D01*
X61584Y122489D01*
X61586Y122513D01*
Y122515D01*
Y122520D01*
Y122529D01*
X61584Y122539D01*
X61581Y122567D01*
X61574Y122598D01*
X61572Y122603D01*
X61569Y122612D01*
X61565Y122626D01*
X61555Y122647D01*
X61551Y122662D01*
X61544Y122676D01*
X61536Y122695D01*
X61527Y122716D01*
X61518Y122740D01*
X61506Y122765D01*
X61340Y123148D01*
X60274D01*
X60139Y122850D01*
Y122848D01*
X60137Y122843D01*
X60135Y122836D01*
X60130Y122827D01*
X60120Y122799D01*
X60109Y122763D01*
X60097Y122725D01*
X60087Y122685D01*
X60080Y122643D01*
X60078Y122605D01*
Y122603D01*
Y122600D01*
Y122593D01*
X60080Y122584D01*
X60083Y122560D01*
X60090Y122532D01*
X60104Y122501D01*
X60120Y122470D01*
X60146Y122440D01*
X60161Y122426D01*
X60179Y122414D01*
X60182Y122411D01*
X60194Y122409D01*
X60201Y122404D01*
X60212Y122402D01*
X60224Y122397D01*
X60241Y122395D01*
X60257Y122390D01*
X60278Y122386D01*
X60304Y122381D01*
X60333Y122376D01*
X60364Y122374D01*
X60399Y122369D01*
X60437Y122364D01*
X60479Y122362D01*
Y122279D01*
X59467D01*
Y122362D01*
X59469D01*
X59474Y122364D01*
X59483D01*
X59495Y122367D01*
X59507Y122371D01*
X59523Y122376D01*
X59561Y122388D01*
X59604Y122404D01*
X59648Y122428D01*
X59693Y122459D01*
X59736Y122496D01*
X59738Y122499D01*
X59741Y122501D01*
X59748Y122508D01*
X59755Y122520D01*
X59764Y122532D01*
X59778Y122551D01*
X59792Y122572D01*
X59809Y122596D01*
X59825Y122624D01*
X59847Y122657D01*
X59868Y122695D01*
X59889Y122737D01*
X59915Y122784D01*
X59941Y122836D01*
X59967Y122893D01*
X59995Y122957D01*
X61086Y125390D01*
X61128D01*
X62228Y122890D01*
D02*
G37*
G36*
X42834Y119411D02*
X42849D01*
X42865Y119409D01*
X42905Y119407D01*
X42950Y119402D01*
X43001Y119396D01*
X43056Y119387D01*
X43112Y119378D01*
X43173Y119363D01*
X43235Y119349D01*
X43295Y119329D01*
X43355Y119307D01*
X43413Y119280D01*
X43469Y119249D01*
X43520Y119214D01*
X43524Y119212D01*
X43531Y119205D01*
X43546Y119194D01*
X43562Y119178D01*
X43584Y119158D01*
X43608Y119134D01*
X43635Y119105D01*
X43662Y119072D01*
X43691Y119036D01*
X43719Y118996D01*
X43748Y118950D01*
X43775Y118903D01*
X43801Y118850D01*
X43824Y118794D01*
X43844Y118735D01*
X43861Y118672D01*
X43356Y118577D01*
Y118579D01*
X43355Y118584D01*
X43351Y118595D01*
X43345Y118608D01*
X43340Y118623D01*
X43331Y118641D01*
X43322Y118661D01*
X43311Y118683D01*
X43298Y118704D01*
X43284Y118728D01*
X43267Y118754D01*
X43249Y118777D01*
X43227Y118801D01*
X43205Y118825D01*
X43182Y118848D01*
X43154Y118868D01*
X43153Y118870D01*
X43147Y118874D01*
X43140Y118879D01*
X43129Y118885D01*
X43114Y118894D01*
X43096Y118903D01*
X43076Y118912D01*
X43054Y118923D01*
X43029Y118934D01*
X43001Y118943D01*
X42971Y118952D01*
X42938Y118961D01*
X42905Y118967D01*
X42867Y118972D01*
X42829Y118976D01*
X42789Y118977D01*
X42774D01*
X42756Y118976D01*
X42734Y118974D01*
X42705Y118970D01*
X42672Y118967D01*
X42638Y118959D01*
X42597Y118950D01*
X42556Y118939D01*
X42514Y118925D01*
X42468Y118908D01*
X42425Y118888D01*
X42381Y118863D01*
X42339Y118835D01*
X42297Y118803D01*
X42259Y118764D01*
X42257Y118763D01*
X42250Y118755D01*
X42241Y118743D01*
X42228Y118725D01*
X42213Y118703D01*
X42197Y118675D01*
X42179Y118644D01*
X42161Y118608D01*
X42143Y118566D01*
X42124Y118519D01*
X42108Y118468D01*
X42093Y118411D01*
X42081Y118350D01*
X42072Y118284D01*
X42064Y118213D01*
X42062Y118138D01*
Y118137D01*
Y118133D01*
Y118128D01*
Y118118D01*
Y118107D01*
X42064Y118097D01*
Y118082D01*
X42066Y118066D01*
X42068Y118027D01*
X42073Y117986D01*
X42079Y117938D01*
X42088Y117887D01*
X42097Y117833D01*
X42112Y117778D01*
X42126Y117722D01*
X42146Y117667D01*
X42168Y117613D01*
X42195Y117560D01*
X42226Y117510D01*
X42261Y117467D01*
X42263Y117465D01*
X42270Y117458D01*
X42281Y117447D01*
X42297Y117432D01*
X42317Y117416D01*
X42341Y117396D01*
X42370Y117376D01*
X42401Y117356D01*
X42437Y117334D01*
X42476Y117314D01*
X42519Y117296D01*
X42566Y117278D01*
X42616Y117263D01*
X42668Y117252D01*
X42725Y117245D01*
X42783Y117243D01*
X42799D01*
X42810Y117245D01*
X42825D01*
X42843Y117247D01*
X42861Y117248D01*
X42883Y117250D01*
X42907Y117254D01*
X42932Y117258D01*
X42985Y117269D01*
X43043Y117285D01*
X43103Y117305D01*
X43105D01*
X43111Y117308D01*
X43120Y117310D01*
X43131Y117316D01*
X43143Y117321D01*
X43160Y117329D01*
X43178Y117338D01*
X43198Y117347D01*
X43242Y117369D01*
X43287Y117394D01*
X43335Y117423D01*
X43380Y117456D01*
Y117776D01*
X42798D01*
Y118202D01*
X43893D01*
Y117198D01*
X43892Y117196D01*
X43886Y117190D01*
X43877Y117183D01*
X43864Y117172D01*
X43848Y117157D01*
X43826Y117143D01*
X43802Y117125D01*
X43775Y117105D01*
X43744Y117085D01*
X43709Y117063D01*
X43671Y117041D01*
X43629Y117017D01*
X43586Y116994D01*
X43537Y116970D01*
X43484Y116946D01*
X43429Y116925D01*
X43426Y116923D01*
X43417Y116919D01*
X43400Y116914D01*
X43376Y116906D01*
X43349Y116897D01*
X43316Y116888D01*
X43280Y116877D01*
X43240Y116866D01*
X43194Y116855D01*
X43147Y116844D01*
X43096Y116835D01*
X43043Y116826D01*
X42989Y116819D01*
X42932Y116814D01*
X42874Y116810D01*
X42816Y116808D01*
X42789D01*
X42778Y116810D01*
X42750D01*
X42716Y116814D01*
X42676Y116817D01*
X42630Y116823D01*
X42581Y116828D01*
X42528Y116837D01*
X42474Y116848D01*
X42417Y116863D01*
X42359Y116877D01*
X42299Y116897D01*
X42241Y116919D01*
X42182Y116945D01*
X42126Y116974D01*
X42122Y116975D01*
X42113Y116981D01*
X42099Y116992D01*
X42079Y117005D01*
X42053Y117021D01*
X42026Y117043D01*
X41995Y117067D01*
X41960Y117096D01*
X41926Y117127D01*
X41890Y117161D01*
X41853Y117201D01*
X41817Y117243D01*
X41780Y117288D01*
X41747Y117338D01*
X41715Y117390D01*
X41686Y117447D01*
X41684Y117450D01*
X41680Y117461D01*
X41673Y117478D01*
X41662Y117501D01*
X41651Y117531D01*
X41638Y117563D01*
X41626Y117603D01*
X41613Y117647D01*
X41598Y117694D01*
X41585Y117747D01*
X41573Y117802D01*
X41562Y117860D01*
X41553Y117922D01*
X41546Y117986D01*
X41540Y118051D01*
X41538Y118118D01*
Y118120D01*
Y118122D01*
Y118129D01*
Y118137D01*
Y118146D01*
X41540Y118157D01*
Y118184D01*
X41544Y118219D01*
X41547Y118259D01*
X41553Y118304D01*
X41558Y118353D01*
X41567Y118406D01*
X41578Y118462D01*
X41591Y118521D01*
X41607Y118579D01*
X41626Y118639D01*
X41647Y118699D01*
X41673Y118759D01*
X41702Y118817D01*
X41704Y118821D01*
X41709Y118830D01*
X41720Y118846D01*
X41733Y118868D01*
X41749Y118894D01*
X41771Y118923D01*
X41797Y118956D01*
X41824Y118990D01*
X41857Y119028D01*
X41893Y119067D01*
X41931Y119105D01*
X41975Y119145D01*
X42022Y119183D01*
X42073Y119220D01*
X42126Y119254D01*
X42184Y119287D01*
X42188Y119289D01*
X42195Y119292D01*
X42210Y119298D01*
X42228Y119307D01*
X42252Y119316D01*
X42281Y119327D01*
X42314Y119338D01*
X42350Y119351D01*
X42392Y119361D01*
X42439Y119372D01*
X42488Y119383D01*
X42541Y119392D01*
X42597Y119402D01*
X42659Y119407D01*
X42723Y119411D01*
X42789Y119412D01*
X42819D01*
X42834Y119411D01*
D02*
G37*
G36*
X46365Y116852D02*
X45855D01*
X44838Y118501D01*
Y116852D01*
X44366D01*
Y119371D01*
X44860D01*
X45893Y117683D01*
Y119371D01*
X46365D01*
Y116852D01*
D02*
G37*
G36*
X47908Y119369D02*
X47939D01*
X47972Y119367D01*
X48008Y119365D01*
X48046Y119361D01*
X48085Y119358D01*
X48165Y119351D01*
X48203Y119345D01*
X48241Y119338D01*
X48276Y119331D01*
X48309Y119322D01*
X48310D01*
X48318Y119318D01*
X48331Y119314D01*
X48345Y119309D01*
X48365Y119301D01*
X48387Y119292D01*
X48412Y119281D01*
X48440Y119269D01*
X48469Y119252D01*
X48500Y119236D01*
X48531Y119216D01*
X48563Y119196D01*
X48594Y119172D01*
X48627Y119147D01*
X48658Y119119D01*
X48689Y119088D01*
X48691Y119087D01*
X48696Y119081D01*
X48704Y119072D01*
X48715Y119059D01*
X48729Y119043D01*
X48744Y119023D01*
X48760Y119001D01*
X48778Y118976D01*
X48798Y118947D01*
X48816Y118916D01*
X48836Y118883D01*
X48856Y118846D01*
X48877Y118808D01*
X48895Y118768D01*
X48913Y118725D01*
X48929Y118681D01*
X48931Y118679D01*
X48933Y118670D01*
X48937Y118657D01*
X48942Y118637D01*
X48949Y118614D01*
X48957Y118586D01*
X48964Y118553D01*
X48971Y118517D01*
X48978Y118475D01*
X48986Y118430D01*
X48993Y118380D01*
X49000Y118328D01*
X49006Y118273D01*
X49009Y118213D01*
X49013Y118151D01*
Y118086D01*
Y118082D01*
Y118071D01*
Y118055D01*
X49011Y118033D01*
Y118007D01*
X49009Y117975D01*
X49006Y117940D01*
X49004Y117902D01*
X48998Y117862D01*
X48995Y117818D01*
X48980Y117729D01*
X48960Y117638D01*
X48949Y117594D01*
X48935Y117551D01*
X48933Y117547D01*
X48931Y117538D01*
X48926Y117523D01*
X48917Y117505D01*
X48907Y117481D01*
X48897Y117454D01*
X48882Y117425D01*
X48866Y117392D01*
X48847Y117358D01*
X48827Y117321D01*
X48805Y117285D01*
X48782Y117247D01*
X48755Y117210D01*
X48727Y117174D01*
X48698Y117137D01*
X48665Y117105D01*
X48663Y117103D01*
X48660Y117099D01*
X48651Y117092D01*
X48642Y117083D01*
X48627Y117072D01*
X48611Y117061D01*
X48592Y117046D01*
X48571Y117032D01*
X48547Y117016D01*
X48520Y116999D01*
X48491Y116983D01*
X48460Y116966D01*
X48425Y116950D01*
X48389Y116934D01*
X48351Y116919D01*
X48309Y116904D01*
X48307D01*
X48301Y116903D01*
X48290Y116899D01*
X48278Y116897D01*
X48261Y116892D01*
X48239Y116888D01*
X48216Y116883D01*
X48188Y116879D01*
X48158Y116874D01*
X48125Y116868D01*
X48087Y116865D01*
X48046Y116861D01*
X48003Y116857D01*
X47957Y116853D01*
X47908Y116852D01*
X46902D01*
Y119371D01*
X47881D01*
X47908Y119369D01*
D02*
G37*
G36*
X45826Y137056D02*
X46694Y135744D01*
X46083D01*
X45524Y136596D01*
X44963Y135744D01*
X44354D01*
X45226Y137054D01*
X44434Y138263D01*
X45029D01*
X45528Y137507D01*
X46028Y138263D01*
X46618D01*
X45826Y137056D01*
D02*
G37*
G36*
X47715Y138270D02*
X47741Y138268D01*
X47772Y138266D01*
X47808Y138261D01*
X47848Y138256D01*
X47892Y138246D01*
X47937Y138235D01*
X47987Y138223D01*
X48036Y138206D01*
X48083Y138186D01*
X48132Y138163D01*
X48179Y138137D01*
X48223Y138106D01*
X48265Y138070D01*
X48267Y138068D01*
X48274Y138061D01*
X48285Y138050D01*
X48298Y138033D01*
X48314Y138013D01*
X48332Y137992D01*
X48352Y137962D01*
X48372Y137932D01*
X48392Y137897D01*
X48412Y137861D01*
X48431Y137819D01*
X48447Y137775D01*
X48460Y137728D01*
X48471Y137677D01*
X48478Y137624D01*
X48480Y137569D01*
Y137567D01*
Y137562D01*
Y137553D01*
Y137540D01*
X48478Y137526D01*
X48476Y137507D01*
X48474Y137487D01*
X48472Y137466D01*
X48465Y137417D01*
X48454Y137362D01*
X48438Y137304D01*
X48418Y137245D01*
Y137244D01*
X48414Y137238D01*
X48410Y137231D01*
X48407Y137218D01*
X48400Y137205D01*
X48390Y137189D01*
X48381Y137169D01*
X48371Y137149D01*
X48358Y137125D01*
X48343Y137100D01*
X48310Y137045D01*
X48270Y136987D01*
X48225Y136925D01*
X48223Y136923D01*
X48221Y136920D01*
X48216Y136914D01*
X48208Y136905D01*
X48198Y136892D01*
X48185Y136878D01*
X48170Y136861D01*
X48152Y136843D01*
X48132Y136821D01*
X48108Y136798D01*
X48083Y136770D01*
X48054Y136741D01*
X48023Y136710D01*
X47988Y136678D01*
X47950Y136641D01*
X47908Y136603D01*
X47906Y136601D01*
X47899Y136594D01*
X47886Y136583D01*
X47872Y136568D01*
X47854Y136552D01*
X47832Y136534D01*
X47810Y136512D01*
X47786Y136490D01*
X47737Y136443D01*
X47688Y136397D01*
X47666Y136375D01*
X47648Y136357D01*
X47630Y136339D01*
X47617Y136325D01*
X47615Y136321D01*
X47608Y136313D01*
X47595Y136299D01*
X47582Y136283D01*
X47566Y136263D01*
X47550Y136239D01*
X47533Y136215D01*
X47519Y136192D01*
X48480D01*
Y135744D01*
X46787D01*
Y135748D01*
X46789Y135755D01*
X46791Y135769D01*
X46794Y135788D01*
X46798Y135809D01*
X46804Y135837D01*
X46809Y135866D01*
X46818Y135899D01*
X46827Y135935D01*
X46840Y135973D01*
X46853Y136011D01*
X46867Y136053D01*
X46885Y136095D01*
X46905Y136139D01*
X46927Y136181D01*
X46951Y136224D01*
X46953Y136226D01*
X46958Y136235D01*
X46967Y136248D01*
X46978Y136266D01*
X46995Y136288D01*
X47016Y136315D01*
X47042Y136348D01*
X47071Y136384D01*
X47106Y136426D01*
X47144Y136472D01*
X47189Y136521D01*
X47238Y136576D01*
X47295Y136634D01*
X47355Y136694D01*
X47422Y136759D01*
X47495Y136829D01*
X47497Y136830D01*
X47499Y136832D01*
X47510Y136841D01*
X47526Y136858D01*
X47548Y136878D01*
X47573Y136903D01*
X47602Y136931D01*
X47633Y136961D01*
X47668Y136994D01*
X47735Y137063D01*
X47770Y137096D01*
X47801Y137131D01*
X47832Y137162D01*
X47857Y137191D01*
X47879Y137218D01*
X47896Y137240D01*
X47897Y137242D01*
X47899Y137247D01*
X47905Y137255D01*
X47912Y137265D01*
X47919Y137280D01*
X47926Y137294D01*
X47936Y137313D01*
X47946Y137333D01*
X47965Y137378D01*
X47979Y137427D01*
X47992Y137482D01*
X47994Y137509D01*
X47996Y137537D01*
Y137538D01*
Y137544D01*
Y137551D01*
X47994Y137564D01*
Y137577D01*
X47992Y137591D01*
X47985Y137628D01*
X47974Y137668D01*
X47959Y137709D01*
X47937Y137748D01*
X47923Y137768D01*
X47908Y137784D01*
X47906Y137786D01*
X47905Y137788D01*
X47899Y137791D01*
X47892Y137799D01*
X47883Y137804D01*
X47872Y137811D01*
X47859Y137820D01*
X47846Y137828D01*
X47812Y137844D01*
X47770Y137859D01*
X47723Y137868D01*
X47695Y137870D01*
X47668Y137872D01*
X47653D01*
X47642Y137870D01*
X47630D01*
X47615Y137866D01*
X47581Y137861D01*
X47542Y137850D01*
X47501Y137833D01*
X47482Y137822D01*
X47462Y137811D01*
X47444Y137797D01*
X47426Y137780D01*
X47424Y137779D01*
X47422Y137777D01*
X47417Y137771D01*
X47411Y137762D01*
X47404Y137753D01*
X47397Y137740D01*
X47390Y137726D01*
X47380Y137709D01*
X47371Y137689D01*
X47362Y137668D01*
X47353Y137642D01*
X47346Y137615D01*
X47339Y137584D01*
X47331Y137551D01*
X47328Y137517D01*
X47324Y137478D01*
X46843Y137526D01*
Y137528D01*
Y137531D01*
X46845Y137537D01*
Y137544D01*
X46847Y137553D01*
X46849Y137564D01*
X46854Y137591D01*
X46860Y137624D01*
X46869Y137660D01*
X46880Y137702D01*
X46893Y137746D01*
X46909Y137793D01*
X46927Y137840D01*
X46949Y137888D01*
X46975Y137935D01*
X47002Y137981D01*
X47035Y138022D01*
X47071Y138063D01*
X47111Y138097D01*
X47113Y138099D01*
X47122Y138104D01*
X47135Y138113D01*
X47151Y138124D01*
X47175Y138137D01*
X47200Y138152D01*
X47233Y138168D01*
X47268Y138184D01*
X47306Y138201D01*
X47350Y138217D01*
X47397Y138232D01*
X47446Y138245D01*
X47501Y138256D01*
X47557Y138265D01*
X47617Y138270D01*
X47679Y138272D01*
X47695D01*
X47715Y138270D01*
D02*
G37*
G36*
X43205Y138261D02*
X43240D01*
X43278Y138259D01*
X43320Y138257D01*
X43365Y138254D01*
X43413Y138250D01*
X43460Y138246D01*
X43558Y138234D01*
X43604Y138226D01*
X43648Y138217D01*
X43690Y138206D01*
X43726Y138194D01*
X43728D01*
X43733Y138190D01*
X43744Y138186D01*
X43757Y138181D01*
X43771Y138174D01*
X43790Y138163D01*
X43810Y138152D01*
X43831Y138139D01*
X43855Y138123D01*
X43879Y138104D01*
X43902Y138084D01*
X43928Y138063D01*
X43951Y138039D01*
X43975Y138012D01*
X43997Y137982D01*
X44019Y137952D01*
X44021Y137950D01*
X44024Y137944D01*
X44030Y137933D01*
X44037Y137921D01*
X44044Y137904D01*
X44054Y137886D01*
X44064Y137862D01*
X44075Y137837D01*
X44084Y137810D01*
X44095Y137779D01*
X44104Y137746D01*
X44113Y137711D01*
X44119Y137675D01*
X44124Y137637D01*
X44128Y137599D01*
X44130Y137557D01*
Y137553D01*
Y137544D01*
X44128Y137529D01*
Y137509D01*
X44124Y137486D01*
X44121Y137457D01*
X44115Y137426D01*
X44110Y137391D01*
X44101Y137355D01*
X44090Y137316D01*
X44075Y137278D01*
X44059Y137238D01*
X44041Y137200D01*
X44017Y137160D01*
X43992Y137123D01*
X43962Y137087D01*
X43961Y137085D01*
X43955Y137080D01*
X43944Y137071D01*
X43931Y137058D01*
X43913Y137043D01*
X43893Y137027D01*
X43868Y137009D01*
X43839Y136989D01*
X43804Y136969D01*
X43768Y136951D01*
X43728Y136931D01*
X43682Y136912D01*
X43633Y136894D01*
X43580Y136880D01*
X43524Y136867D01*
X43464Y136856D01*
X43466Y136854D01*
X43471Y136852D01*
X43480Y136847D01*
X43491Y136839D01*
X43506Y136830D01*
X43522Y136820D01*
X43540Y136807D01*
X43560Y136794D01*
X43604Y136761D01*
X43649Y136725D01*
X43695Y136685D01*
X43737Y136643D01*
X43739Y136641D01*
X43742Y136637D01*
X43748Y136630D01*
X43757Y136621D01*
X43768Y136608D01*
X43780Y136592D01*
X43795Y136572D01*
X43813Y136548D01*
X43833Y136523D01*
X43855Y136494D01*
X43879Y136459D01*
X43904Y136423D01*
X43931Y136381D01*
X43961Y136337D01*
X43993Y136288D01*
X44026Y136235D01*
X44334Y135744D01*
X43724D01*
X43358Y136292D01*
X43356Y136295D01*
X43349Y136304D01*
X43340Y136319D01*
X43327Y136339D01*
X43311Y136363D01*
X43293Y136388D01*
X43273Y136417D01*
X43251Y136448D01*
X43205Y136510D01*
X43183Y136541D01*
X43162Y136572D01*
X43142Y136599D01*
X43122Y136623D01*
X43103Y136645D01*
X43089Y136661D01*
X43085Y136665D01*
X43076Y136674D01*
X43062Y136687D01*
X43043Y136703D01*
X43020Y136721D01*
X42994Y136738D01*
X42967Y136754D01*
X42936Y136767D01*
X42932Y136768D01*
X42927Y136770D01*
X42921Y136772D01*
X42912Y136774D01*
X42901Y136776D01*
X42889Y136779D01*
X42874Y136781D01*
X42858Y136785D01*
X42840Y136787D01*
X42818Y136789D01*
X42794Y136792D01*
X42770Y136794D01*
X42743D01*
X42712Y136796D01*
X42579D01*
Y135744D01*
X42072D01*
Y138263D01*
X43178D01*
X43205Y138261D01*
D02*
G37*
G36*
X45721Y131151D02*
X46589Y129838D01*
X45977D01*
X45419Y130690D01*
X44858Y129838D01*
X44248D01*
X45120Y131149D01*
X44328Y132357D01*
X44923D01*
X45422Y131602D01*
X45923Y132357D01*
X46512D01*
X45721Y131151D01*
D02*
G37*
G36*
X47610Y132364D02*
X47635Y132363D01*
X47666Y132361D01*
X47703Y132355D01*
X47743Y132350D01*
X47786Y132341D01*
X47832Y132330D01*
X47881Y132317D01*
X47930Y132301D01*
X47977Y132281D01*
X48026Y132257D01*
X48074Y132232D01*
X48118Y132201D01*
X48159Y132164D01*
X48161Y132162D01*
X48169Y132155D01*
X48179Y132144D01*
X48192Y132128D01*
X48208Y132108D01*
X48227Y132086D01*
X48247Y132057D01*
X48267Y132026D01*
X48287Y131991D01*
X48307Y131955D01*
X48325Y131913D01*
X48341Y131869D01*
X48354Y131822D01*
X48365Y131771D01*
X48372Y131718D01*
X48374Y131664D01*
Y131662D01*
Y131657D01*
Y131648D01*
Y131635D01*
X48372Y131620D01*
X48371Y131602D01*
X48369Y131582D01*
X48367Y131560D01*
X48360Y131511D01*
X48349Y131456D01*
X48332Y131398D01*
X48312Y131340D01*
Y131338D01*
X48309Y131333D01*
X48305Y131325D01*
X48301Y131313D01*
X48294Y131300D01*
X48285Y131283D01*
X48276Y131263D01*
X48265Y131243D01*
X48252Y131220D01*
X48238Y131194D01*
X48205Y131140D01*
X48165Y131081D01*
X48119Y131020D01*
X48118Y131018D01*
X48116Y131014D01*
X48110Y131009D01*
X48103Y131000D01*
X48092Y130987D01*
X48079Y130972D01*
X48065Y130956D01*
X48046Y130938D01*
X48026Y130916D01*
X48003Y130892D01*
X47977Y130865D01*
X47948Y130836D01*
X47917Y130805D01*
X47883Y130772D01*
X47844Y130736D01*
X47803Y130697D01*
X47801Y130696D01*
X47794Y130688D01*
X47781Y130677D01*
X47766Y130663D01*
X47748Y130647D01*
X47726Y130628D01*
X47704Y130606D01*
X47681Y130585D01*
X47632Y130537D01*
X47582Y130492D01*
X47561Y130470D01*
X47542Y130452D01*
X47524Y130433D01*
X47512Y130419D01*
X47510Y130415D01*
X47502Y130408D01*
X47490Y130394D01*
X47477Y130377D01*
X47460Y130357D01*
X47444Y130333D01*
X47428Y130310D01*
X47413Y130286D01*
X48374D01*
Y129838D01*
X46681D01*
Y129842D01*
X46683Y129849D01*
X46685Y129864D01*
X46689Y129882D01*
X46692Y129904D01*
X46698Y129931D01*
X46703Y129960D01*
X46712Y129993D01*
X46722Y130029D01*
X46734Y130068D01*
X46747Y130106D01*
X46762Y130148D01*
X46780Y130190D01*
X46800Y130233D01*
X46822Y130275D01*
X46845Y130319D01*
X46847Y130321D01*
X46853Y130330D01*
X46862Y130342D01*
X46873Y130361D01*
X46889Y130383D01*
X46911Y130410D01*
X46936Y130443D01*
X46966Y130479D01*
X47000Y130521D01*
X47038Y130566D01*
X47084Y130615D01*
X47133Y130670D01*
X47189Y130728D01*
X47249Y130788D01*
X47317Y130854D01*
X47390Y130923D01*
X47391Y130925D01*
X47393Y130927D01*
X47404Y130936D01*
X47420Y130952D01*
X47442Y130972D01*
X47468Y130998D01*
X47497Y131025D01*
X47528Y131056D01*
X47562Y131089D01*
X47630Y131158D01*
X47664Y131191D01*
X47695Y131225D01*
X47726Y131256D01*
X47752Y131285D01*
X47774Y131313D01*
X47790Y131334D01*
X47792Y131336D01*
X47794Y131342D01*
X47799Y131349D01*
X47806Y131360D01*
X47814Y131375D01*
X47821Y131389D01*
X47830Y131407D01*
X47841Y131427D01*
X47859Y131473D01*
X47874Y131522D01*
X47886Y131577D01*
X47888Y131604D01*
X47890Y131631D01*
Y131633D01*
Y131638D01*
Y131646D01*
X47888Y131658D01*
Y131671D01*
X47886Y131686D01*
X47879Y131722D01*
X47868Y131762D01*
X47854Y131804D01*
X47832Y131842D01*
X47817Y131862D01*
X47803Y131879D01*
X47801Y131880D01*
X47799Y131882D01*
X47794Y131886D01*
X47786Y131893D01*
X47777Y131899D01*
X47766Y131906D01*
X47754Y131915D01*
X47741Y131922D01*
X47706Y131939D01*
X47664Y131953D01*
X47617Y131962D01*
X47590Y131964D01*
X47562Y131966D01*
X47548D01*
X47537Y131964D01*
X47524D01*
X47510Y131960D01*
X47475Y131955D01*
X47437Y131944D01*
X47395Y131928D01*
X47377Y131917D01*
X47357Y131906D01*
X47339Y131891D01*
X47320Y131875D01*
X47319Y131873D01*
X47317Y131871D01*
X47311Y131866D01*
X47306Y131857D01*
X47298Y131848D01*
X47291Y131835D01*
X47284Y131820D01*
X47275Y131804D01*
X47266Y131784D01*
X47257Y131762D01*
X47248Y131737D01*
X47240Y131709D01*
X47233Y131678D01*
X47226Y131646D01*
X47222Y131611D01*
X47218Y131573D01*
X46738Y131620D01*
Y131622D01*
Y131626D01*
X46740Y131631D01*
Y131638D01*
X46742Y131648D01*
X46743Y131658D01*
X46749Y131686D01*
X46754Y131718D01*
X46763Y131755D01*
X46774Y131797D01*
X46787Y131840D01*
X46804Y131888D01*
X46822Y131935D01*
X46843Y131982D01*
X46869Y132030D01*
X46896Y132075D01*
X46929Y132117D01*
X46966Y132157D01*
X47006Y132192D01*
X47007Y132194D01*
X47016Y132199D01*
X47029Y132208D01*
X47045Y132219D01*
X47069Y132232D01*
X47095Y132246D01*
X47127Y132263D01*
X47162Y132279D01*
X47200Y132295D01*
X47244Y132312D01*
X47291Y132326D01*
X47340Y132339D01*
X47395Y132350D01*
X47451Y132359D01*
X47512Y132364D01*
X47573Y132366D01*
X47590D01*
X47610Y132364D01*
D02*
G37*
G36*
X44179Y131931D02*
X43433D01*
Y129838D01*
X42925D01*
Y131931D01*
X42177D01*
Y132357D01*
X44179D01*
Y131931D01*
D02*
G37*
G36*
X42940Y124922D02*
X42955D01*
X42971Y124921D01*
X43011Y124919D01*
X43057Y124913D01*
X43108Y124908D01*
X43162Y124899D01*
X43219Y124890D01*
X43279Y124875D01*
X43341Y124861D01*
X43401Y124840D01*
X43461Y124819D01*
X43519Y124791D01*
X43575Y124760D01*
X43626Y124726D01*
X43630Y124724D01*
X43637Y124717D01*
X43652Y124706D01*
X43668Y124689D01*
X43690Y124670D01*
X43714Y124646D01*
X43741Y124617D01*
X43768Y124584D01*
X43797Y124548D01*
X43825Y124507D01*
X43854Y124462D01*
X43881Y124415D01*
X43907Y124362D01*
X43930Y124305D01*
X43950Y124247D01*
X43967Y124183D01*
X43462Y124089D01*
Y124091D01*
X43461Y124096D01*
X43457Y124107D01*
X43451Y124120D01*
X43446Y124134D01*
X43437Y124153D01*
X43428Y124173D01*
X43417Y124194D01*
X43404Y124216D01*
X43390Y124240D01*
X43373Y124265D01*
X43355Y124289D01*
X43333Y124313D01*
X43311Y124336D01*
X43288Y124360D01*
X43260Y124380D01*
X43259Y124382D01*
X43253Y124385D01*
X43246Y124391D01*
X43235Y124397D01*
X43220Y124406D01*
X43202Y124415D01*
X43182Y124424D01*
X43160Y124435D01*
X43135Y124446D01*
X43108Y124455D01*
X43077Y124464D01*
X43044Y124473D01*
X43011Y124478D01*
X42973Y124484D01*
X42935Y124487D01*
X42895Y124489D01*
X42880D01*
X42862Y124487D01*
X42840Y124486D01*
X42811Y124482D01*
X42778Y124478D01*
X42744Y124471D01*
X42704Y124462D01*
X42662Y124451D01*
X42620Y124436D01*
X42574Y124420D01*
X42531Y124400D01*
X42487Y124375D01*
X42445Y124347D01*
X42403Y124315D01*
X42365Y124276D01*
X42363Y124275D01*
X42356Y124267D01*
X42347Y124255D01*
X42334Y124236D01*
X42320Y124214D01*
X42303Y124187D01*
X42285Y124156D01*
X42267Y124120D01*
X42248Y124078D01*
X42230Y124031D01*
X42214Y123980D01*
X42199Y123923D01*
X42187Y123861D01*
X42178Y123796D01*
X42170Y123725D01*
X42168Y123650D01*
Y123648D01*
Y123645D01*
Y123639D01*
Y123630D01*
Y123619D01*
X42170Y123608D01*
Y123594D01*
X42172Y123577D01*
X42174Y123539D01*
X42179Y123497D01*
X42185Y123450D01*
X42194Y123399D01*
X42203Y123345D01*
X42218Y123290D01*
X42232Y123233D01*
X42252Y123179D01*
X42274Y123124D01*
X42301Y123072D01*
X42332Y123022D01*
X42367Y122979D01*
X42369Y122977D01*
X42376Y122970D01*
X42387Y122959D01*
X42403Y122944D01*
X42423Y122928D01*
X42447Y122908D01*
X42476Y122888D01*
X42507Y122868D01*
X42543Y122846D01*
X42582Y122826D01*
X42625Y122808D01*
X42673Y122789D01*
X42722Y122775D01*
X42775Y122764D01*
X42831Y122757D01*
X42889Y122755D01*
X42906D01*
X42917Y122757D01*
X42931D01*
X42949Y122758D01*
X42967Y122760D01*
X42989Y122762D01*
X43013Y122766D01*
X43038Y122769D01*
X43091Y122780D01*
X43149Y122797D01*
X43209Y122817D01*
X43211D01*
X43217Y122820D01*
X43226Y122822D01*
X43237Y122828D01*
X43249Y122833D01*
X43266Y122840D01*
X43284Y122850D01*
X43304Y122859D01*
X43348Y122880D01*
X43393Y122906D01*
X43441Y122935D01*
X43486Y122968D01*
Y123288D01*
X42904D01*
Y123714D01*
X43999D01*
Y122709D01*
X43997Y122707D01*
X43992Y122702D01*
X43983Y122695D01*
X43970Y122684D01*
X43954Y122669D01*
X43932Y122655D01*
X43908Y122636D01*
X43881Y122617D01*
X43850Y122597D01*
X43815Y122575D01*
X43777Y122553D01*
X43736Y122529D01*
X43692Y122505D01*
X43643Y122482D01*
X43590Y122458D01*
X43535Y122436D01*
X43532Y122434D01*
X43523Y122431D01*
X43506Y122425D01*
X43483Y122418D01*
X43455Y122409D01*
X43422Y122400D01*
X43386Y122389D01*
X43346Y122378D01*
X43301Y122367D01*
X43253Y122356D01*
X43202Y122347D01*
X43149Y122338D01*
X43095Y122331D01*
X43038Y122325D01*
X42980Y122322D01*
X42922Y122320D01*
X42895D01*
X42884Y122322D01*
X42856D01*
X42822Y122325D01*
X42782Y122329D01*
X42736Y122334D01*
X42687Y122340D01*
X42634Y122349D01*
X42580Y122360D01*
X42523Y122374D01*
X42465Y122389D01*
X42405Y122409D01*
X42347Y122431D01*
X42289Y122456D01*
X42232Y122485D01*
X42228Y122487D01*
X42219Y122493D01*
X42205Y122504D01*
X42185Y122516D01*
X42159Y122533D01*
X42132Y122555D01*
X42101Y122578D01*
X42066Y122607D01*
X42032Y122638D01*
X41995Y122673D01*
X41959Y122713D01*
X41923Y122755D01*
X41886Y122800D01*
X41854Y122850D01*
X41821Y122902D01*
X41792Y122959D01*
X41790Y122962D01*
X41786Y122973D01*
X41779Y122990D01*
X41768Y123013D01*
X41757Y123042D01*
X41744Y123075D01*
X41732Y123115D01*
X41719Y123159D01*
X41704Y123206D01*
X41692Y123259D01*
X41679Y123314D01*
X41668Y123372D01*
X41659Y123434D01*
X41652Y123497D01*
X41646Y123563D01*
X41644Y123630D01*
Y123632D01*
Y123634D01*
Y123641D01*
Y123648D01*
Y123658D01*
X41646Y123669D01*
Y123696D01*
X41650Y123730D01*
X41653Y123770D01*
X41659Y123816D01*
X41664Y123865D01*
X41673Y123918D01*
X41684Y123974D01*
X41697Y124032D01*
X41713Y124091D01*
X41732Y124151D01*
X41754Y124211D01*
X41779Y124271D01*
X41808Y124329D01*
X41810Y124333D01*
X41815Y124342D01*
X41826Y124358D01*
X41839Y124380D01*
X41855Y124406D01*
X41877Y124435D01*
X41903Y124467D01*
X41930Y124502D01*
X41963Y124540D01*
X41999Y124578D01*
X42037Y124617D01*
X42081Y124657D01*
X42128Y124695D01*
X42179Y124731D01*
X42232Y124766D01*
X42290Y124799D01*
X42294Y124801D01*
X42301Y124804D01*
X42316Y124810D01*
X42334Y124819D01*
X42358Y124828D01*
X42387Y124839D01*
X42420Y124850D01*
X42456Y124862D01*
X42498Y124873D01*
X42545Y124884D01*
X42594Y124895D01*
X42647Y124904D01*
X42704Y124913D01*
X42765Y124919D01*
X42829Y124922D01*
X42895Y124924D01*
X42926D01*
X42940Y124922D01*
D02*
G37*
G36*
X47306Y122363D02*
X46799D01*
Y124882D01*
X47306D01*
Y122363D01*
D02*
G37*
G36*
X45395Y124881D02*
X45437D01*
X45483Y124879D01*
X45532Y124877D01*
X45634Y124873D01*
X45685Y124870D01*
X45734Y124866D01*
X45779Y124862D01*
X45821Y124857D01*
X45858Y124852D01*
X45872Y124848D01*
X45887Y124844D01*
X45889D01*
X45896Y124840D01*
X45908Y124837D01*
X45923Y124833D01*
X45941Y124826D01*
X45963Y124817D01*
X45987Y124806D01*
X46014Y124791D01*
X46041Y124777D01*
X46071Y124759D01*
X46100Y124739D01*
X46131Y124717D01*
X46161Y124691D01*
X46192Y124662D01*
X46222Y124631D01*
X46249Y124597D01*
X46251Y124595D01*
X46256Y124588D01*
X46263Y124577D01*
X46273Y124562D01*
X46284Y124544D01*
X46296Y124520D01*
X46309Y124495D01*
X46323Y124464D01*
X46336Y124431D01*
X46349Y124395D01*
X46362Y124355D01*
X46373Y124311D01*
X46384Y124264D01*
X46391Y124214D01*
X46395Y124162D01*
X46396Y124107D01*
Y124105D01*
Y124096D01*
Y124085D01*
X46395Y124069D01*
Y124049D01*
X46393Y124025D01*
X46389Y124000D01*
X46385Y123971D01*
X46382Y123942D01*
X46376Y123909D01*
X46360Y123843D01*
X46340Y123778D01*
X46325Y123747D01*
X46311Y123716D01*
X46309Y123714D01*
X46307Y123708D01*
X46302Y123701D01*
X46296Y123690D01*
X46287Y123678D01*
X46278Y123661D01*
X46253Y123627D01*
X46222Y123587D01*
X46185Y123545D01*
X46143Y123505D01*
X46098Y123468D01*
X46096Y123466D01*
X46092Y123465D01*
X46085Y123459D01*
X46076Y123454D01*
X46063Y123446D01*
X46051Y123437D01*
X46034Y123428D01*
X46016Y123419D01*
X45976Y123399D01*
X45932Y123379D01*
X45885Y123361D01*
X45834Y123348D01*
X45832D01*
X45825Y123346D01*
X45816Y123345D01*
X45799Y123343D01*
X45781Y123341D01*
X45757Y123337D01*
X45732Y123334D01*
X45699Y123332D01*
X45665Y123328D01*
X45626Y123325D01*
X45583Y123321D01*
X45535Y123319D01*
X45485Y123317D01*
X45430Y123315D01*
X45370Y123314D01*
X44977D01*
Y122363D01*
X44469D01*
Y124882D01*
X45357D01*
X45395Y124881D01*
D02*
G37*
G36*
X51272Y124890D02*
X51298Y124888D01*
X51328Y124884D01*
X51365Y124877D01*
X51403Y124870D01*
X51447Y124859D01*
X51490Y124844D01*
X51538Y124828D01*
X51585Y124806D01*
X51632Y124780D01*
X51680Y124751D01*
X51725Y124717D01*
X51769Y124675D01*
X51809Y124629D01*
X51813Y124626D01*
X51814Y124622D01*
X51820Y124615D01*
X51825Y124606D01*
X51833Y124597D01*
X51840Y124584D01*
X51847Y124569D01*
X51856Y124555D01*
X51867Y124537D01*
X51876Y124517D01*
X51887Y124495D01*
X51898Y124469D01*
X51909Y124444D01*
X51922Y124416D01*
X51933Y124385D01*
X51944Y124353D01*
X51956Y124318D01*
X51967Y124282D01*
X51978Y124244D01*
X51989Y124202D01*
X51998Y124160D01*
X52009Y124114D01*
X52018Y124067D01*
X52026Y124016D01*
X52033Y123965D01*
X52040Y123910D01*
X52046Y123854D01*
X52051Y123796D01*
X52055Y123734D01*
X52056Y123670D01*
Y123605D01*
Y123603D01*
Y123598D01*
Y123587D01*
Y123574D01*
Y123557D01*
X52055Y123537D01*
Y123514D01*
X52053Y123488D01*
X52051Y123459D01*
X52049Y123430D01*
X52047Y123397D01*
X52044Y123363D01*
X52036Y123288D01*
X52026Y123208D01*
X52013Y123124D01*
X51996Y123039D01*
X51976Y122953D01*
X51953Y122870D01*
X51924Y122788D01*
X51891Y122711D01*
X51873Y122675D01*
X51853Y122640D01*
X51831Y122607D01*
X51809Y122576D01*
X51807Y122573D01*
X51800Y122565D01*
X51787Y122553D01*
X51771Y122536D01*
X51751Y122516D01*
X51725Y122495D01*
X51694Y122473D01*
X51660Y122449D01*
X51622Y122424D01*
X51580Y122402D01*
X51532Y122380D01*
X51481Y122360D01*
X51427Y122344D01*
X51367Y122331D01*
X51305Y122324D01*
X51237Y122320D01*
X51221D01*
X51203Y122322D01*
X51177Y122324D01*
X51145Y122329D01*
X51110Y122334D01*
X51068Y122344D01*
X51026Y122354D01*
X50979Y122371D01*
X50932Y122389D01*
X50883Y122411D01*
X50832Y122438D01*
X50783Y122471D01*
X50735Y122509D01*
X50688Y122553D01*
X50644Y122602D01*
X50642Y122606D01*
X50635Y122615D01*
X50630Y122624D01*
X50624Y122633D01*
X50617Y122644D01*
X50610Y122657D01*
X50600Y122673D01*
X50593Y122689D01*
X50582Y122709D01*
X50573Y122729D01*
X50564Y122753D01*
X50553Y122777D01*
X50542Y122804D01*
X50533Y122833D01*
X50522Y122864D01*
X50511Y122899D01*
X50500Y122933D01*
X50491Y122971D01*
X50482Y123011D01*
X50473Y123053D01*
X50464Y123099D01*
X50455Y123146D01*
X50448Y123195D01*
X50440Y123246D01*
X50435Y123301D01*
X50429Y123357D01*
X50426Y123416D01*
X50422Y123477D01*
X50420Y123541D01*
Y123608D01*
Y123610D01*
Y123616D01*
Y123627D01*
Y123639D01*
X50422Y123656D01*
Y123676D01*
Y123699D01*
X50424Y123725D01*
X50426Y123752D01*
X50428Y123783D01*
X50431Y123816D01*
X50433Y123851D01*
X50440Y123923D01*
X50451Y124003D01*
X50464Y124087D01*
X50480Y124171D01*
X50500Y124256D01*
X50524Y124342D01*
X50551Y124422D01*
X50584Y124498D01*
X50604Y124535D01*
X50622Y124569D01*
X50644Y124602D01*
X50666Y124633D01*
X50668Y124637D01*
X50675Y124644D01*
X50688Y124657D01*
X50704Y124673D01*
X50724Y124693D01*
X50750Y124715D01*
X50781Y124739D01*
X50815Y124762D01*
X50854Y124786D01*
X50895Y124810D01*
X50943Y124831D01*
X50994Y124852D01*
X51048Y124868D01*
X51108Y124881D01*
X51170Y124888D01*
X51237Y124891D01*
X51254D01*
X51272Y124890D01*
D02*
G37*
G36*
X48944Y124922D02*
X48959D01*
X48977Y124921D01*
X48999Y124919D01*
X49021Y124917D01*
X49046Y124913D01*
X49072Y124910D01*
X49101Y124906D01*
X49161Y124895D01*
X49226Y124881D01*
X49296Y124862D01*
X49368Y124840D01*
X49443Y124811D01*
X49518Y124779D01*
X49590Y124739D01*
X49663Y124693D01*
X49698Y124668D01*
X49732Y124638D01*
X49765Y124609D01*
X49798Y124578D01*
X49800Y124577D01*
X49801Y124575D01*
X49807Y124569D01*
X49812Y124562D01*
X49820Y124553D01*
X49829Y124542D01*
X49840Y124529D01*
X49851Y124515D01*
X49863Y124498D01*
X49876Y124480D01*
X49889Y124458D01*
X49903Y124436D01*
X49918Y124413D01*
X49934Y124385D01*
X49949Y124358D01*
X49965Y124329D01*
X49996Y124264D01*
X50027Y124193D01*
X50055Y124112D01*
X50080Y124027D01*
X50102Y123934D01*
X50118Y123836D01*
X50129Y123730D01*
X50133Y123674D01*
Y123617D01*
Y123616D01*
Y123610D01*
Y123603D01*
Y123590D01*
X50131Y123576D01*
Y123559D01*
X50129Y123539D01*
X50127Y123517D01*
X50125Y123492D01*
X50122Y123466D01*
X50120Y123437D01*
X50115Y123406D01*
X50106Y123341D01*
X50091Y123270D01*
X50073Y123195D01*
X50051Y123117D01*
X50025Y123037D01*
X49993Y122959D01*
X49954Y122880D01*
X49909Y122804D01*
X49885Y122768D01*
X49858Y122731D01*
X49831Y122697D01*
X49800Y122664D01*
X49798Y122662D01*
X49796Y122660D01*
X49791Y122655D01*
X49785Y122649D01*
X49776Y122642D01*
X49765Y122633D01*
X49754Y122622D01*
X49740Y122611D01*
X49707Y122584D01*
X49665Y122555D01*
X49618Y122524D01*
X49565Y122493D01*
X49505Y122460D01*
X49437Y122429D01*
X49365Y122400D01*
X49286Y122374D01*
X49201Y122351D01*
X49112Y122334D01*
X49015Y122324D01*
X48964Y122322D01*
X48913Y122320D01*
X48888D01*
X48875Y122322D01*
X48859D01*
X48841Y122324D01*
X48820Y122325D01*
X48797Y122327D01*
X48773Y122331D01*
X48746Y122334D01*
X48719Y122338D01*
X48657Y122349D01*
X48591Y122363D01*
X48520Y122380D01*
X48447Y122404D01*
X48375Y122431D01*
X48300Y122464D01*
X48225Y122504D01*
X48153Y122549D01*
X48118Y122575D01*
X48085Y122602D01*
X48051Y122631D01*
X48020Y122662D01*
Y122664D01*
X48016Y122666D01*
X48013Y122671D01*
X48005Y122678D01*
X47998Y122687D01*
X47989Y122698D01*
X47980Y122711D01*
X47969Y122726D01*
X47956Y122742D01*
X47943Y122760D01*
X47929Y122780D01*
X47914Y122802D01*
X47900Y122826D01*
X47885Y122851D01*
X47854Y122908D01*
X47823Y122971D01*
X47794Y123042D01*
X47765Y123121D01*
X47739Y123204D01*
X47719Y123295D01*
X47703Y123394D01*
X47692Y123497D01*
X47690Y123550D01*
X47688Y123607D01*
Y123608D01*
Y123610D01*
Y123616D01*
Y123623D01*
Y123632D01*
Y123643D01*
X47690Y123670D01*
X47692Y123703D01*
X47694Y123741D01*
X47698Y123785D01*
X47703Y123830D01*
X47708Y123881D01*
X47716Y123932D01*
X47727Y123987D01*
X47738Y124040D01*
X47750Y124094D01*
X47765Y124149D01*
X47783Y124200D01*
X47803Y124251D01*
X47805Y124253D01*
X47807Y124260D01*
X47812Y124269D01*
X47820Y124284D01*
X47827Y124300D01*
X47838Y124320D01*
X47850Y124342D01*
X47865Y124367D01*
X47898Y124420D01*
X47938Y124478D01*
X47983Y124538D01*
X48036Y124597D01*
X48038Y124599D01*
X48043Y124604D01*
X48051Y124611D01*
X48062Y124622D01*
X48076Y124635D01*
X48092Y124649D01*
X48113Y124666D01*
X48133Y124682D01*
X48156Y124700D01*
X48182Y124719D01*
X48238Y124757D01*
X48298Y124793D01*
X48331Y124810D01*
X48364Y124824D01*
X48367Y124826D01*
X48375Y124828D01*
X48387Y124833D01*
X48406Y124840D01*
X48427Y124848D01*
X48455Y124855D01*
X48486Y124864D01*
X48520Y124875D01*
X48559Y124884D01*
X48599Y124893D01*
X48644Y124901D01*
X48691Y124908D01*
X48742Y124915D01*
X48795Y124921D01*
X48850Y124922D01*
X48906Y124924D01*
X48932D01*
X48944Y124922D01*
D02*
G37*
G36*
X66710Y57949D02*
X67578Y56636D01*
X66966D01*
X66408Y57488D01*
X65847Y56636D01*
X65237D01*
X66109Y57947D01*
X65317Y59155D01*
X65912D01*
X66411Y58400D01*
X66912Y59155D01*
X67501D01*
X66710Y57949D01*
D02*
G37*
G36*
X69321Y58671D02*
X68411D01*
X68333Y58242D01*
X68335Y58244D01*
X68340Y58245D01*
X68349Y58249D01*
X68360Y58254D01*
X68377Y58260D01*
X68393Y58267D01*
X68413Y58274D01*
X68435Y58284D01*
X68459Y58291D01*
X68486Y58298D01*
X68541Y58311D01*
X68602Y58320D01*
X68633Y58324D01*
X68679D01*
X68695Y58322D01*
X68717Y58320D01*
X68746Y58316D01*
X68777Y58311D01*
X68814Y58303D01*
X68852Y58294D01*
X68894Y58282D01*
X68937Y58267D01*
X68983Y58247D01*
X69028Y58225D01*
X69076Y58198D01*
X69121Y58167D01*
X69165Y58131D01*
X69209Y58089D01*
X69210Y58087D01*
X69218Y58078D01*
X69229Y58065D01*
X69243Y58047D01*
X69261Y58023D01*
X69279Y57994D01*
X69300Y57961D01*
X69321Y57925D01*
X69341Y57883D01*
X69361Y57838D01*
X69381Y57787D01*
X69398Y57734D01*
X69412Y57676D01*
X69423Y57614D01*
X69431Y57550D01*
X69432Y57481D01*
Y57477D01*
Y57466D01*
X69431Y57450D01*
X69429Y57428D01*
X69427Y57401D01*
X69423Y57370D01*
X69418Y57333D01*
X69411Y57295D01*
X69400Y57253D01*
X69389Y57208D01*
X69374Y57162D01*
X69356Y57115D01*
X69334Y57068D01*
X69310Y57020D01*
X69283Y56973D01*
X69250Y56926D01*
X69247Y56922D01*
X69239Y56911D01*
X69225Y56895D01*
X69205Y56873D01*
X69181Y56849D01*
X69150Y56820D01*
X69114Y56791D01*
X69074Y56760D01*
X69028Y56727D01*
X68977Y56698D01*
X68921Y56669D01*
X68861Y56646D01*
X68795Y56624D01*
X68724Y56607D01*
X68650Y56596D01*
X68610Y56595D01*
X68570Y56593D01*
X68555D01*
X68537Y56595D01*
X68511Y56596D01*
X68482Y56598D01*
X68448Y56602D01*
X68410Y56609D01*
X68368Y56616D01*
X68324Y56625D01*
X68278Y56638D01*
X68231Y56653D01*
X68184Y56671D01*
X68137Y56693D01*
X68089Y56717D01*
X68044Y56746D01*
X68002Y56778D01*
X68000Y56780D01*
X67993Y56788D01*
X67982Y56798D01*
X67967Y56813D01*
X67949Y56831D01*
X67931Y56855D01*
X67909Y56880D01*
X67887Y56911D01*
X67864Y56946D01*
X67842Y56984D01*
X67820Y57024D01*
X67798Y57070D01*
X67780Y57117D01*
X67763Y57170D01*
X67749Y57222D01*
X67740Y57281D01*
X68220Y57332D01*
Y57330D01*
X68222Y57324D01*
Y57315D01*
X68226Y57304D01*
X68227Y57292D01*
X68231Y57275D01*
X68242Y57239D01*
X68258Y57197D01*
X68280Y57153D01*
X68306Y57111D01*
X68322Y57091D01*
X68340Y57073D01*
X68342Y57071D01*
X68346Y57070D01*
X68351Y57064D01*
X68358Y57059D01*
X68368Y57051D01*
X68380Y57044D01*
X68408Y57026D01*
X68442Y57008D01*
X68482Y56993D01*
X68528Y56982D01*
X68551Y56980D01*
X68575Y56979D01*
X68590D01*
X68601Y56980D01*
X68613Y56982D01*
X68628Y56986D01*
X68664Y56993D01*
X68704Y57008D01*
X68724Y57019D01*
X68746Y57029D01*
X68768Y57044D01*
X68790Y57060D01*
X68810Y57079D01*
X68830Y57100D01*
X68832Y57102D01*
X68835Y57106D01*
X68839Y57113D01*
X68846Y57124D01*
X68854Y57137D01*
X68863Y57153D01*
X68874Y57171D01*
X68883Y57193D01*
X68892Y57219D01*
X68903Y57246D01*
X68912Y57277D01*
X68919Y57310D01*
X68926Y57346D01*
X68932Y57386D01*
X68934Y57428D01*
X68936Y57474D01*
Y57475D01*
Y57485D01*
Y57495D01*
X68934Y57512D01*
X68932Y57532D01*
X68930Y57554D01*
X68926Y57577D01*
X68923Y57605D01*
X68910Y57661D01*
X68901Y57690D01*
X68892Y57719D01*
X68879Y57748D01*
X68865Y57774D01*
X68848Y57799D01*
X68830Y57823D01*
X68828Y57825D01*
X68824Y57828D01*
X68819Y57834D01*
X68812Y57841D01*
X68801Y57850D01*
X68788Y57859D01*
X68774Y57870D01*
X68757Y57881D01*
X68739Y57892D01*
X68719Y57903D01*
X68673Y57921D01*
X68646Y57929D01*
X68621Y57934D01*
X68591Y57938D01*
X68561Y57939D01*
X68551D01*
X68541Y57938D01*
X68526Y57936D01*
X68508Y57934D01*
X68486Y57930D01*
X68462Y57925D01*
X68437Y57916D01*
X68408Y57907D01*
X68379Y57894D01*
X68348Y57880D01*
X68315Y57861D01*
X68284Y57841D01*
X68251Y57816D01*
X68218Y57788D01*
X68187Y57756D01*
X67798Y57812D01*
X68046Y59123D01*
X69321D01*
Y58671D01*
D02*
G37*
G36*
X65168Y58729D02*
X64422D01*
Y56636D01*
X63914D01*
Y58729D01*
X63166D01*
Y59155D01*
X65168D01*
Y58729D01*
D02*
G37*
G36*
X56815Y57949D02*
X57683Y56636D01*
X57072D01*
X56513Y57488D01*
X55953Y56636D01*
X55343D01*
X56215Y57947D01*
X55423Y59155D01*
X56018D01*
X56517Y58400D01*
X57017Y59155D01*
X57607D01*
X56815Y57949D01*
D02*
G37*
G36*
X59427Y58671D02*
X58517D01*
X58439Y58242D01*
X58440Y58244D01*
X58446Y58245D01*
X58455Y58249D01*
X58466Y58254D01*
X58482Y58260D01*
X58499Y58267D01*
X58519Y58274D01*
X58540Y58284D01*
X58564Y58291D01*
X58592Y58298D01*
X58646Y58311D01*
X58708Y58320D01*
X58739Y58324D01*
X58784D01*
X58801Y58322D01*
X58823Y58320D01*
X58852Y58316D01*
X58883Y58311D01*
X58919Y58303D01*
X58957Y58294D01*
X58999Y58282D01*
X59043Y58267D01*
X59088Y58247D01*
X59134Y58225D01*
X59181Y58198D01*
X59227Y58167D01*
X59270Y58131D01*
X59314Y58089D01*
X59316Y58087D01*
X59323Y58078D01*
X59334Y58065D01*
X59349Y58047D01*
X59367Y58023D01*
X59385Y57994D01*
X59405Y57961D01*
X59427Y57925D01*
X59447Y57883D01*
X59467Y57838D01*
X59487Y57787D01*
X59503Y57734D01*
X59518Y57676D01*
X59529Y57614D01*
X59536Y57550D01*
X59538Y57481D01*
Y57477D01*
Y57466D01*
X59536Y57450D01*
X59534Y57428D01*
X59532Y57401D01*
X59529Y57370D01*
X59523Y57333D01*
X59516Y57295D01*
X59505Y57253D01*
X59494Y57208D01*
X59480Y57162D01*
X59461Y57115D01*
X59440Y57068D01*
X59416Y57020D01*
X59389Y56973D01*
X59356Y56926D01*
X59352Y56922D01*
X59345Y56911D01*
X59330Y56895D01*
X59310Y56873D01*
X59287Y56849D01*
X59256Y56820D01*
X59219Y56791D01*
X59179Y56760D01*
X59134Y56727D01*
X59083Y56698D01*
X59026Y56669D01*
X58966Y56646D01*
X58901Y56624D01*
X58830Y56607D01*
X58755Y56596D01*
X58715Y56595D01*
X58675Y56593D01*
X58661D01*
X58643Y56595D01*
X58617Y56596D01*
X58588Y56598D01*
X58553Y56602D01*
X58515Y56609D01*
X58473Y56616D01*
X58429Y56625D01*
X58384Y56638D01*
X58337Y56653D01*
X58289Y56671D01*
X58242Y56693D01*
X58195Y56717D01*
X58149Y56746D01*
X58107Y56778D01*
X58106Y56780D01*
X58098Y56788D01*
X58087Y56798D01*
X58073Y56813D01*
X58055Y56831D01*
X58036Y56855D01*
X58015Y56880D01*
X57993Y56911D01*
X57969Y56946D01*
X57947Y56984D01*
X57925Y57024D01*
X57903Y57070D01*
X57885Y57117D01*
X57869Y57170D01*
X57854Y57222D01*
X57845Y57281D01*
X58326Y57332D01*
Y57330D01*
X58328Y57324D01*
Y57315D01*
X58331Y57304D01*
X58333Y57292D01*
X58337Y57275D01*
X58348Y57239D01*
X58364Y57197D01*
X58386Y57153D01*
X58411Y57111D01*
X58428Y57091D01*
X58446Y57073D01*
X58448Y57071D01*
X58451Y57070D01*
X58457Y57064D01*
X58464Y57059D01*
X58473Y57051D01*
X58486Y57044D01*
X58513Y57026D01*
X58548Y57008D01*
X58588Y56993D01*
X58633Y56982D01*
X58657Y56980D01*
X58681Y56979D01*
X58695D01*
X58706Y56980D01*
X58719Y56982D01*
X58733Y56986D01*
X58770Y56993D01*
X58810Y57008D01*
X58830Y57019D01*
X58852Y57029D01*
X58874Y57044D01*
X58895Y57060D01*
X58916Y57079D01*
X58935Y57100D01*
X58937Y57102D01*
X58941Y57106D01*
X58945Y57113D01*
X58952Y57124D01*
X58959Y57137D01*
X58968Y57153D01*
X58979Y57171D01*
X58988Y57193D01*
X58997Y57219D01*
X59008Y57246D01*
X59017Y57277D01*
X59025Y57310D01*
X59032Y57346D01*
X59037Y57386D01*
X59039Y57428D01*
X59041Y57474D01*
Y57475D01*
Y57485D01*
Y57495D01*
X59039Y57512D01*
X59037Y57532D01*
X59036Y57554D01*
X59032Y57577D01*
X59028Y57605D01*
X59016Y57661D01*
X59007Y57690D01*
X58997Y57719D01*
X58985Y57748D01*
X58970Y57774D01*
X58954Y57799D01*
X58935Y57823D01*
X58934Y57825D01*
X58930Y57828D01*
X58925Y57834D01*
X58917Y57841D01*
X58906Y57850D01*
X58894Y57859D01*
X58879Y57870D01*
X58863Y57881D01*
X58845Y57892D01*
X58824Y57903D01*
X58779Y57921D01*
X58752Y57929D01*
X58726Y57934D01*
X58697Y57938D01*
X58666Y57939D01*
X58657D01*
X58646Y57938D01*
X58631Y57936D01*
X58613Y57934D01*
X58592Y57930D01*
X58568Y57925D01*
X58542Y57916D01*
X58513Y57907D01*
X58484Y57894D01*
X58453Y57880D01*
X58420Y57861D01*
X58390Y57841D01*
X58357Y57816D01*
X58324Y57788D01*
X58293Y57756D01*
X57903Y57812D01*
X58151Y59123D01*
X59427D01*
Y58671D01*
D02*
G37*
G36*
X54194Y59153D02*
X54229D01*
X54267Y59152D01*
X54309Y59150D01*
X54355Y59146D01*
X54402Y59143D01*
X54449Y59139D01*
X54548Y59126D01*
X54593Y59119D01*
X54637Y59110D01*
X54678Y59099D01*
X54715Y59086D01*
X54717D01*
X54722Y59083D01*
X54733Y59079D01*
X54746Y59073D01*
X54760Y59066D01*
X54779Y59055D01*
X54799Y59044D01*
X54821Y59031D01*
X54844Y59015D01*
X54868Y58997D01*
X54891Y58977D01*
X54917Y58955D01*
X54941Y58931D01*
X54964Y58904D01*
X54986Y58875D01*
X55008Y58844D01*
X55010Y58842D01*
X55013Y58837D01*
X55019Y58826D01*
X55026Y58813D01*
X55033Y58797D01*
X55042Y58779D01*
X55053Y58755D01*
X55064Y58729D01*
X55073Y58702D01*
X55084Y58671D01*
X55093Y58638D01*
X55103Y58604D01*
X55108Y58567D01*
X55114Y58529D01*
X55117Y58491D01*
X55119Y58449D01*
Y58446D01*
Y58436D01*
X55117Y58422D01*
Y58402D01*
X55114Y58378D01*
X55110Y58349D01*
X55104Y58318D01*
X55099Y58284D01*
X55090Y58247D01*
X55079Y58209D01*
X55064Y58171D01*
X55048Y58131D01*
X55030Y58092D01*
X55006Y58052D01*
X54981Y58016D01*
X54952Y57980D01*
X54950Y57978D01*
X54944Y57972D01*
X54933Y57963D01*
X54921Y57951D01*
X54902Y57936D01*
X54882Y57920D01*
X54857Y57901D01*
X54828Y57881D01*
X54793Y57861D01*
X54757Y57843D01*
X54717Y57823D01*
X54671Y57805D01*
X54622Y57787D01*
X54569Y57772D01*
X54513Y57759D01*
X54453Y57748D01*
X54455Y57747D01*
X54460Y57745D01*
X54469Y57739D01*
X54480Y57732D01*
X54495Y57723D01*
X54511Y57712D01*
X54529Y57699D01*
X54549Y57687D01*
X54593Y57654D01*
X54638Y57617D01*
X54684Y57577D01*
X54726Y57535D01*
X54728Y57534D01*
X54731Y57530D01*
X54737Y57523D01*
X54746Y57514D01*
X54757Y57501D01*
X54769Y57485D01*
X54784Y57464D01*
X54802Y57441D01*
X54822Y57415D01*
X54844Y57386D01*
X54868Y57352D01*
X54893Y57315D01*
X54921Y57273D01*
X54950Y57230D01*
X54982Y57181D01*
X55015Y57128D01*
X55323Y56636D01*
X54713D01*
X54347Y57184D01*
X54345Y57188D01*
X54338Y57197D01*
X54329Y57212D01*
X54316Y57232D01*
X54300Y57255D01*
X54282Y57281D01*
X54262Y57310D01*
X54240Y57341D01*
X54194Y57403D01*
X54172Y57434D01*
X54151Y57464D01*
X54131Y57492D01*
X54111Y57516D01*
X54093Y57537D01*
X54078Y57554D01*
X54074Y57557D01*
X54065Y57566D01*
X54051Y57579D01*
X54032Y57596D01*
X54009Y57614D01*
X53983Y57630D01*
X53956Y57647D01*
X53925Y57659D01*
X53921Y57661D01*
X53916Y57663D01*
X53910Y57665D01*
X53901Y57666D01*
X53890Y57668D01*
X53878Y57672D01*
X53863Y57674D01*
X53847Y57678D01*
X53829Y57679D01*
X53807Y57681D01*
X53783Y57685D01*
X53759Y57687D01*
X53732D01*
X53701Y57688D01*
X53568D01*
Y56636D01*
X53061D01*
Y59155D01*
X54167D01*
X54194Y59153D01*
D02*
G37*
G36*
X34314Y67543D02*
X34334D01*
X34360Y67542D01*
X34387Y67539D01*
X34418Y67537D01*
X34450Y67533D01*
X34485Y67530D01*
X34556Y67518D01*
X34628Y67502D01*
X34663Y67494D01*
X34698Y67482D01*
X34701Y67481D01*
X34708Y67479D01*
X34720Y67475D01*
X34734Y67468D01*
X34753Y67460D01*
X34775Y67452D01*
X34798Y67440D01*
X34824Y67427D01*
X34852Y67413D01*
X34881Y67397D01*
X34909Y67379D01*
X34940Y67360D01*
X34969Y67339D01*
X34998Y67317D01*
X35027Y67294D01*
X35053Y67268D01*
X35054Y67266D01*
X35057Y67263D01*
X35063Y67256D01*
X35070Y67249D01*
X35079Y67237D01*
X35088Y67224D01*
X35100Y67210D01*
X35111Y67192D01*
X35124Y67173D01*
X35137Y67152D01*
X35150Y67128D01*
X35163Y67104D01*
X35176Y67076D01*
X35189Y67047D01*
X35201Y67017D01*
X35213Y66983D01*
Y66982D01*
X35214Y66978D01*
X35217Y66969D01*
X35218Y66959D01*
X35223Y66946D01*
X35226Y66928D01*
X35230Y66909D01*
X35233Y66888D01*
X35237Y66863D01*
X35242Y66837D01*
X35245Y66807D01*
X35247Y66775D01*
X35250Y66740D01*
X35253Y66703D01*
X35255Y66664D01*
Y65863D01*
X33248D01*
Y66643D01*
X33249Y66664D01*
Y66689D01*
X33251Y66715D01*
X33252Y66744D01*
X33255Y66775D01*
X33258Y66805D01*
X33264Y66869D01*
X33268Y66899D01*
X33274Y66930D01*
X33280Y66957D01*
X33287Y66983D01*
Y66985D01*
X33290Y66991D01*
X33293Y67001D01*
X33297Y67012D01*
X33303Y67028D01*
X33310Y67046D01*
X33319Y67066D01*
X33329Y67088D01*
X33342Y67111D01*
X33355Y67136D01*
X33371Y67160D01*
X33387Y67186D01*
X33406Y67211D01*
X33426Y67237D01*
X33448Y67262D01*
X33473Y67286D01*
X33474Y67288D01*
X33478Y67292D01*
X33486Y67298D01*
X33496Y67307D01*
X33509Y67318D01*
X33525Y67330D01*
X33542Y67343D01*
X33562Y67357D01*
X33586Y67373D01*
X33610Y67388D01*
X33636Y67404D01*
X33665Y67420D01*
X33696Y67436D01*
X33728Y67450D01*
X33763Y67465D01*
X33797Y67478D01*
X33799Y67479D01*
X33806Y67481D01*
X33816Y67484D01*
X33832Y67488D01*
X33851Y67494D01*
X33873Y67500D01*
X33899Y67505D01*
X33928Y67511D01*
X33961Y67517D01*
X33997Y67523D01*
X34037Y67529D01*
X34079Y67534D01*
X34122Y67539D01*
X34170Y67542D01*
X34219Y67545D01*
X34271D01*
X34274D01*
X34283D01*
X34296D01*
X34314Y67543D01*
D02*
G37*
G36*
X35255Y65029D02*
X33941Y64218D01*
X35255D01*
Y63843D01*
X33248D01*
Y64236D01*
X34592Y65059D01*
X33248D01*
Y65435D01*
X35255D01*
Y65029D01*
D02*
G37*
G36*
X34981Y63464D02*
X34985Y63460D01*
X34991Y63453D01*
X34999Y63442D01*
X35011Y63429D01*
X35023Y63412D01*
X35037Y63393D01*
X35053Y63371D01*
X35069Y63347D01*
X35086Y63319D01*
X35104Y63289D01*
X35123Y63255D01*
X35142Y63221D01*
X35160Y63182D01*
X35179Y63139D01*
X35197Y63096D01*
X35198Y63093D01*
X35201Y63086D01*
X35205Y63073D01*
X35211Y63054D01*
X35218Y63032D01*
X35226Y63006D01*
X35234Y62977D01*
X35243Y62945D01*
X35252Y62909D01*
X35260Y62871D01*
X35268Y62831D01*
X35275Y62788D01*
X35281Y62745D01*
X35285Y62700D01*
X35288Y62654D01*
X35289Y62607D01*
Y62586D01*
X35288Y62577D01*
Y62555D01*
X35285Y62528D01*
X35282Y62496D01*
X35278Y62459D01*
X35274Y62420D01*
X35266Y62378D01*
X35258Y62335D01*
X35246Y62290D01*
X35234Y62243D01*
X35218Y62195D01*
X35201Y62149D01*
X35181Y62103D01*
X35157Y62058D01*
X35156Y62055D01*
X35152Y62048D01*
X35143Y62036D01*
X35133Y62020D01*
X35120Y62000D01*
X35102Y61978D01*
X35083Y61953D01*
X35060Y61926D01*
X35036Y61898D01*
X35008Y61869D01*
X34976Y61840D01*
X34943Y61811D01*
X34907Y61782D01*
X34868Y61756D01*
X34825Y61730D01*
X34780Y61707D01*
X34778Y61705D01*
X34769Y61703D01*
X34756Y61697D01*
X34737Y61688D01*
X34714Y61679D01*
X34688Y61669D01*
X34656Y61659D01*
X34621Y61649D01*
X34583Y61637D01*
X34541Y61627D01*
X34498Y61617D01*
X34451Y61608D01*
X34402Y61601D01*
X34351Y61595D01*
X34299Y61591D01*
X34245Y61589D01*
X34244D01*
X34242D01*
X34237D01*
X34231D01*
X34224D01*
X34215Y61591D01*
X34193D01*
X34166Y61594D01*
X34134Y61597D01*
X34097Y61601D01*
X34058Y61605D01*
X34016Y61613D01*
X33971Y61621D01*
X33925Y61631D01*
X33879Y61645D01*
X33831Y61659D01*
X33783Y61676D01*
X33735Y61697D01*
X33689Y61720D01*
X33686Y61721D01*
X33678Y61726D01*
X33665Y61734D01*
X33648Y61744D01*
X33628Y61758D01*
X33604Y61775D01*
X33578Y61795D01*
X33551Y61817D01*
X33520Y61843D01*
X33490Y61872D01*
X33459Y61903D01*
X33428Y61937D01*
X33397Y61975D01*
X33368Y62016D01*
X33341Y62058D01*
X33314Y62104D01*
X33313Y62107D01*
X33310Y62113D01*
X33306Y62124D01*
X33299Y62139D01*
X33291Y62158D01*
X33283Y62181D01*
X33274Y62207D01*
X33264Y62236D01*
X33255Y62269D01*
X33246Y62307D01*
X33238Y62346D01*
X33230Y62388D01*
X33223Y62433D01*
X33219Y62483D01*
X33216Y62533D01*
X33215Y62586D01*
Y62610D01*
X33216Y62622D01*
Y62633D01*
X33217Y62646D01*
X33219Y62678D01*
X33223Y62715D01*
X33228Y62755D01*
X33235Y62799D01*
X33242Y62844D01*
X33254Y62892D01*
X33265Y62941D01*
X33281Y62989D01*
X33299Y63037D01*
X33320Y63083D01*
X33345Y63128D01*
X33373Y63168D01*
X33374Y63171D01*
X33380Y63177D01*
X33389Y63189D01*
X33402Y63202D01*
X33417Y63219D01*
X33436Y63238D01*
X33459Y63260D01*
X33486Y63282D01*
X33515Y63305D01*
X33547Y63327D01*
X33583Y63350D01*
X33621Y63371D01*
X33663Y63392D01*
X33707Y63411D01*
X33754Y63427D01*
X33805Y63440D01*
X33880Y63038D01*
X33879D01*
X33874Y63037D01*
X33865Y63034D01*
X33855Y63029D01*
X33844Y63025D01*
X33829Y63018D01*
X33813Y63010D01*
X33796Y63002D01*
X33779Y62991D01*
X33760Y62980D01*
X33739Y62967D01*
X33720Y62952D01*
X33702Y62935D01*
X33683Y62918D01*
X33664Y62899D01*
X33648Y62877D01*
X33647Y62875D01*
X33644Y62871D01*
X33639Y62865D01*
X33635Y62857D01*
X33628Y62845D01*
X33621Y62831D01*
X33613Y62815D01*
X33604Y62797D01*
X33596Y62777D01*
X33589Y62755D01*
X33581Y62730D01*
X33574Y62704D01*
X33570Y62678D01*
X33565Y62648D01*
X33562Y62617D01*
X33561Y62586D01*
Y62574D01*
X33562Y62559D01*
X33564Y62542D01*
X33567Y62519D01*
X33570Y62493D01*
X33575Y62465D01*
X33583Y62433D01*
X33591Y62400D01*
X33603Y62367D01*
X33616Y62330D01*
X33632Y62296D01*
X33652Y62261D01*
X33674Y62227D01*
X33700Y62194D01*
X33731Y62164D01*
X33732Y62162D01*
X33738Y62156D01*
X33748Y62149D01*
X33763Y62139D01*
X33780Y62127D01*
X33802Y62114D01*
X33826Y62100D01*
X33855Y62085D01*
X33889Y62071D01*
X33926Y62056D01*
X33967Y62043D01*
X34012Y62032D01*
X34061Y62021D01*
X34113Y62014D01*
X34170Y62008D01*
X34229Y62007D01*
X34231D01*
X34234D01*
X34238D01*
X34245D01*
X34254D01*
X34263Y62008D01*
X34274D01*
X34288Y62010D01*
X34318Y62011D01*
X34351Y62016D01*
X34389Y62020D01*
X34430Y62027D01*
X34473Y62034D01*
X34517Y62046D01*
X34561Y62058D01*
X34605Y62074D01*
X34648Y62091D01*
X34691Y62113D01*
X34730Y62138D01*
X34765Y62165D01*
X34766Y62167D01*
X34772Y62172D01*
X34780Y62181D01*
X34792Y62194D01*
X34805Y62210D01*
X34821Y62229D01*
X34837Y62252D01*
X34853Y62277D01*
X34870Y62306D01*
X34886Y62336D01*
X34901Y62371D01*
X34915Y62409D01*
X34927Y62448D01*
X34936Y62490D01*
X34941Y62535D01*
X34943Y62581D01*
Y62594D01*
X34941Y62603D01*
Y62615D01*
X34940Y62629D01*
X34938Y62643D01*
X34937Y62661D01*
X34934Y62680D01*
X34931Y62700D01*
X34923Y62742D01*
X34909Y62788D01*
X34894Y62836D01*
Y62838D01*
X34891Y62842D01*
X34889Y62849D01*
X34885Y62858D01*
X34881Y62868D01*
X34875Y62881D01*
X34868Y62896D01*
X34860Y62912D01*
X34843Y62947D01*
X34822Y62983D01*
X34799Y63020D01*
X34773Y63057D01*
X34518D01*
Y62593D01*
X34179D01*
Y63466D01*
X34979D01*
X34981Y63464D01*
D02*
G37*
G36*
X46283Y65791D02*
X44834D01*
X44837Y65788D01*
X44843Y65781D01*
X44853Y65769D01*
X44866Y65753D01*
X44882Y65733D01*
X44901Y65708D01*
X44923Y65680D01*
X44944Y65649D01*
X44967Y65614D01*
X44992Y65576D01*
X45017Y65535D01*
X45040Y65492D01*
X45063Y65446D01*
X45086Y65396D01*
X45107Y65346D01*
X45125Y65293D01*
X44776D01*
Y65295D01*
X44773Y65301D01*
X44770Y65308D01*
X44766Y65319D01*
X44760Y65334D01*
X44754Y65350D01*
X44746Y65369D01*
X44736Y65390D01*
X44722Y65414D01*
X44709Y65438D01*
X44695Y65466D01*
X44677Y65493D01*
X44659Y65524D01*
X44638Y65554D01*
X44615Y65586D01*
X44590Y65620D01*
X44589Y65621D01*
X44585Y65627D01*
X44576Y65637D01*
X44566Y65649D01*
X44553Y65663D01*
X44537Y65679D01*
X44519Y65696D01*
X44499Y65717D01*
X44476Y65736D01*
X44451Y65756D01*
X44425Y65776D01*
X44396Y65797D01*
X44367Y65815D01*
X44335Y65833D01*
X44302Y65849D01*
X44269Y65862D01*
Y66175D01*
X46283D01*
Y65791D01*
D02*
G37*
G36*
Y64580D02*
X45604Y64135D01*
X46283Y63688D01*
Y63202D01*
X45239Y63897D01*
X44276Y63266D01*
Y63740D01*
X44878Y64138D01*
X44276Y64536D01*
Y65006D01*
X45237Y64376D01*
X46283Y65067D01*
Y64580D01*
D02*
G37*
G36*
Y62701D02*
X45846Y62409D01*
X45843Y62408D01*
X45836Y62402D01*
X45824Y62395D01*
X45809Y62385D01*
X45790Y62372D01*
X45769Y62357D01*
X45746Y62341D01*
X45722Y62324D01*
X45672Y62287D01*
X45647Y62270D01*
X45623Y62253D01*
X45601Y62237D01*
X45582Y62221D01*
X45565Y62206D01*
X45552Y62195D01*
X45549Y62192D01*
X45542Y62185D01*
X45531Y62173D01*
X45518Y62158D01*
X45504Y62140D01*
X45491Y62119D01*
X45478Y62098D01*
X45468Y62073D01*
X45466Y62070D01*
X45465Y62066D01*
X45463Y62061D01*
X45462Y62054D01*
X45461Y62045D01*
X45458Y62035D01*
X45456Y62024D01*
X45453Y62011D01*
X45452Y61996D01*
X45450Y61979D01*
X45447Y61960D01*
X45446Y61941D01*
Y61919D01*
X45445Y61895D01*
Y61789D01*
X46283D01*
Y61384D01*
X44276D01*
Y62266D01*
X44277Y62287D01*
Y62315D01*
X44279Y62345D01*
X44280Y62379D01*
X44283Y62415D01*
X44286Y62453D01*
X44289Y62490D01*
X44299Y62569D01*
X44305Y62605D01*
X44312Y62640D01*
X44321Y62673D01*
X44331Y62702D01*
Y62704D01*
X44334Y62708D01*
X44337Y62717D01*
X44341Y62727D01*
X44347Y62738D01*
X44356Y62753D01*
X44364Y62769D01*
X44374Y62786D01*
X44388Y62805D01*
X44402Y62824D01*
X44418Y62843D01*
X44435Y62863D01*
X44454Y62882D01*
X44476Y62901D01*
X44499Y62918D01*
X44524Y62936D01*
X44525Y62937D01*
X44530Y62940D01*
X44538Y62944D01*
X44548Y62950D01*
X44561Y62956D01*
X44576Y62963D01*
X44595Y62972D01*
X44615Y62981D01*
X44637Y62988D01*
X44662Y62997D01*
X44688Y63004D01*
X44715Y63011D01*
X44744Y63015D01*
X44775Y63020D01*
X44805Y63023D01*
X44838Y63024D01*
X44841D01*
X44849D01*
X44860Y63023D01*
X44876D01*
X44895Y63020D01*
X44918Y63017D01*
X44943Y63012D01*
X44970Y63008D01*
X44999Y63001D01*
X45030Y62992D01*
X45060Y62981D01*
X45092Y62967D01*
X45123Y62953D01*
X45155Y62934D01*
X45184Y62914D01*
X45213Y62891D01*
X45214Y62889D01*
X45218Y62885D01*
X45226Y62876D01*
X45236Y62866D01*
X45247Y62852D01*
X45260Y62836D01*
X45275Y62815D01*
X45291Y62792D01*
X45307Y62765D01*
X45321Y62735D01*
X45337Y62704D01*
X45352Y62667D01*
X45366Y62628D01*
X45378Y62586D01*
X45388Y62541D01*
X45397Y62493D01*
X45398Y62495D01*
X45400Y62499D01*
X45404Y62506D01*
X45410Y62515D01*
X45417Y62527D01*
X45426Y62540D01*
X45436Y62554D01*
X45446Y62570D01*
X45472Y62605D01*
X45501Y62641D01*
X45533Y62678D01*
X45566Y62711D01*
X45568Y62712D01*
X45571Y62715D01*
X45577Y62720D01*
X45584Y62727D01*
X45594Y62735D01*
X45607Y62746D01*
X45623Y62757D01*
X45642Y62772D01*
X45662Y62788D01*
X45685Y62805D01*
X45713Y62824D01*
X45742Y62844D01*
X45775Y62866D01*
X45810Y62889D01*
X45849Y62915D01*
X45891Y62941D01*
X46283Y63187D01*
Y62701D01*
D02*
G37*
G36*
X40771Y65707D02*
X39322D01*
X39325Y65704D01*
X39331Y65696D01*
X39341Y65685D01*
X39354Y65669D01*
X39370Y65649D01*
X39389Y65624D01*
X39411Y65596D01*
X39432Y65565D01*
X39456Y65530D01*
X39480Y65492D01*
X39505Y65451D01*
X39528Y65408D01*
X39551Y65361D01*
X39575Y65312D01*
X39595Y65261D01*
X39614Y65209D01*
X39264D01*
Y65211D01*
X39261Y65216D01*
X39258Y65224D01*
X39254Y65235D01*
X39248Y65250D01*
X39243Y65266D01*
X39234Y65285D01*
X39224Y65306D01*
X39211Y65330D01*
X39197Y65354D01*
X39183Y65382D01*
X39166Y65409D01*
X39147Y65440D01*
X39127Y65470D01*
X39103Y65502D01*
X39079Y65535D01*
X39077Y65537D01*
X39073Y65543D01*
X39064Y65553D01*
X39054Y65565D01*
X39041Y65579D01*
X39025Y65595D01*
X39008Y65612D01*
X38987Y65633D01*
X38964Y65652D01*
X38939Y65672D01*
X38913Y65692D01*
X38884Y65712D01*
X38855Y65731D01*
X38823Y65749D01*
X38790Y65765D01*
X38757Y65778D01*
Y66091D01*
X40771D01*
Y65707D01*
D02*
G37*
G36*
Y64496D02*
X40092Y64051D01*
X40771Y63604D01*
Y63118D01*
X39727Y63813D01*
X38764Y63182D01*
Y63656D01*
X39366Y64054D01*
X38764Y64452D01*
Y64922D01*
X39725Y64291D01*
X40771Y64983D01*
Y64496D01*
D02*
G37*
G36*
X39103Y62469D02*
X40771D01*
Y62064D01*
X39103D01*
Y61468D01*
X38764D01*
Y63063D01*
X39103D01*
Y62469D01*
D02*
G37*
%LPC*%
G36*
X60892Y132667D02*
X60800D01*
Y131350D01*
X60812D01*
X60826Y131347D01*
X60843D01*
X60878Y131345D01*
X60939D01*
X60958Y131347D01*
X60982Y131350D01*
X61008Y131354D01*
X61036Y131359D01*
X61069Y131366D01*
X61102Y131373D01*
X61138Y131385D01*
X61173Y131397D01*
X61206Y131413D01*
X61241Y131432D01*
X61274Y131454D01*
X61308Y131480D01*
X61336Y131508D01*
X61338Y131510D01*
X61343Y131515D01*
X61350Y131524D01*
X61359Y131538D01*
X61371Y131555D01*
X61383Y131576D01*
X61397Y131602D01*
X61411Y131633D01*
X61423Y131666D01*
X61437Y131701D01*
X61449Y131744D01*
X61461Y131789D01*
X61470Y131838D01*
X61477Y131893D01*
X61482Y131949D01*
X61484Y132010D01*
Y132015D01*
Y132025D01*
Y132044D01*
X61482Y132067D01*
X61480Y132093D01*
X61477Y132126D01*
X61473Y132161D01*
X61466Y132199D01*
X61449Y132282D01*
X61437Y132322D01*
X61421Y132364D01*
X61404Y132405D01*
X61385Y132442D01*
X61362Y132478D01*
X61336Y132508D01*
X61334Y132511D01*
X61329Y132516D01*
X61319Y132523D01*
X61308Y132534D01*
X61293Y132546D01*
X61274Y132558D01*
X61251Y132572D01*
X61225Y132589D01*
X61194Y132603D01*
X61161Y132617D01*
X61126Y132629D01*
X61086Y132643D01*
X61043Y132652D01*
X60996Y132659D01*
X60946Y132664D01*
X60892Y132667D01*
D02*
G37*
G36*
X65043Y132747D02*
X65027D01*
X65010Y132745D01*
X64989Y132740D01*
X64963Y132733D01*
X64937Y132723D01*
X64914Y132711D01*
X64890Y132693D01*
X64885Y132688D01*
X64876Y132676D01*
X64862Y132657D01*
X64845Y132629D01*
X64836Y132610D01*
X64824Y132589D01*
X64815Y132568D01*
X64807Y132542D01*
X64798Y132513D01*
X64791Y132483D01*
X64784Y132449D01*
X64777Y132414D01*
Y132412D01*
Y132402D01*
X64774Y132388D01*
X64772Y132364D01*
Y132350D01*
X64770Y132331D01*
Y132313D01*
X64767Y132289D01*
Y132263D01*
X64765Y132235D01*
Y132202D01*
X64763Y132166D01*
X64760Y132129D01*
Y132086D01*
X64758Y132039D01*
Y131989D01*
X64755Y131935D01*
Y131876D01*
X64753Y131812D01*
Y131746D01*
Y131673D01*
X64751Y131597D01*
Y131515D01*
Y131430D01*
X64748Y131338D01*
Y131241D01*
Y131137D01*
Y131029D01*
Y131026D01*
Y131022D01*
Y131012D01*
Y131000D01*
Y130986D01*
Y130967D01*
Y130946D01*
Y130925D01*
X64751Y130873D01*
Y130812D01*
X64753Y130748D01*
Y130677D01*
X64755Y130606D01*
X64760Y130533D01*
X64763Y130460D01*
X64767Y130392D01*
X64772Y130323D01*
X64779Y130264D01*
X64786Y130207D01*
X64789Y130184D01*
X64793Y130163D01*
Y130160D01*
X64796Y130156D01*
Y130148D01*
X64800Y130137D01*
X64807Y130108D01*
X64817Y130075D01*
X64831Y130040D01*
X64847Y130005D01*
X64866Y129974D01*
X64876Y129960D01*
X64888Y129948D01*
X64890Y129946D01*
X64899Y129941D01*
X64914Y129931D01*
X64933Y129922D01*
X64956Y129912D01*
X64984Y129903D01*
X65017Y129898D01*
X65055Y129896D01*
X65060D01*
X65074Y129898D01*
X65093Y129901D01*
X65119Y129905D01*
X65147Y129912D01*
X65175Y129927D01*
X65201Y129943D01*
X65225Y129967D01*
Y129969D01*
X65230Y129974D01*
X65235Y129981D01*
X65239Y129990D01*
X65246Y130005D01*
X65256Y130021D01*
X65265Y130040D01*
X65275Y130061D01*
X65284Y130087D01*
X65294Y130115D01*
X65303Y130148D01*
X65310Y130184D01*
X65320Y130222D01*
X65324Y130262D01*
X65331Y130307D01*
X65334Y130354D01*
X65343Y131321D01*
Y131324D01*
Y131331D01*
Y131340D01*
Y131357D01*
Y131373D01*
Y131397D01*
Y131421D01*
Y131449D01*
Y131477D01*
Y131510D01*
Y131581D01*
Y131657D01*
Y131737D01*
X65341Y131819D01*
Y131900D01*
Y131977D01*
X65338Y132051D01*
Y132117D01*
Y132145D01*
X65336Y132173D01*
Y132197D01*
Y132218D01*
X65334Y132237D01*
Y132251D01*
Y132256D01*
Y132265D01*
X65331Y132282D01*
X65329Y132301D01*
X65327Y132327D01*
X65322Y132355D01*
X65317Y132388D01*
X65312Y132421D01*
X65296Y132492D01*
X65277Y132560D01*
X65268Y132593D01*
X65253Y132624D01*
X65239Y132650D01*
X65225Y132674D01*
X65223Y132676D01*
X65213Y132685D01*
X65201Y132697D01*
X65180Y132711D01*
X65157Y132723D01*
X65124Y132735D01*
X65088Y132745D01*
X65043Y132747D01*
D02*
G37*
G36*
X64215Y125161D02*
X63977D01*
Y123827D01*
X64156D01*
X64182Y123830D01*
X64210D01*
X64243Y123832D01*
X64279Y123835D01*
X64354Y123842D01*
X64432Y123851D01*
X64505Y123865D01*
X64538Y123875D01*
X64569Y123884D01*
X64571D01*
X64576Y123886D01*
X64583Y123891D01*
X64595Y123896D01*
X64623Y123910D01*
X64659Y123931D01*
X64697Y123960D01*
X64739Y123995D01*
X64779Y124038D01*
X64815Y124089D01*
Y124092D01*
X64819Y124097D01*
X64824Y124106D01*
X64829Y124118D01*
X64836Y124132D01*
X64843Y124151D01*
X64850Y124172D01*
X64859Y124196D01*
X64869Y124222D01*
X64876Y124250D01*
X64883Y124283D01*
X64890Y124318D01*
X64897Y124354D01*
X64899Y124394D01*
X64904Y124479D01*
Y124484D01*
Y124495D01*
Y124512D01*
X64902Y124535D01*
X64899Y124564D01*
X64895Y124599D01*
X64890Y124635D01*
X64883Y124675D01*
X64876Y124715D01*
X64864Y124757D01*
X64852Y124800D01*
X64836Y124842D01*
X64817Y124885D01*
X64796Y124925D01*
X64770Y124960D01*
X64741Y124993D01*
X64739Y124996D01*
X64734Y125000D01*
X64725Y125010D01*
X64711Y125019D01*
X64692Y125031D01*
X64670Y125045D01*
X64645Y125062D01*
X64614Y125078D01*
X64581Y125092D01*
X64541Y125109D01*
X64498Y125123D01*
X64451Y125135D01*
X64399Y125144D01*
X64342Y125154D01*
X64281Y125159D01*
X64215Y125161D01*
D02*
G37*
G36*
X60814Y124356D02*
X60347Y123313D01*
X61270D01*
X60814Y124356D01*
D02*
G37*
G36*
X47693Y118945D02*
X47409D01*
Y117278D01*
X47843D01*
X47863Y117279D01*
X47885D01*
X47908Y117281D01*
X47959Y117283D01*
X48010Y117288D01*
X48057Y117294D01*
X48079Y117298D01*
X48098Y117301D01*
X48099D01*
X48103Y117303D01*
X48110Y117305D01*
X48118Y117307D01*
X48128Y117310D01*
X48141Y117316D01*
X48170Y117327D01*
X48203Y117340D01*
X48236Y117358D01*
X48270Y117379D01*
X48303Y117405D01*
X48305Y117407D01*
X48307Y117409D01*
X48310Y117412D01*
X48318Y117420D01*
X48323Y117427D01*
X48332Y117438D01*
X48341Y117449D01*
X48351Y117463D01*
X48361Y117480D01*
X48372Y117498D01*
X48383Y117518D01*
X48394Y117540D01*
X48405Y117563D01*
X48416Y117591D01*
X48427Y117618D01*
X48436Y117649D01*
Y117651D01*
X48438Y117656D01*
X48441Y117667D01*
X48445Y117680D01*
X48449Y117696D01*
X48452Y117718D01*
X48458Y117742D01*
X48463Y117771D01*
X48467Y117802D01*
X48472Y117836D01*
X48476Y117873D01*
X48482Y117915D01*
X48483Y117958D01*
X48487Y118006D01*
X48489Y118056D01*
Y118109D01*
Y118113D01*
Y118122D01*
Y118137D01*
Y118157D01*
X48487Y118182D01*
Y118209D01*
X48485Y118240D01*
X48482Y118275D01*
X48480Y118309D01*
X48476Y118346D01*
X48467Y118421D01*
X48460Y118457D01*
X48454Y118493D01*
X48445Y118526D01*
X48436Y118557D01*
Y118559D01*
X48434Y118564D01*
X48431Y118572D01*
X48427Y118582D01*
X48421Y118595D01*
X48414Y118612D01*
X48400Y118646D01*
X48378Y118686D01*
X48354Y118726D01*
X48325Y118764D01*
X48292Y118801D01*
X48290Y118803D01*
X48289Y118805D01*
X48283Y118810D01*
X48276Y118816D01*
X48267Y118823D01*
X48256Y118830D01*
X48228Y118848D01*
X48194Y118868D01*
X48154Y118888D01*
X48107Y118905D01*
X48056Y118919D01*
X48054D01*
X48050Y118921D01*
X48043D01*
X48034Y118923D01*
X48021Y118925D01*
X48005Y118927D01*
X47987Y118930D01*
X47963Y118932D01*
X47937Y118934D01*
X47906Y118937D01*
X47872Y118939D01*
X47834Y118941D01*
X47792Y118943D01*
X47744D01*
X47693Y118945D01*
D02*
G37*
G36*
X43123Y137837D02*
X42579D01*
Y137198D01*
X43012D01*
X43042Y137200D01*
X43111D01*
X43149Y137202D01*
X43227Y137205D01*
X43265Y137207D01*
X43302Y137211D01*
X43335Y137214D01*
X43365Y137218D01*
X43391Y137222D01*
X43411Y137227D01*
X43413D01*
X43415Y137229D01*
X43426Y137233D01*
X43442Y137242D01*
X43464Y137253D01*
X43486Y137267D01*
X43509Y137285D01*
X43533Y137307D01*
X43553Y137335D01*
X43555Y137338D01*
X43562Y137349D01*
X43569Y137365D01*
X43580Y137387D01*
X43589Y137415D01*
X43598Y137447D01*
X43604Y137484D01*
X43606Y137524D01*
Y137526D01*
Y137529D01*
Y137537D01*
X43604Y137546D01*
Y137557D01*
X43602Y137567D01*
X43597Y137597D01*
X43589Y137629D01*
X43577Y137664D01*
X43560Y137697D01*
X43537Y137728D01*
Y137730D01*
X43533Y137731D01*
X43524Y137740D01*
X43509Y137753D01*
X43487Y137769D01*
X43460Y137786D01*
X43427Y137802D01*
X43389Y137817D01*
X43345Y137828D01*
X43338D01*
X43331Y137830D01*
X43322D01*
X43309Y137831D01*
X43295D01*
X43276Y137833D01*
X43227D01*
X43198Y137835D01*
X43163D01*
X43123Y137837D01*
D02*
G37*
G36*
X45315Y124457D02*
X44977D01*
Y123739D01*
X45303D01*
X45326Y123741D01*
X45353D01*
X45384Y123743D01*
X45415Y123745D01*
X45483Y123749D01*
X45548Y123756D01*
X45579Y123759D01*
X45608Y123765D01*
X45632Y123770D01*
X45654Y123778D01*
X45656D01*
X45659Y123779D01*
X45663Y123781D01*
X45670Y123785D01*
X45688Y123794D01*
X45712Y123809D01*
X45737Y123825D01*
X45765Y123847D01*
X45790Y123872D01*
X45814Y123901D01*
Y123903D01*
X45816Y123905D01*
X45819Y123910D01*
X45823Y123916D01*
X45832Y123934D01*
X45843Y123958D01*
X45854Y123987D01*
X45863Y124020D01*
X45870Y124058D01*
X45872Y124098D01*
Y124100D01*
Y124103D01*
Y124111D01*
X45870Y124122D01*
Y124133D01*
X45869Y124147D01*
X45861Y124178D01*
X45852Y124214D01*
X45838Y124253D01*
X45818Y124291D01*
X45805Y124309D01*
X45790Y124326D01*
Y124327D01*
X45787Y124329D01*
X45776Y124340D01*
X45759Y124355D01*
X45736Y124375D01*
X45705Y124393D01*
X45670Y124411D01*
X45630Y124427D01*
X45586Y124438D01*
X45583D01*
X45575Y124440D01*
X45568Y124442D01*
X45557D01*
X45543Y124444D01*
X45526Y124446D01*
X45506Y124447D01*
X45483Y124449D01*
X45457Y124451D01*
X45428Y124453D01*
X45393D01*
X45357Y124455D01*
X45315Y124457D01*
D02*
G37*
G36*
X51237Y124491D02*
X51223D01*
X51207Y124487D01*
X51185Y124484D01*
X51161Y124477D01*
X51136Y124467D01*
X51108Y124453D01*
X51081Y124435D01*
X51077Y124433D01*
X51070Y124424D01*
X51057Y124409D01*
X51041Y124389D01*
X51025Y124362D01*
X51016Y124346D01*
X51006Y124327D01*
X50997Y124307D01*
X50990Y124284D01*
X50981Y124260D01*
X50974Y124234D01*
Y124233D01*
X50972Y124225D01*
X50970Y124214D01*
X50966Y124198D01*
X50963Y124178D01*
X50957Y124153D01*
X50954Y124122D01*
X50950Y124085D01*
X50945Y124045D01*
X50941Y123998D01*
X50935Y123947D01*
X50932Y123890D01*
X50930Y123827D01*
X50926Y123759D01*
X50924Y123685D01*
Y123605D01*
Y123603D01*
Y123599D01*
Y123594D01*
Y123585D01*
Y123576D01*
Y123563D01*
Y123532D01*
X50926Y123497D01*
Y123456D01*
X50928Y123410D01*
X50930Y123363D01*
X50932Y123312D01*
X50935Y123261D01*
X50939Y123210D01*
X50943Y123161D01*
X50948Y123113D01*
X50954Y123070D01*
X50961Y123030D01*
X50968Y122995D01*
Y122993D01*
X50970Y122988D01*
X50974Y122979D01*
X50977Y122968D01*
X50981Y122955D01*
X50986Y122941D01*
X50999Y122906D01*
X51016Y122870D01*
X51035Y122833D01*
X51057Y122800D01*
X51068Y122786D01*
X51081Y122775D01*
X51085Y122773D01*
X51094Y122766D01*
X51108Y122758D01*
X51126Y122748D01*
X51150Y122738D01*
X51176Y122729D01*
X51207Y122722D01*
X51237Y122720D01*
X51241D01*
X51252Y122722D01*
X51268Y122724D01*
X51290Y122728D01*
X51314Y122733D01*
X51341Y122744D01*
X51367Y122757D01*
X51394Y122775D01*
X51398Y122778D01*
X51405Y122786D01*
X51418Y122800D01*
X51434Y122820D01*
X51450Y122850D01*
X51459Y122866D01*
X51469Y122884D01*
X51478Y122904D01*
X51485Y122926D01*
X51494Y122950D01*
X51501Y122975D01*
Y122977D01*
X51503Y122984D01*
X51507Y122995D01*
X51509Y123011D01*
X51514Y123031D01*
X51518Y123057D01*
X51521Y123088D01*
X51527Y123124D01*
X51532Y123164D01*
X51536Y123210D01*
X51541Y123263D01*
X51545Y123319D01*
X51547Y123381D01*
X51551Y123450D01*
X51552Y123525D01*
Y123605D01*
Y123607D01*
Y123610D01*
Y123616D01*
Y123625D01*
Y123634D01*
Y123647D01*
Y123676D01*
X51551Y123712D01*
Y123754D01*
X51549Y123798D01*
X51547Y123847D01*
X51545Y123896D01*
X51541Y123947D01*
X51538Y123998D01*
X51532Y124047D01*
X51529Y124094D01*
X51521Y124140D01*
X51514Y124178D01*
X51507Y124213D01*
Y124214D01*
X51505Y124220D01*
X51501Y124229D01*
X51500Y124240D01*
X51494Y124253D01*
X51489Y124267D01*
X51476Y124302D01*
X51459Y124340D01*
X51439Y124376D01*
X51418Y124409D01*
X51405Y124424D01*
X51392Y124435D01*
X51389Y124436D01*
X51381Y124444D01*
X51367Y124453D01*
X51349Y124464D01*
X51325Y124473D01*
X51299Y124482D01*
X51268Y124489D01*
X51237Y124491D01*
D02*
G37*
G36*
X48911Y124489D02*
X48897D01*
X48881Y124487D01*
X48859Y124486D01*
X48833Y124482D01*
X48802Y124478D01*
X48768Y124471D01*
X48730Y124462D01*
X48691Y124451D01*
X48649Y124436D01*
X48608Y124418D01*
X48564Y124398D01*
X48522Y124373D01*
X48480Y124344D01*
X48442Y124311D01*
X48404Y124273D01*
X48402Y124271D01*
X48397Y124262D01*
X48386Y124251D01*
X48375Y124233D01*
X48360Y124209D01*
X48344Y124182D01*
X48325Y124149D01*
X48309Y124111D01*
X48291Y124067D01*
X48273Y124020D01*
X48256Y123967D01*
X48242Y123909D01*
X48231Y123845D01*
X48222Y123776D01*
X48215Y123701D01*
X48213Y123623D01*
Y123621D01*
Y123617D01*
Y123612D01*
Y123605D01*
Y123594D01*
X48215Y123583D01*
X48216Y123552D01*
X48218Y123517D01*
X48224Y123476D01*
X48229Y123430D01*
X48238Y123381D01*
X48247Y123330D01*
X48260Y123277D01*
X48276Y123223D01*
X48296Y123170D01*
X48318Y123117D01*
X48344Y123066D01*
X48375Y123019D01*
X48409Y122975D01*
X48411Y122973D01*
X48418Y122966D01*
X48429Y122955D01*
X48446Y122941D01*
X48464Y122924D01*
X48487Y122906D01*
X48515Y122886D01*
X48546Y122866D01*
X48580Y122844D01*
X48619Y122824D01*
X48660Y122806D01*
X48704Y122789D01*
X48753Y122775D01*
X48802Y122764D01*
X48855Y122757D01*
X48911Y122755D01*
X48924D01*
X48941Y122757D01*
X48963Y122758D01*
X48988Y122762D01*
X49019Y122766D01*
X49052Y122773D01*
X49088Y122782D01*
X49128Y122793D01*
X49168Y122808D01*
X49210Y122826D01*
X49252Y122848D01*
X49294Y122871D01*
X49334Y122900D01*
X49374Y122935D01*
X49412Y122973D01*
X49414Y122975D01*
X49421Y122984D01*
X49430Y122997D01*
X49443Y123015D01*
X49457Y123037D01*
X49474Y123066D01*
X49492Y123099D01*
X49510Y123137D01*
X49529Y123181D01*
X49547Y123230D01*
X49563Y123284D01*
X49578Y123343D01*
X49590Y123406D01*
X49599Y123476D01*
X49607Y123550D01*
X49609Y123630D01*
Y123632D01*
Y123636D01*
Y123641D01*
Y123648D01*
Y123659D01*
X49607Y123672D01*
Y123685D01*
X49605Y123701D01*
X49603Y123738D01*
X49598Y123779D01*
X49592Y123825D01*
X49585Y123874D01*
X49574Y123925D01*
X49561Y123978D01*
X49547Y124032D01*
X49529Y124085D01*
X49507Y124138D01*
X49481Y124187D01*
X49452Y124234D01*
X49417Y124276D01*
X49416Y124278D01*
X49408Y124285D01*
X49398Y124296D01*
X49383Y124309D01*
X49363Y124326D01*
X49341Y124344D01*
X49314Y124364D01*
X49283Y124384D01*
X49248Y124402D01*
X49210Y124422D01*
X49168Y124440D01*
X49123Y124457D01*
X49075Y124469D01*
X49024Y124480D01*
X48970Y124487D01*
X48911Y124489D01*
D02*
G37*
G36*
X54112Y58729D02*
X53568D01*
Y58091D01*
X54001D01*
X54031Y58092D01*
X54100D01*
X54138Y58094D01*
X54216Y58098D01*
X54254Y58100D01*
X54291Y58103D01*
X54324Y58107D01*
X54355Y58111D01*
X54380Y58114D01*
X54400Y58120D01*
X54402D01*
X54404Y58122D01*
X54415Y58125D01*
X54431Y58134D01*
X54453Y58145D01*
X54475Y58160D01*
X54498Y58178D01*
X54522Y58200D01*
X54542Y58227D01*
X54544Y58231D01*
X54551Y58242D01*
X54558Y58258D01*
X54569Y58280D01*
X54578Y58307D01*
X54588Y58340D01*
X54593Y58376D01*
X54595Y58416D01*
Y58418D01*
Y58422D01*
Y58429D01*
X54593Y58438D01*
Y58449D01*
X54591Y58460D01*
X54586Y58489D01*
X54578Y58522D01*
X54566Y58556D01*
X54549Y58589D01*
X54526Y58620D01*
Y58622D01*
X54522Y58624D01*
X54513Y58633D01*
X54498Y58646D01*
X54476Y58662D01*
X54449Y58679D01*
X54416Y58695D01*
X54378Y58709D01*
X54334Y58720D01*
X54327D01*
X54320Y58722D01*
X54311D01*
X54298Y58724D01*
X54284D01*
X54265Y58726D01*
X54216D01*
X54187Y58728D01*
X54153D01*
X54112Y58729D01*
D02*
G37*
G36*
X34295Y67127D02*
X34253D01*
X34250D01*
X34242D01*
X34231D01*
X34215D01*
X34195Y67125D01*
X34173D01*
X34148Y67124D01*
X34121Y67121D01*
X34093Y67120D01*
X34064Y67117D01*
X34005Y67110D01*
X33976Y67104D01*
X33947Y67099D01*
X33921Y67092D01*
X33896Y67085D01*
X33895D01*
X33890Y67083D01*
X33884Y67080D01*
X33876Y67078D01*
X33865Y67073D01*
X33852Y67067D01*
X33825Y67056D01*
X33793Y67039D01*
X33761Y67020D01*
X33731Y66996D01*
X33702Y66970D01*
X33700Y66969D01*
X33699Y66967D01*
X33694Y66963D01*
X33690Y66957D01*
X33684Y66950D01*
X33678Y66941D01*
X33664Y66920D01*
X33648Y66892D01*
X33632Y66860D01*
X33619Y66822D01*
X33607Y66782D01*
Y66780D01*
X33606Y66777D01*
Y66772D01*
X33604Y66764D01*
X33603Y66754D01*
X33602Y66741D01*
X33599Y66727D01*
X33597Y66708D01*
X33596Y66688D01*
X33593Y66663D01*
X33591Y66635D01*
X33590Y66605D01*
X33589Y66572D01*
Y66534D01*
X33587Y66493D01*
Y66267D01*
X34915D01*
Y66612D01*
X34914Y66628D01*
Y66645D01*
X34912Y66664D01*
X34911Y66705D01*
X34907Y66746D01*
X34902Y66783D01*
X34899Y66801D01*
X34896Y66815D01*
Y66817D01*
X34895Y66820D01*
X34894Y66825D01*
X34892Y66831D01*
X34889Y66840D01*
X34885Y66850D01*
X34876Y66873D01*
X34866Y66899D01*
X34852Y66925D01*
X34834Y66953D01*
X34814Y66979D01*
X34812Y66980D01*
X34811Y66982D01*
X34808Y66985D01*
X34802Y66991D01*
X34796Y66995D01*
X34788Y67002D01*
X34779Y67010D01*
X34767Y67017D01*
X34754Y67025D01*
X34740Y67034D01*
X34724Y67043D01*
X34707Y67052D01*
X34688Y67060D01*
X34666Y67069D01*
X34644Y67078D01*
X34620Y67085D01*
X34618D01*
X34614Y67086D01*
X34605Y67089D01*
X34595Y67092D01*
X34582Y67095D01*
X34564Y67098D01*
X34546Y67102D01*
X34522Y67107D01*
X34498Y67110D01*
X34470Y67114D01*
X34441Y67117D01*
X34408Y67121D01*
X34373Y67123D01*
X34335Y67125D01*
X34295Y67127D01*
D02*
G37*
G36*
X44864Y62607D02*
X44863D01*
X44860D01*
X44854D01*
X44847Y62605D01*
X44838D01*
X44830Y62604D01*
X44807Y62599D01*
X44780Y62593D01*
X44753Y62583D01*
X44727Y62570D01*
X44702Y62551D01*
X44701D01*
X44699Y62549D01*
X44692Y62541D01*
X44682Y62530D01*
X44669Y62512D01*
X44656Y62490D01*
X44643Y62464D01*
X44631Y62434D01*
X44622Y62399D01*
Y62393D01*
X44621Y62388D01*
Y62380D01*
X44620Y62370D01*
Y62358D01*
X44618Y62344D01*
Y62305D01*
X44617Y62282D01*
Y62254D01*
X44615Y62222D01*
Y61789D01*
X45124D01*
Y62134D01*
X45123Y62157D01*
Y62212D01*
X45121Y62243D01*
X45118Y62305D01*
X45117Y62335D01*
X45114Y62364D01*
X45111Y62390D01*
X45108Y62415D01*
X45105Y62435D01*
X45101Y62451D01*
Y62453D01*
X45099Y62454D01*
X45096Y62463D01*
X45089Y62476D01*
X45081Y62493D01*
X45069Y62511D01*
X45055Y62530D01*
X45037Y62549D01*
X45015Y62564D01*
X45012Y62566D01*
X45004Y62572D01*
X44991Y62577D01*
X44973Y62586D01*
X44952Y62593D01*
X44925Y62601D01*
X44896Y62605D01*
X44864Y62607D01*
D02*
G37*
%LPD*%
D10*
X84801Y60461D02*
G03*
X84801Y60461I-250J0D01*
G01*
X88676Y68312D02*
X92427D01*
X96560Y61609D02*
Y68312D01*
X84543Y61609D02*
Y68312D01*
D11*
X8306Y57461D02*
G03*
X8316Y57461I5J-500D01*
G01*
X41535Y32480D02*
X44759D01*
X57603D02*
X60827D01*
Y39838D01*
X41535Y32480D02*
Y39838D01*
X44213Y43832D02*
X44250Y43795D01*
X58324D01*
X66929Y70174D02*
Y75686D01*
X63508Y70174D02*
X66929D01*
X35433D02*
X38854D01*
X35433D02*
Y76378D01*
X38583Y81102D02*
X63779D01*
D12*
X106890Y41339D02*
G03*
X106890Y41339I-7874J0D01*
G01*
X11220D02*
G03*
X11220Y41339I-7874J0D01*
G01*
X106890Y88583D02*
G03*
X106890Y88583I-7874J0D01*
G01*
X11220D02*
G03*
X11220Y88583I-7874J0D01*
G01*
X19685Y149606D02*
G03*
X19685Y149606I-7874J0D01*
G01*
X98425D02*
G03*
X98425Y149606I-7874J0D01*
G01*
X19685Y11811D02*
G03*
X19685Y11811I-7874J0D01*
G01*
X98425D02*
G03*
X98425Y11811I-7874J0D01*
G01*
D13*
X31756Y146850D02*
G03*
X31756Y146850I-197J0D01*
G01*
X27819Y85827D02*
G03*
X27819Y85827I-197J0D01*
G01*
Y38583D02*
G03*
X27819Y38583I-197J0D01*
G01*
X71000Y152362D02*
G03*
X71000Y152362I-197J0D01*
G01*
X74937Y91339D02*
G03*
X74937Y91339I-197J0D01*
G01*
Y44095D02*
G03*
X74937Y44095I-197J0D01*
G01*
X30905Y146260D02*
Y152953D01*
X24213D02*
X30905D01*
X24213Y146260D02*
Y152953D01*
Y146260D02*
X30905D01*
X26968Y85236D02*
Y91929D01*
X20276D02*
X26968D01*
X20276Y85236D02*
Y91929D01*
Y85236D02*
X26968D01*
Y37992D02*
Y44685D01*
X20276D02*
X26968D01*
X20276Y37992D02*
Y44685D01*
Y37992D02*
X26968D01*
X71457Y146260D02*
Y152953D01*
Y146260D02*
X78150D01*
Y152953D01*
X71457D02*
X78150D01*
X75394Y85236D02*
Y91929D01*
Y85236D02*
X82087D01*
Y91929D01*
X75394D02*
X82087D01*
X75394Y37992D02*
Y44685D01*
Y37992D02*
X82087D01*
Y44685D01*
X75394D02*
X82087D01*
D14*
X5512Y69660D02*
Y71260D01*
X18135Y69661D02*
Y71260D01*
X16535D02*
X18135D01*
X5512D02*
X7111D01*
X5487Y58661D02*
Y60261D01*
Y58661D02*
X7087D01*
X16511Y58637D02*
X18110D01*
Y60236D01*
M02*
