G04*
G04 #@! TF.GenerationSoftware,Altium Limited,Altium Designer,24.1.2 (44)*
G04*
G04 Layer_Color=255*
%FSLAX25Y25*%
%MOIN*%
G70*
G04*
G04 #@! TF.SameCoordinates,EC497B79-CED4-4E58-A43C-F9202C23BEB1*
G04*
G04*
G04 #@! TF.FilePolarity,Positive*
G04*
G01*
G75*
%ADD15R,0.02362X0.03937*%
%ADD16R,0.01181X0.03937*%
%ADD17R,0.01181X0.03543*%
%ADD18R,0.01929X0.04626*%
%ADD19R,0.01929X0.04555*%
%ADD20R,0.01575X0.02126*%
%ADD21R,0.00984X0.01772*%
%ADD22R,0.01772X0.00984*%
%ADD23R,0.02362X0.04724*%
%ADD24R,0.01772X0.01772*%
%ADD41R,0.01451X0.01276*%
%ADD44O,0.04724X0.09449*%
%ADD45O,0.04724X0.07874*%
%ADD46C,0.06693*%
%ADD47R,0.06693X0.06693*%
%ADD48C,0.11811*%
G36*
G01X39370Y116535D02*
G02X37795Y118110I0J1575D01*
G02X39370Y119685I1575J0D01*
G02X40945Y118110I0J-1575D01*
G02X39370Y116535I-1575J0D01*
D02*
G37*
G36*
G01Y135433D02*
G02X37795Y137008I0J1575D01*
G02X39370Y138583I1575J0D01*
G02X40945Y137008I0J-1575D01*
G02X39370Y135433I-1575J0D01*
D02*
G37*
G36*
G01Y129528D02*
G02X37795Y131102I0J1575D01*
G02X39370Y132677I1575J0D01*
G02X40945Y131102I0J-1575D01*
G02X39370Y129528I-1575J0D01*
D02*
G37*
G36*
G01Y122047D02*
G02X37795Y123622I0J1575D01*
G02X39370Y125197I1575J0D01*
G02X40945Y123622I0J-1575D01*
G02X39370Y122047I-1575J0D01*
D02*
G37*
G36*
G01X34252Y57480D02*
G02X32677Y59055I0J1575D01*
G02X34252Y60630I1575J0D01*
G02X35827Y59055I0J-1575D01*
G02X34252Y57480I-1575J0D01*
D02*
G37*
G36*
G01X39764D02*
G02X38189Y59055I0J1575D01*
G02X39764Y60630I1575J0D01*
G02X41339Y59055I0J-1575D01*
G02X39764Y57480I-1575J0D01*
D02*
G37*
G36*
G01X45276D02*
G02X43701Y59055I0J1575D01*
G02X45276Y60630I1575J0D01*
G02X46850Y59055I0J-1575D01*
G02X45276Y57480I-1575J0D01*
D02*
G37*
D15*
X42323Y42323D02*
D03*
X60039D02*
D03*
D16*
X56102Y32480D02*
D03*
X54134D02*
D03*
X52165D02*
D03*
X50197D02*
D03*
X48228D02*
D03*
X46260D02*
D03*
D17*
X60039Y70079D02*
D03*
X58071D02*
D03*
X56102D02*
D03*
X54134D02*
D03*
X52165D02*
D03*
X50197D02*
D03*
X48228D02*
D03*
X46260D02*
D03*
X44291D02*
D03*
X42323D02*
D03*
X62008D02*
D03*
X40354D02*
D03*
D18*
X86811Y69503D02*
D03*
X94291D02*
D03*
D19*
Y60419D02*
D03*
X90551D02*
D03*
X86811D02*
D03*
D20*
X92126Y55118D02*
D03*
X88976D02*
D03*
Y74803D02*
D03*
X92126D02*
D03*
X11024Y78347D02*
D03*
X14173D02*
D03*
Y81890D02*
D03*
X11024D02*
D03*
D21*
X8858Y59988D02*
D03*
X10827D02*
D03*
X12796D02*
D03*
X14764D02*
D03*
X14763Y69933D02*
D03*
X12795D02*
D03*
X10826D02*
D03*
X8857D02*
D03*
D22*
X16783Y62008D02*
D03*
Y63977D02*
D03*
Y65945D02*
D03*
Y67914D02*
D03*
X6838Y67913D02*
D03*
Y65944D02*
D03*
Y63976D02*
D03*
Y62007D02*
D03*
D23*
X36417Y79528D02*
D03*
X65945Y79527D02*
D03*
D24*
X29232Y151279D02*
D03*
X25886D02*
D03*
X29232Y147934D02*
D03*
X25886Y147933D02*
D03*
X25295Y90256D02*
D03*
X21949D02*
D03*
X25295Y86911D02*
D03*
X21949Y86910D02*
D03*
X25295Y43012D02*
D03*
X21949D02*
D03*
X25295Y39667D02*
D03*
X21949Y39666D02*
D03*
X73130Y147933D02*
D03*
X76476D02*
D03*
X73130Y151278D02*
D03*
X76476Y151279D02*
D03*
X77067Y86910D02*
D03*
X80413D02*
D03*
X77067Y90255D02*
D03*
X80413Y90256D02*
D03*
X77067Y39666D02*
D03*
X80413D02*
D03*
X77067Y43011D02*
D03*
X80413Y43012D02*
D03*
D41*
X89471Y77953D02*
D03*
X91631D02*
D03*
X14860Y51968D02*
D03*
X12699D02*
D03*
D44*
X73150Y11437D02*
D03*
X29213D02*
D03*
D45*
Y27185D02*
D03*
X73150D02*
D03*
D46*
X66181Y51181D02*
D03*
X56181D02*
D03*
X46181D02*
D03*
D47*
X36181D02*
D03*
D48*
X99016Y41339D02*
D03*
X3347D02*
D03*
X99016Y88583D02*
D03*
X3347D02*
D03*
X11811Y149606D02*
D03*
X90551D02*
D03*
X11811Y11811D02*
D03*
X90551D02*
D03*
M02*
