G04*
G04 #@! TF.GenerationSoftware,Altium Limited,Altium Designer,24.1.2 (44)*
G04*
G04 Layer_Physical_Order=2*
G04 Layer_Color=16711680*
%FSLAX25Y25*%
%MOIN*%
G70*
G04*
G04 #@! TF.SameCoordinates,EC497B79-CED4-4E58-A43C-F9202C23BEB1*
G04*
G04*
G04 #@! TF.FilePolarity,Positive*
G04*
G01*
G75*
%ADD17R,0.01181X0.03543*%
%ADD23R,0.02362X0.04724*%
%ADD24R,0.01772X0.01772*%
%ADD42C,0.00591*%
%ADD43C,0.00984*%
%ADD44O,0.04724X0.09449*%
%ADD45O,0.04724X0.07874*%
%ADD46C,0.06693*%
%ADD47R,0.06693X0.06693*%
%ADD48C,0.11811*%
%ADD49C,0.01378*%
%ADD50R,0.02126X0.01575*%
%ADD51R,0.02362X0.03543*%
%ADD52R,0.01181X0.03543*%
%ADD53R,0.05906X0.03150*%
%ADD54R,0.15748X0.15748*%
G36*
X11811Y157465D02*
X36599D01*
Y141732D01*
X36660Y141425D01*
X36834Y141165D01*
X37094Y140991D01*
X37402Y140929D01*
X64961D01*
X65268Y140991D01*
X65528Y141165D01*
X65702Y141425D01*
X65763Y141732D01*
Y157465D01*
X90551D01*
X90562Y157467D01*
X92085Y157317D01*
X93560Y156870D01*
X94919Y156143D01*
X96110Y155166D01*
X97088Y153974D01*
X97815Y152615D01*
X98262Y151140D01*
X98413Y149606D01*
X98262Y148073D01*
X97815Y146598D01*
X97088Y145238D01*
X96110Y144047D01*
X94919Y143069D01*
X93560Y142343D01*
X92085Y141895D01*
X90562Y141745D01*
X90551Y141748D01*
X78740D01*
Y141773D01*
X77507Y141611D01*
X76358Y141135D01*
X75371Y140377D01*
X74712Y139520D01*
X74212Y139679D01*
X74212Y142323D01*
X74212Y142823D01*
Y146654D01*
X67126D01*
Y142823D01*
X67126Y142323D01*
X67126Y141823D01*
Y137992D01*
X67126D01*
Y137992D01*
X67126D01*
X67126Y137492D01*
Y133661D01*
Y129831D01*
X67126Y129331D01*
X67126D01*
Y129331D01*
X67126D01*
Y125500D01*
X67126Y125000D01*
X67126D01*
Y125000D01*
X67126D01*
Y120669D01*
Y116339D01*
X74000D01*
Y101177D01*
X73975D01*
X74137Y99943D01*
X74613Y98794D01*
X75371Y97807D01*
X76358Y97050D01*
X77507Y96574D01*
X78740Y96412D01*
Y96437D01*
X99182D01*
X99194Y96425D01*
Y96425D01*
X99194Y96425D01*
X100549Y96291D01*
X102024Y95844D01*
X103384Y95117D01*
X104575Y94140D01*
X105553Y92948D01*
X106279Y91589D01*
X106727Y90114D01*
X106878Y88580D01*
X106727Y87047D01*
X106279Y85572D01*
X105553Y84213D01*
X104575Y83021D01*
X103384Y82043D01*
X102024Y81317D01*
X100549Y80870D01*
X99194Y80736D01*
X99194Y80721D01*
X98905Y80663D01*
X98645Y80489D01*
X98471Y80229D01*
X98410Y79921D01*
Y50000D01*
X98410Y49999D01*
X98410Y49998D01*
X98471Y49690D01*
X98645Y49430D01*
X98905Y49256D01*
X99194Y49199D01*
X99194Y49183D01*
X100549Y49049D01*
X102024Y48602D01*
X103384Y47875D01*
X104575Y46898D01*
X105553Y45706D01*
X106279Y44347D01*
X106727Y42872D01*
X106878Y41339D01*
X106727Y39805D01*
X106279Y38330D01*
X105553Y36971D01*
X104575Y35779D01*
X103384Y34802D01*
X102024Y34075D01*
X100549Y33628D01*
X99194Y33494D01*
X99194Y33494D01*
Y33494D01*
X99182Y33482D01*
X82677D01*
Y33508D01*
X81444Y33345D01*
X80295Y32869D01*
X79308Y32112D01*
X78550Y31125D01*
X78074Y29976D01*
X77912Y28742D01*
X77937D01*
Y24409D01*
X77912D01*
X78074Y23176D01*
X78550Y22027D01*
X79308Y21040D01*
X80295Y20283D01*
X81444Y19807D01*
X82677Y19644D01*
Y19670D01*
X90551D01*
X90562Y19672D01*
X92085Y19522D01*
X93560Y19074D01*
X94919Y18348D01*
X96110Y17370D01*
X97088Y16179D01*
X97815Y14820D01*
X98262Y13345D01*
X98413Y11811D01*
X98262Y10277D01*
X97815Y8802D01*
X97088Y7443D01*
X96110Y6252D01*
X94919Y5274D01*
X93560Y4548D01*
X92085Y4100D01*
X90562Y3950D01*
X90551Y3952D01*
X70320D01*
Y28366D01*
X70133Y28818D01*
X69681Y29005D01*
X62441D01*
Y33268D01*
X61774D01*
Y36181D01*
X61689Y36603D01*
X61450Y36961D01*
X57080Y41332D01*
X56966Y41408D01*
X57118Y41908D01*
X79385D01*
Y38015D01*
X79469Y37593D01*
X79708Y37235D01*
X81503Y35440D01*
X81861Y35201D01*
X82284Y35117D01*
X86221D01*
X86643Y35201D01*
X87001Y35440D01*
X88674Y37113D01*
X88913Y37471D01*
X88997Y37894D01*
Y38189D01*
X89764D01*
Y41035D01*
X89764Y41142D01*
Y41535D01*
X89764Y41642D01*
Y44488D01*
X89190D01*
Y47146D01*
X89122Y47491D01*
X88926Y47785D01*
X77804Y58906D01*
X77511Y59102D01*
X77165Y59171D01*
X57461D01*
X55037Y61594D01*
Y67716D01*
X61220D01*
Y72441D01*
X39173D01*
Y71183D01*
X31387D01*
X30963Y71358D01*
X30884D01*
X29021Y73221D01*
X28662Y73461D01*
X28240Y73545D01*
X27516D01*
X27345Y73800D01*
X27291Y73836D01*
X27266Y73897D01*
X27046Y74116D01*
X26986Y74141D01*
X26950Y74196D01*
X26692Y74368D01*
X26627Y74381D01*
X26581Y74427D01*
X26294Y74546D01*
X26229D01*
X26175Y74582D01*
X25870Y74643D01*
X25806Y74630D01*
X25746Y74655D01*
X25436D01*
X25375Y74630D01*
X25311Y74643D01*
X25006Y74582D01*
X24952Y74546D01*
X24887D01*
X24600Y74427D01*
X24554Y74381D01*
X24489Y74368D01*
X24232Y74196D01*
X24195Y74141D01*
X24135Y74116D01*
X23915Y73897D01*
X23890Y73836D01*
X23836Y73800D01*
X23663Y73542D01*
X23651Y73478D01*
X23604Y73431D01*
X23486Y73145D01*
Y73079D01*
X23449Y73025D01*
X23389Y72721D01*
X23402Y72657D01*
X23377Y72596D01*
Y72286D01*
X23402Y72225D01*
X23389Y72161D01*
X23449Y71857D01*
X23486Y71802D01*
Y71737D01*
X23604Y71450D01*
X23651Y71404D01*
X23663Y71340D01*
X23836Y71082D01*
X23890Y71046D01*
X23915Y70985D01*
X24135Y70766D01*
X24195Y70741D01*
X24232Y70686D01*
X24489Y70514D01*
X24554Y70501D01*
X24600Y70455D01*
X24887Y70336D01*
X24952D01*
X25006Y70300D01*
X25311Y70239D01*
X25375Y70252D01*
X25436Y70227D01*
X25746D01*
X25806Y70252D01*
X25870Y70239D01*
X26175Y70300D01*
X26229Y70336D01*
X26294D01*
X26581Y70455D01*
X26627Y70501D01*
X26692Y70514D01*
X26950Y70686D01*
X26986Y70741D01*
X27046Y70766D01*
X27266Y70985D01*
X27291Y71046D01*
X27345Y71082D01*
X27372Y71122D01*
X27953Y71167D01*
X29524Y69596D01*
X29624Y69354D01*
X29984Y68994D01*
X30454Y68799D01*
X30963D01*
X31387Y68975D01*
X36136D01*
X36304Y68475D01*
X36056Y68226D01*
X27613D01*
X27577Y68313D01*
X27530Y68360D01*
X27518Y68424D01*
X27345Y68682D01*
X27291Y68718D01*
X27266Y68779D01*
X27046Y68998D01*
X26986Y69023D01*
X26950Y69077D01*
X26692Y69250D01*
X26627Y69263D01*
X26581Y69309D01*
X26294Y69428D01*
X26229D01*
X26175Y69464D01*
X25870Y69525D01*
X25806Y69512D01*
X25746Y69537D01*
X25436D01*
X25375Y69512D01*
X25311Y69525D01*
X25006Y69464D01*
X24952Y69428D01*
X24887D01*
X24600Y69309D01*
X24554Y69263D01*
X24489Y69250D01*
X24232Y69077D01*
X24195Y69023D01*
X24135Y68998D01*
X23915Y68779D01*
X23890Y68718D01*
X23836Y68682D01*
X23663Y68424D01*
X23651Y68360D01*
X23604Y68313D01*
X23486Y68027D01*
Y67961D01*
X23449Y67907D01*
X23389Y67603D01*
X23402Y67538D01*
X23377Y67478D01*
Y67168D01*
X23402Y67107D01*
X23389Y67043D01*
X23449Y66739D01*
X23486Y66684D01*
Y66619D01*
X23604Y66332D01*
X23651Y66286D01*
X23663Y66222D01*
X23836Y65964D01*
X23890Y65927D01*
X23915Y65867D01*
X24135Y65648D01*
X24195Y65623D01*
X24232Y65568D01*
X24489Y65396D01*
X24554Y65383D01*
X24600Y65337D01*
X24887Y65218D01*
X24952D01*
X25006Y65182D01*
X25311Y65121D01*
X25375Y65134D01*
X25436Y65109D01*
X25746D01*
X25806Y65134D01*
X25870Y65121D01*
X26175Y65182D01*
X26229Y65218D01*
X26294D01*
X26581Y65337D01*
X26627Y65383D01*
X26692Y65396D01*
X26950Y65568D01*
X26986Y65623D01*
X27046Y65648D01*
X27266Y65867D01*
X27291Y65927D01*
X27345Y65964D01*
X27518Y66222D01*
X27530Y66286D01*
X27577Y66332D01*
X27613Y66420D01*
X36101D01*
X36283Y66238D01*
X36753Y66043D01*
X37262D01*
X37733Y66238D01*
X38093Y66598D01*
X38287Y67068D01*
Y67577D01*
X38093Y68048D01*
X37733Y68408D01*
X37570Y68475D01*
X37670Y68975D01*
X39173D01*
Y67716D01*
X49294D01*
Y64351D01*
X47264Y62321D01*
X30315D01*
X29969Y62252D01*
X29676Y62056D01*
X29676Y62056D01*
X23248Y55628D01*
X21654D01*
Y75787D01*
X11466D01*
X11275Y76249D01*
X15418Y80392D01*
X27496D01*
X33865Y74023D01*
X34223Y73783D01*
X34646Y73699D01*
X68110D01*
X68533Y73783D01*
X68891Y74023D01*
X72828Y77960D01*
X73067Y78318D01*
X73151Y78740D01*
Y85148D01*
X73327Y85572D01*
Y86081D01*
X73132Y86552D01*
X72772Y86911D01*
X72302Y87106D01*
X71793D01*
X71323Y86911D01*
X70963Y86552D01*
X70768Y86081D01*
Y85572D01*
X70943Y85148D01*
Y79197D01*
X67653Y75907D01*
X35103D01*
X28733Y82277D01*
X28375Y82516D01*
X27953Y82600D01*
X14961D01*
X14538Y82516D01*
X14180Y82277D01*
X7691Y75787D01*
X3952D01*
Y79921D01*
X3952Y79923D01*
X3952Y79926D01*
X3891Y80233D01*
X3717Y80493D01*
X3457Y80667D01*
X3168Y80725D01*
X3168Y80741D01*
X1813Y80874D01*
X338Y81322D01*
X-1021Y82048D01*
X-2213Y83026D01*
X-3190Y84217D01*
X-3917Y85576D01*
X-4364Y87051D01*
X-4515Y88585D01*
X-4364Y90119D01*
X-3917Y91593D01*
X-3190Y92953D01*
X-2213Y94144D01*
X-1021Y95122D01*
X338Y95848D01*
X1813Y96296D01*
X3168Y96429D01*
X3168Y96429D01*
Y96429D01*
X3176Y96437D01*
X23622D01*
Y96412D01*
X24855Y96574D01*
X26005Y97050D01*
X26992Y97807D01*
X27530Y98509D01*
X28030Y98339D01*
Y94552D01*
X21648Y88170D01*
X21271Y88014D01*
X19251D01*
X18897Y88367D01*
Y88779D01*
X18897Y88886D01*
Y91732D01*
X15945D01*
Y88886D01*
X15787Y88583D01*
X15591Y88387D01*
X15445Y88387D01*
X12599D01*
Y85434D01*
X15445D01*
X15945Y85433D01*
X16051Y85433D01*
X18897D01*
Y85806D01*
X21271D01*
X21695Y85630D01*
X22204D01*
X22674Y85825D01*
X23034Y86185D01*
X23209Y86609D01*
X29914Y93314D01*
X30154Y93672D01*
X30238Y94095D01*
Y113069D01*
X34898D01*
X34927Y113048D01*
X35085Y112852D01*
X35142Y112580D01*
X34843Y111857D01*
Y111730D01*
X34794Y111612D01*
Y111221D01*
Y85630D01*
Y85238D01*
X34843Y85121D01*
Y84994D01*
X35142Y84270D01*
X35232Y84180D01*
X35281Y84063D01*
X35835Y83509D01*
X35952Y83460D01*
X36042Y83371D01*
X36765Y83071D01*
X36893D01*
X37010Y83022D01*
X65352D01*
X65470Y83071D01*
X65597D01*
X66320Y83371D01*
X66410Y83460D01*
X66528Y83509D01*
X67081Y84063D01*
X67130Y84180D01*
X67220Y84270D01*
X67520Y84994D01*
Y85121D01*
X67568Y85238D01*
Y85630D01*
Y111221D01*
Y111612D01*
X67520Y111730D01*
Y111857D01*
X67220Y112580D01*
X67130Y112670D01*
X67081Y112787D01*
X66528Y113341D01*
X66410Y113390D01*
X66320Y113480D01*
X65597Y113779D01*
X65470D01*
X65352Y113828D01*
X37010D01*
X36893Y113779D01*
X36672Y114224D01*
X36669Y114242D01*
X41796Y119369D01*
X57480D01*
X57903Y119453D01*
X58261Y119692D01*
X65741Y127172D01*
X65980Y127530D01*
X66065Y127953D01*
Y137510D01*
X66240Y137935D01*
Y138444D01*
X66045Y138914D01*
X65685Y139274D01*
X65215Y139469D01*
X64706D01*
X64236Y139274D01*
X63876Y138914D01*
X63681Y138444D01*
Y137935D01*
X63857Y137510D01*
Y128410D01*
X57023Y121576D01*
X41339D01*
X40916Y121492D01*
X40558Y121253D01*
X35736Y116431D01*
X35236Y116639D01*
Y121931D01*
X38369D01*
X38715Y122000D01*
X39008Y122196D01*
X39155Y122343D01*
X39625D01*
X40095Y122537D01*
X40455Y122897D01*
X40650Y123368D01*
Y123877D01*
X40455Y124347D01*
X40095Y124707D01*
X39625Y124902D01*
X39116D01*
X38645Y124707D01*
X38285Y124347D01*
X38091Y123877D01*
Y123833D01*
X37995Y123738D01*
X35236D01*
Y124500D01*
X35236Y125000D01*
X35236D01*
Y125000D01*
X35236D01*
Y129330D01*
Y133252D01*
X35736Y133459D01*
X38091Y131105D01*
Y130848D01*
X38285Y130378D01*
X38645Y130018D01*
X39116Y129823D01*
X39625D01*
X40095Y130018D01*
X40455Y130378D01*
X40650Y130848D01*
Y131357D01*
X40455Y131827D01*
X40095Y132187D01*
X39625Y132382D01*
X39368D01*
X36563Y135187D01*
X36270Y135382D01*
X35925Y135451D01*
X35236D01*
Y137975D01*
X36913D01*
X38091Y136797D01*
Y136753D01*
X38285Y136283D01*
X38645Y135923D01*
X39116Y135728D01*
X39625D01*
X40095Y135923D01*
X40455Y136283D01*
X40650Y136753D01*
Y137262D01*
X40455Y137733D01*
X40095Y138093D01*
X39625Y138287D01*
X39155D01*
X37926Y139516D01*
X37633Y139712D01*
X37287Y139781D01*
X35236D01*
X35236Y142323D01*
X35236Y142823D01*
Y146653D01*
Y150984D01*
X28150D01*
Y150116D01*
X27244D01*
Y150591D01*
X23937D01*
Y147835D01*
X27244D01*
Y148309D01*
X28150D01*
Y146653D01*
Y142823D01*
X28150Y142323D01*
X28150Y141823D01*
Y139679D01*
X27650Y139520D01*
X26992Y140377D01*
X26005Y141135D01*
X24855Y141611D01*
X23622Y141773D01*
Y141748D01*
X11811D01*
X11800Y141745D01*
X10277Y141895D01*
X8802Y142343D01*
X7443Y143069D01*
X6252Y144047D01*
X5274Y145238D01*
X4548Y146598D01*
X4100Y148073D01*
X3949Y149606D01*
X4100Y151140D01*
X4548Y152615D01*
X5274Y153974D01*
X6252Y155166D01*
X7443Y156143D01*
X8802Y156870D01*
X10277Y157317D01*
X11800Y157467D01*
X11811Y157465D01*
D02*
G37*
G36*
X27837Y54199D02*
Y38169D01*
X26791Y37124D01*
X16122D01*
X15555Y37691D01*
X15551Y38189D01*
X15551D01*
Y41035D01*
X15709Y41338D01*
X15905Y41534D01*
X16051Y41534D01*
X18897D01*
Y44487D01*
X16051D01*
X15551Y44488D01*
X15445Y44488D01*
X12599D01*
Y41642D01*
X12599Y41535D01*
Y41142D01*
X12599Y41035D01*
Y38189D01*
X13270D01*
Y37795D01*
X13339Y37450D01*
X13535Y37157D01*
X15109Y35582D01*
X15402Y35386D01*
X15748Y35317D01*
X15748Y35317D01*
X27165D01*
X27511Y35386D01*
X27804Y35582D01*
X29023Y36801D01*
X29447Y36518D01*
X29429Y36475D01*
Y35966D01*
X29624Y35496D01*
X29984Y35136D01*
X30454Y34941D01*
X30963D01*
X31433Y35136D01*
X31793Y35496D01*
X31969Y35920D01*
X37957Y41908D01*
X44851D01*
X45002Y41408D01*
X44889Y41332D01*
X40912Y37355D01*
X40673Y36997D01*
X40589Y36575D01*
Y33268D01*
X39921D01*
Y29005D01*
X32681D01*
X32229Y28818D01*
X32042Y28366D01*
Y3952D01*
X11811D01*
X11800Y3950D01*
X10277Y4100D01*
X8802Y4548D01*
X7443Y5274D01*
X6252Y6252D01*
X5274Y7443D01*
X4548Y8802D01*
X4100Y10277D01*
X3949Y11811D01*
X4100Y13345D01*
X4548Y14820D01*
X5274Y16179D01*
X6252Y17370D01*
X7443Y18348D01*
X8802Y19074D01*
X10277Y19522D01*
X11793Y19671D01*
X11811Y19667D01*
X19685D01*
Y19642D01*
X20918Y19804D01*
X22068Y20280D01*
X23054Y21038D01*
X23812Y22025D01*
X24288Y23174D01*
X24450Y24407D01*
X24425D01*
Y28740D01*
X24450D01*
X24288Y29974D01*
X23812Y31123D01*
X23054Y32110D01*
X22068Y32867D01*
X20918Y33343D01*
X19685Y33505D01*
Y33480D01*
X3668D01*
X3168Y33499D01*
Y33499D01*
X3168Y33499D01*
X1813Y33632D01*
X338Y34080D01*
X-1021Y34806D01*
X-2213Y35784D01*
X-3190Y36975D01*
X-3917Y38334D01*
X-4364Y39809D01*
X-4515Y41343D01*
X-4364Y42877D01*
X-3917Y44352D01*
X-3190Y45711D01*
X-2213Y46902D01*
X-1021Y47880D01*
X338Y48607D01*
X1813Y49054D01*
X3168Y49187D01*
X3168Y49201D01*
X3457Y49258D01*
X3717Y49432D01*
X3891Y49693D01*
X3952Y50000D01*
Y54134D01*
X8702D01*
X8758Y54000D01*
X9118Y53640D01*
X9172Y53617D01*
Y53076D01*
X9118Y53053D01*
X8758Y52693D01*
X8563Y52223D01*
Y51714D01*
X8758Y51244D01*
X9118Y50884D01*
X9588Y50689D01*
X10097D01*
X10567Y50884D01*
X10749Y51065D01*
X23622D01*
X23968Y51134D01*
X24261Y51330D01*
X27337Y54406D01*
X27837Y54199D01*
D02*
G37*
G36*
X87384Y46772D02*
Y44488D01*
X86811D01*
Y41642D01*
X86653Y41339D01*
X86457Y41143D01*
X86311Y41143D01*
X83465D01*
Y38190D01*
X85922D01*
X86129Y37690D01*
X85763Y37324D01*
X82741D01*
X81592Y38473D01*
Y42515D01*
X81693Y42757D01*
Y43266D01*
X81498Y43736D01*
X81138Y44096D01*
X80668Y44291D01*
X80159D01*
X79735Y44115D01*
X47285D01*
Y47401D01*
X47701Y47512D01*
X48599Y48031D01*
X49332Y48764D01*
X49850Y49661D01*
X50118Y50663D01*
Y51699D01*
X49850Y52701D01*
X49332Y53598D01*
X48599Y54331D01*
X47701Y54850D01*
X46699Y55118D01*
X45663D01*
X44662Y54850D01*
X43764Y54331D01*
X43031Y53598D01*
X42512Y52701D01*
X42244Y51699D01*
Y50663D01*
X42512Y49661D01*
X43031Y48764D01*
X43764Y48031D01*
X44662Y47512D01*
X45077Y47401D01*
Y44115D01*
X37500D01*
X37077Y44031D01*
X36719Y43792D01*
X30408Y37481D01*
X30053Y37334D01*
X29811Y37462D01*
X29613Y37641D01*
X29643Y37795D01*
X29643Y37795D01*
Y54350D01*
X32658Y57364D01*
X50919D01*
X51010Y57278D01*
X51218Y56880D01*
X51083Y56554D01*
Y56045D01*
X51278Y55574D01*
X51637Y55215D01*
X52108Y55020D01*
X52617D01*
X53087Y55215D01*
X53269Y55396D01*
X54768D01*
X54834Y54896D01*
X54662Y54850D01*
X53764Y54331D01*
X53031Y53598D01*
X52512Y52701D01*
X52244Y51699D01*
Y50663D01*
X52512Y49661D01*
X53031Y48764D01*
X53764Y48031D01*
X54662Y47512D01*
X55663Y47244D01*
X56699D01*
X57701Y47512D01*
X58599Y48031D01*
X59332Y48764D01*
X59850Y49661D01*
X60118Y50663D01*
Y51699D01*
X59850Y52701D01*
X59332Y53598D01*
X58599Y54331D01*
X57701Y54850D01*
X57528Y54896D01*
X57594Y55396D01*
X60689D01*
X62831Y53253D01*
X62512Y52701D01*
X62244Y51699D01*
Y50663D01*
X62512Y49661D01*
X63031Y48764D01*
X63764Y48031D01*
X64662Y47512D01*
X65663Y47244D01*
X66699D01*
X67701Y47512D01*
X68599Y48031D01*
X69332Y48764D01*
X69850Y49661D01*
X70118Y50663D01*
Y51699D01*
X69850Y52701D01*
X69332Y53598D01*
X68599Y54331D01*
X67701Y54850D01*
X66699Y55118D01*
X65663D01*
X64662Y54850D01*
X64109Y54531D01*
X61775Y56865D01*
X61835Y57156D01*
X61963Y57364D01*
X76791D01*
X87384Y46772D01*
D02*
G37*
%LPC*%
G36*
X74212Y155315D02*
X67126D01*
Y150984D01*
X74212D01*
Y155315D01*
D02*
G37*
G36*
X86418Y91732D02*
X86311Y91732D01*
X83465D01*
Y91360D01*
X81092D01*
X80668Y91535D01*
X80159D01*
X79688Y91340D01*
X79328Y90980D01*
X79134Y90510D01*
Y90001D01*
X79328Y89531D01*
X79385Y89475D01*
Y85653D01*
X79469Y85231D01*
X79708Y84873D01*
X82880Y81701D01*
X82673Y81201D01*
X82423D01*
X81952Y81006D01*
X81592Y80646D01*
X81398Y80176D01*
Y79667D01*
X81592Y79197D01*
X81774Y79015D01*
Y58780D01*
X81592Y58599D01*
X81398Y58128D01*
Y57620D01*
X81592Y57149D01*
X81952Y56789D01*
X82423Y56595D01*
X82932D01*
X83402Y56789D01*
X83762Y57149D01*
X83957Y57620D01*
Y58128D01*
X83762Y58599D01*
X83580Y58780D01*
Y79015D01*
X83762Y79197D01*
X83957Y79667D01*
Y79917D01*
X84457Y80124D01*
X93187Y71393D01*
Y61097D01*
X93012Y60673D01*
Y60164D01*
X93206Y59694D01*
X93566Y59334D01*
X94037Y59139D01*
X94546D01*
X95016Y59334D01*
X95376Y59694D01*
X95571Y60164D01*
Y60673D01*
X95395Y61097D01*
Y71851D01*
X95311Y72273D01*
X95072Y72631D01*
X81592Y86111D01*
Y89152D01*
X83111D01*
X83465Y88798D01*
Y88386D01*
X83465Y88279D01*
Y85433D01*
X86418D01*
Y88279D01*
X86575Y88582D01*
X86771Y88778D01*
X86918Y88778D01*
X89764D01*
Y91731D01*
X86916D01*
X86418Y91732D01*
D02*
G37*
G36*
X33719Y65847D02*
X33210D01*
X32740Y65652D01*
X32558Y65470D01*
X27953D01*
X27607Y65401D01*
X27314Y65206D01*
X26382Y64273D01*
X26294Y64310D01*
X26229D01*
X26175Y64346D01*
X25870Y64406D01*
X25806Y64394D01*
X25746Y64419D01*
X25436D01*
X25375Y64394D01*
X25311Y64406D01*
X25006Y64346D01*
X24952Y64310D01*
X24887D01*
X24600Y64191D01*
X24554Y64144D01*
X24489Y64132D01*
X24232Y63959D01*
X24195Y63905D01*
X24135Y63880D01*
X23915Y63661D01*
X23890Y63600D01*
X23836Y63564D01*
X23663Y63306D01*
X23651Y63242D01*
X23604Y63195D01*
X23486Y62909D01*
Y62843D01*
X23449Y62789D01*
X23389Y62485D01*
X23402Y62420D01*
X23377Y62360D01*
Y62050D01*
X23402Y61989D01*
X23389Y61925D01*
X23449Y61621D01*
X23486Y61566D01*
Y61501D01*
X23604Y61214D01*
X23651Y61168D01*
X23663Y61104D01*
X23836Y60846D01*
X23890Y60809D01*
X23915Y60749D01*
X24135Y60530D01*
X24195Y60504D01*
X24232Y60450D01*
X24489Y60278D01*
X24554Y60265D01*
X24600Y60219D01*
X24887Y60100D01*
X24952D01*
X25006Y60063D01*
X25311Y60003D01*
X25375Y60016D01*
X25436Y59991D01*
X25746D01*
X25806Y60016D01*
X25870Y60003D01*
X26175Y60063D01*
X26229Y60100D01*
X26294D01*
X26581Y60219D01*
X26627Y60265D01*
X26692Y60278D01*
X26950Y60450D01*
X26986Y60504D01*
X27046Y60530D01*
X27266Y60749D01*
X27291Y60809D01*
X27345Y60846D01*
X27518Y61104D01*
X27530Y61168D01*
X27577Y61214D01*
X27695Y61501D01*
Y61566D01*
X27732Y61621D01*
X27792Y61925D01*
X27779Y61989D01*
X27805Y62050D01*
Y62360D01*
X27779Y62420D01*
X27792Y62485D01*
X27732Y62789D01*
X27695Y62843D01*
Y62909D01*
X27659Y62996D01*
X28327Y63664D01*
X32558D01*
X32740Y63482D01*
X33210Y63287D01*
X33719D01*
X34189Y63482D01*
X34549Y63842D01*
X34744Y64312D01*
Y64821D01*
X34549Y65292D01*
X34189Y65652D01*
X33719Y65847D01*
D02*
G37*
%LPD*%
G36*
G01X27165Y67323D02*
G03X25591Y68898I-1575J0D01*
G03X24016Y67323I0J-1575D01*
G03X25591Y65748I1575J0D01*
G03X27165Y67323I0J1575D01*
D02*
G37*
G36*
G01Y77559D02*
G03X25591Y79134I-1575J0D01*
G03X24016Y77559I0J-1575D01*
G03X25591Y75984I1575J0D01*
G03X27165Y77559I0J1575D01*
D02*
G37*
G36*
G01Y72441D02*
G03X25591Y74016I-1575J0D01*
G03X24016Y72441I0J-1575D01*
G03X25591Y70866I1575J0D01*
G03X27165Y72441I0J1575D01*
D02*
G37*
G36*
G01Y62205D02*
G03X25591Y63779I-1575J0D01*
G03X24016Y62205I0J-1575D01*
G03X25591Y60630I1575J0D01*
G03X27165Y62205I0J1575D01*
D02*
G37*
D17*
X60039Y70079D02*
D03*
X58071D02*
D03*
X56102D02*
D03*
X42323D02*
D03*
X46260D02*
D03*
X44291D02*
D03*
X48228D02*
D03*
X50197D02*
D03*
X52165D02*
D03*
X54134D02*
D03*
X40354D02*
D03*
X62008D02*
D03*
D23*
X65945Y79528D02*
D03*
X36417Y79527D02*
D03*
D24*
X17421Y86910D02*
D03*
X14075Y86911D02*
D03*
X17421Y90256D02*
D03*
X14075D02*
D03*
X88287Y86910D02*
D03*
X84941D02*
D03*
X88287Y90255D02*
D03*
X84941Y90256D02*
D03*
Y43012D02*
D03*
X88287D02*
D03*
X84941Y39667D02*
D03*
X88287Y39666D02*
D03*
X17421D02*
D03*
X14075D02*
D03*
X17421Y43011D02*
D03*
X14075Y43012D02*
D03*
D42*
X52362Y56299D02*
X61063D01*
X27165Y67323D02*
X37008D01*
X25591D02*
X27165D01*
X26704Y63318D02*
X27953Y64567D01*
X25591Y62205D02*
X26704Y63318D01*
X27953Y64567D02*
X33465D01*
X28740Y54724D02*
X32283Y58268D01*
X28740Y37795D02*
Y54724D01*
X27165Y36220D02*
X28740Y37795D01*
X25591Y149213D02*
X31299D01*
X31693Y148818D01*
X39157Y123622D02*
X39370D01*
X31693Y122834D02*
X38369D01*
X39157Y123622D01*
X30315Y61417D02*
X47638D01*
X23622Y54724D02*
X30315Y61417D01*
X9843Y54724D02*
X23622D01*
Y51968D02*
X31496Y59842D01*
X9843Y51968D02*
X23622D01*
X31496Y59842D02*
X49606D01*
X52165Y62401D02*
Y70079D01*
X49606Y59842D02*
X52165Y62401D01*
X47638Y61417D02*
X50197Y63977D01*
Y70079D01*
X54134Y61220D02*
Y70079D01*
X51182Y58268D02*
X54134Y61220D01*
X32283Y58268D02*
X51182D01*
X54134Y61220D02*
X57087Y58268D01*
X82677Y57874D02*
Y79921D01*
X15748Y36220D02*
X27165D01*
X61063Y56299D02*
X66181Y51181D01*
X57087Y58268D02*
X77165D01*
X31693Y135827D02*
X32973Y134548D01*
X35925D01*
X39370Y131102D01*
X37287Y138878D02*
X39157Y137008D01*
X31693Y140157D02*
X32973Y138878D01*
X37287D01*
X39157Y137008D02*
X39370D01*
X77165Y58268D02*
X88287Y47146D01*
Y43012D02*
Y47146D01*
X14173Y37795D02*
Y39567D01*
Y37795D02*
X15748Y36220D01*
X14075Y39666D02*
X14173Y39567D01*
X54724Y38583D02*
X56103Y37205D01*
X54724Y38583D02*
X54724D01*
X52264Y30393D02*
Y36122D01*
X52166Y30295D02*
X52264Y30393D01*
Y36122D02*
X52362Y36220D01*
X50098Y30387D02*
X50197Y30289D01*
X56103Y30906D02*
Y37205D01*
X44292Y35236D02*
X47638Y38583D01*
X44292Y30906D02*
Y35236D01*
X50000Y36220D02*
X52362Y38583D01*
Y38448D02*
Y38583D01*
X54134Y30289D02*
Y36676D01*
X52362Y38448D02*
X54134Y36676D01*
X48229D02*
X50000Y38448D01*
Y38583D01*
X48229Y30295D02*
Y36676D01*
X50098Y30387D02*
Y36122D01*
X50000Y36220D02*
X50098Y36122D01*
D43*
X27165Y72441D02*
X28240D01*
X25591D02*
X27165D01*
X28240D02*
X30602Y70079D01*
X30709D01*
X34646Y74803D02*
X68110D01*
X14961Y81496D02*
X27953D01*
X34646Y74803D01*
X6693Y73228D02*
X14961Y81496D01*
X72047Y78740D02*
Y85827D01*
X68110Y74803D02*
X72047Y78740D01*
X57480Y120472D02*
X64961Y127953D01*
Y138189D01*
X41339Y120472D02*
X57480D01*
X35039Y114173D02*
X41339Y120472D01*
X29134Y114173D02*
X35039D01*
X29134Y94095D02*
Y114173D01*
X21949Y86910D02*
X29134Y94095D01*
X17421Y86910D02*
X21949D01*
X80489Y85653D02*
X94291Y71851D01*
Y60419D02*
Y71851D01*
X80489Y85653D02*
Y90180D01*
X80413Y90256D02*
X80489Y90180D01*
X80413Y90256D02*
X84941D01*
X30709Y70079D02*
X40354D01*
X30709Y70079D02*
X30709Y70079D01*
X46063Y43012D02*
X80413D01*
X37500D02*
X46063D01*
X46181Y43130D01*
Y51181D01*
X30709Y36220D02*
X37500Y43012D01*
X80413D02*
X80489Y42936D01*
Y38015D02*
Y42936D01*
Y38015D02*
X82284Y36220D01*
X86221D01*
X87893Y37894D02*
Y39272D01*
X86221Y36220D02*
X87893Y37894D01*
Y39272D02*
X88287Y39666D01*
X60670Y30906D02*
Y36181D01*
Y30295D02*
Y30906D01*
X41693D02*
Y36575D01*
Y30295D02*
Y30906D01*
X56299Y40551D02*
X60670Y36181D01*
X45669Y40551D02*
X56299D01*
X41693Y36575D02*
X45669Y40551D01*
D44*
X73150Y11437D02*
D03*
X29213D02*
D03*
D45*
Y27185D02*
D03*
X73150D02*
D03*
D46*
X66181Y51181D02*
D03*
X56181D02*
D03*
X46181D02*
D03*
D47*
X36181D02*
D03*
D48*
X99016Y41339D02*
D03*
X3347D02*
D03*
X99016Y88583D02*
D03*
X3347D02*
D03*
X11811Y149606D02*
D03*
X90551D02*
D03*
X11811Y11811D02*
D03*
X90551D02*
D03*
D49*
X29232Y151969D02*
D03*
X9449Y78740D02*
D03*
X14961Y75984D02*
D03*
X11417Y50000D02*
D03*
X63779Y119291D02*
D03*
X61417D02*
D03*
X33465Y109449D02*
D03*
Y111811D02*
D03*
X49409Y130905D02*
D03*
X70669Y148819D02*
D03*
X73130Y147933D02*
D03*
X33858Y153150D02*
D03*
X88287Y86910D02*
D03*
X77067D02*
D03*
X65945Y79527D02*
D03*
X36417Y79528D02*
D03*
X17421Y39666D02*
D03*
X14075Y43012D02*
D03*
X25295D02*
D03*
X77067Y39666D02*
D03*
X84941Y43012D02*
D03*
X63819Y30906D02*
D03*
X38544D02*
D03*
X52362Y56299D02*
D03*
X37008Y67323D02*
D03*
X33465Y64567D02*
D03*
X6693Y73228D02*
D03*
X72047Y85827D02*
D03*
X64961Y138189D02*
D03*
X33858Y148819D02*
D03*
X21949Y86910D02*
D03*
X17421Y90256D02*
D03*
X14075Y86911D02*
D03*
X29134Y114173D02*
D03*
X39370Y123622D02*
D03*
X9843Y51968D02*
D03*
Y54724D02*
D03*
X84941Y86910D02*
D03*
X82677Y79921D02*
D03*
Y57874D02*
D03*
X88287Y90255D02*
D03*
X94291Y60419D02*
D03*
X80413Y90256D02*
D03*
X30709Y70079D02*
D03*
Y36220D02*
D03*
X80413Y43012D02*
D03*
X88287Y39666D02*
D03*
X39370Y131102D02*
D03*
Y137008D02*
D03*
X17421Y43011D02*
D03*
X84941Y39667D02*
D03*
X54724Y38583D02*
D03*
X52362D02*
D03*
Y36220D02*
D03*
X47638Y38583D02*
D03*
X60670Y30295D02*
D03*
X41693D02*
D03*
X50000Y38583D02*
D03*
Y36220D02*
D03*
D50*
X25591Y149213D02*
D03*
Y152362D02*
D03*
D51*
X38544Y30906D02*
D03*
X41693D02*
D03*
X60670D02*
D03*
X63819D02*
D03*
D52*
X58071D02*
D03*
X56103D02*
D03*
X54134D02*
D03*
X52166D02*
D03*
X50197D02*
D03*
X48229D02*
D03*
X46260D02*
D03*
X44292D02*
D03*
D53*
X31693Y148818D02*
D03*
Y144488D02*
D03*
Y140157D02*
D03*
Y135827D02*
D03*
Y131495D02*
D03*
Y127165D02*
D03*
Y122834D02*
D03*
Y118504D02*
D03*
Y153149D02*
D03*
X70669Y148819D02*
D03*
Y144488D02*
D03*
Y118504D02*
D03*
Y122834D02*
D03*
Y127165D02*
D03*
Y131496D02*
D03*
Y135826D02*
D03*
Y140157D02*
D03*
Y153149D02*
D03*
D54*
X49409Y130905D02*
D03*
M02*
