G04*
G04 #@! TF.GenerationSoftware,Altium Limited,Altium Designer,24.1.2 (44)*
G04*
G04 Layer_Color=16711935*
%FSLAX25Y25*%
%MOIN*%
G70*
G04*
G04 #@! TF.SameCoordinates,EC497B79-CED4-4E58-A43C-F9202C23BEB1*
G04*
G04*
G04 #@! TF.FilePolarity,Negative*
G04*
G01*
G75*
%ADD27R,0.01981X0.04343*%
%ADD34R,0.03162X0.05524*%
%ADD35R,0.02572X0.02572*%
%ADD36O,0.05524X0.10249*%
%ADD37O,0.05524X0.08674*%
%ADD38C,0.07493*%
%ADD39R,0.07493X0.07493*%
%ADD40C,0.12611*%
%ADD55R,0.02526X0.01975*%
%ADD56R,0.02762X0.03943*%
%ADD57R,0.01581X0.03943*%
%ADD58R,0.06706X0.03950*%
%ADD59R,0.16548X0.16548*%
G36*
X25784Y63973D02*
X26089Y63913D01*
X26126Y63902D01*
X26412Y63783D01*
X26412Y63783D01*
X26446Y63765D01*
X26704Y63592D01*
X26734Y63568D01*
X26734Y63568D01*
X26954Y63349D01*
X26978Y63319D01*
X26978Y63318D01*
X27151Y63061D01*
X27169Y63026D01*
X27169Y63026D01*
X27288Y62740D01*
X27299Y62703D01*
X27359Y62398D01*
X27363Y62360D01*
Y62205D01*
Y62050D01*
X27359Y62011D01*
X27299Y61707D01*
X27288Y61670D01*
X27169Y61383D01*
X27169Y61383D01*
X27151Y61349D01*
X26978Y61091D01*
X26954Y61061D01*
X26954Y61061D01*
X26734Y60842D01*
X26704Y60817D01*
X26704Y60817D01*
X26446Y60645D01*
X26412Y60626D01*
X26412Y60626D01*
X26126Y60508D01*
X26089Y60496D01*
X25784Y60436D01*
X25746Y60432D01*
X25436D01*
X25397Y60436D01*
X25093Y60496D01*
X25056Y60508D01*
X24769Y60626D01*
X24769Y60626D01*
X24735Y60645D01*
X24477Y60817D01*
X24447Y60842D01*
X24447Y60842D01*
X24227Y61061D01*
X24203Y61091D01*
X24203Y61091D01*
X24031Y61349D01*
X24012Y61383D01*
X24012Y61383D01*
X23893Y61670D01*
X23882Y61707D01*
X23822Y62011D01*
X23818Y62050D01*
Y62205D01*
Y62360D01*
X23822Y62398D01*
X23882Y62703D01*
X23893Y62740D01*
X24012Y63026D01*
X24012Y63026D01*
X24031Y63061D01*
X24203Y63319D01*
X24227Y63349D01*
X24227Y63349D01*
X24447Y63568D01*
X24477Y63592D01*
X24477Y63592D01*
X24735Y63765D01*
X24769Y63783D01*
X24769Y63783D01*
X25056Y63902D01*
X25093Y63913D01*
X25397Y63973D01*
X25436Y63977D01*
X25746D01*
X25784Y63973D01*
D02*
G37*
G36*
Y69092D02*
X26089Y69031D01*
X26126Y69020D01*
X26412Y68901D01*
X26412Y68901D01*
X26446Y68883D01*
X26704Y68711D01*
X26734Y68686D01*
X26734Y68686D01*
X26954Y68467D01*
X26978Y68437D01*
X26978Y68436D01*
X27151Y68179D01*
X27169Y68145D01*
X27169Y68144D01*
X27288Y67858D01*
X27299Y67821D01*
X27359Y67516D01*
X27363Y67478D01*
Y67323D01*
Y67168D01*
X27359Y67129D01*
X27299Y66825D01*
X27288Y66788D01*
X27169Y66501D01*
X27169Y66501D01*
X27151Y66467D01*
X26978Y66209D01*
X26954Y66179D01*
X26954Y66179D01*
X26734Y65960D01*
X26704Y65935D01*
X26704Y65935D01*
X26446Y65763D01*
X26412Y65745D01*
X26412Y65745D01*
X26126Y65626D01*
X26089Y65614D01*
X25784Y65554D01*
X25746Y65550D01*
X25436D01*
X25397Y65554D01*
X25093Y65614D01*
X25056Y65626D01*
X24769Y65745D01*
X24769Y65745D01*
X24735Y65763D01*
X24477Y65935D01*
X24447Y65960D01*
X24447Y65960D01*
X24227Y66179D01*
X24203Y66209D01*
X24203Y66209D01*
X24031Y66467D01*
X24012Y66501D01*
X24012Y66501D01*
X23893Y66788D01*
X23882Y66825D01*
X23822Y67129D01*
X23818Y67168D01*
Y67323D01*
Y67478D01*
X23822Y67516D01*
X23882Y67821D01*
X23893Y67858D01*
X24012Y68144D01*
X24012Y68145D01*
X24031Y68179D01*
X24203Y68437D01*
X24227Y68467D01*
X24227Y68467D01*
X24447Y68686D01*
X24477Y68711D01*
X24477Y68711D01*
X24735Y68883D01*
X24769Y68901D01*
X24769Y68901D01*
X25056Y69020D01*
X25093Y69031D01*
X25397Y69092D01*
X25436Y69095D01*
X25746D01*
X25784Y69092D01*
D02*
G37*
G36*
Y74210D02*
X26089Y74149D01*
X26126Y74138D01*
X26412Y74019D01*
X26412Y74019D01*
X26446Y74001D01*
X26704Y73829D01*
X26734Y73804D01*
X26734Y73804D01*
X26954Y73585D01*
X26978Y73555D01*
X26978Y73555D01*
X27151Y73297D01*
X27169Y73263D01*
X27169Y73263D01*
X27288Y72976D01*
X27299Y72939D01*
X27359Y72635D01*
X27363Y72596D01*
Y72441D01*
Y72286D01*
X27359Y72247D01*
X27299Y71943D01*
X27288Y71906D01*
X27169Y71619D01*
X27169Y71619D01*
X27151Y71585D01*
X26978Y71327D01*
X26954Y71297D01*
X26954Y71297D01*
X26734Y71078D01*
X26704Y71053D01*
X26704Y71053D01*
X26446Y70881D01*
X26412Y70863D01*
X26412Y70863D01*
X26126Y70744D01*
X26089Y70733D01*
X25784Y70672D01*
X25746Y70668D01*
X25436D01*
X25397Y70672D01*
X25093Y70733D01*
X25056Y70744D01*
X24769Y70863D01*
X24769Y70863D01*
X24735Y70881D01*
X24477Y71053D01*
X24447Y71078D01*
X24447Y71078D01*
X24227Y71297D01*
X24203Y71327D01*
X24203Y71327D01*
X24031Y71585D01*
X24012Y71619D01*
X24012Y71619D01*
X23893Y71906D01*
X23882Y71943D01*
X23822Y72247D01*
X23818Y72286D01*
Y72441D01*
Y72596D01*
X23822Y72635D01*
X23882Y72939D01*
X23893Y72976D01*
X24012Y73263D01*
X24012Y73263D01*
X24031Y73297D01*
X24203Y73555D01*
X24227Y73585D01*
X24227Y73585D01*
X24447Y73804D01*
X24477Y73829D01*
X24477Y73829D01*
X24735Y74001D01*
X24769Y74019D01*
X24769Y74019D01*
X25056Y74138D01*
X25093Y74149D01*
X25397Y74210D01*
X25436Y74213D01*
X25746D01*
X25784Y74210D01*
D02*
G37*
G36*
Y79328D02*
X26089Y79267D01*
X26126Y79256D01*
X26412Y79137D01*
X26412Y79137D01*
X26446Y79119D01*
X26704Y78947D01*
X26734Y78922D01*
X26734Y78922D01*
X26954Y78703D01*
X26978Y78673D01*
X26978Y78673D01*
X27151Y78415D01*
X27169Y78381D01*
X27169Y78381D01*
X27288Y78094D01*
X27299Y78057D01*
X27359Y77753D01*
X27363Y77714D01*
Y77559D01*
Y77404D01*
X27359Y77365D01*
X27299Y77061D01*
X27288Y77024D01*
X27169Y76737D01*
X27169Y76737D01*
X27151Y76703D01*
X26978Y76445D01*
X26954Y76415D01*
X26954Y76415D01*
X26734Y76196D01*
X26704Y76171D01*
X26704Y76171D01*
X26446Y75999D01*
X26412Y75981D01*
X26412Y75981D01*
X26126Y75862D01*
X26089Y75851D01*
X25784Y75790D01*
X25746Y75787D01*
X25436D01*
X25397Y75790D01*
X25093Y75851D01*
X25056Y75862D01*
X24769Y75981D01*
X24769Y75981D01*
X24735Y75999D01*
X24477Y76171D01*
X24447Y76196D01*
X24447Y76196D01*
X24227Y76415D01*
X24203Y76445D01*
X24203Y76445D01*
X24031Y76703D01*
X24012Y76737D01*
X24012Y76737D01*
X23893Y77024D01*
X23882Y77061D01*
X23822Y77365D01*
X23818Y77404D01*
Y77559D01*
Y77714D01*
X23822Y77753D01*
X23882Y78057D01*
X23893Y78094D01*
X24012Y78381D01*
X24012Y78381D01*
X24031Y78415D01*
X24203Y78673D01*
X24227Y78703D01*
X24227Y78703D01*
X24447Y78922D01*
X24477Y78947D01*
X24477Y78947D01*
X24735Y79119D01*
X24769Y79137D01*
X24769Y79137D01*
X25056Y79256D01*
X25093Y79267D01*
X25397Y79328D01*
X25436Y79332D01*
X25746D01*
X25784Y79328D01*
D02*
G37*
D27*
X60039Y70079D02*
D03*
X58071D02*
D03*
X56102D02*
D03*
X42323D02*
D03*
X46260D02*
D03*
X44291D02*
D03*
X48228D02*
D03*
X50197D02*
D03*
X52165D02*
D03*
X54134D02*
D03*
X40354D02*
D03*
X62008D02*
D03*
D34*
X65945Y79528D02*
D03*
X36417Y79527D02*
D03*
D35*
X17421Y86910D02*
D03*
X14075Y86911D02*
D03*
X17421Y90256D02*
D03*
X14075D02*
D03*
X88287Y86910D02*
D03*
X84941D02*
D03*
X88287Y90255D02*
D03*
X84941Y90256D02*
D03*
Y43012D02*
D03*
X88287D02*
D03*
X84941Y39667D02*
D03*
X88287Y39666D02*
D03*
X17421D02*
D03*
X14075D02*
D03*
X17421Y43011D02*
D03*
X14075Y43012D02*
D03*
D36*
X73150Y11437D02*
D03*
X29213D02*
D03*
D37*
Y27185D02*
D03*
X73150D02*
D03*
D38*
X66181Y51181D02*
D03*
X56181D02*
D03*
X46181D02*
D03*
D39*
X36181D02*
D03*
D40*
X99016Y41339D02*
D03*
X3347D02*
D03*
X99016Y88583D02*
D03*
X3347D02*
D03*
X11811Y149606D02*
D03*
X90551D02*
D03*
X11811Y11811D02*
D03*
X90551D02*
D03*
D55*
X25591Y149213D02*
D03*
Y152362D02*
D03*
D56*
X38544Y30906D02*
D03*
X41693D02*
D03*
X60670D02*
D03*
X63819D02*
D03*
D57*
X58071D02*
D03*
X56103D02*
D03*
X54134D02*
D03*
X52166D02*
D03*
X50197D02*
D03*
X48229D02*
D03*
X46260D02*
D03*
X44292D02*
D03*
D58*
X31693Y148818D02*
D03*
Y144488D02*
D03*
Y140157D02*
D03*
Y135827D02*
D03*
Y131495D02*
D03*
Y127165D02*
D03*
Y122834D02*
D03*
Y118504D02*
D03*
Y153149D02*
D03*
X70669Y148819D02*
D03*
Y144488D02*
D03*
Y118504D02*
D03*
Y122834D02*
D03*
Y127165D02*
D03*
Y131496D02*
D03*
Y135826D02*
D03*
Y140157D02*
D03*
Y153149D02*
D03*
D59*
X49409Y130905D02*
D03*
M02*
