M48
;Layer_Color=9474304
;FILE_FORMAT=2:4
INCH,TZ
;TYPE=PLATED
T01F00S00C0.0079
T03F00S00C0.0433
T04F00S00C0.0787
%
T01
X1742Y3967
Y4301
X1408Y4301
X1142Y5000
X984Y5197
Y5472
X669Y7323
X945Y7874
X1496Y7598
X1408Y8691
X1742Y9026
X2195Y8691
X3642Y7953
X3701Y6732
X3346Y6457
X3071Y7008
X2530Y4301
X3071Y3622
X3854Y3091
X4169Y3030
X4764Y3858
X5000
X5236
X5472
X5236Y3622
X5000
X6067Y3030
X6382Y3091
X7707Y3967
X8041Y4301
X8494
Y3967
X8829Y3967
X8268Y5787
X9429Y6042
X8268Y7992
X8494Y8691
X8829
Y9025
X8041Y9026
X7707Y8691
X7205Y8583
X6595Y7953
X5236Y5630
X3346Y10945
Y11181
X2913Y11417
X3937Y12362
Y13110
Y13701
X4941Y13091
X6496Y13819
X7067Y14882
X7313Y14793
X6378Y11929
X6142
X3386Y14882
Y15315
X2923Y15197
T03
X3618Y5118
X4618
X5618
X6618
T04
X1181Y1181
X335Y4134
Y8858
X1181Y14961
X9055
X9902Y8858
Y4134
X9055Y1181
M30
