G04*
G04 #@! TF.GenerationSoftware,Altium Limited,Altium Designer,24.1.2 (44)*
G04*
G04 Layer_Color=128*
%FSLAX25Y25*%
%MOIN*%
G70*
G04*
G04 #@! TF.SameCoordinates,EC497B79-CED4-4E58-A43C-F9202C23BEB1*
G04*
G04*
G04 #@! TF.FilePolarity,Positive*
G04*
G01*
G75*
%ADD10C,0.00500*%
D10*
X71870Y11437D02*
X74429D01*
X73150Y10158D02*
Y12717D01*
X27933Y11437D02*
X30492D01*
X29213Y10158D02*
Y12717D01*
X27933Y27185D02*
X30492D01*
X29213Y25906D02*
Y28465D01*
X71870Y27185D02*
X74429D01*
X73150Y25906D02*
Y28465D01*
X64016Y51181D02*
X68347D01*
X66181Y49016D02*
Y53347D01*
X54016Y51181D02*
X58346D01*
X56181Y49016D02*
Y53347D01*
X44016Y51181D02*
X48346D01*
X46181Y49016D02*
Y53347D01*
X34016Y51181D02*
X38346D01*
X36181Y49016D02*
Y53347D01*
X95079Y41339D02*
X102953D01*
X99016Y37402D02*
Y45276D01*
X-591Y41339D02*
X7283D01*
X3347Y37402D02*
Y45276D01*
X95079Y88583D02*
X102953D01*
X99016Y84646D02*
Y92520D01*
X-591Y88583D02*
X7283D01*
X3347Y84646D02*
Y92520D01*
X7874Y149606D02*
X15748D01*
X11811Y145669D02*
Y153543D01*
X86614Y149606D02*
X94488D01*
X90551Y145669D02*
Y153543D01*
X7874Y11811D02*
X15748D01*
X11811Y7874D02*
Y15748D01*
X86614Y11811D02*
X94488D01*
X90551Y7874D02*
Y15748D01*
X28838Y151969D02*
X29626D01*
X29232Y151575D02*
Y152362D01*
X9055Y78740D02*
X9843D01*
X9449Y78347D02*
Y79134D01*
X14567Y75984D02*
X15354D01*
X14961Y75590D02*
Y76378D01*
X11024Y50000D02*
X11811D01*
X11417Y49606D02*
Y50394D01*
X63386Y119291D02*
X64173D01*
X63779Y118898D02*
Y119685D01*
X61024Y119291D02*
X61811D01*
X61417Y118898D02*
Y119685D01*
X33071Y109449D02*
X33858D01*
X33465Y109055D02*
Y109843D01*
X33071Y111811D02*
X33858D01*
X33465Y111417D02*
Y112205D01*
X49015Y130905D02*
X49803D01*
X49409Y130512D02*
Y131299D01*
X70275Y148819D02*
X71063D01*
X70669Y148426D02*
Y149213D01*
X72737Y147933D02*
X73524D01*
X73130Y147540D02*
Y148327D01*
X33465Y153150D02*
X34252D01*
X33858Y152756D02*
Y153543D01*
X87893Y86910D02*
X88681D01*
X88287Y86516D02*
Y87303D01*
X76674Y86910D02*
X77461D01*
X77067Y86516D02*
Y87303D01*
X65551Y79527D02*
X66339D01*
X65945Y79133D02*
Y79920D01*
X36023Y79528D02*
X36811D01*
X36417Y79134D02*
Y79921D01*
X17027Y39666D02*
X17815D01*
X17421Y39272D02*
Y40059D01*
X13681Y43012D02*
X14469D01*
X14075Y42618D02*
Y43405D01*
X24901Y43012D02*
X25689D01*
X25295Y42618D02*
Y43405D01*
X76674Y39666D02*
X77461D01*
X77067Y39272D02*
Y40059D01*
X84548Y43012D02*
X85335D01*
X84941Y42618D02*
Y43405D01*
X63425Y30906D02*
X64212D01*
X63819Y30512D02*
Y31299D01*
X38150Y30906D02*
X38937D01*
X38544Y30512D02*
Y31299D01*
X51968Y56299D02*
X52756D01*
X52362Y55905D02*
Y56693D01*
X36614Y67323D02*
X37402D01*
X37008Y66929D02*
Y67716D01*
X33071Y64567D02*
X33858D01*
X33465Y64173D02*
Y64961D01*
X6299Y73228D02*
X7087D01*
X6693Y72835D02*
Y73622D01*
X71653Y85827D02*
X72441D01*
X72047Y85433D02*
Y86221D01*
X64567Y138189D02*
X65354D01*
X64961Y137795D02*
Y138583D01*
X33465Y148819D02*
X34252D01*
X33858Y148425D02*
Y149213D01*
X21555Y86910D02*
X22343D01*
X21949Y86516D02*
Y87303D01*
X17027Y90256D02*
X17815D01*
X17421Y89862D02*
Y90649D01*
X13681Y86911D02*
X14469D01*
X14075Y86517D02*
Y87304D01*
X28740Y114173D02*
X29528D01*
X29134Y113779D02*
Y114567D01*
X38976Y123622D02*
X39764D01*
X39370Y123228D02*
Y124016D01*
X9449Y51968D02*
X10236D01*
X9843Y51575D02*
Y52362D01*
X9449Y54724D02*
X10236D01*
X9843Y54331D02*
Y55118D01*
X84548Y86910D02*
X85335D01*
X84941Y86516D02*
Y87303D01*
X82284Y79921D02*
X83071D01*
X82677Y79528D02*
Y80315D01*
X82284Y57874D02*
X83071D01*
X82677Y57480D02*
Y58268D01*
X87893Y90255D02*
X88681D01*
X88287Y89861D02*
Y90648D01*
X93897Y60419D02*
X94685D01*
X94291Y60025D02*
Y60812D01*
X80019Y90256D02*
X80807D01*
X80413Y89862D02*
Y90649D01*
X30315Y70079D02*
X31102D01*
X30709Y69685D02*
Y70472D01*
X30315Y36220D02*
X31102D01*
X30709Y35827D02*
Y36614D01*
X80019Y43012D02*
X80807D01*
X80413Y42618D02*
Y43405D01*
X87893Y39666D02*
X88681D01*
X88287Y39272D02*
Y40059D01*
X38976Y131102D02*
X39764D01*
X39370Y130709D02*
Y131496D01*
X38976Y137008D02*
X39764D01*
X39370Y136614D02*
Y137402D01*
X17027Y43011D02*
X17815D01*
X17421Y42617D02*
Y43404D01*
X84548Y39667D02*
X85335D01*
X84941Y39273D02*
Y40060D01*
X54331Y38583D02*
X55118D01*
X54724Y38189D02*
Y38976D01*
X51968Y38583D02*
X52756D01*
X52362Y38189D02*
Y38976D01*
X51968Y36220D02*
X52756D01*
X52362Y35827D02*
Y36614D01*
X47244Y38583D02*
X48031D01*
X47638Y38189D02*
Y38976D01*
X60276Y30295D02*
X61063D01*
X60670Y29901D02*
Y30689D01*
X41299Y30295D02*
X42086D01*
X41693Y29901D02*
Y30689D01*
X49606Y38583D02*
X50394D01*
X50000Y38189D02*
Y38976D01*
X49606Y36220D02*
X50394D01*
X50000Y35827D02*
Y36614D01*
M02*
