G04*
G04 #@! TF.GenerationSoftware,Altium Limited,Altium Designer,24.1.2 (44)*
G04*
G04 Layer_Color=8388736*
%FSLAX25Y25*%
%MOIN*%
G70*
G04*
G04 #@! TF.SameCoordinates,8AA45DA3-EFE9-42F3-ADE2-6CCF78DF1A05*
G04*
G04*
G04 #@! TF.FilePolarity,Negative*
G04*
G01*
G75*
%ADD40R,0.03937X0.02362*%
%ADD41R,0.03937X0.01968*%
%ADD42R,0.03150X0.02441*%
%ADD43R,0.04449X0.02205*%
%ADD44R,0.02362X0.03150*%
%ADD45R,0.10630X0.02756*%
%ADD46R,0.10630X0.04724*%
%ADD47R,0.05343X0.02717*%
%ADD48R,0.05413X0.02717*%
%ADD49R,0.04331X0.02559*%
G04:AMPARAMS|DCode=50|XSize=22.21mil|YSize=27.56mil|CornerRadius=7.52mil|HoleSize=0mil|Usage=FLASHONLY|Rotation=90.000|XOffset=0mil|YOffset=0mil|HoleType=Round|Shape=RoundedRectangle|*
%AMROUNDEDRECTD50*
21,1,0.02221,0.01252,0,0,90.0*
21,1,0.00717,0.02756,0,0,90.0*
1,1,0.01504,0.00626,0.00358*
1,1,0.01504,0.00626,-0.00358*
1,1,0.01504,-0.00626,-0.00358*
1,1,0.01504,-0.00626,0.00358*
%
%ADD50ROUNDEDRECTD50*%
%ADD51R,0.03937X0.01772*%
%ADD52R,0.01772X0.03937*%
%ADD53R,0.10433X0.10433*%
%ADD54R,0.01496X0.03012*%
%ADD55R,0.03012X0.01496*%
%ADD56R,0.03150X0.05512*%
%ADD57R,0.01968X0.04331*%
%ADD58R,0.01593X0.01676*%
%ADD59R,0.01676X0.01851*%
%ADD60R,0.05715X0.04337*%
%ADD61R,0.01975X0.02526*%
%ADD62R,0.04724X0.04331*%
%ADD63R,0.01851X0.01676*%
%ADD64R,0.04337X0.05715*%
%ADD65R,0.01676X0.01593*%
%ADD66R,0.01890X0.03445*%
%ADD67R,0.03445X0.01890*%
%ADD68C,0.01660*%
%ADD69R,0.02526X0.01975*%
%ADD70R,0.03543X0.04331*%
G04:AMPARAMS|DCode=71|XSize=94.49mil|YSize=86.61mil|CornerRadius=23.62mil|HoleSize=0mil|Usage=FLASHONLY|Rotation=0.000|XOffset=0mil|YOffset=0mil|HoleType=Round|Shape=RoundedRectangle|*
%AMROUNDEDRECTD71*
21,1,0.09449,0.03937,0,0,0.0*
21,1,0.04724,0.08661,0,0,0.0*
1,1,0.04724,0.02362,-0.01968*
1,1,0.04724,-0.02362,-0.01968*
1,1,0.04724,-0.02362,0.01968*
1,1,0.04724,0.02362,0.01968*
%
%ADD71ROUNDEDRECTD71*%
%ADD72C,0.12598*%
G04:AMPARAMS|DCode=73|XSize=82.68mil|YSize=66.93mil|CornerRadius=18.7mil|HoleSize=0mil|Usage=FLASHONLY|Rotation=0.000|XOffset=0mil|YOffset=0mil|HoleType=Round|Shape=RoundedRectangle|*
%AMROUNDEDRECTD73*
21,1,0.08268,0.02953,0,0,0.0*
21,1,0.04528,0.06693,0,0,0.0*
1,1,0.03740,0.02264,-0.01476*
1,1,0.03740,-0.02264,-0.01476*
1,1,0.03740,-0.02264,0.01476*
1,1,0.03740,0.02264,0.01476*
%
%ADD73ROUNDEDRECTD73*%
D40*
X6594Y89173D02*
D03*
X6595Y102953D02*
D03*
D41*
X16240Y99016D02*
D03*
Y97047D02*
D03*
Y95079D02*
D03*
Y93110D02*
D03*
D42*
X54528Y104921D02*
D03*
Y102362D02*
D03*
Y99803D02*
D03*
X62008D02*
D03*
Y102362D02*
D03*
Y104921D02*
D03*
D43*
X72303Y137795D02*
D03*
X77303D02*
D03*
Y125984D02*
D03*
X72303D02*
D03*
Y114173D02*
D03*
X77303D02*
D03*
X25059Y23622D02*
D03*
X30059D02*
D03*
Y35433D02*
D03*
X25059D02*
D03*
Y47244D02*
D03*
X30059D02*
D03*
Y108268D02*
D03*
X25059D02*
D03*
Y120079D02*
D03*
X30059D02*
D03*
Y131890D02*
D03*
X25059D02*
D03*
X77303Y53150D02*
D03*
X72303D02*
D03*
Y41339D02*
D03*
X77303D02*
D03*
Y29528D02*
D03*
X72303D02*
D03*
D44*
X82776Y127165D02*
D03*
X85335D02*
D03*
X87894D02*
D03*
X90453D02*
D03*
Y138976D02*
D03*
X87894D02*
D03*
X85335D02*
D03*
X82776D02*
D03*
Y118504D02*
D03*
X85335D02*
D03*
X87894D02*
D03*
X90453D02*
D03*
Y106693D02*
D03*
X87894D02*
D03*
X85335D02*
D03*
X82776D02*
D03*
Y42913D02*
D03*
X85335D02*
D03*
X87894D02*
D03*
X90453D02*
D03*
Y31102D02*
D03*
X87894D02*
D03*
X85335D02*
D03*
X82776D02*
D03*
X19587Y22441D02*
D03*
X17028D02*
D03*
X14469D02*
D03*
X11909D02*
D03*
Y34252D02*
D03*
X14469D02*
D03*
X17028D02*
D03*
X19587D02*
D03*
Y54724D02*
D03*
X17028D02*
D03*
X14469D02*
D03*
X11909D02*
D03*
Y42913D02*
D03*
X14469D02*
D03*
X17028D02*
D03*
X19587D02*
D03*
Y118504D02*
D03*
X17028D02*
D03*
X14469D02*
D03*
X11909D02*
D03*
Y130315D02*
D03*
X14469D02*
D03*
X17028D02*
D03*
X19587D02*
D03*
D45*
X86615Y130433D02*
D03*
Y109961D02*
D03*
Y34370D02*
D03*
X15747Y30984D02*
D03*
Y51456D02*
D03*
Y127047D02*
D03*
D46*
X86615Y134725D02*
D03*
Y114253D02*
D03*
Y38662D02*
D03*
X15747Y26692D02*
D03*
Y47164D02*
D03*
Y122755D02*
D03*
D47*
X10419Y84842D02*
D03*
Y81102D02*
D03*
Y77362D02*
D03*
Y63583D02*
D03*
Y67323D02*
D03*
Y71063D02*
D03*
D48*
X19503Y77362D02*
D03*
Y84842D02*
D03*
Y71063D02*
D03*
Y63583D02*
D03*
D49*
X72599Y91437D02*
D03*
Y93996D02*
D03*
Y96555D02*
D03*
Y99114D02*
D03*
X82520D02*
D03*
Y96555D02*
D03*
Y93996D02*
D03*
Y91437D02*
D03*
X69055Y69980D02*
D03*
Y67421D02*
D03*
Y64862D02*
D03*
Y62303D02*
D03*
X78976D02*
D03*
Y64862D02*
D03*
Y67421D02*
D03*
Y69980D02*
D03*
D50*
X73425Y82185D02*
D03*
X69882Y84744D02*
D03*
Y82185D02*
D03*
X73425Y84744D02*
D03*
D51*
X63327Y10827D02*
D03*
X78405D02*
D03*
X39035D02*
D03*
X23957D02*
D03*
D52*
X64969Y6103D02*
D03*
X66937D02*
D03*
X68906D02*
D03*
X70874D02*
D03*
X72843D02*
D03*
X74811D02*
D03*
X76780D02*
D03*
Y15551D02*
D03*
X74811D02*
D03*
X72843D02*
D03*
X70874D02*
D03*
X68906D02*
D03*
X66937D02*
D03*
X64969D02*
D03*
X25599D02*
D03*
X27567D02*
D03*
X29536D02*
D03*
X31504D02*
D03*
X33473D02*
D03*
X35441D02*
D03*
X37410D02*
D03*
Y6103D02*
D03*
X35441D02*
D03*
X33473D02*
D03*
X31504D02*
D03*
X29536D02*
D03*
X27567D02*
D03*
X25599D02*
D03*
D53*
X60630Y124016D02*
D03*
X41732Y37402D02*
D03*
Y122047D02*
D03*
X60630Y39370D02*
D03*
D54*
X55709Y131526D02*
D03*
X57677D02*
D03*
X59646D02*
D03*
X61614D02*
D03*
X63583D02*
D03*
X65551D02*
D03*
Y116506D02*
D03*
X63583D02*
D03*
X61614D02*
D03*
X59646D02*
D03*
X57677D02*
D03*
X55709D02*
D03*
X46653Y44912D02*
D03*
X44685D02*
D03*
X42716D02*
D03*
X40748D02*
D03*
X38779D02*
D03*
X36811D02*
D03*
Y29892D02*
D03*
X38779D02*
D03*
X40748D02*
D03*
X42716D02*
D03*
X44685D02*
D03*
X46653D02*
D03*
Y114537D02*
D03*
X44685D02*
D03*
X42716D02*
D03*
X40748D02*
D03*
X38779D02*
D03*
X36811D02*
D03*
Y129557D02*
D03*
X38779D02*
D03*
X40748D02*
D03*
X42716D02*
D03*
X44685D02*
D03*
X46653D02*
D03*
X55709Y31860D02*
D03*
X57677D02*
D03*
X59646D02*
D03*
X61614D02*
D03*
X63583D02*
D03*
X65551D02*
D03*
Y46880D02*
D03*
X63583D02*
D03*
X61614D02*
D03*
X59646D02*
D03*
X57677D02*
D03*
X55709D02*
D03*
D55*
X68140Y128937D02*
D03*
Y126969D02*
D03*
Y125000D02*
D03*
Y123032D02*
D03*
Y121063D02*
D03*
Y119095D02*
D03*
X53120D02*
D03*
Y121063D02*
D03*
Y123032D02*
D03*
Y125000D02*
D03*
Y126969D02*
D03*
Y128937D02*
D03*
X49242Y32481D02*
D03*
Y34449D02*
D03*
Y36418D02*
D03*
Y38386D02*
D03*
Y40355D02*
D03*
Y42323D02*
D03*
X34222D02*
D03*
Y40355D02*
D03*
Y38386D02*
D03*
Y36418D02*
D03*
Y34449D02*
D03*
Y32481D02*
D03*
Y117126D02*
D03*
Y119094D02*
D03*
Y121063D02*
D03*
Y123031D02*
D03*
Y125000D02*
D03*
Y126968D02*
D03*
X49242D02*
D03*
Y125000D02*
D03*
Y123031D02*
D03*
Y121063D02*
D03*
Y119094D02*
D03*
Y117126D02*
D03*
X53120Y44291D02*
D03*
Y42323D02*
D03*
Y40354D02*
D03*
Y38386D02*
D03*
Y36417D02*
D03*
Y34449D02*
D03*
X68140D02*
D03*
Y36417D02*
D03*
Y38386D02*
D03*
Y40354D02*
D03*
Y42323D02*
D03*
Y44291D02*
D03*
D56*
X36417Y154331D02*
D03*
X65945Y154330D02*
D03*
D57*
X62008Y144882D02*
D03*
X60039D02*
D03*
X58071D02*
D03*
X56102D02*
D03*
X54134D02*
D03*
X52165D02*
D03*
X50197D02*
D03*
X48228D02*
D03*
X46260D02*
D03*
X44291D02*
D03*
X42323D02*
D03*
X40354D02*
D03*
D58*
X84416Y64567D02*
D03*
X82514D02*
D03*
X66699Y85433D02*
D03*
X64797D02*
D03*
X66699Y83465D02*
D03*
X64797D02*
D03*
X66699Y81496D02*
D03*
X64797D02*
D03*
X84416Y71653D02*
D03*
X82514D02*
D03*
X64994Y104921D02*
D03*
X66896D02*
D03*
X70833Y102362D02*
D03*
X68931D02*
D03*
Y104921D02*
D03*
X70833D02*
D03*
X66699Y95276D02*
D03*
X64797D02*
D03*
X73458Y88189D02*
D03*
X75361D02*
D03*
X84416Y69291D02*
D03*
X82514D02*
D03*
X69128Y88189D02*
D03*
X71030D02*
D03*
X29298Y77165D02*
D03*
X27395D02*
D03*
X29298Y80315D02*
D03*
X27395D02*
D03*
X29298Y70866D02*
D03*
X27395D02*
D03*
D59*
X65158Y100101D02*
D03*
Y102261D02*
D03*
X24016Y63290D02*
D03*
Y65450D02*
D03*
Y77070D02*
D03*
Y79230D02*
D03*
X59449Y12694D02*
D03*
Y10534D02*
D03*
X21260Y7970D02*
D03*
Y5810D02*
D03*
X81102Y13684D02*
D03*
Y15844D02*
D03*
X59449Y7379D02*
D03*
Y5219D02*
D03*
X21260Y13684D02*
D03*
Y15844D02*
D03*
X81102Y7970D02*
D03*
Y5810D02*
D03*
X65748Y64274D02*
D03*
Y66434D02*
D03*
D60*
X23622Y152953D02*
D03*
Y145472D02*
D03*
X78740Y152953D02*
D03*
Y145472D02*
D03*
D61*
X29134Y114173D02*
D03*
X25984D02*
D03*
X29134Y137795D02*
D03*
X25984D02*
D03*
X29134Y125984D02*
D03*
X25984D02*
D03*
X73228Y120079D02*
D03*
X76378D02*
D03*
X73228Y131890D02*
D03*
X76378D02*
D03*
X73228Y108268D02*
D03*
X76378D02*
D03*
Y23622D02*
D03*
X73228D02*
D03*
X76378Y35433D02*
D03*
X73228D02*
D03*
X76378Y47244D02*
D03*
X73228D02*
D03*
X25984Y53150D02*
D03*
X29134D02*
D03*
X25984Y41339D02*
D03*
X29134D02*
D03*
X25984Y29528D02*
D03*
X29134D02*
D03*
X52165Y52953D02*
D03*
X49016D02*
D03*
D62*
X56496Y52952D02*
D03*
X63976D02*
D03*
Y58859D02*
D03*
X56496D02*
D03*
D63*
X64668Y90551D02*
D03*
X66828D02*
D03*
X51474Y96850D02*
D03*
X49314D02*
D03*
X73329Y102362D02*
D03*
X75489D02*
D03*
X84545Y62205D02*
D03*
X82385D02*
D03*
X84545Y66929D02*
D03*
X82385D02*
D03*
X64668Y97638D02*
D03*
X66828D02*
D03*
X64668Y92913D02*
D03*
X66828D02*
D03*
X29427Y74016D02*
D03*
X27266D02*
D03*
X49511Y49606D02*
D03*
X51671D02*
D03*
X66828Y88189D02*
D03*
X64668D02*
D03*
D64*
X82874Y49213D02*
D03*
X90354D02*
D03*
X82874Y25591D02*
D03*
X90354D02*
D03*
X12007Y135827D02*
D03*
X19488D02*
D03*
X12008Y112205D02*
D03*
X19488D02*
D03*
D65*
X34252Y110006D02*
D03*
Y108104D02*
D03*
X61024Y111975D02*
D03*
Y110073D02*
D03*
X63386Y111975D02*
D03*
Y110073D02*
D03*
X65748Y111975D02*
D03*
Y110073D02*
D03*
X34252Y25361D02*
D03*
Y23458D02*
D03*
X42520Y60990D02*
D03*
Y59088D02*
D03*
X39370Y60990D02*
D03*
Y59088D02*
D03*
X36220Y60990D02*
D03*
Y59088D02*
D03*
X39370Y96687D02*
D03*
Y98589D02*
D03*
X42520Y96687D02*
D03*
Y98589D02*
D03*
X48819Y60990D02*
D03*
Y59088D02*
D03*
X51968Y60990D02*
D03*
Y59088D02*
D03*
X58661Y25427D02*
D03*
Y27329D02*
D03*
X63386Y25427D02*
D03*
Y27329D02*
D03*
X41339Y135990D02*
D03*
Y134088D02*
D03*
Y51345D02*
D03*
Y49443D02*
D03*
X36614Y51345D02*
D03*
Y49443D02*
D03*
X65748Y25427D02*
D03*
Y27329D02*
D03*
X68110Y53313D02*
D03*
Y51411D02*
D03*
X34252Y135990D02*
D03*
Y134088D02*
D03*
Y51345D02*
D03*
Y49443D02*
D03*
X36614Y23458D02*
D03*
Y25361D02*
D03*
X68110Y137959D02*
D03*
Y136057D02*
D03*
X61024Y25427D02*
D03*
Y27329D02*
D03*
X43701Y135990D02*
D03*
Y134088D02*
D03*
X38976Y135990D02*
D03*
Y134088D02*
D03*
Y51345D02*
D03*
Y49443D02*
D03*
X68110Y25427D02*
D03*
Y27329D02*
D03*
X36614Y135990D02*
D03*
Y134088D02*
D03*
X68110Y110073D02*
D03*
Y111975D02*
D03*
X65748Y137959D02*
D03*
Y136057D02*
D03*
Y69521D02*
D03*
Y71423D02*
D03*
D66*
X49213Y13828D02*
D03*
X51181D02*
D03*
X53150D02*
D03*
Y5856D02*
D03*
X51181D02*
D03*
X49213D02*
D03*
D67*
X56150Y12796D02*
D03*
Y10826D02*
D03*
Y8858D02*
D03*
Y6889D02*
D03*
X46213D02*
D03*
Y8858D02*
D03*
Y10826D02*
D03*
Y12796D02*
D03*
D68*
X61417Y64567D02*
D03*
X58268D02*
D03*
X55118D02*
D03*
X51968D02*
D03*
X48819D02*
D03*
X45669D02*
D03*
X42520D02*
D03*
X39370D02*
D03*
X36220D02*
D03*
X33071D02*
D03*
X61417Y67716D02*
D03*
X58268D02*
D03*
X55118D02*
D03*
X51968D02*
D03*
X48819D02*
D03*
X45669D02*
D03*
X42520D02*
D03*
X39370D02*
D03*
X36220D02*
D03*
X33071D02*
D03*
X61417Y70866D02*
D03*
X58268D02*
D03*
X55118D02*
D03*
X51968D02*
D03*
X48819D02*
D03*
X45669D02*
D03*
X42520D02*
D03*
X39370D02*
D03*
X36220D02*
D03*
X33071D02*
D03*
X61417Y74016D02*
D03*
X58268D02*
D03*
X55118D02*
D03*
X51968D02*
D03*
X48819D02*
D03*
X45669D02*
D03*
X42520D02*
D03*
X39370D02*
D03*
X36220D02*
D03*
X33071D02*
D03*
X61417Y77165D02*
D03*
X58268D02*
D03*
X55118D02*
D03*
X51968D02*
D03*
X48819D02*
D03*
X45669D02*
D03*
X42520D02*
D03*
X39370D02*
D03*
X36220D02*
D03*
X33071D02*
D03*
X61417Y80315D02*
D03*
X58268D02*
D03*
X55118D02*
D03*
X51968D02*
D03*
X48819D02*
D03*
X45669D02*
D03*
X42520D02*
D03*
X39370D02*
D03*
X36220D02*
D03*
X33071D02*
D03*
X61417Y83464D02*
D03*
X58268D02*
D03*
X55118D02*
D03*
X51968D02*
D03*
X48819D02*
D03*
X45669D02*
D03*
X42520D02*
D03*
X39370D02*
D03*
X36220D02*
D03*
X33071D02*
D03*
X61417Y86614D02*
D03*
X58268D02*
D03*
X55118D02*
D03*
X51968D02*
D03*
X48819D02*
D03*
X45669D02*
D03*
X42520D02*
D03*
X39370D02*
D03*
X36220D02*
D03*
X33071D02*
D03*
X61417Y89764D02*
D03*
X58268D02*
D03*
X55118D02*
D03*
X51968D02*
D03*
X48819D02*
D03*
X45669D02*
D03*
X42520D02*
D03*
X39370D02*
D03*
X36220D02*
D03*
X33071D02*
D03*
X61417Y92913D02*
D03*
X58268D02*
D03*
X55118D02*
D03*
X51968D02*
D03*
X48819D02*
D03*
X45669D02*
D03*
X42520D02*
D03*
X39370D02*
D03*
X36220D02*
D03*
X33071D02*
D03*
D69*
X24016Y71063D02*
D03*
Y67913D02*
D03*
Y84842D02*
D03*
Y81693D02*
D03*
X5906Y71063D02*
D03*
Y67913D02*
D03*
Y84842D02*
D03*
Y81693D02*
D03*
X42717Y8465D02*
D03*
Y5315D02*
D03*
D70*
X82874Y76968D02*
D03*
X77362D02*
D03*
X81496Y58268D02*
D03*
X87008D02*
D03*
X77559D02*
D03*
X72047D02*
D03*
X82874Y84449D02*
D03*
X77362D02*
D03*
D71*
X99213Y98425D02*
D03*
Y86614D02*
D03*
Y74803D02*
D03*
Y62992D02*
D03*
D72*
X11811Y149606D02*
D03*
X90551D02*
D03*
X11811Y11811D02*
D03*
X90551D02*
D03*
D73*
X3150Y124016D02*
D03*
Y112205D02*
D03*
Y135827D02*
D03*
Y25591D02*
D03*
Y49213D02*
D03*
Y37402D02*
D03*
X99213Y124016D02*
D03*
Y135827D02*
D03*
Y112205D02*
D03*
Y49213D02*
D03*
Y25591D02*
D03*
Y37402D02*
D03*
M02*
