M48
;Layer_Color=9474304
;FILE_FORMAT=2:4
INCH,TZ
;TYPE=PLATED
T02F00S00C0.0315
T03F00S00C0.0472
%
G90
G05
T02
G00X236Y2559
M15
G01X394
M16
G00X236Y3740
M15
G01X394
M16
G00X236Y4921
M15
G01X394
M16
G00X236Y11220
M15
G01X394
M16
G00X236Y12402
M15
G01X394
M16
G00X236Y13583
M15
G01X394
M16
G00X9843Y13583
M15
G01X10000
M16
G00X9843Y12402
M15
G01X10000
M16
G00X9843Y11220
M15
G01X10000
M16
G00X9843Y4921
M15
G01X10000
M16
G00X9843Y3740
M15
G01X10000
M16
G00X9843Y2559
M15
G01X10000
M16
T03
G00X9882Y6299
M15
G01X9961
M16
G00X9882Y7480
M15
G01X9961
M16
G00X9882Y8661
M15
G01X9961
M16
G00X9882Y9843
M15
G01X9961
M16
M17
M30
