M48
;Layer_Color=9474304
;FILE_FORMAT=2:4
INCH,TZ
;TYPE=PLATED
T01F00S00C0.0059
T04F00S00C0.0787
%
T01
X1161Y1909
Y2028
Y2146
X1280
Y2028
Y1909
X1398
X1516
Y2028
X1398
Y2146
X1516
X1634
X1634Y2028
Y1909
X1752
Y2028
Y2146
X2362Y2106
X2382Y2362
X3006
X2854Y1969
X3425Y2146
X3661Y2343
X3878Y2756
X4272
X4469
X4665Y2992
X4924Y3248
Y3445
Y3642
Y3839
X5312Y4035
Y4232
Y4429
X5571Y4685
X5768Y4921
X5965
X6358
X6378Y4173
Y3937
X6142
X6260Y3819
Y4055
X6497
Y3819
X6378Y3701
X6142
X6024Y3819
Y4055
X6142Y4173
X7146Y3937
X7146Y3780
X7575Y3839
X7874Y3917
Y3701
Y3484
Y3150
X7854Y2953
X7575Y3248
X6752Y3150
X7067Y2736
Y2539
Y2224
X6811
X6575
X6437Y2362
X6102
X5827Y2362
X5807Y2165
X5984Y1693
X6246Y1100
X6497Y610
X6694
X7087
X7481
X7678
X7841Y1083
X8071Y1870
X7874Y2087
X7638Y2362
X8484Y2146
Y2028
Y1909
X8602
X8720
X8839
Y2028
Y2146
X8720
X8602
Y2028
X8720
X8957
Y1909
X9075
Y2028
Y2146
X8957
X8976Y3031
X8858
X8740
X8622
X8504
Y3150
X8622
X8740
X8858
X8976
X9094
Y3031
Y3268
X8976
X8858
X8740
X8622
X8504
Y3386
X8622
X8740
X8858
X8976
X9094
Y3504
X8976
X8858
X8740
X8622
X8504
X9331Y3169
Y3051
X9449
Y3169
X9567
Y3051
X9685
Y3169
X9803
Y3051
Y4232
Y4350
X9685
Y4232
X9567
Y4350
X9449
Y4232
X9331
Y4350
X9094Y5098
X8976
X8858
X8740
X8622
Y5217
X8740
X8858
X8976
X9094
Y5335
X8976
X8858
X8740
X8622
Y5453
X8740
X8858
X8976
X9094
Y5571
X8976
X8858
X8740
X8622
X8701Y5709
Y5827
Y5945
X8976Y6004
Y6122
Y6240
X8442Y6457
X8445Y5807
X7874Y5512
X7854Y5315
X7579Y5020
X7638Y4724
X7575Y4429
X7874
X7854Y4134
X7230Y5315
X7205Y5709
Y5827
Y5945
X6822Y5787
X6704
X6787Y6486
X6906
X7024
Y6998
Y7116
X6906
X6787
Y6998
X6906
X6575Y7146
X7402Y7165
Y7047
X7205Y7520
Y7638
Y7756
X7736Y8327
Y8445
Y8563
X7536Y8819
X6919Y9055
X6801
X6683
X6467Y9291
X6467Y9764
X6201Y9980
Y10236
X5965
X5827Y10827
X6102
X6299
X6575
X6811
X7008Y11004
X6890Y10512
X7205Y10236
X7795Y9931
Y9813
Y9695
X8134Y9911
Y10030
X8252
X8370
Y9911
X8252
Y9400
X8134
X8370
X8622Y9370
Y9252
Y9134
Y9016
Y8898
Y8780
Y8661
Y8543
Y8425
Y8307
X8740Y8307
Y8425
Y8543
Y8661
X8858
X8976
Y8543
X8858
Y8425
X8976
Y8307
X8858
X9094
Y8425
Y8543
Y8661
Y8780
Y8898
Y9016
Y9134
Y9252
Y9370
X8976
X8858
X8740
Y9252
Y9134
X8858
Y9016
X8740Y9016
Y8898
Y8780
X8858
Y8898
X8976
Y9016
Y9134
Y9252
X8858
X8976Y8780
X9337Y10033
X9094Y10689
Y10807
Y10925
Y11043
X8976
Y10925
X8858
X8740
Y10807
X8622
Y10925
Y11043
X8740
X8858
Y10807
Y10689
X8976
Y10807
X8740Y10689
X8622Y10689
X7854Y11417
X7874Y11732
Y11929
Y12126
X7575Y12303
X7146Y12244
Y12402
X6497Y12520
X6378Y12402
X6142
X6024Y12283
Y12520
X6260
Y12283
X6142Y12165
X6378
X6497Y12283
X6378Y12638
X6142
X5312Y12697
Y12894
Y12500
X5312Y12303
X4924Y12106
Y11909
X4925Y11713
X4665Y11457
X4469Y11220
X4272
X3878
X3858Y11969
Y12205
X4094
X3976Y12087
Y12323
X4212
Y12087
X4094Y11969
X3740Y12087
Y12323
X3858Y12441
X4094
X3091Y12362
X3091Y12205
X2661Y12303
X2362Y12224
Y12441
Y12657
Y12992
X2382Y13189
Y13484
X2598Y13780
X2362Y14055
X2362Y14547
X2244
X2480
Y15295
X2362
X2244
X4035Y14961
X4232
X4429
X4626
X5020
X5217
X6004
X6201
X6358Y13799
X6575Y13799
X6811Y13996
Y13386
X6358
X5965
X5768
X5571Y13543
X5571Y13799
X5374
X5177
X4803Y13780
X4409
X4134Y13780
X3799Y13780
X3661Y13917
X3425
X3169
Y13602
Y13406
X3484Y12992
X2661Y12894
X1732Y12874
Y12992
Y13110
X1614
Y12992
Y12874
Y12756
X1732
Y12638
X1614
X1496
X1378
X1260
X1142
Y12756
X1260
X1378
X1496
Y12874
X1378
X1260
X1142
Y12992
X1260
X1378
X1496
Y13110
X1378
X1260
X1142
X906Y13091
Y12973
X787Y12973
Y13091
X669
Y12973
X551
Y13091
X433
Y12973
Y11910
Y11791
X551
Y11910
X669
Y11791
X787
Y11910
X906
Y11791
X1142Y11043
Y10925
Y10807
Y10689
Y10571
X1260
X1378
X1496
X1614
Y10689
X1496
X1378
X1260
Y10807
X1378
X1496
X1614
Y10925
X1496
X1378
X1260
Y11043
X1378
X1496
X1614
X2382Y10827
X2362Y10630
X3006Y10827
X2953Y9961
Y9409
X2461Y9350
X2047Y9272
Y9449
Y9055
Y8858
Y8484
Y8071
Y7362
Y7106
Y6850
Y6614
X2343Y6110
X2461
X2579
X2736Y6319
X2874Y6457
X3031
X3307Y6457
X3622
X3622Y6772
Y7087
X3937
Y6772
Y6457
X4252
X4567
Y6772
Y7087
X4252
Y6772
Y7402
X3937
X3780Y7559
X3937Y7717
Y8031
X3622
X3307
Y7711
Y7402
X3622Y7717
X4252Y7717
X4567
X4882Y8032
X5197
X5512Y8031
Y7717
Y7402
Y7087
Y6772
X5197
Y7087
X4882
Y6772
X5197Y6457
X5512
X5827
X5827Y6772
Y7402
Y7717
Y8032
X6142Y8661
X5512Y8661
X5354Y8504
X5039
X4882Y8661
Y8976
X5197
X5512
X5827Y8976
Y9291
X5197Y9291
X4882
X4252
X3937
X3622
Y8976
X3937
X4252
X4626Y9843
X5354Y9980
X5512Y9646
X5827Y11339
X6752Y11417
X7575Y11713
X7854Y12598
X7874Y12894
Y13091
X7638Y13189
X7854Y13780
X7874Y14035
Y14547
X7756
X7992
Y15295
X7874
X7756
X7230Y13780
X5963Y13801
X5768Y13799
X5571Y13150
X4941Y13032
X4843Y12874
X4646Y13406
X4488Y13256
X4606Y14035
X4035
X906Y14134
Y14252
X787
X669
X551
X433
Y14134
X551
X669
X787
X2382Y12008
X2362Y11713
X2598Y11417
X3602Y9862
X2953Y8858
Y8307
X906Y8701
X531Y7992
X706Y7776
X669Y5531
Y5413
X551
Y5531
X433
Y5413
X1142Y5453
Y5335
Y5217
Y5098
X1260
Y5217
Y5335
Y5453
X1378
X1496
Y5335
X1614
Y5217
Y5098
X1496
Y5217
X1378
Y5335
Y5098
X1614Y5453
X2736Y5787
X2854
X3346Y6004
X3425Y5315
X3661
X3937
X4134
X4409
X4232Y5512
X4409Y4803
X3484Y4724
X3228Y5138
X2382Y4724
X2362Y4409
Y4213
Y4016
X2661Y3839
X3091Y3898
Y3740
X3740Y3622
Y3858
X3858Y3976
X4094
X4212Y3858
Y3622
X4094Y3504
X3858
X3976Y3622
Y3858
X4094Y3740
X3858
X3425Y2756
X2598Y2953
X2362Y3051
Y3248
X2382Y3543
X1732Y3504
X1614
X1496
X1378
X1260
X1142
Y3386
X1260
X1378
X1496
X1614
X1732
Y3268
X1614
X1496
X1378
X1260
X1142
Y3150
X1260
X1378
X1496
X1614
X1732
Y3031
X1614
X1496
X1378
X1260
X1142
X906Y3051
Y3169
X787
Y3051
X669
Y3169
X551
Y3051
X433
Y3169
Y4232
Y4350
X551
Y4232
X669
Y4350
X787
Y4232
X906Y4232
Y4350
X2661Y4429
X2697Y1083
X2396
X2560Y610
X2757
X3150
X3544
X3741
X3904Y1083
X4350Y1280
X4921Y1260
X5118
X5315
X5621Y695
X4921Y586
X4621Y689
X4146Y2055
X4331Y2461
X5728Y2874
X5492Y5335
X5984Y5453
X5453Y5906
X4882
X6289Y6220
X5197Y7402
X9449Y6890
Y11791
X9331
Y11909
X9449Y11909
X9567
Y11791
X9685
Y11909
X9803
Y11791
Y12972
Y13091
X9685
Y12972
X9567
Y13091
X9449
Y12972
X9331
Y13091
X9094Y13110
X8976
X8858
X8740
X8622
X8504
Y12992
X8622
X8740
X8858
X8976
X9094
Y12874
X8976
X8858
X8740
X8622
X8504
Y12756
X8622
X8740
X8858
X8976
X9094
Y12638
X8976
X8858
X8740
X8622
X8504
X9331Y14134
Y14252
X9449Y14252
Y14134
X9567
Y14252
X9685
Y14134
X9803
Y14252
X660Y10295
Y10177
X541
Y10295
X3347Y1555
X7284
T04
X1181Y1181
X9055
Y14961
X1181
M30
