G04*
G04 #@! TF.GenerationSoftware,Altium Limited,Altium Designer,24.8.2 (39)*
G04*
G04 Layer_Color=255*
%FSLAX25Y25*%
%MOIN*%
G70*
G04*
G04 #@! TF.SameCoordinates,48314569-60EA-4F9E-AFC7-09D6B67492A0*
G04*
G04*
G04 #@! TF.FilePolarity,Positive*
G04*
G01*
G75*
%ADD14C,0.06299*%
G04:AMPARAMS|DCode=15|XSize=78.74mil|YSize=137.8mil|CornerRadius=19.68mil|HoleSize=0mil|Usage=FLASHONLY|Rotation=180.000|XOffset=0mil|YOffset=0mil|HoleType=Round|Shape=RoundedRectangle|*
%AMROUNDEDRECTD15*
21,1,0.07874,0.09843,0,0,180.0*
21,1,0.03937,0.13780,0,0,180.0*
1,1,0.03937,-0.01968,0.04921*
1,1,0.03937,0.01968,0.04921*
1,1,0.03937,0.01968,-0.04921*
1,1,0.03937,-0.01968,-0.04921*
%
%ADD15ROUNDEDRECTD15*%
G36*
G01X203775Y93307D02*
G02X211811Y101343I8823J-787D01*
G01Y98769D01*
G03X206349Y93307I787J-6250D01*
G01X203775D01*
D02*
G37*
G36*
G01X213386Y101343D02*
G02X221422Y93307I-787J-8823D01*
G01X218848D01*
G03X213386Y98769I-6250J-787D01*
G01Y101343D01*
D02*
G37*
G36*
G01X221422Y91732D02*
G02X213386Y83697I-8823J787D01*
G01Y86270D01*
G03X218848Y91732I-787J6250D01*
G01X221422D01*
D02*
G37*
G36*
G01X211811Y83697D02*
G02X203775Y91732I787J8823D01*
G01X206349D01*
G03X211811Y86270I6250J787D01*
G01Y83697D01*
D02*
G37*
G36*
G01X101575D02*
G02X93539Y91732I787J8823D01*
G01X96112D01*
G03X101575Y86270I6250J787D01*
G01Y83697D01*
D02*
G37*
G36*
G01X111185Y91732D02*
G02X103150Y83697I-8823J787D01*
G01Y86270D01*
G03X108612Y91732I-787J6250D01*
G01X111185D01*
D02*
G37*
G36*
G01X103150Y101343D02*
G02X111185Y93307I-787J-8823D01*
G01X108612D01*
G03X103150Y98769I-6250J-787D01*
G01Y101343D01*
D02*
G37*
G36*
G01X93539Y93307D02*
G02X101575Y101343I8823J-787D01*
G01Y98769D01*
G03X96112Y93307I787J-6250D01*
G01X93539D01*
D02*
G37*
D14*
X145669Y88189D02*
D03*
X169291D02*
D03*
X153543D02*
D03*
X161417D02*
D03*
X177165D02*
D03*
X185039D02*
D03*
X137795D02*
D03*
X129921D02*
D03*
D15*
X117618D02*
D03*
X197343D02*
D03*
M02*
