G04*
G04 #@! TF.GenerationSoftware,Altium Limited,Altium Designer,23.8.1 (32)*
G04*
G04 Layer_Physical_Order=2*
G04 Layer_Color=16711680*
%FSLAX25Y25*%
%MOIN*%
G70*
G04*
G04 #@! TF.SameCoordinates,48C9B784-376A-4F07-8638-CCFCEE87AEF8*
G04*
G04*
G04 #@! TF.FilePolarity,Positive*
G04*
G01*
G75*
%ADD14C,0.06299*%
G04:AMPARAMS|DCode=15|XSize=78.74mil|YSize=137.8mil|CornerRadius=19.68mil|HoleSize=0mil|Usage=FLASHONLY|Rotation=180.000|XOffset=0mil|YOffset=0mil|HoleType=Round|Shape=RoundedRectangle|*
%AMROUNDEDRECTD15*
21,1,0.07874,0.09843,0,0,180.0*
21,1,0.03937,0.13780,0,0,180.0*
1,1,0.03937,-0.01968,0.04921*
1,1,0.03937,0.01968,0.04921*
1,1,0.03937,0.01968,-0.04921*
1,1,0.03937,-0.01968,-0.04921*
%
%ADD15ROUNDEDRECTD15*%
%ADD16C,0.05906*%
%ADD17R,0.15748X0.11811*%
%ADD18R,0.05906X0.07874*%
G36*
X142000Y92000D02*
X149000D01*
Y84000D01*
X125500D01*
Y104500D01*
X142000D01*
Y92000D01*
D02*
G37*
G36*
X189500Y84000D02*
X166000D01*
Y92000D01*
X173000D01*
Y104500D01*
X189500D01*
Y84000D01*
D02*
G37*
G36*
G01X213386Y83697D02*
G03X221422Y91732I-787J8823D01*
G01X218848D01*
G02X213386Y86270I-6250J787D01*
G01Y83697D01*
D02*
G37*
G36*
G01X203775Y91732D02*
G03X211811Y83697I8823J787D01*
G01Y86270D01*
G02X206349Y91732I787J6250D01*
G01X203775D01*
D02*
G37*
G36*
G01X211811Y101343D02*
G03X203775Y93307I787J-8823D01*
G01X206349D01*
G02X211811Y98769I6250J-787D01*
G01Y101343D01*
D02*
G37*
G36*
G01X221422Y93307D02*
G03X213386Y101343I-8823J-787D01*
G01Y98769D01*
G02X218848Y93307I-787J-6250D01*
G01X221422D01*
D02*
G37*
G36*
G01X111185D02*
G03X103150Y101343I-8823J-787D01*
G01Y98769D01*
G02X108612Y93307I-787J-6250D01*
G01X111185D01*
D02*
G37*
G36*
G01X101575Y101343D02*
G03X93539Y93307I787J-8823D01*
G01X96112D01*
G02X101575Y98769I6250J-787D01*
G01Y101343D01*
D02*
G37*
G36*
G01X93539Y91732D02*
G03X101575Y83697I8823J787D01*
G01Y86270D01*
G02X96112Y91732I787J6250D01*
G01X93539D01*
D02*
G37*
G36*
G01X103150Y83697D02*
G03X111185Y91732I-787J8823D01*
G01X108612D01*
G02X103150Y86270I-6250J787D01*
G01Y83697D01*
D02*
G37*
D14*
X145669Y88189D02*
D03*
X169291D02*
D03*
X153543D02*
D03*
X161417D02*
D03*
X177165D02*
D03*
X185039D02*
D03*
X137795D02*
D03*
X129921D02*
D03*
D15*
X117618D02*
D03*
X197343D02*
D03*
D16*
X153468Y88264D02*
Y95548D01*
X151575Y97441D02*
X153468Y95548D01*
Y88264D02*
X153543Y88189D01*
X151575Y97441D02*
Y98425D01*
X163386Y97441D02*
Y98425D01*
X161417Y88189D02*
X161493Y88264D01*
Y95548D01*
X163386Y97441D01*
D17*
X181102Y98425D02*
D03*
X133858D02*
D03*
D18*
X163386D02*
D03*
X151575D02*
D03*
M02*
