G04*
G04 #@! TF.GenerationSoftware,Altium Limited,Altium Designer,24.8.2 (39)*
G04*
G04 Layer_Color=0*
%FSLAX25Y25*%
%MOIN*%
G70*
G04*
G04 #@! TF.SameCoordinates,48314569-60EA-4F9E-AFC7-09D6B67492A0*
G04*
G04*
G04 #@! TF.FilePolarity,Positive*
G04*
G01*
G75*
%ADD23C,0.00100*%
G36*
X212598Y87402D02*
X212094D01*
X211105Y87598D01*
X210174Y87984D01*
X209336Y88544D01*
X208623Y89257D01*
X208063Y90095D01*
X207677Y91027D01*
X207480Y92016D01*
Y92520D01*
Y93024D01*
X207677Y94013D01*
X208063Y94944D01*
X208623Y95782D01*
X209336Y96495D01*
X210174Y97055D01*
X211105Y97441D01*
X212094Y97638D01*
X212598D01*
X213103D01*
X214091Y97441D01*
X215023Y97055D01*
X215861Y96495D01*
X216574Y95782D01*
X217134Y94944D01*
X217520Y94013D01*
X217717Y93024D01*
Y92520D01*
Y92016D01*
X217520Y91027D01*
X217134Y90095D01*
X216574Y89257D01*
X215861Y88544D01*
X215023Y87984D01*
X214091Y87598D01*
X213103Y87402D01*
X212598D01*
D01*
D02*
G37*
G36*
X102362D02*
X101858D01*
X100869Y87598D01*
X99938Y87984D01*
X99100Y88544D01*
X98387Y89257D01*
X97826Y90095D01*
X97441Y91027D01*
X97244Y92016D01*
Y92520D01*
Y93024D01*
X97441Y94013D01*
X97826Y94944D01*
X98387Y95782D01*
X99100Y96495D01*
X99938Y97055D01*
X100869Y97441D01*
X101858Y97638D01*
X102362D01*
X102866D01*
X103855Y97441D01*
X104787Y97055D01*
X105625Y96495D01*
X106338Y95782D01*
X106898Y94944D01*
X107284Y94013D01*
X107480Y93024D01*
Y92520D01*
Y92016D01*
X107284Y91027D01*
X106898Y90095D01*
X106338Y89257D01*
X105625Y88544D01*
X104787Y87984D01*
X103855Y87598D01*
X102866Y87402D01*
X102362D01*
D01*
D02*
G37*
G36*
X200787Y78740D02*
Y55118D01*
X114173D01*
Y78740D01*
X200787D01*
D02*
G37*
D23*
X92520Y86614D02*
Y98425D01*
D02*
G02*
X100394Y106299I7874J0D01*
G01*
X214567D01*
D02*
G02*
X222441Y98425I0J-7874D01*
G01*
Y86614D01*
D02*
G02*
X214567Y78740I-7874J0D01*
G01*
X100394D01*
D02*
G02*
X92520Y86614I0J7874D01*
G01*
M02*
